<svg width="201" height="200" viewBox="0 0 201 200" fill="none" xmlns="http://www.w3.org/2000/svg">
<g clip-path="url(#clip0_1_1391)">
<path fill-rule="evenodd" clip-rule="evenodd" d="M76.9193 98.9767C84.9785 121.706 93.9086 134.407 102.871 135.734C114.817 137.502 189.292 146.609 189.292 146.609C189.292 146.609 188.601 53.1948 146.991 2.25458C116.401 24.0076 82.7449 49.4439 77.5326 53.5479C70.9348 58.7431 68.8606 76.2466 76.9193 98.9767Z" fill="url(#paint0_linear_1_1391)"/>
<path fill-rule="evenodd" clip-rule="evenodd" d="M100.553 183.652C100.553 183.652 96.1338 183.929 89.8256 184.338C86.6261 184.545 82.9408 184.779 79.1002 185.044C71.7514 185.549 63.8352 186.134 57.6592 186.549C52.1706 186.918 48.0629 187.173 46.9712 187.166C46.1104 187.161 45.3909 187.614 44.8949 188.328C44.3056 189.176 44.0453 190.404 44.2576 191.527C44.4352 192.465 44.9338 193.327 45.808 193.861C46.4666 194.263 47.3482 194.483 48.4912 194.369C50.2277 194.196 61.52 192.897 75.5594 191.247C81.2682 190.577 87.4325 189.85 93.592 189.112C103.191 187.961 112.781 186.791 120.632 185.833C131.229 184.539 138.655 183.618 138.655 183.618C138.812 183.599 138.925 183.457 138.906 183.301C138.888 183.144 138.746 183.031 138.589 183.05C138.589 183.05 131.151 183.87 120.541 185.056C112.681 185.934 103.08 187.006 93.4736 188.095C87.3093 188.793 81.1434 189.502 75.4325 190.158C61.3989 191.77 50.1157 193.075 48.3797 193.245C47.537 193.328 46.8821 193.192 46.3968 192.896C45.809 192.537 45.4869 191.949 45.368 191.318C45.2117 190.494 45.3904 189.593 45.8218 188.972C46.0986 188.573 46.4842 188.292 46.9648 188.294C48.9984 188.303 61.432 187.444 73.8186 186.486C76.5365 186.276 79.2522 186.059 81.8549 185.84C92.1013 184.98 100.595 184.19 100.595 184.19C100.743 184.178 100.854 184.048 100.842 183.9C100.831 183.752 100.701 183.641 100.553 183.652Z" fill="black"/>
<path fill-rule="evenodd" clip-rule="evenodd" d="M138.837 179.202L139.213 176.937C139.24 176.786 139.338 176.658 139.476 176.593C139.614 176.527 139.775 176.533 139.908 176.608L144.474 179.169L153.155 179.237C153.386 179.239 153.584 179.402 153.629 179.629C153.674 179.856 153.554 180.082 153.341 180.173L149.235 181.909L155.225 186.419C155.4 186.55 155.461 186.784 155.373 186.984C155.285 187.184 155.071 187.297 154.856 187.257L144.714 185.306L139.06 188.082C138.947 188.139 138.811 188.128 138.709 188.052C138.608 187.976 138.558 187.849 138.581 187.724L139.384 183.734C139.411 183.588 139.552 183.491 139.698 183.518C139.844 183.545 139.941 183.686 139.914 183.832L139.35 187.176L144.466 184.494C144.548 184.451 144.642 184.438 144.732 184.455L153.059 185.974L147.984 182.177C147.845 182.073 147.772 181.904 147.794 181.731C147.815 181.56 147.925 181.413 148.085 181.345L150.802 180.192L144.342 180.138C144.259 180.137 144.179 180.115 144.107 180.075L140.021 177.754L139.659 179.747C139.62 179.972 139.418 180.132 139.19 180.119L132.754 179.658L134.185 180.331C134.329 180.395 134.393 180.565 134.328 180.709C134.263 180.853 134.093 180.917 133.95 180.852L130.811 179.498C130.661 179.431 130.581 179.266 130.62 179.106C130.659 178.947 130.807 178.838 130.971 178.848L138.837 179.202Z" fill="black"/>
<path fill-rule="evenodd" clip-rule="evenodd" d="M102.896 184.141L142.173 181.402C142.277 181.395 142.357 181.305 142.35 181.2C142.343 181.096 142.253 181.017 142.148 181.023L102.848 183.406C102.645 183.419 102.492 183.595 102.504 183.797C102.518 184.001 102.693 184.154 102.896 184.141Z" fill="black"/>
<path fill-rule="evenodd" clip-rule="evenodd" d="M47.5873 189.379C47.9425 189.691 48.1676 190.259 48.198 190.864C48.2263 191.433 48.0935 192.034 47.7271 192.508C47.6593 192.588 47.6689 192.708 47.7484 192.776C47.8284 192.843 47.9484 192.834 48.0161 192.754C48.502 192.234 48.726 191.538 48.7558 190.863C48.791 190.064 48.5271 189.303 48.0988 188.849C47.9527 188.708 47.719 188.712 47.5777 188.858C47.4369 189.004 47.4412 189.238 47.5873 189.379Z" fill="black"/>
<path fill-rule="evenodd" clip-rule="evenodd" d="M72.1651 186.703C72.5582 187.055 73.0355 187.775 73.1331 188.609C73.2089 189.261 73.0574 189.98 72.4643 190.65C72.3918 190.725 72.3945 190.846 72.4702 190.918C72.546 190.99 72.6665 190.988 72.7385 190.912C73.4947 190.177 73.7219 189.339 73.6894 188.565C73.6462 187.545 73.1214 186.635 72.6766 186.173C72.5305 186.032 72.2969 186.036 72.1555 186.182C72.0147 186.329 72.0185 186.562 72.1651 186.703Z" fill="black"/>
<path fill-rule="evenodd" clip-rule="evenodd" d="M132.145 182.089C132.536 182.236 132.662 182.633 132.681 183.042C132.707 183.582 132.559 184.152 132.402 184.413C132.343 184.5 132.365 184.618 132.452 184.677C132.538 184.736 132.656 184.714 132.715 184.627C132.977 184.288 133.288 183.44 133.238 182.699C133.202 182.152 132.955 181.679 132.443 181.415C132.257 181.333 132.04 181.417 131.957 181.603C131.875 181.788 131.958 182.006 132.145 182.089Z" fill="black"/>
<path fill-rule="evenodd" clip-rule="evenodd" d="M101.156 51.4058C97.456 45.4906 91.2917 38.8975 84.1973 35.5924C79.3317 33.3258 74.032 32.6063 68.7851 34.634C65.2336 36.0138 62.2005 39.0154 59.8581 43.2852C57.3152 47.922 55.5808 54.0623 54.8496 61.1983C53.5248 74.121 55.4917 90.3279 61.8485 106.782C67.7115 121.933 75.5792 136.084 84.1936 145.541C92.7013 154.88 101.961 159.633 110.717 156.526C116.484 154.46 119.813 149.011 121.636 142.696C125.062 130.826 123.209 115.961 123.209 115.961C123.19 115.805 123.048 115.693 122.892 115.711C122.735 115.729 122.622 115.872 122.641 116.029C122.641 116.029 124.279 130.741 120.771 142.442C118.98 148.417 115.857 153.622 110.367 155.538C105.773 157.156 101.051 156.461 96.3835 154.037C92.5221 152.032 88.7008 148.848 85.0149 144.793C76.4896 135.414 68.7045 121.389 62.9019 106.375C56.6048 90.1098 54.6517 74.089 55.9397 61.3092C56.6427 54.3338 58.3115 48.329 60.7765 43.7866C62.9717 39.7418 65.7915 36.8618 69.1392 35.5375C74.128 33.5546 79.1872 34.2276 83.8539 36.3402C90.8629 39.513 96.9931 45.9242 100.701 51.6943C100.781 51.8196 100.948 51.857 101.073 51.7775C101.199 51.698 101.236 51.5311 101.156 51.4058Z" fill="black"/>
<path fill-rule="evenodd" clip-rule="evenodd" d="M91.2262 60.6079C89.5521 57.4794 87.159 54.9882 84.6603 53.625C82.4657 52.4276 80.1857 52.1039 78.2086 52.906C76.7291 53.5076 75.3035 54.9007 74.1281 57.0442C72.5206 59.9754 71.3595 64.3322 71.1078 69.9114C70.7782 77.1983 72.0081 86.5892 75.7617 97.6287C79.6129 108.907 84.0854 117.801 88.4731 124.132C91.8134 128.952 95.1089 132.299 98.0369 134.104C100.243 135.465 102.26 135.958 103.946 135.619C106.609 135.073 108.284 132.829 109.28 130.083C111.059 125.174 110.701 118.72 110.701 118.72C110.694 118.563 110.561 118.44 110.403 118.447C110.245 118.454 110.123 118.588 110.13 118.745C110.13 118.745 110.332 125.042 108.498 129.791C107.568 132.199 106.121 134.222 103.758 134.66C102.272 134.941 100.522 134.427 98.591 133.214C95.7697 131.443 92.6049 128.18 89.3814 123.504C85.0545 117.229 80.6315 108.428 76.8299 97.2644C73.1121 86.3908 71.8998 77.1402 72.1873 69.9578C72.4033 64.569 73.4657 60.3551 74.9814 57.5055C76.0091 55.5722 77.2294 54.274 78.5451 53.7124C80.2945 52.9631 82.3275 53.2618 84.3067 54.289C86.7345 55.5487 89.0779 57.8975 90.7537 60.8671C90.8257 60.9978 90.9894 61.0452 91.1195 60.9738C91.2502 60.9018 91.2977 60.738 91.2262 60.6079Z" fill="black"/>
<path fill-rule="evenodd" clip-rule="evenodd" d="M100.079 76.6244C100.267 77.0905 100.456 77.5662 100.653 78.051C100.843 78.5156 101.035 78.9892 101.237 79.4713C101.411 79.8884 101.593 80.3108 101.776 80.7422C102.176 81.6905 102.585 82.6804 102.993 83.7209C103.521 85.0686 104.035 86.506 104.558 88.0398C104.656 88.3268 104.756 88.6164 104.858 88.9086C105.09 89.5684 105.33 90.2409 105.561 90.939C105.582 91.0148 105.661 91.059 105.737 91.0377C105.813 91.0169 105.857 90.938 105.837 90.8617C105.67 90.1422 105.505 89.443 105.32 88.7652C105.238 88.4638 105.152 88.1678 105.062 87.8761C104.581 86.3172 104.049 84.8729 103.519 83.515C103.11 82.4676 102.695 81.4734 102.278 80.5257C102.088 80.0953 101.9 79.6734 101.706 79.2628C101.483 78.7886 101.255 78.3294 101.029 77.8804C100.793 77.4121 100.555 76.9588 100.324 76.5118C100.293 76.4446 100.213 76.4148 100.145 76.4457C100.078 76.4766 100.048 76.5566 100.079 76.6244Z" fill="black"/>
<path fill-rule="evenodd" clip-rule="evenodd" d="M71.9076 144.154C72.7748 143.786 74.0905 143.307 75.4681 142.833C78.2564 141.874 81.2926 140.929 81.2926 140.929C81.4425 140.879 81.6041 140.961 81.6537 141.11C81.7028 141.26 81.6212 141.422 81.4713 141.471C81.4713 141.471 78.4766 142.512 75.7252 143.548C74.2265 144.112 72.8004 144.674 71.9812 145.068L71.4836 144.973C69.682 143.118 67.9748 141.167 66.379 139.124C65.3172 137.765 64.3054 136.364 63.338 134.934C57.6238 126.489 53.45 116.989 50.7022 107.656C48.0532 98.6539 46.722 89.8011 46.6484 82.1829C46.6249 79.7429 46.7353 77.4288 46.97 75.2784C47.4046 71.2939 48.2702 67.8688 49.515 65.2187C49.5577 65.1248 49.6398 65.0549 49.739 65.0277C50.6665 64.7861 51.8228 64.4939 52.8958 64.2352C53.691 64.0443 54.4404 63.8715 55.0164 63.752C55.1614 63.72 55.3054 63.8112 55.338 63.9568C55.37 64.1019 55.2782 64.2459 55.1332 64.2779C54.5657 64.4128 53.8281 64.6059 53.0452 64.8181C52.0452 65.0896 50.9721 65.3931 50.0852 65.6507C48.9716 68.2416 48.2542 71.5515 47.914 75.3717C47.7252 77.4917 47.6553 79.768 47.7001 82.168C47.8404 89.6976 49.1604 98.44 51.7854 107.337C54.5076 116.564 58.6244 125.953 64.2318 134.333C65.1796 135.749 66.1705 137.137 67.1982 138.494C68.6825 140.454 70.2457 142.35 71.9076 144.154Z" fill="black"/>
<path fill-rule="evenodd" clip-rule="evenodd" d="M71.1068 143.626C67.1398 145.32 54.7948 149.521 43.1276 152.808C35.7174 154.896 28.5846 156.627 24.0417 157.035C23.2038 157.111 22.1228 156.637 20.879 155.745C18.0817 153.738 14.6161 149.607 11.5302 143.885C7.72276 136.824 4.50463 127.346 3.86463 116.405C3.18143 104.84 3.77343 95.8323 4.96756 89.1203C6.17183 82.3545 7.97823 77.9459 9.7217 75.635C10.2086 74.9897 10.6849 74.515 11.1404 74.2126C11.5153 73.9635 11.8646 73.8339 12.1857 73.8515C14.6166 73.9753 22.4566 73.4521 30.8332 71.9769C37.2374 70.8489 43.9526 69.1598 48.8049 66.8329C48.9478 66.7657 49.0092 66.595 48.942 66.4521C48.8748 66.3097 48.7046 66.2478 48.5617 66.315C44.6449 68.1145 39.5249 69.467 34.3473 70.4649C30.5532 71.1966 26.7276 71.7337 23.318 72.1107C18.1276 72.6846 13.9052 72.8857 12.2454 72.7859C11.4428 72.7401 10.4742 73.1811 9.48596 74.2409C7.91636 75.9241 6.19583 79.243 4.8577 84.4067C3.0321 91.4494 1.8929 101.971 2.73716 116.471C3.39263 127.599 6.6673 137.238 10.5462 144.416C13.7393 150.324 17.3478 154.569 20.2417 156.636C21.7628 157.722 23.119 158.211 24.142 158.114C28.7276 157.676 35.9324 155.923 43.3948 153.738C55.063 150.321 67.3686 145.877 71.3217 144.12C71.4582 144.061 71.5206 143.902 71.4614 143.765C71.4017 143.629 71.2428 143.566 71.1068 143.626Z" fill="black"/>
<path fill-rule="evenodd" clip-rule="evenodd" d="M116.65 76.0452C113.564 70.2558 108.68 63.4937 104.087 64.523C99.4935 65.5524 98.277 82.9758 92.8578 82.7214C87.4386 82.467 88.3271 58.2206 99.405 53.8228C110.483 49.4254 117.366 62.1844 117.366 62.1844C112.76 51.8468 95.5741 37.9476 97.9175 35.2585C107.371 24.4137 122.228 44.1396 127.115 57.8185C132.001 71.4969 133.178 80.4745 133.178 80.4745C133.178 80.4745 142.954 89.2569 152.939 91.2958C162.924 93.3348 179.514 94.7865 187.13 102.864C194.745 110.943 197.731 125.168 190.489 136.524C190.863 140.928 190.592 143.528 196.258 145.005C195.438 146.23 194.541 147.168 194.541 147.168C194.541 147.168 196.671 147.362 197.896 147.128C197.103 150.228 194.159 156.343 185.978 154.975C185.685 156.451 185.829 157.603 181.986 157.755C178.143 157.906 168.63 158.764 164.35 158.38C163.176 159.357 153.265 161.613 149.639 158.247C145.683 157.945 139.948 158.255 141.038 155.704C143.77 149.307 149.418 132.152 139.432 120.549C128.96 108.382 109.383 117.239 102.778 112.016C99.0167 109.041 101.654 101.279 105.448 94.3817C109.974 86.1556 115.141 82.6916 115.141 82.6916C114.457 82.226 113.771 82.0724 113.167 81.8596C114.097 81.1284 115.321 80.4425 116.527 79.938C115.434 78.6836 114.168 78.2628 113.027 77.8489C113.027 77.8489 115.222 76.491 116.65 76.0452Z" fill="white"/>
<path fill-rule="evenodd" clip-rule="evenodd" d="M121.731 75.5565C121.113 72.9837 120.286 69.4781 118.635 65.3512C118.578 65.2136 118.644 65.0562 118.782 64.9997C118.92 64.9437 119.077 65.0098 119.133 65.1474C120.961 69.5389 121.841 73.2344 122.513 75.8482C124.288 76.6392 125.317 78.0296 125.529 79.0088C125.691 79.7592 125.427 80.3106 124.84 80.4808C124.059 80.7074 123.493 80.4381 123.033 79.6824C122.66 79.068 122.356 78.0776 122.026 76.7624L121.965 76.5192C121.41 76.3069 120.779 76.1602 120.078 76.1144C118.456 76.0082 116.467 76.4434 114.154 77.8146C114.757 77.9922 115.249 78.2152 115.645 78.4434C116.727 79.0653 117.127 79.741 117.127 79.741C117.218 79.8898 117.223 80.076 117.142 80.2301C117.06 80.3842 116.903 80.4834 116.729 80.4914C116.729 80.4914 115.983 80.5432 114.967 81.1458C114.7 81.3042 114.416 81.5005 114.123 81.7416L114.225 81.7741C114.83 81.9714 115.27 82.2125 115.27 82.2125C115.424 82.2973 115.525 82.4546 115.538 82.6306C115.551 82.8061 115.474 82.9768 115.333 83.0829C111.731 85.8274 108.548 90.237 106.117 94.6957C103.044 100.33 101.162 106.046 101.282 108.61C101.341 109.909 102.244 111.051 103.501 111.906C104.65 112.688 106.102 113.226 107.567 113.406C109.089 113.594 112.585 113.174 116.8 113.076C119.725 113.008 122.99 113.093 126.186 113.598C130.447 114.271 134.582 115.698 137.646 118.503C137.764 118.607 137.774 118.789 137.669 118.906C137.564 119.024 137.383 119.034 137.265 118.929C134.232 116.296 130.191 115.045 126.056 114.485C122.907 114.059 119.702 114.044 116.831 114.143C112.541 114.292 108.983 114.693 107.433 114.508C105.434 114.267 103.458 113.425 102.083 112.226C100.947 111.235 100.221 110 100.159 108.662C100.036 105.993 101.929 100.018 105.143 94.1624C107.504 89.861 110.572 85.6237 114.018 82.7954C113.98 82.7816 113.941 82.7682 113.901 82.7549C113.63 82.6642 113.317 82.5821 113.002 82.5506C112.805 82.5314 112.638 82.4024 112.57 82.2178C112.501 82.0328 112.545 81.8258 112.682 81.684C113.303 81.0445 113.913 80.5949 114.457 80.2781C114.95 79.9917 115.393 79.8114 115.751 79.6978C115.523 79.508 115.212 79.293 114.805 79.0936C114.305 78.8477 113.667 78.6258 112.865 78.4952C112.673 78.4648 112.519 78.3208 112.478 78.1309C112.436 77.9416 112.514 77.7458 112.675 77.6381C116.492 75.108 119.563 74.8946 121.731 75.5565ZM122.793 76.9122C122.885 77.2498 122.975 77.5624 123.065 77.8488C123.257 78.4578 123.446 78.9442 123.664 79.293C123.916 79.6962 124.205 79.877 124.623 79.7496C124.734 79.716 124.783 79.6216 124.796 79.5048C124.815 79.3426 124.774 79.1485 124.694 78.9362C124.441 78.2733 123.791 77.4882 122.793 76.9122Z" fill="black"/>
<path fill-rule="evenodd" clip-rule="evenodd" d="M139.411 121.109C140.778 123.064 142.619 126.243 143.753 130.308C144.569 133.236 145.022 136.626 144.629 140.362C144.343 143.302 143.837 145.777 143.291 147.845C142.365 151.347 141.3 153.689 140.866 155.126C140.689 155.71 140.614 156.17 140.653 156.513C140.691 156.852 140.82 157.111 141.039 157.303C141.224 157.465 141.504 157.618 141.867 157.734C142.334 157.884 142.95 157.995 143.634 158.067C146.067 158.326 149.369 158.157 149.369 158.157C149.526 158.154 149.652 158.024 149.649 157.866C149.646 157.708 149.516 157.582 149.358 157.586C149.358 157.586 146.783 157.54 144.546 157.255C143.738 157.153 142.976 157.018 142.405 156.839C142.111 156.747 141.876 156.652 141.742 156.527C141.715 156.501 141.716 156.46 141.711 156.417C141.705 156.354 141.709 156.283 141.717 156.205C141.748 155.921 141.854 155.567 142.003 155.134C142.548 153.549 143.681 151.025 144.591 147.293C145.065 145.354 145.471 143.089 145.713 140.465C146.039 136.583 145.515 133.075 144.588 130.063C143.317 125.934 141.31 122.748 139.847 120.794C139.76 120.673 139.591 120.646 139.471 120.733C139.35 120.82 139.324 120.989 139.411 121.109Z" fill="black"/>
<path fill-rule="evenodd" clip-rule="evenodd" d="M134.618 82.1378C136.804 84.0108 140.718 86.8364 145.701 89.1692C149.399 90.901 153.685 92.358 158.286 92.9596C165.709 93.9218 175.267 95.4524 182.763 100.149C187.357 103.028 191.176 107.104 193.211 113.013C194.932 117.987 194.703 122.786 193.605 127.17C192.244 132.598 189.549 137.397 187.491 141.124C186.048 143.736 184.923 145.849 184.703 147.301C184.478 148.796 184.46 150.038 184.541 151.093C184.647 152.476 184.921 153.535 185.107 154.424C185.262 155.161 185.367 155.763 185.182 156.351C185.158 156.43 185.068 156.483 184.959 156.552C184.762 156.676 184.495 156.788 184.171 156.895C182.791 157.348 180.469 157.658 177.826 157.842C173.768 158.124 168.967 158.106 165.621 157.803C165.464 157.787 165.324 157.901 165.308 158.058C165.292 158.215 165.406 158.355 165.564 158.371C169.516 158.818 175.5 158.92 179.932 158.551C182.061 158.373 183.838 158.08 184.884 157.678C185.604 157.401 186.013 157.021 186.133 156.658C186.354 155.993 186.318 155.307 186.173 154.498C185.979 153.412 185.585 152.069 185.571 150.129C185.565 149.347 185.62 148.466 185.776 147.465C185.988 146.096 187.093 144.123 188.46 141.66C190.565 137.867 193.309 132.975 194.696 127.443C195.845 122.862 196.063 117.846 194.261 112.65C192.114 106.491 188.128 102.236 183.316 99.2615C175.669 94.534 165.941 93.0519 158.39 92.1378C153.864 91.5948 149.641 90.2039 145.989 88.5436C141.044 86.2951 137.146 83.5511 134.966 81.7271C134.853 81.6306 134.683 81.645 134.587 81.7586C134.491 81.8716 134.505 82.0418 134.618 82.1378Z" fill="black"/>
<path fill-rule="evenodd" clip-rule="evenodd" d="M149.431 127.579C150.827 131.362 151.372 135.413 151.421 139.42C151.503 145.978 150.245 152.42 149.091 157.381C148.951 157.994 149.189 158.541 149.777 158.988C150.689 159.683 152.641 160.136 154.839 160.309C157.548 160.523 160.63 160.341 162.457 159.848C163.051 159.687 163.523 159.488 163.835 159.269C164.152 159.046 164.333 158.787 164.402 158.526C164.573 157.874 164.688 156.225 164.643 153.866C164.591 151.153 164.355 147.474 163.774 143.294C163.573 141.852 163.33 140.352 163.037 138.812C162.409 135.508 161.558 132.024 160.48 128.537C160.436 128.386 160.277 128.298 160.126 128.341C159.974 128.385 159.886 128.544 159.931 128.695C160.868 132.194 161.553 135.684 162.078 138.979C162.322 140.513 162.532 142.004 162.711 143.435C163.231 147.572 163.476 151.205 163.521 153.885C163.557 156.09 163.475 157.631 163.315 158.24C163.31 158.258 163.29 158.267 163.273 158.283C163.221 158.332 163.155 158.377 163.077 158.421C162.846 158.552 162.535 158.665 162.163 158.766C160.428 159.239 157.499 159.404 154.923 159.212C153.29 159.09 151.798 158.831 150.865 158.391C150.609 158.271 150.401 158.142 150.259 157.99C150.154 157.878 150.093 157.757 150.125 157.613C151.216 152.575 152.403 146.037 152.204 139.403C152.081 135.324 151.433 131.211 149.935 127.387C149.882 127.248 149.726 127.178 149.587 127.231C149.449 127.284 149.379 127.44 149.431 127.579Z" fill="black"/>
<path fill-rule="evenodd" clip-rule="evenodd" d="M195.299 145.344C194.794 145.257 194.195 145.089 193.588 144.816C193.079 144.586 192.562 144.287 192.093 143.909C191.015 143.039 190.165 141.787 190.149 140.104C190.14 139.946 190.26 139.811 190.418 139.802C190.576 139.793 190.711 139.913 190.72 140.071C190.841 141.193 191.385 142.034 192.08 142.671C192.656 143.198 193.346 143.569 194.008 143.834C194.864 144.178 195.674 144.338 196.136 144.305C196.322 144.294 196.502 144.377 196.614 144.527C196.726 144.676 196.755 144.872 196.691 145.048C196.544 145.462 196.303 145.876 196.033 146.25C195.943 146.375 195.851 146.495 195.758 146.609C195.982 146.585 196.216 146.555 196.449 146.518C196.921 146.443 197.388 146.343 197.732 146.196C197.922 146.114 198.142 146.145 198.302 146.275C198.462 146.406 198.536 146.615 198.495 146.817C198.254 147.937 197.932 148.922 197.535 149.781C196.771 151.433 195.762 152.634 194.661 153.49C192.047 155.522 188.923 155.613 187.27 155.24C187.124 155.21 187.03 155.068 187.059 154.922C187.088 154.777 187.231 154.682 187.376 154.711C188.912 154.981 191.769 154.757 194.091 152.788C194.909 152.095 195.654 151.182 196.262 149.996C196.632 149.273 196.952 148.449 197.199 147.511C197.012 147.552 196.819 147.589 196.626 147.62C195.512 147.801 194.368 147.834 194.368 147.834C194.13 147.841 193.914 147.697 193.828 147.476C193.742 147.255 193.804 147.003 193.984 146.847C193.984 146.847 194.481 146.415 194.956 145.816C195.074 145.668 195.192 145.509 195.299 145.344Z" fill="black"/>
<path fill-rule="evenodd" clip-rule="evenodd" d="M134.135 85.7108C133.994 82.0916 133.513 78.1908 132.695 74.2046C132.365 72.5998 131.977 70.9828 131.541 69.3652C129.346 61.2356 125.968 53.082 122.026 46.442C118.725 40.883 115.002 36.3908 111.191 33.8425C107.551 31.4089 103.819 30.7273 100.258 32.4558C98.5084 33.306 97.6604 34.3358 97.4407 35.4825C97.221 36.6302 97.6418 37.9476 98.5826 39.4164C100.179 41.9092 103.273 44.9342 106.674 48.5204C108.634 50.5876 110.7 52.842 112.623 55.3054C114.44 57.6345 116.137 60.1444 117.496 62.8585C117.565 63.0004 117.736 63.0601 117.878 62.9913C118.02 62.9225 118.08 62.7513 118.011 62.6094C116.705 59.8185 115.059 57.219 113.269 54.8121C111.386 52.2798 109.351 49.9566 107.4 47.8409C104.105 44.267 101.06 41.291 99.5026 38.8308C98.7538 37.6473 98.3436 36.6121 98.5223 35.691C98.6919 34.818 99.4076 34.1001 100.742 33.4553C103.947 31.9054 107.292 32.5876 110.564 34.779C114.259 37.2532 117.848 41.6297 121.057 47.0185C124.96 53.5748 128.263 61.6372 130.514 69.6484C130.963 71.2436 131.372 72.8361 131.743 74.4142C132.663 78.3353 133.323 82.1668 133.596 85.7417C133.605 85.89 133.732 86.0036 133.881 85.995C134.029 85.9865 134.143 85.859 134.135 85.7108Z" fill="black"/>
<path fill-rule="evenodd" clip-rule="evenodd" d="M114.07 52.3915C111.663 49.1958 109.511 46.8448 108.417 45.3307C108.096 44.8864 107.868 44.52 107.763 44.2267C107.684 44.0048 107.677 43.8432 107.847 43.759C108.153 43.6059 108.554 43.6107 109.031 43.7424C109.554 43.887 110.159 44.1878 110.828 44.6368C113.262 46.2715 116.488 49.8512 119.616 55.263C121.855 59.135 124.022 63.9478 125.848 69.6491C126.462 71.5664 127.044 73.5814 127.572 75.6982C127.904 77.0235 128.219 78.3867 128.506 79.7904C128.521 79.8678 128.596 79.919 128.674 79.904C128.751 79.8891 128.802 79.8144 128.787 79.7366C128.538 78.3206 128.266 76.9424 127.965 75.6048C127.484 73.4651 126.945 71.4256 126.348 69.4918C124.572 63.727 122.36 58.8827 120.106 54.9798C116.923 49.4694 113.613 45.8422 111.129 44.1867C110.401 43.7019 109.74 43.384 109.17 43.231C108.542 43.0624 108.015 43.0923 107.613 43.2976C107.274 43.472 107.145 43.7488 107.216 44.1387C107.282 44.5003 107.561 44.9974 108.027 45.6182C108.578 46.352 109.389 47.2795 110.367 48.4032C111.385 49.5728 112.586 50.9536 113.857 52.5563C113.902 52.615 113.987 52.6256 114.045 52.5803C114.104 52.535 114.115 52.4502 114.07 52.3915Z" fill="black"/>
<path fill-rule="evenodd" clip-rule="evenodd" d="M113.004 57.6618C110.675 55.2762 106.402 52.7055 102.028 52.9834C98.6486 53.1983 95.1964 55.0911 92.519 60.0661C89.8257 65.0991 88.6422 70.3514 88.6353 74.5418C88.63 77.5546 89.2428 80.0287 90.2918 81.5263C91.0481 82.6063 92.0332 83.209 93.1836 83.2442C94.702 83.2911 95.9452 82.0895 96.9494 80.1407C98.5958 76.9466 99.727 71.7237 101.345 68.2325C101.837 67.1701 102.369 66.2735 102.99 65.6741C103.453 65.2271 103.962 64.9519 104.549 64.9471C106.717 64.9141 108.7 66.1157 110.407 67.6975C114.01 71.0357 116.381 76.1199 116.381 76.1199C116.445 76.2645 116.614 76.3295 116.758 76.2655C116.902 76.2015 116.968 76.0325 116.904 75.8879C116.904 75.8879 114.649 70.569 111.042 67.0309C109.964 65.9743 108.765 65.0773 107.476 64.5141C106.543 64.1071 105.561 63.8789 104.544 63.8762C103.02 63.8778 101.776 65.0543 100.764 66.9285C99.046 70.1103 97.8993 75.3343 96.3286 78.8367C95.8465 79.9119 95.3302 80.8197 94.7281 81.4229C94.279 81.8735 93.7873 82.1455 93.2166 82.129C92.1553 82.0981 91.3377 81.3295 90.7494 80.1098C90.0854 78.7338 89.7297 76.801 89.7169 74.5397C89.694 70.4858 90.7836 65.3951 93.3382 60.4991C95.7654 55.8218 98.9334 53.9786 102.082 53.7274C106.252 53.3946 110.36 55.8031 112.621 58.0415C112.726 58.1466 112.897 58.1471 113.003 58.0426C113.108 57.9375 113.108 57.7669 113.004 57.6618Z" fill="black"/>
<path fill-rule="evenodd" clip-rule="evenodd" d="M118.208 73.7349C117.113 71.6122 116.051 69.761 115.016 68.1615C113.648 66.0495 112.332 64.3695 111.074 63.0645C108.238 60.1236 105.685 59.065 103.496 59.1796C101.708 59.273 100.143 60.153 98.8262 61.4874C97.1147 63.2218 95.8214 65.7295 94.9931 68.2266C94.1382 70.8053 93.7787 73.3706 93.9451 75.0543C94.0235 75.849 94.2251 76.457 94.5259 76.8101C94.8342 77.1711 95.1201 77.2357 95.3478 77.1557C95.4673 77.1135 95.5841 77.0255 95.6891 76.8831C95.8001 76.7317 95.9051 76.5066 96.0022 76.2175C96.1814 75.6853 96.3467 74.9167 96.5334 74.0074C96.7318 73.0399 96.9569 71.9103 97.2609 70.7386C97.5995 69.4309 98.0353 68.0703 98.6475 66.825C99.2683 65.5615 100.067 64.4149 101.132 63.5685C101.194 63.5205 101.206 63.4303 101.157 63.3679C101.109 63.3055 101.019 63.2943 100.957 63.3423C99.7099 64.281 98.7835 65.6069 98.0806 67.0687C97.3025 68.6869 96.7947 70.4709 96.4177 72.0693C96.1041 73.4005 95.8833 74.6021 95.6582 75.4661C95.551 75.8789 95.4459 76.2111 95.327 76.4357C95.2913 76.5034 95.255 76.5599 95.2161 76.6015C95.199 76.6197 95.1873 76.6389 95.1675 76.6399C95.143 76.641 95.1211 76.6218 95.0923 76.6005C95.0449 76.5658 94.9963 76.5167 94.9435 76.4549C94.5985 76.0479 94.4561 75.2287 94.4593 74.1749C94.4641 72.593 94.8294 70.5039 95.5281 68.4042C96.3307 65.9903 97.5734 63.5615 99.2278 61.8831C100.442 60.6522 101.877 59.8271 103.526 59.737C105.6 59.6228 107.984 60.6709 110.698 63.4303C111.951 64.705 113.273 66.3402 114.662 68.3951C115.724 69.9658 116.83 71.7765 117.97 73.8613C118.004 73.9269 118.086 73.9519 118.152 73.9173C118.217 73.8821 118.242 73.8005 118.208 73.7349Z" fill="black"/>
<path fill-rule="evenodd" clip-rule="evenodd" d="M111.012 91.3527C108.676 91.6999 112.679 99.3031 114.925 98.5052C117.171 97.7073 113.044 91.0508 111.012 91.3527Z" fill="black"/>
<path fill-rule="evenodd" clip-rule="evenodd" d="M117.406 90.451C115.288 90.5476 118.251 97.3697 120.326 96.8814C122.401 96.393 119.249 90.367 117.406 90.451Z" fill="black"/>
<path fill-rule="evenodd" clip-rule="evenodd" d="M125.642 106.129C124.034 107.511 128.751 109.255 130.818 107.465C132.454 106.048 127.544 104.495 125.642 106.129Z" fill="black"/>
</g>
<defs>
<linearGradient id="paint0_linear_1_1391" x1="73.5662" y1="100.094" x2="170.117" y2="64.5956" gradientUnits="userSpaceOnUse">
<stop stop-color="#E4E6FF"/>
<stop offset="0.45" stop-color="#FFEAFF"/>
<stop offset="1" stop-color="white" stop-opacity="0"/>
</linearGradient>
<clipPath id="clip0_1_1391">
<rect width="200" height="200" fill="white" transform="translate(0.5)"/>
</clipPath>
</defs>
</svg>
