<svg width="24" height="24" viewBox="0 0 24 24" fill="none" xmlns="http://www.w3.org/2000/svg">
<path fill-rule="evenodd" clip-rule="evenodd" d="M11.999 5.5C11.178 5.49997 10.5105 6.1663 10.5105 6.97926C10.5105 7.41031 10.6985 7.81991 11.0253 8.10093L11.369 8.39642C12.2454 9.14999 12.7496 10.2484 12.7496 11.4042V11.5129L20.441 14.9572C21.389 15.3817 21.9992 16.3236 21.9992 17.3623C21.9992 18.8177 20.8194 19.9975 19.364 19.9975H4.63521C3.17982 19.9975 2 18.8177 2 17.3623C2 16.3236 2.61018 15.3817 3.55818 14.9572L11.2496 11.5129V11.4042C11.2496 10.6854 10.9361 10.0024 10.3911 9.53381L10.0474 9.23832C9.38914 8.67234 9.01048 7.84739 9.01048 6.97926C9.01048 5.32979 10.3577 3.99995 11.9991 4C13.6507 4.00005 15.0061 5.33818 15.0061 6.99782V8.00251H13.5061V6.99782C13.5061 6.17465 12.8303 5.50003 11.999 5.5ZM11.9996 12.8205L4.17124 16.3262C3.76286 16.5091 3.5 16.9148 3.5 17.3623C3.5 17.9892 4.00825 18.4975 4.63521 18.4975H19.364C19.991 18.4975 20.4992 17.9892 20.4992 17.3623C20.4992 16.9148 20.2364 16.5091 19.828 16.3262L11.9996 12.8205Z" fill="#0B1F33"/>
</svg>
