<svg width="24" height="24" viewBox="0 0 24 24" fill="none" xmlns="http://www.w3.org/2000/svg">
<path fill-rule="evenodd" clip-rule="evenodd" d="M12.3894 3.17415L11.5 3.00586V3.91107V15.3813C10.6084 14.9461 9.41911 14.8304 8.21206 15.1428C6.04664 15.7031 4.644 17.4288 5.07916 18.9973C5.51433 20.5657 7.62252 21.3829 9.78794 20.8226C11.7108 20.325 13.0322 18.9085 12.9994 17.4992H13V4.8529C15.2087 5.45907 16.6102 6.62265 17.1911 7.96729C17.8351 9.45782 17.5727 11.4136 15.8475 13.5246L17.0089 14.4738C18.9741 12.0692 19.4981 9.52497 18.5681 7.37238C17.6495 5.24631 15.4151 3.74664 12.3894 3.17415ZM11.4687 17.3439C11.5264 17.5521 11.5001 17.8961 11.1509 18.3258C10.8028 18.754 10.1958 19.1679 9.38691 19.3772C8.57798 19.5865 7.8381 19.5212 7.3149 19.3184C6.79004 19.115 6.58911 18.8297 6.53133 18.6215C6.47356 18.4133 6.4999 18.0692 6.84911 17.6396C7.19721 17.2113 7.80416 16.7975 8.61309 16.5882C9.42202 16.3788 10.1619 16.4441 10.6851 16.6469C11.21 16.8504 11.4109 17.1356 11.4687 17.3439Z" fill="#0B1F33"/>
</svg>
