<svg width="24" height="24" viewBox="0 0 24 24" fill="none" xmlns="http://www.w3.org/2000/svg">
<path fill-rule="evenodd" clip-rule="evenodd" d="M16.9487 16.9392C19.6818 14.2111 19.6818 9.78792 16.9487 7.05978L18.0104 6C21.3298 9.31344 21.3299 14.6856 18.0104 17.999L16.9487 16.9392ZM7.05126 7.06001C4.3182 9.78815 4.3182 14.2113 7.05126 16.9395L5.98956 17.9992C2.67015 14.6858 2.67015 9.31367 5.98956 6.00023L7.05126 7.06001ZM9.99969 11.9995C9.99969 10.9004 10.8928 10.0051 11.9998 10.0051C13.1068 10.0051 14 10.9004 14 11.9995C14 13.0986 13.1068 13.9938 11.9998 13.9938C10.8928 13.9938 9.99969 13.0986 9.99969 11.9995ZM8.49969 11.9995C8.49969 10.0696 10.0668 8.50513 11.9998 8.50513C13.9329 8.50513 15.5 10.0696 15.5 11.9995C15.5 13.9294 13.9329 15.4938 11.9998 15.4938C10.0668 15.4938 8.49969 13.9294 8.49969 11.9995Z" fill="#0B1F33"/>
</svg>
