<svg width="16" height="16" viewBox="0 0 16 16" fill="none" xmlns="http://www.w3.org/2000/svg">
<path fill-rule="evenodd" clip-rule="evenodd" d="M11.9164 10.1895C11.8151 10.249 11.6859 10.2298 11.6062 10.1434L9.78305 8.16836C9.69466 8.07259 9.69466 7.92498 9.78305 7.82922L11.6044 5.85614C11.6841 5.76977 11.8132 5.7506 11.9146 5.81009L13.1665 6.54469C14.2779 7.19688 14.2779 8.80379 13.1665 9.45598L11.9164 10.1895ZM10.1509 11.2255C10.2885 11.1447 10.3163 10.9575 10.2081 10.8403L8.78955 9.30353C8.69056 9.19629 8.52114 9.19629 8.42215 9.30353L3.72751 14.3894C3.59275 14.5354 3.67713 14.764 3.87456 14.7417C4.09938 14.7163 4.32551 14.6438 4.54094 14.5174L10.1509 11.2255ZM2.42939 13.5842C2.31212 13.7113 2.10483 13.6821 2.05917 13.5154C2.02011 13.3727 1.99902 13.2209 1.99902 13.0618V2.93891C1.99902 2.7788 2.02037 2.62611 2.0599 2.48266C2.10579 2.31612 2.3129 2.28717 2.43008 2.41411L7.42864 7.82922C7.51704 7.92498 7.51704 8.07259 7.42864 8.16836L2.42939 13.5842ZM3.87787 1.25938C3.68032 1.23668 3.59567 1.46536 3.73054 1.61147L8.42215 6.69404C8.52114 6.80128 8.69056 6.80128 8.78955 6.69404L10.2062 5.15928C10.3145 5.04205 10.2867 4.85483 10.1491 4.77409L4.54095 1.48327C4.32657 1.35747 4.1016 1.2851 3.87787 1.25938Z" fill="#0B1F33"/>
</svg>
