<svg width="16" height="16" viewBox="0 0 16 16" fill="none" xmlns="http://www.w3.org/2000/svg">
<path fill-rule="evenodd" clip-rule="evenodd" d="M2.00439 6.02152C2.00439 4.16788 3.30152 2.50195 5.25 2.50195C6.39923 2.50195 7.29536 3.07538 7.88139 3.84981C7.92317 3.90501 7.96347 3.96133 8.00231 4.01867C8.04069 3.96178 8.08052 3.90588 8.12181 3.85108C8.70583 3.07588 9.60028 2.50195 10.75 2.50195C12.6958 2.50195 14.0027 4.16489 14.0027 6.02152C14.0027 7.70624 12.9854 9.17443 11.8756 10.3456C11.0214 11.2469 10.0133 12.0696 9.18693 12.7439C8.93341 12.9508 8.69699 13.1438 8.48737 13.3207C8.20796 13.5566 7.79917 13.5566 7.51976 13.3207C7.31014 13.1438 7.07372 12.9508 6.8202 12.7439C5.99383 12.0696 4.98575 11.2469 4.13158 10.3456C3.02175 9.17443 2.00439 7.70624 2.00439 6.02152ZM8.75417 6.5H7.25417C7.25417 5.88619 7.04925 5.23594 6.68527 4.75495C6.33172 4.28775 5.85077 4.00195 5.25 4.00195C4.29944 4.00195 3.50439 4.81599 3.50439 6.02152C3.50439 7.10638 4.17428 8.20993 5.22035 9.3138C6.00148 10.1381 6.89879 10.8707 7.71315 11.5356C7.81127 11.6157 7.9082 11.6949 8.00356 11.7731C8.09893 11.6949 8.19586 11.6157 8.29398 11.5356C9.10834 10.8707 10.0057 10.1381 10.7868 9.3138C11.8329 8.20993 12.5027 7.10638 12.5027 6.02152C12.5027 4.81897 11.7032 4.00195 10.75 4.00195C10.1497 4.00195 9.67125 4.28726 9.31986 4.75367C8.95783 5.23421 8.75417 5.88476 8.75417 6.5Z" fill="#0B1F33"/>
</svg>
