<svg width="24" height="24" viewBox="0 0 24 24" fill="none" xmlns="http://www.w3.org/2000/svg">
<path fill-rule="evenodd" clip-rule="evenodd" d="M8 10.3998H9.6V11.9998V14.3998H14.4V11.9998V10.3998H16H17.6373L12 4.76259L6.36274 10.3998H8ZM8 14.9998V13.5998V11.9998H6.4H4.91421C4.02331 11.9998 3.57714 10.9227 4.20711 10.2927L11.2929 3.20696C11.6834 2.81643 12.3166 2.81643 12.7071 3.20696L19.7929 10.2927C20.4229 10.9227 19.9767 11.9998 19.0858 11.9998H17.6H16V13.5998V14.9998C16 15.5521 15.5523 15.9998 15 15.9998H9C8.44772 15.9998 8 15.5521 8 14.9998ZM2 18.9999V15.9999H3.5V18.9999C3.5 19.276 3.72386 19.4999 4 19.4999H20C20.2761 19.4999 20.5 19.276 20.5 18.9999V15.9999H22V18.9999C22 20.1044 21.1046 20.9999 20 20.9999H4C2.89543 20.9999 2 20.1044 2 18.9999Z" fill="#0B1F33"/>
</svg>
