<svg width="16" height="16" viewBox="0 0 16 16" fill="none" xmlns="http://www.w3.org/2000/svg">
<path fill-rule="evenodd" clip-rule="evenodd" d="M6.5 7.49989V8.99989V10.4999H9.5V8.99989V7.49989H11H11.3787L8 4.12121L4.62132 7.49989H5H6.5ZM5 8.99989V10.4999V11.2499C5 11.6641 5.33579 11.9999 5.75 11.9999H10.25C10.6642 11.9999 11 11.6641 11 11.2499V10.4999V8.99989H12.5H13.1893C13.8575 8.99989 14.1921 8.19203 13.7197 7.71956L8.53033 2.53022C8.23744 2.23732 7.76256 2.23732 7.46967 2.53022L2.28033 7.71956C1.80786 8.19203 2.14248 8.99989 2.81066 8.99989H3.5H5ZM2.5 12.9999V10.9999H1V12.9999C1 14.1045 1.89543 14.9999 3 14.9999H13C14.1046 14.9999 15 14.1045 15 12.9999V10.9999H13.5V12.9999C13.5 13.276 13.2761 13.4999 13 13.4999H3C2.72386 13.4999 2.5 13.276 2.5 12.9999Z" fill="#0B1F33"/>
</svg>
