<svg width="48" height="24" viewBox="0 0 48 24" fill="none" xmlns="http://www.w3.org/2000/svg">
<path d="M6.98555 24C3.89359 24 1.97073 20.6418 3.53589 17.9752L11.1809 4.9504C12.6173 2.50318 15.2426 1 18.0802 1H43.9996C46.2087 1 47.9996 2.79086 47.9996 5V20C47.9996 22.2091 46.2087 24 43.9996 24H6.98555Z" fill="#86909C"/>
<path d="M27.819 9.71863C27.763 9.81663 27.7024 9.88896 27.637 9.93563C27.5764 9.97763 27.4994 9.99863 27.406 9.99863C27.308 9.99863 27.2007 9.96362 27.084 9.89362C26.972 9.81895 26.8367 9.73729 26.678 9.64862C26.5194 9.55995 26.3327 9.48063 26.118 9.41062C25.908 9.33596 25.6584 9.29863 25.369 9.29863C25.1077 9.29863 24.879 9.3313 24.683 9.39663C24.487 9.4573 24.3214 9.54362 24.186 9.65562C24.0554 9.76762 23.9574 9.90296 23.892 10.0616C23.8267 10.2156 23.794 10.3859 23.794 10.5726C23.794 10.8106 23.8594 11.0089 23.99 11.1676C24.1254 11.3263 24.3027 11.4616 24.522 11.5736C24.7414 11.6856 24.991 11.7859 25.271 11.8746C25.551 11.9633 25.838 12.0589 26.132 12.1616C26.426 12.2596 26.713 12.3763 26.993 12.5116C27.273 12.6423 27.5227 12.8103 27.742 13.0156C27.9614 13.2163 28.1364 13.4636 28.267 13.7576C28.4024 14.0516 28.47 14.4086 28.47 14.8286C28.47 15.2859 28.3907 15.7153 28.232 16.1166C28.078 16.5133 27.8494 16.8609 27.546 17.1596C27.2474 17.4536 26.881 17.6869 26.447 17.8596C26.013 18.0276 25.516 18.1116 24.956 18.1116C24.634 18.1116 24.3167 18.0789 24.004 18.0136C23.6914 17.9529 23.3904 17.8643 23.101 17.7476C22.8164 17.6309 22.548 17.4909 22.296 17.3276C22.044 17.1643 21.82 16.9823 21.624 16.7816L22.177 15.8786C22.2237 15.8133 22.2844 15.7596 22.359 15.7176C22.4337 15.6709 22.513 15.6476 22.597 15.6476C22.7137 15.6476 22.8397 15.6966 22.975 15.7946C23.1104 15.8879 23.2714 15.9929 23.458 16.1096C23.6447 16.2263 23.8617 16.3336 24.109 16.4316C24.361 16.5249 24.662 16.5716 25.012 16.5716C25.5487 16.5716 25.964 16.4456 26.258 16.1936C26.552 15.9369 26.699 15.5706 26.699 15.0946C26.699 14.8286 26.6314 14.6116 26.496 14.4436C26.3654 14.2756 26.1904 14.1356 25.971 14.0236C25.7517 13.9069 25.502 13.8089 25.222 13.7296C24.942 13.6503 24.6574 13.5639 24.368 13.4706C24.0787 13.3773 23.794 13.2653 23.514 13.1346C23.234 13.0039 22.9844 12.8336 22.765 12.6236C22.5457 12.4136 22.3684 12.1523 22.233 11.8396C22.1024 11.5223 22.037 11.1326 22.037 10.6706C22.037 10.3019 22.1094 9.94263 22.254 9.59263C22.4034 9.24263 22.618 8.9323 22.898 8.66163C23.178 8.39096 23.5234 8.17396 23.934 8.01063C24.3447 7.8473 24.816 7.76562 25.348 7.76562C25.9454 7.76562 26.496 7.85896 27 8.04563C27.504 8.2323 27.9334 8.49363 28.288 8.82963L27.819 9.71863Z" fill="white"/>
<path d="M32.3529 18.0009H30.4629V7.87891H32.3529V18.0009Z" fill="white"/>
<path d="M43.3132 17.0196C42.7999 17.3976 42.2515 17.6753 41.6682 17.8526C41.0895 18.0253 40.4689 18.1116 39.8062 18.1116C38.9802 18.1116 38.2312 17.9833 37.5592 17.7266C36.8919 17.4699 36.3202 17.1129 35.8442 16.6556C35.3729 16.1983 35.0089 15.6523 34.7522 15.0176C34.4955 14.3829 34.3672 13.6899 34.3672 12.9386C34.3672 12.1779 34.4909 11.4803 34.7382 10.8456C34.9855 10.2109 35.3355 9.66495 35.7882 9.20762C36.2455 8.75029 36.7985 8.39562 37.4472 8.14362C38.0959 7.89162 38.8239 7.76562 39.6312 7.76562C40.0419 7.76562 40.4245 7.7983 40.7792 7.86363C41.1385 7.92896 41.4699 8.01995 41.7732 8.13662C42.0812 8.24862 42.3612 8.38629 42.6132 8.54962C42.8652 8.71295 43.0962 8.89263 43.3062 9.08863L42.7672 9.94263C42.6832 10.0779 42.5735 10.1619 42.4382 10.1946C42.3029 10.2226 42.1559 10.1876 41.9972 10.0896C41.8432 10.0009 41.6892 9.9123 41.5352 9.82363C41.3812 9.73496 41.2085 9.65796 41.0172 9.59263C40.8305 9.5273 40.6182 9.47362 40.3802 9.43162C40.1469 9.38962 39.8762 9.36863 39.5682 9.36863C39.0689 9.36863 38.6162 9.45263 38.2102 9.62063C37.8089 9.78863 37.4659 10.0289 37.1812 10.3416C36.8965 10.6543 36.6772 11.0299 36.5232 11.4686C36.3692 11.9073 36.2922 12.3973 36.2922 12.9386C36.2922 13.5173 36.3739 14.0353 36.5372 14.4926C36.7052 14.9453 36.9385 15.3303 37.2372 15.6476C37.5405 15.9603 37.9045 16.2006 38.3292 16.3686C38.7539 16.5319 39.2275 16.6136 39.7502 16.6136C40.1235 16.6136 40.4572 16.5763 40.7512 16.5016C41.0452 16.4223 41.3322 16.3149 41.6122 16.1796V14.3386H40.3382C40.2169 14.3386 40.1212 14.3059 40.0512 14.2406C39.9859 14.1706 39.9532 14.0866 39.9532 13.9886V12.9246H43.3132V17.0196Z" fill="white"/>
</svg>
