<svg width="48" height="24" viewBox="0 0 48 24" fill="none" xmlns="http://www.w3.org/2000/svg">
<path d="M6.98555 24C3.89359 24 1.97073 20.6418 3.53589 17.9752L11.1809 4.9504C12.6173 2.50318 15.2426 1 18.0802 1H43.9996C46.2087 1 47.9996 2.79086 47.9996 5V20C47.9996 22.2091 46.2087 24 43.9996 24H6.98555Z" fill="#1D5DEB"/>
<path d="M28.4904 7.87891V9.37691H23.9964V12.373H27.7904V13.878H23.9964V18.001H22.1064V7.87891H28.4904Z" fill="white"/>
<path d="M31.5685 16.447H35.6145V18.001H29.6855V7.87891H31.5685V16.447Z" fill="white"/>
<path d="M34.2021 7.87891H35.7141C35.8774 7.87891 36.0104 7.91858 36.1131 7.99791C36.2158 8.07725 36.2928 8.17991 36.3441 8.30591L38.7311 14.48C38.8104 14.6806 38.8851 14.9023 38.9551 15.145C39.0298 15.383 39.0998 15.6326 39.1651 15.894C39.2164 15.6326 39.2748 15.383 39.3401 15.145C39.4101 14.9023 39.4848 14.6806 39.5641 14.48L41.9371 8.30591C41.9744 8.19858 42.0468 8.10058 42.1541 8.01191C42.2661 7.92325 42.4014 7.87891 42.5601 7.87891H44.0791L39.9911 18.001H38.2901L34.2021 7.87891Z" fill="white"/>
</svg>
