<svg width="24" height="24" viewBox="0 0 24 24" fill="none" xmlns="http://www.w3.org/2000/svg">
<path fill-rule="evenodd" clip-rule="evenodd" d="M16.9913 3.48242C12.5308 3.48242 8.96941 7.04371 8.96945 11.5042L7.46945 11.522C7.4694 6.22613 11.7132 1.98242 17.009 1.98242L16.9913 3.48242ZM13.6538 8.16398C12.8537 8.96408 12.3609 10.113 12.3609 11.5014L10.8609 11.5191C10.8609 9.76388 11.4908 8.21819 12.5994 7.10962C13.708 6.00105 15.2536 5.37109 17.0089 5.3711L16.9911 6.8711C15.6027 6.8711 14.4539 7.36388 13.6538 8.16398ZM18.0183 10.5286C18.0151 11.0836 17.7051 11.5687 17.25 11.8222V14.0007H18C20.2091 14.0007 22 15.7915 22 18.0007C22 20.2098 20.2091 22.0007 18 22.0007H6C3.79086 22.0007 2 20.2098 2 18.0007C2 15.7915 3.79086 14.0007 6 14.0007H15.75V11.7852C15.3408 11.5264 15.0709 11.0689 15.074 10.546C15.0788 9.73297 15.7418 9.06996 16.5549 9.06515C17.3679 9.06034 18.0232 9.71554 18.0183 10.5286ZM15.75 15.5007L6 15.5007C4.61929 15.5007 3.5 16.62 3.5 18.0007C3.5 19.3814 4.61929 20.5007 6 20.5007H18C19.3807 20.5007 20.5 19.3814 20.5 18.0007C20.5 16.62 19.3807 15.5007 18 15.5007L17.25 15.5007H15.75ZM6 17.2507L18 17.2507V18.7507L6 18.7507V17.2507Z" fill="#0B1F33"/>
</svg>
