<svg width="16" height="16" viewBox="0 0 16 16" fill="none" xmlns="http://www.w3.org/2000/svg">
<path fill-rule="evenodd" clip-rule="evenodd" d="M12.5 7C12.5 8.31147 11.7664 9.67496 10.6646 10.9426C9.75222 11.9922 8.70795 12.8371 8 13.3553C7.29205 12.8371 6.24778 11.9922 5.33543 10.9426C4.23355 9.67496 3.5 8.31147 3.5 7C3.5 4.51472 5.51472 2.5 8 2.5C10.4853 2.5 12.5 4.51472 12.5 7ZM14 7C14 10.6947 9.95522 13.8312 8.50763 14.8354C8.19901 15.0495 7.80099 15.0495 7.49237 14.8354C6.04478 13.8312 2 10.6947 2 7C2 3.68629 4.68629 1 8 1C11.3137 1 14 3.68629 14 7ZM7 7C7 6.44772 7.44772 6 8 6C8.55228 6 9 6.44772 9 7C9 7.55228 8.55228 8 8 8C7.44772 8 7 7.55228 7 7ZM8 4.5C6.61929 4.5 5.5 5.61929 5.5 7C5.5 8.38071 6.61929 9.5 8 9.5C9.38071 9.5 10.5 8.38071 10.5 7C10.5 5.61929 9.38071 4.5 8 4.5Z" fill="#0B1F33"/>
</svg>
