<svg width="16" height="16" viewBox="0 0 16 16" fill="none" xmlns="http://www.w3.org/2000/svg">
<path fill-rule="evenodd" clip-rule="evenodd" d="M5.5 5.68915L2.5 6.98005V10.1093L8.75 12.2869V10.9236L6.54328 9.94951C5.90914 9.66958 5.5 9.04173 5.5 8.34856V5.68915ZM7 6.77065V8.34856C7 8.44758 7.05845 8.53728 7.14904 8.57727L8.75 9.28399V8.83982C8.75 8.77871 8.72762 8.71972 8.68709 8.674L9.24834 8.17651L8.68709 8.67399L7 6.77065ZM1.60474 5.73231L10.0937 2.07952C10.4863 1.91058 10.9428 2.00984 11.2299 2.32652L14.4819 5.91447C14.8153 6.28235 15 6.7611 15 7.25761V11.2409C15 11.6486 14.7525 12.0154 14.3745 12.1681L10.197 13.8551C9.7477 14.0366 9.24774 14.0487 8.79011 13.8893L1.67099 11.4089C1.26921 11.2689 1 10.89 1 10.4646V6.65088C1 6.25138 1.23777 5.89021 1.60474 5.73231Z" fill="#0B1F33"/>
</svg>
