<svg width="24" height="24" viewBox="0 0 24 24" fill="none" xmlns="http://www.w3.org/2000/svg">
<path fill-rule="evenodd" clip-rule="evenodd" d="M8.00094 7.53034L5.56152 7.53034L9.03125 4.06067L7.9706 3L4.50091 6.46963L4.50091 4.03033H3.00091L3.00091 8.28033C3.00091 8.69455 3.33669 9.03033 3.75091 9.03033L8.00094 9.03034L8.00094 7.53034ZM18.002 15.0303H16.252L9.65195 21.0303H6.00196C3.79282 21.0303 2.00195 19.2395 2.00195 17.0303C2.00195 14.8212 3.79281 13.0303 6.00195 13.0303H7.75195L14.352 7.03034H18.002C20.2111 7.03034 22.002 8.8212 22.002 11.0303C22.002 13.2395 20.2111 15.0303 18.002 15.0303ZM6.00196 19.5303H9.07204L15.2429 13.9204L15.672 13.5303H16.252H18.002C19.3827 13.5303 20.502 12.4111 20.502 11.0303C20.502 9.64963 19.3827 8.53034 18.002 8.53034H14.9319L8.76096 14.1402L8.33186 14.5303H7.75195H6.00195C4.62124 14.5303 3.50195 15.6496 3.50195 17.0303C3.50195 18.411 4.62124 19.5303 6.00196 19.5303Z" fill="#0B1F33"/>
</svg>
