<svg width="24" height="24" viewBox="0 0 24 24" fill="none" xmlns="http://www.w3.org/2000/svg">
<path fill-rule="evenodd" clip-rule="evenodd" d="M12.7466 11.7333L13.6882 13.068C13.7235 13.1182 13.7953 13.1249 13.8394 13.0823L15.0144 11.9476C15.2883 11.6831 15.5494 11.3886 15.7942 11.0736C15.8393 11.0156 15.9297 11.023 15.963 11.0886C16.8188 12.7726 17.2387 14.5108 16.8583 15.9804C16.4723 17.4718 15.4842 18.6103 14.0352 19.1517C13.9465 19.1848 13.8632 19.0798 13.8985 18.9919C13.9978 18.7449 14.0331 18.446 13.9777 18.0876C13.8763 17.4311 13.4364 17.0368 12.9955 16.6415C12.5337 16.2276 12.0708 15.8126 11.9943 15.0945C11.9853 15.0105 11.885 14.9638 11.821 15.0188C10.604 16.0655 10.1542 17.0197 10.0278 17.8071C9.95317 18.2723 10.011 18.7059 10.1935 19.0632C10.2367 19.1476 10.16 19.256 10.0696 19.2273C9.13515 18.9316 8.44985 18.417 7.97253 17.7934C7.19023 16.7715 6.81642 15.258 7.0874 13.4261C7.35405 11.6235 8.48487 9.33163 10.8548 6.68192C10.9129 6.61686 11.0212 6.65246 11.0299 6.73931C11.2047 8.47169 11.6948 10.2422 12.7466 11.7333ZM15.0539 9.52363L15.0452 9.53714C15.0205 9.57552 14.9956 9.61362 14.9704 9.65144C14.6891 10.0742 14.3794 10.461 14.0554 10.7867C14.0122 10.8302 13.9404 10.8234 13.9059 10.7727C13.6324 10.3699 13.4046 9.93852 13.2167 9.4868C12.6442 8.11043 12.4428 6.54546 12.4512 5.02813C12.4516 4.96226 12.4523 4.89648 12.4535 4.83081C12.4582 4.55826 12.4695 4.28757 12.4865 4.02016C12.4929 3.91999 12.5 3.82028 12.5079 3.7211C12.5321 3.41739 12.1701 3.23225 11.9469 3.43968C11.8685 3.51256 11.7909 3.58531 11.714 3.65793C11.517 3.84413 11.3249 4.02947 11.1379 4.21393C11.0801 4.27101 11.0227 4.328 10.9658 4.3849C7.67127 7.6789 5.97664 10.6843 5.60355 13.2066C4.97162 17.4786 7.24837 20.9998 11.9882 20.9998C15.1835 20.9998 17.5787 19.1833 18.3105 16.3564C18.8978 14.0874 18.0437 11.5908 16.7988 9.50154L16.7785 9.46764C16.6885 9.31739 16.5965 9.16927 16.5028 9.02353C16.3924 8.85158 16.2797 8.68294 16.1654 8.51799C16.0192 8.30693 15.6983 8.34544 15.5858 8.57622C15.4962 8.75981 15.4005 8.94093 15.2993 9.11803C15.2206 9.25591 15.1387 9.39136 15.0539 9.52363Z" fill="#0B1F33"/>
</svg>
