<svg width="48" height="24" viewBox="0 0 48 24" fill="none" xmlns="http://www.w3.org/2000/svg">
<path d="M6.98555 24C3.89359 24 1.97073 20.6418 3.53589 17.9752L11.1809 4.9504C12.6173 2.50318 15.2426 1 18.0802 1H43.9996C46.2087 1 47.9996 2.79086 47.9996 5V20C47.9996 22.2091 46.2087 24 43.9996 24H6.98555Z" fill="#1D5DEB"/>
<path d="M19.6884 13.8009C19.7677 13.9502 19.84 14.1066 19.9054 14.2699C19.9754 14.4286 20.043 14.5896 20.1084 14.7529C20.1737 14.5802 20.2414 14.4146 20.3114 14.2559C20.3814 14.0926 20.456 13.9362 20.5354 13.7869L23.5244 8.17991C23.5617 8.10991 23.6014 8.05391 23.6434 8.01191C23.6854 7.96991 23.7297 7.93958 23.7764 7.92091C23.8277 7.90224 23.8837 7.89058 23.9444 7.88591C24.005 7.88124 24.0774 7.87891 24.1614 7.87891H25.5824V18.0009H23.9234V11.4629C23.9234 11.3416 23.9257 11.2086 23.9304 11.0639C23.9397 10.9192 23.9514 10.7722 23.9654 10.6229L20.9064 16.3629C20.7617 16.6382 20.54 16.7759 20.2414 16.7759H19.9754C19.6767 16.7759 19.455 16.6382 19.3104 16.3629L16.2164 10.6019C16.2304 10.7559 16.242 10.9076 16.2514 11.0569C16.2607 11.2016 16.2654 11.3369 16.2654 11.4629V18.0009H14.6064V7.87891H16.0274C16.1114 7.87891 16.1837 7.88124 16.2444 7.88591C16.305 7.89058 16.3587 7.90224 16.4054 7.92091C16.4567 7.93958 16.501 7.96991 16.5384 8.01191C16.5804 8.05391 16.62 8.10991 16.6574 8.17991L19.6884 13.8009Z" fill="white"/>
<path d="M28.9533 14.4379V18.0009H27.0703V7.87891H30.3603C31.037 7.87891 31.6227 7.95824 32.1173 8.11691C32.612 8.27558 33.0203 8.49724 33.3423 8.78191C33.6643 9.06658 33.9023 9.40724 34.0563 9.80391C34.215 10.2006 34.2943 10.6346 34.2943 11.1059C34.2943 11.5959 34.2127 12.0462 34.0493 12.4569C33.886 12.8629 33.641 13.2129 33.3143 13.5069C32.9877 13.8009 32.577 14.0296 32.0823 14.1929C31.5923 14.3562 31.0183 14.4379 30.3603 14.4379H28.9533ZM28.9533 12.9679H30.3603C30.7057 12.9679 31.0067 12.9259 31.2633 12.8419C31.52 12.7532 31.7323 12.6296 31.9003 12.4709C32.073 12.3076 32.2013 12.1116 32.2853 11.8829C32.3693 11.6496 32.4113 11.3906 32.4113 11.1059C32.4113 10.8352 32.3693 10.5902 32.2853 10.3709C32.2013 10.1516 32.0753 9.96491 31.9073 9.81091C31.7393 9.65691 31.527 9.54024 31.2703 9.46091C31.0137 9.37691 30.7103 9.33491 30.3603 9.33491H28.9533V12.9679Z" fill="white"/>
<path d="M43.3132 17.0196C42.7999 17.3976 42.2515 17.6753 41.6682 17.8526C41.0895 18.0253 40.4689 18.1116 39.8062 18.1116C38.9802 18.1116 38.2312 17.9833 37.5592 17.7266C36.8919 17.4699 36.3202 17.1129 35.8442 16.6556C35.3729 16.1983 35.0089 15.6523 34.7522 15.0176C34.4955 14.3829 34.3672 13.6899 34.3672 12.9386C34.3672 12.1779 34.4909 11.4803 34.7382 10.8456C34.9855 10.2109 35.3355 9.66495 35.7882 9.20762C36.2455 8.75029 36.7985 8.39562 37.4472 8.14362C38.0959 7.89162 38.8239 7.76562 39.6312 7.76562C40.0419 7.76562 40.4245 7.7983 40.7792 7.86363C41.1385 7.92896 41.4699 8.01995 41.7732 8.13662C42.0812 8.24862 42.3612 8.38629 42.6132 8.54962C42.8652 8.71295 43.0962 8.89263 43.3062 9.08863L42.7672 9.94263C42.6832 10.0779 42.5735 10.1619 42.4382 10.1946C42.3029 10.2226 42.1559 10.1876 41.9972 10.0896C41.8432 10.0009 41.6892 9.9123 41.5352 9.82363C41.3812 9.73496 41.2085 9.65796 41.0172 9.59263C40.8305 9.5273 40.6182 9.47362 40.3802 9.43162C40.1469 9.38962 39.8762 9.36863 39.5682 9.36863C39.0689 9.36863 38.6162 9.45263 38.2102 9.62063C37.8089 9.78863 37.4659 10.0289 37.1812 10.3416C36.8965 10.6543 36.6772 11.0299 36.5232 11.4686C36.3692 11.9073 36.2922 12.3973 36.2922 12.9386C36.2922 13.5173 36.3739 14.0353 36.5372 14.4926C36.7052 14.9453 36.9385 15.3303 37.2372 15.6476C37.5405 15.9603 37.9045 16.2006 38.3292 16.3686C38.7539 16.5319 39.2275 16.6136 39.7502 16.6136C40.1235 16.6136 40.4572 16.5763 40.7512 16.5016C41.0452 16.4223 41.3322 16.3149 41.6122 16.1796V14.3386H40.3382C40.2169 14.3386 40.1212 14.3059 40.0512 14.2406C39.9859 14.1706 39.9532 14.0866 39.9532 13.9886V12.9246H43.3132V17.0196Z" fill="white"/>
</svg>
