<svg width="48" height="24" viewBox="0 0 48 24" fill="none" xmlns="http://www.w3.org/2000/svg">
<path d="M6.98555 24C3.89359 24 1.97073 20.6418 3.53589 17.9752L11.1809 4.9504C12.6173 2.50318 15.2426 1 18.0802 1H43.9996C46.2087 1 47.9996 2.79086 47.9996 5V20C47.9996 22.2091 46.2087 24 43.9996 24H6.98555Z" fill="#0D4CD3"/>
<path d="M24.3025 12.9399C24.3025 13.6819 24.1788 14.3632 23.9315 14.9839C23.6842 15.6046 23.3365 16.1389 22.8885 16.5869C22.4405 17.0349 21.9015 17.3826 21.2715 17.6299C20.6415 17.8772 19.9415 18.0009 19.1715 18.0009H15.3145V7.87891H19.1715C19.9415 7.87891 20.6415 8.00491 21.2715 8.25691C21.9015 8.50424 22.4405 8.85191 22.8885 9.29991C23.3365 9.74324 23.6842 10.2752 23.9315 10.8959C24.1788 11.5166 24.3025 12.1979 24.3025 12.9399ZM22.3705 12.9399C22.3705 12.3846 22.2958 11.8876 22.1465 11.4489C22.0018 11.0056 21.7895 10.6322 21.5095 10.3289C21.2342 10.0209 20.8982 9.78524 20.5015 9.62191C20.1095 9.45858 19.6662 9.37691 19.1715 9.37691H17.2045V16.5029H19.1715C19.6662 16.5029 20.1095 16.4212 20.5015 16.2579C20.8982 16.0946 21.2342 15.8612 21.5095 15.5579C21.7895 15.2499 22.0018 14.8766 22.1465 14.4379C22.2958 13.9946 22.3705 13.4952 22.3705 12.9399Z" fill="white"/>
<path d="M34.9171 12.9386C34.9171 13.6806 34.7934 14.3689 34.5461 15.0036C34.3034 15.6336 33.9581 16.1796 33.5101 16.6416C33.0621 17.1036 32.5231 17.4653 31.8931 17.7266C31.2631 17.9833 30.5631 18.1116 29.7931 18.1116C29.0278 18.1116 28.3301 17.9833 27.7001 17.7266C27.0701 17.4653 26.5288 17.1036 26.0761 16.6416C25.6281 16.1796 25.2804 15.6336 25.0331 15.0036C24.7858 14.3689 24.6621 13.6806 24.6621 12.9386C24.6621 12.1966 24.7858 11.5106 25.0331 10.8806C25.2804 10.2459 25.6281 9.69762 26.0761 9.23562C26.5288 8.77362 27.0701 8.4143 27.7001 8.15763C28.3301 7.8963 29.0278 7.76562 29.7931 7.76562C30.3064 7.76562 30.7894 7.8263 31.2421 7.94763C31.6948 8.0643 32.1101 8.2323 32.4881 8.45163C32.8661 8.6663 33.2044 8.92995 33.5031 9.24262C33.8064 9.55062 34.0631 9.89596 34.2731 10.2786C34.4831 10.6613 34.6418 11.0766 34.7491 11.5246C34.8611 11.9726 34.9171 12.4439 34.9171 12.9386ZM32.9921 12.9386C32.9921 12.3833 32.9174 11.8863 32.7681 11.4476C32.6188 11.0043 32.4064 10.6286 32.1311 10.3206C31.8558 10.0126 31.5198 9.77696 31.1231 9.61363C30.7311 9.4503 30.2878 9.36863 29.7931 9.36863C29.2984 9.36863 28.8528 9.4503 28.4561 9.61363C28.0641 9.77696 27.7281 10.0126 27.4481 10.3206C27.1728 10.6286 26.9604 11.0043 26.8111 11.4476C26.6618 11.8863 26.5871 12.3833 26.5871 12.9386C26.5871 13.4939 26.6618 13.9933 26.8111 14.4366C26.9604 14.8753 27.1728 15.2486 27.4481 15.5566C27.7281 15.8599 28.0641 16.0933 28.4561 16.2566C28.8528 16.4199 29.2984 16.5016 29.7931 16.5016C30.2878 16.5016 30.7311 16.4199 31.1231 16.2566C31.5198 16.0933 31.8558 15.8599 32.1311 15.5566C32.4064 15.2486 32.6188 14.8753 32.7681 14.4366C32.9174 13.9933 32.9921 13.4939 32.9921 12.9386Z" fill="white"/>
<path d="M42.8222 15.6126C42.9249 15.6126 43.0159 15.6523 43.0952 15.7316L43.8372 16.5366C43.4266 17.0453 42.9202 17.4349 42.3182 17.7056C41.7209 17.9763 41.0022 18.1116 40.1622 18.1116C39.4109 18.1116 38.7342 17.9833 38.1322 17.7266C37.5349 17.4699 37.0239 17.1129 36.5992 16.6556C36.1746 16.1983 35.8479 15.6523 35.6192 15.0176C35.3952 14.3829 35.2832 13.6899 35.2832 12.9386C35.2832 12.1779 35.4046 11.4826 35.6472 10.8526C35.8899 10.2179 36.2306 9.67195 36.6692 9.21462C37.1126 8.75729 37.6399 8.40262 38.2512 8.15062C38.8626 7.89395 39.5392 7.76562 40.2812 7.76562C41.0186 7.76562 41.6719 7.88695 42.2412 8.12962C42.8152 8.37229 43.3029 8.68963 43.7042 9.08163L43.0742 9.95663C43.0369 10.0126 42.9879 10.0616 42.9272 10.1036C42.8712 10.1456 42.7919 10.1666 42.6892 10.1666C42.6192 10.1666 42.5469 10.1479 42.4722 10.1106C42.3976 10.0686 42.3159 10.0196 42.2272 9.96363C42.1386 9.90296 42.0359 9.83763 41.9192 9.76763C41.8026 9.69763 41.6672 9.63463 41.5132 9.57863C41.3592 9.51796 41.1796 9.46895 40.9742 9.43162C40.7736 9.38962 40.5402 9.36863 40.2742 9.36863C39.8216 9.36863 39.4062 9.4503 39.0282 9.61363C38.6549 9.77229 38.3329 10.0056 38.0622 10.3136C37.7916 10.6169 37.5816 10.9903 37.4322 11.4336C37.2829 11.8723 37.2082 12.3739 37.2082 12.9386C37.2082 13.5079 37.2876 14.0143 37.4462 14.4576C37.6096 14.9009 37.8289 15.2743 38.1042 15.5776C38.3796 15.8809 38.7039 16.1143 39.0772 16.2776C39.4506 16.4363 39.8519 16.5156 40.2812 16.5156C40.5379 16.5156 40.7689 16.5016 40.9742 16.4736C41.1842 16.4456 41.3756 16.4013 41.5482 16.3406C41.7256 16.2799 41.8912 16.2029 42.0452 16.1096C42.2039 16.0116 42.3602 15.8926 42.5142 15.7526C42.5609 15.7106 42.6099 15.6779 42.6612 15.6546C42.7126 15.6266 42.7662 15.6126 42.8222 15.6126Z" fill="white"/>
</svg>
