<svg width="16" height="16" viewBox="0 0 16 16" fill="none" xmlns="http://www.w3.org/2000/svg">
<path fill-rule="evenodd" clip-rule="evenodd" d="M9.26159 6.49133L8.91031 5.72167L7.99906 3.72509L7.08786 5.72165L6.7366 6.49131L5.89621 6.58886L3.76943 6.83574L5.35161 8.13225L6.08453 8.73284L5.85698 9.65268L5.3649 11.6418L7.27282 10.5862L7.99903 10.1844L8.72523 10.5862L10.6341 11.6423L10.1422 9.65239L9.91493 8.73271L10.6477 8.13225L12.2298 6.83581L10.102 6.58887L9.26159 6.49133ZM5.72326 5.09887L1.55877 5.58228C1.00607 5.64644 0.801625 6.34307 1.232 6.69573L4.40088 9.29247L3.43012 13.2166C3.29802 13.7506 3.86564 14.1857 4.347 13.9194L7.99903 11.8987L11.6515 13.9196C12.1328 14.1859 12.7004 13.7509 12.5684 13.2169L11.5984 9.29247L14.7673 6.69577C15.1976 6.3431 14.9932 5.64645 14.4405 5.58231L10.2749 5.09887L8.57236 1.36854C8.34809 0.877148 7.64999 0.877154 7.42572 1.36855L5.72326 5.09887Z" fill="#0B1F33"/>
</svg>
