<svg width="24" height="24" viewBox="0 0 24 24" fill="none" xmlns="http://www.w3.org/2000/svg">
<path fill-rule="evenodd" clip-rule="evenodd" d="M16.4466 7.5L7.5732 7.5C5.76083 7.5 4.24825 8.88355 4.08707 10.6887L3.53548 16.8666C3.45712 17.7442 4.14845 18.5 5.02953 18.5L5.7571 18.5C6.15493 18.5 6.53646 18.342 6.81776 18.0607L7.90979 16.9686C8.20985 16.6686 8.61682 16.5 9.04116 16.5L14.9583 16.5C15.3827 16.5 15.7896 16.6686 16.0897 16.9686L17.1817 18.0607C17.463 18.342 17.8446 18.5 18.2424 18.5L19.0178 18.5C19.9016 18.5 20.5938 17.7399 20.5113 16.86L19.9313 10.6733C19.7627 8.87476 18.253 7.5 16.4466 7.5ZM7.5732 6C4.9841 6 2.82327 7.97649 2.59302 10.5553L2.04142 16.7332C1.88471 18.4884 3.26736 20 5.02953 20L5.7571 20C6.55275 20 7.31581 19.6839 7.87842 19.1213L8.97045 18.0293C8.98921 18.0105 9.01464 18 9.04116 18L14.9583 18C14.9848 18 15.0103 18.0105 15.029 18.0293L16.1211 19.1213C16.6837 19.6839 17.4467 20 18.2424 20L19.0178 20C20.7853 20 22.1697 18.4797 22.0047 16.72L21.4247 10.5333C21.1839 7.96395 19.0272 6 16.4466 6L7.5732 6ZM14.5043 12.0063C15.3352 12.0063 16.0088 11.3333 16.0088 10.5032C16.0088 9.67301 15.3352 9.00004 14.5043 9.00004C13.6733 9.00004 12.9997 9.67301 12.9997 10.5032C12.9997 11.3333 13.6733 12.0063 14.5043 12.0063ZM17.5043 15.0063C18.3352 15.0063 19.0088 14.3333 19.0088 13.5032C19.0088 12.673 18.3352 12 17.5043 12C16.6733 12 15.9997 12.673 15.9997 13.5032C15.9997 14.3333 16.6733 15.0063 17.5043 15.0063ZM6.74974 15L6.74974 13.25L4.99974 13.25L4.99974 11.75L6.74974 11.75L6.74974 10L8.24974 10L8.24974 11.75L9.99974 11.75L9.99974 13.25L8.24974 13.25L8.24974 15L6.74974 15Z" fill="#0B1F33"/>
</svg>
