<svg width="24" height="24" viewBox="0 0 24 24" fill="none" xmlns="http://www.w3.org/2000/svg">
<path fill-rule="evenodd" clip-rule="evenodd" d="M8.993 5.99023L7.99301 1.99023L6.53779 2.35404L7.53779 6.35404L8.993 5.99023ZM10.8014 8.83312L14.2161 5.41855C15.4217 4.21301 17.3763 4.21301 18.5819 5.41855C19.7875 6.62408 19.7875 8.57865 18.5819 9.78418L15.1672 13.1988L16.2279 14.2594L19.6426 10.8448C21.434 9.05351 21.434 6.14922 19.6426 4.35791C17.8512 2.5666 14.9468 2.5666 13.1554 4.35791L9.74069 7.77248L10.8014 8.83312ZM8.83267 10.8017L7.77198 9.74111L4.3569 13.1561C2.56552 14.9474 2.56551 17.8517 4.3569 19.643C6.14828 21.4343 9.05269 21.4343 10.8441 19.643L14.2592 16.228L13.1985 15.1674L9.78339 18.5823C8.57781 19.7879 6.62317 19.7879 5.41758 18.5823C4.21199 17.3768 4.21199 15.4222 5.41758 14.2167L8.83267 10.8017ZM21.6304 17.4466L17.6304 16.4466L17.9942 14.9914L21.9942 15.9914L21.6304 17.4466ZM15.0065 18.0103L16.0065 22.0103L17.4618 21.6465L16.4618 17.6465L15.0065 18.0103ZM2.36917 6.5539L6.36917 7.5539L6.00537 9.00912L2.00537 8.00912L2.36917 6.5539Z" fill="#0B1F33"/>
</svg>
