<svg width="24" height="24" viewBox="0 0 24 24" fill="none" xmlns="http://www.w3.org/2000/svg">
<path fill-rule="evenodd" clip-rule="evenodd" d="M19 3.00391H10V4.50391H13.75V6.00085H11.969C10.861 6.00085 9.96284 6.89628 9.96284 8.00085H8.95975C5.42132 8.00085 2.49421 10.6101 2.00876 14.0038C1.93055 14.5506 2.38718 15.0009 2.94117 15.0009H5.95046C6.50445 15.0009 6.93277 14.5263 7.19878 14.0419C7.46184 13.5628 7.91585 13.2029 8.45875 13.0637C8.61889 13.0227 8.78676 13.0009 8.95975 13.0009H9.96284C9.96284 14.1054 10.861 15.0009 11.969 15.0009H16.9845C18.0925 15.0009 18.9907 14.1054 18.9907 13.0009H21.4444C21.9984 13.0009 22 12.7406 22 12.1884V8.81335C22 8.26107 21.9984 8.00085 21.4444 8.00085H18.9907C18.9907 6.89629 18.0925 6.00085 16.9845 6.00085H15.25V4.50391H19V3.00391ZM11.4675 8.50085C11.4675 9.05314 11.0198 9.50085 10.4675 9.50085H8.95975C6.43501 9.50085 4.30452 11.1927 3.65002 13.5009H5.76174L5.77336 13.486C5.80745 13.4415 5.84365 13.3859 5.87896 13.3216C6.47296 12.2399 7.62871 11.5009 8.95975 11.5009H10.4675C11.0198 11.5009 11.4675 11.9486 11.4675 12.5009V13.0009C11.4675 13.277 11.692 13.5009 11.969 13.5009H16.9845C17.2615 13.5009 17.4861 13.277 17.4861 13.0009V12.5009C17.4861 11.9486 17.9338 11.5009 18.4861 11.5009H20.4954V9.50085H18.4861C17.9338 9.50085 17.4861 9.05314 17.4861 8.50085V8.00085C17.4861 7.72471 17.2615 7.50085 16.9845 7.50085H11.969C11.692 7.50085 11.4675 7.72471 11.4675 8.00085V8.50085ZM3.92494 16.6232C5.00331 18.0012 5.33333 18.7036 5.33333 19.4474C5.33333 20.3054 4.58714 21.0009 3.66667 21.0009C2.74619 21.0009 2 20.3054 2 19.4474C2 18.5813 2.33736 17.9918 3.40922 16.6239C3.541 16.4558 3.79327 16.4549 3.92494 16.6232Z" fill="#0B1F33"/>
</svg>
