<svg width="24" height="24" viewBox="0 0 24 24" fill="none" xmlns="http://www.w3.org/2000/svg">
<path fill-rule="evenodd" clip-rule="evenodd" d="M14.4345 5.74927H12C8.41015 5.74927 5.5 8.65942 5.5 12.2493C5.5 15.8391 8.41015 18.7493 12 18.7493C15.5899 18.7493 18.5 15.8391 18.5 12.2493H20C20 16.6675 16.4183 20.2493 12 20.2493C7.58172 20.2493 4 16.6675 4 12.2493C4 7.83099 7.58172 4.24927 12 4.24927H14.4393L12.2195 2.02941L13.2801 0.96875L16.7779 4.46652C17.0708 4.75941 17.0708 5.23429 16.7779 5.52718L13.2801 9.02492L12.2195 7.96426L14.4345 5.74927Z" fill="#0B1F33"/>
</svg>
