<svg width="24" height="24" viewBox="0 0 24 24" fill="none" xmlns="http://www.w3.org/2000/svg">
<path fill-rule="evenodd" clip-rule="evenodd" d="M14.4975 6.75009C14.4974 6.94932 14.4182 7.14035 14.2772 7.28106L12.057 9.49788L10.998 8.43548L11.9337 7.50128C9.47899 7.53673 7.5 9.53766 7.5 12.0008C7.5 13.1731 7.94829 14.2407 8.68279 15.0416L7.57705 16.0552C6.59771 14.9874 6 13.5639 6 12.0008C6 8.70782 8.6528 6.03442 11.9379 6.00112L10.9982 5.06176L12.0578 4L14.2776 6.21898C14.4184 6.35978 14.4975 6.55085 14.4975 6.75009ZM15.3172 8.96002L16.423 7.94643C17.4023 9.01422 18 10.4377 18 12.0008C18 15.2939 15.347 17.9674 12.0617 18.0005L12.9998 18.9382L11.9403 20L9.72048 17.781C9.57964 17.6402 9.50052 17.4491 9.50058 17.2499C9.50064 17.0507 9.57987 16.8596 9.7208 16.7189L11.9411 14.5021L13 15.5645L12.0627 16.5004C14.5191 16.4668 16.5 14.4652 16.5 12.0008C16.5 10.8285 16.0517 9.76087 15.3172 8.96002Z" fill="#0B1F33"/>
</svg>
