<svg width="48" height="24" viewBox="0 0 48 24" fill="none" xmlns="http://www.w3.org/2000/svg">
<path d="M6.98555 24C3.89359 24 1.97073 20.6418 3.53589 17.9752L11.1809 4.9504C12.6173 2.50318 15.2426 1 18.0802 1H43.9996C46.2087 1 47.9996 2.79086 47.9996 5V20C47.9996 22.2091 46.2087 24 43.9996 24H6.98555Z" fill="#12826E"/>
<path d="M25.623 15.6126C25.7257 15.6126 25.8167 15.6523 25.896 15.7316L26.638 16.5366C26.2274 17.0453 25.721 17.4349 25.119 17.7056C24.5217 17.9763 23.803 18.1116 22.963 18.1116C22.2117 18.1116 21.535 17.9833 20.933 17.7266C20.3357 17.4699 19.8247 17.1129 19.4 16.6556C18.9754 16.1983 18.6487 15.6523 18.42 15.0176C18.196 14.3829 18.084 13.6899 18.084 12.9386C18.084 12.1779 18.2054 11.4826 18.448 10.8526C18.6907 10.2179 19.0314 9.67195 19.47 9.21462C19.9134 8.75729 20.4407 8.40262 21.052 8.15062C21.6634 7.89395 22.34 7.76562 23.082 7.76562C23.8194 7.76562 24.4727 7.88695 25.042 8.12962C25.616 8.37229 26.1037 8.68963 26.505 9.08163L25.875 9.95663C25.8377 10.0126 25.7887 10.0616 25.728 10.1036C25.672 10.1456 25.5927 10.1666 25.49 10.1666C25.42 10.1666 25.3477 10.1479 25.273 10.1106C25.1984 10.0686 25.1167 10.0196 25.028 9.96363C24.9394 9.90296 24.8367 9.83763 24.72 9.76763C24.6034 9.69763 24.468 9.63463 24.314 9.57863C24.16 9.51796 23.9804 9.46895 23.775 9.43162C23.5744 9.38962 23.341 9.36863 23.075 9.36863C22.6224 9.36863 22.207 9.4503 21.829 9.61363C21.4557 9.77229 21.1337 10.0056 20.863 10.3136C20.5924 10.6169 20.3824 10.9903 20.233 11.4336C20.0837 11.8723 20.009 12.3739 20.009 12.9386C20.009 13.5079 20.0884 14.0143 20.247 14.4576C20.4104 14.9009 20.6297 15.2743 20.905 15.5776C21.1804 15.8809 21.5047 16.1143 21.878 16.2776C22.2514 16.4363 22.6527 16.5156 23.082 16.5156C23.3387 16.5156 23.5697 16.5016 23.775 16.4736C23.985 16.4456 24.1764 16.4013 24.349 16.3406C24.5264 16.2799 24.692 16.2029 24.846 16.1096C25.0047 16.0116 25.161 15.8926 25.315 15.7526C25.3617 15.7106 25.4107 15.6779 25.462 15.6546C25.5134 15.6266 25.567 15.6126 25.623 15.6126Z" fill="white"/>
<path d="M33.318 9.71863C33.262 9.81663 33.2013 9.88896 33.136 9.93563C33.0753 9.97763 32.9983 9.99863 32.905 9.99863C32.807 9.99863 32.6996 9.96362 32.583 9.89362C32.471 9.81895 32.3356 9.73729 32.177 9.64862C32.0183 9.55995 31.8316 9.48063 31.617 9.41062C31.407 9.33596 31.1573 9.29863 30.868 9.29863C30.6066 9.29863 30.378 9.3313 30.182 9.39663C29.986 9.4573 29.8203 9.54362 29.685 9.65562C29.5543 9.76762 29.4563 9.90296 29.391 10.0616C29.3256 10.2156 29.293 10.3859 29.293 10.5726C29.293 10.8106 29.3583 11.0089 29.489 11.1676C29.6243 11.3263 29.8016 11.4616 30.021 11.5736C30.2403 11.6856 30.49 11.7859 30.77 11.8746C31.05 11.9633 31.337 12.0589 31.631 12.1616C31.925 12.2596 32.212 12.3763 32.492 12.5116C32.772 12.6423 33.0216 12.8103 33.241 13.0156C33.4603 13.2163 33.6353 13.4636 33.766 13.7576C33.9013 14.0516 33.969 14.4086 33.969 14.8286C33.969 15.2859 33.8896 15.7153 33.731 16.1166C33.577 16.5133 33.3483 16.8609 33.045 17.1596C32.7463 17.4536 32.38 17.6869 31.946 17.8596C31.512 18.0276 31.015 18.1116 30.455 18.1116C30.133 18.1116 29.8156 18.0789 29.503 18.0136C29.1903 17.9529 28.8893 17.8643 28.6 17.7476C28.3153 17.6309 28.047 17.4909 27.795 17.3276C27.543 17.1643 27.319 16.9823 27.123 16.7816L27.676 15.8786C27.7226 15.8133 27.7833 15.7596 27.858 15.7176C27.9326 15.6709 28.012 15.6476 28.096 15.6476C28.2126 15.6476 28.3386 15.6966 28.474 15.7946C28.6093 15.8879 28.7703 15.9929 28.957 16.1096C29.1436 16.2263 29.3606 16.3336 29.608 16.4316C29.86 16.5249 30.161 16.5716 30.511 16.5716C31.0476 16.5716 31.463 16.4456 31.757 16.1936C32.051 15.9369 32.198 15.5706 32.198 15.0946C32.198 14.8286 32.1303 14.6116 31.995 14.4436C31.8643 14.2756 31.6893 14.1356 31.47 14.0236C31.2506 13.9069 31.001 13.8089 30.721 13.7296C30.441 13.6503 30.1563 13.5639 29.867 13.4706C29.5776 13.3773 29.293 13.2653 29.013 13.1346C28.733 13.0039 28.4833 12.8336 28.264 12.6236C28.0446 12.4136 27.8673 12.1523 27.732 11.8396C27.6013 11.5223 27.536 11.1326 27.536 10.6706C27.536 10.3019 27.6083 9.94263 27.753 9.59263C27.9023 9.24263 28.117 8.9323 28.397 8.66163C28.677 8.39096 29.0223 8.17396 29.433 8.01063C29.8436 7.8473 30.315 7.76562 30.847 7.76562C31.4443 7.76562 31.995 7.85896 32.499 8.04563C33.003 8.2323 33.4323 8.49363 33.787 8.82963L33.318 9.71863Z" fill="white"/>
<path d="M34.2021 7.87891H35.7141C35.8774 7.87891 36.0104 7.91858 36.1131 7.99791C36.2158 8.07724 36.2928 8.17991 36.3441 8.30591L38.7311 14.4799C38.8104 14.6806 38.8851 14.9022 38.9551 15.1449C39.0298 15.3829 39.0998 15.6326 39.1651 15.8939C39.2164 15.6326 39.2748 15.3829 39.3401 15.1449C39.4101 14.9022 39.4848 14.6806 39.5641 14.4799L41.9371 8.30591C41.9744 8.19858 42.0468 8.10058 42.1541 8.01191C42.2661 7.92324 42.4014 7.87891 42.5601 7.87891H44.0791L39.9911 18.0009H38.2901L34.2021 7.87891Z" fill="white"/>
</svg>
