<svg width="16" height="16" viewBox="0 0 16 16" fill="none" xmlns="http://www.w3.org/2000/svg">
<path fill-rule="evenodd" clip-rule="evenodd" d="M10.0765 2.84742L11.4244 3.62568C11.024 5.20214 11.9655 6.82438 13.5421 7.25294L13.5477 8.78416C11.9827 9.22055 11.0474 10.8405 11.452 12.414L10.1231 13.1748C8.96367 12.0238 7.08804 12.0195 5.923 13.1545L4.57498 12.3762C4.97515 10.7999 4.0337 9.17765 2.45679 8.74924L2.45124 7.21756C4.01634 6.78121 4.95169 5.16113 4.54703 3.58754L5.87626 2.82651C7.03574 3.97798 8.91145 3.98214 10.0765 2.84742ZM14.0509 5.83214C13.1468 5.65854 12.611 4.71903 12.9219 3.85251L13.1061 3.33901C13.1877 3.11144 13.0949 2.85804 12.8855 2.73716L10.1151 1.1377C9.90564 1.01675 9.6396 1.06312 9.48338 1.24782L9.1322 1.66301C8.53764 2.36594 7.456 2.37233 6.85319 1.67645L6.46372 1.22686C6.30723 1.04622 6.04479 1.00158 5.83737 1.12033L3.08182 2.69797C2.87005 2.81921 2.77674 3.07561 2.86103 3.3046L3.04738 3.81086C3.37108 4.69022 2.81821 5.64781 1.89481 5.80717L1.36321 5.89891C1.12275 5.9404 0.947362 6.14942 0.948246 6.39344L0.959746 9.56864C0.960612 9.80764 1.13049 10.0126 1.36517 10.0578L1.94927 10.1703C2.8533 10.3444 3.38858 11.2843 3.07712 12.1507L2.89316 12.6624C2.81132 12.8901 2.90418 13.1436 3.11368 13.2646L5.88402 14.864C6.0934 14.9849 6.35929 14.9387 6.51555 14.7542L6.86814 14.3379C7.46313 13.6354 8.54465 13.6297 9.14703 14.3258L9.5352 14.7744C9.69166 14.9552 9.95423 15 10.1617 14.8812L12.9171 13.3036C13.1289 13.1824 13.2222 12.926 13.1379 12.697L12.9516 12.1907C12.628 11.3114 13.1808 10.3539 14.1041 10.1945L14.6357 10.1027C14.8762 10.0612 15.0515 9.85222 15.0506 9.60822L15.0391 6.43322C15.0383 6.19411 14.8682 5.98909 14.6334 5.944L14.0509 5.83214ZM7.00051 8.00125C7.00051 7.44897 7.44823 7.00125 8.00051 7.00125C8.55279 7.00125 9.00051 7.44897 9.00051 8.00125C9.00051 8.55353 8.55279 9.00125 8.00051 9.00125C7.44823 9.00125 7.00051 8.55353 7.00051 8.00125ZM5.50051 8.00125C5.50051 6.62054 6.6198 5.50125 8.00051 5.50125C9.38122 5.50125 10.5005 6.62054 10.5005 8.00125C10.5005 9.38196 9.38122 10.5012 8.00051 10.5012C6.6198 10.5012 5.50051 9.38196 5.50051 8.00125Z" fill="#0B1F33"/>
</svg>
