<svg width="24" height="24" viewBox="0 0 24 24" fill="none" xmlns="http://www.w3.org/2000/svg">
<circle opacity="0.1" cx="12" cy="12" r="10" fill="#4D83FA"/>
<path d="M10.9864 14.0879H12.7504C12.7504 13.4719 12.9044 13.1079 13.4084 12.6739C14.8084 11.4699 15.2144 10.7839 15.2144 9.66391C15.2144 8.08191 14.0104 7.00391 11.9804 7.00391C9.97842 7.00391 8.73242 8.43191 8.73242 9.83191C8.73242 10.2519 8.80242 10.5739 8.92842 10.8399L10.5384 10.5039C10.4824 10.3639 10.4404 10.1679 10.4404 9.98591C10.4404 9.11791 11.1684 8.59991 12.0224 8.59991C12.8764 8.59991 13.4784 9.06191 13.4784 9.78991C13.4784 10.5039 13.1144 10.9939 12.1904 11.7359C11.2664 12.4779 10.9864 13.0099 10.9864 13.8639V14.0879ZM10.9444 16.9999H12.7924V15.0679H10.9444V16.9999Z" fill="#4D83FA"/>
</svg>
