<svg width="24" height="24" viewBox="0 0 24 24" fill="none" xmlns="http://www.w3.org/2000/svg">
<path fill-rule="evenodd" clip-rule="evenodd" d="M13.4764 4.48504L11.0528 2.0615C10.9552 1.96387 10.7969 1.96387 10.6993 2.0615L8.40496 4.35584L8.40496 4.35584L8.39081 4.36999L7.58368 5.17712C7.43861 5.32219 7.52042 5.58553 7.70205 5.68095C8.17655 5.93025 8.50017 6.42788 8.50017 7.00109C8.50017 7.82415 7.83295 8.49137 7.00989 8.49137C6.43668 8.49137 5.93905 8.16775 5.68975 7.69325C5.59433 7.51162 5.331 7.42981 5.18592 7.57488L4.37879 8.38201L4.36465 8.39616L4.36464 8.39616L2.06053 10.7003C1.9629 10.7979 1.9629 10.9562 2.06053 11.0538L4.48407 13.4774L4.48858 13.4819L4.78142 13.7747L5.33892 14.3322C5.47263 14.4659 5.41553 14.6968 5.24386 14.7761C4.2145 15.2515 3.5002 16.2929 3.5002 17.5012C3.5002 19.158 4.84334 20.5012 6.5002 20.5012C7.70847 20.5012 8.7499 19.7869 9.22526 18.7575C9.30453 18.5858 9.53545 18.5287 9.66915 18.6624L10.2267 19.2199L10.5195 19.5128L10.524 19.5173L12.9474 21.9407C13.045 22.0383 13.2033 22.0383 13.3009 21.9407L15.605 19.6366L15.6191 19.6225L16.4263 18.8153C16.5714 18.6702 16.4896 18.4069 16.308 18.3115C15.8335 18.0622 15.5099 17.5646 15.5099 16.9914C15.5099 16.1683 16.1771 15.5011 17.0002 15.5011C17.5734 15.5011 18.071 15.8247 18.3203 16.2992C18.4157 16.4808 18.679 16.5626 18.8241 16.4175L19.6313 15.6103L19.6454 15.5962L21.9397 13.3019C22.0373 13.2043 22.0373 13.046 21.9397 12.9484L19.5163 10.525L19.5118 10.5205L19.219 10.2276L18.6615 9.67013C18.5278 9.53642 18.5849 9.30551 18.7565 9.22624C19.7859 8.75088 20.5002 7.70944 20.5002 6.50117C20.5002 4.84432 19.1571 3.50117 17.5002 3.50117C16.2919 3.50117 15.2505 4.21548 14.7751 5.24484C14.6959 5.4165 14.4649 5.47361 14.3312 5.3399L13.7737 4.7824L13.4809 4.48956L13.4764 4.48504ZM18.6337 14.4866L19.9952 13.1251L17.6008 10.7308C16.6188 9.74881 17.155 8.31362 18.1277 7.86443C18.6457 7.6252 19.0002 7.10302 19.0002 6.50117C19.0002 5.67275 18.3286 5.00117 17.5002 5.00117C16.8983 5.00117 16.3762 5.35566 16.1369 5.87372C15.6877 6.84642 14.2526 7.38254 13.2706 6.40056L10.8761 4.00605L9.51465 5.36747C9.82128 5.83656 10.0002 6.3976 10.0002 7.00109C10.0002 8.65257 8.66138 9.99137 7.00989 9.99137C6.4064 9.99137 5.84537 9.81248 5.37627 9.50585L4.00507 10.8771L6.39958 13.2716C7.38156 14.2535 6.84544 15.6887 5.87274 16.1379C5.35468 16.3772 5.0002 16.8993 5.0002 17.5012C5.0002 18.3296 5.67177 19.0012 6.5002 19.0012C7.10205 19.0012 7.62422 18.6467 7.86346 18.1286C8.31265 17.1559 9.74784 16.6198 10.7298 17.6018L13.1242 19.9961L14.4954 18.6249C14.1888 18.1558 14.0099 17.5948 14.0099 16.9914C14.0099 15.3399 15.3487 14.0011 17.0002 14.0011C17.6036 14.0011 18.1646 14.18 18.6337 14.4866Z" fill="#0B1F33"/>
</svg>
