<svg width="16" height="16" viewBox="0 0 16 16" fill="none" xmlns="http://www.w3.org/2000/svg">
<path fill-rule="evenodd" clip-rule="evenodd" d="M11.4975 2.75009C11.4974 2.94932 11.4182 3.14035 11.2772 3.28106L9.05697 5.49788L7.99805 4.43548L8.93499 3.5H8V3.5008C5.51472 3.5008 3.5 5.51552 3.5 8.0008C3.5 10.4861 5.51472 12.5008 8 12.5008C10.4853 12.5008 12.5 10.4861 12.5 8.0008H14C14 11.3145 11.3137 14.0008 8 14.0008C4.68629 14.0008 2 11.3145 2 8.0008C2 4.68709 4.68629 2.0008 8 2.0008V2H8.93679L7.99821 1.06176L9.05777 0L11.2776 2.21898C11.4184 2.35978 11.4975 2.55085 11.4975 2.75009Z" fill="#0B1F33"/>
</svg>
