<svg width="16" height="16" viewBox="0 0 16 16" fill="none" xmlns="http://www.w3.org/2000/svg">
<path fill-rule="evenodd" clip-rule="evenodd" d="M2.48697 6.06309L7.9995 3.54765L13.5122 6.06367L7.99963 8.82295L2.48697 6.06309ZM8.41473 2.08832L15.5615 5.35016C16.1348 5.61182 16.1494 6.42104 15.5858 6.70313L12.9942 8.00036V10.7935C12.9942 11.2592 12.8169 11.7074 12.4985 12.0471C10.0625 14.6464 5.93602 14.6469 3.50034 12.0469C3.18212 11.7072 3.00505 11.2592 3.00505 10.7937V7.99994L1.75808 7.37566V9.99982H0.258083V6.60009C-0.141384 6.26001 -0.0768494 5.58421 0.437676 5.34942L7.58439 2.08829C7.84809 1.96796 8.15104 1.96797 8.41473 2.08832ZM4.50505 8.7509V10.7937C4.50505 10.8783 4.53722 10.9597 4.59503 11.0214C6.43788 12.9886 9.56054 12.9885 11.4041 11.0214C11.462 10.9596 11.4942 10.8781 11.4942 10.7935V8.75118L8.44721 10.2763C8.16545 10.4174 7.83369 10.4174 7.55194 10.2763L4.50505 8.7509Z" fill="#0B1F33"/>
</svg>
