<svg width="48" height="24" viewBox="0 0 48 24" fill="none" xmlns="http://www.w3.org/2000/svg">
<path d="M6.98555 24C3.89359 24 1.97073 20.6418 3.53589 17.9752L11.1809 4.9504C12.6173 2.50318 15.2426 1 18.0802 1H43.9996C46.2087 1 47.9996 2.79086 47.9996 5V20C47.9996 22.2091 46.2087 24 43.9996 24H6.98555Z" fill="#1D5DEB"/>
<path d="M19.9355 13.8009C20.0148 13.9502 20.0872 14.1066 20.1525 14.2699C20.2225 14.4286 20.2902 14.5896 20.3555 14.7529C20.4208 14.5802 20.4885 14.4146 20.5585 14.2559C20.6285 14.0926 20.7032 13.9362 20.7825 13.7869L23.7715 8.17991C23.8088 8.10991 23.8485 8.05391 23.8905 8.01191C23.9325 7.96991 23.9768 7.93958 24.0235 7.92091C24.0748 7.90224 24.1308 7.89058 24.1915 7.88591C24.2522 7.88124 24.3245 7.87891 24.4085 7.87891H25.8295V18.0009H24.1705V11.4629C24.1705 11.3416 24.1728 11.2086 24.1775 11.0639C24.1868 10.9192 24.1985 10.7722 24.2125 10.6229L21.1535 16.3629C21.0088 16.6382 20.7872 16.7759 20.4885 16.7759H20.2225C19.9238 16.7759 19.7022 16.6382 19.5575 16.3629L16.4635 10.6019C16.4775 10.7559 16.4892 10.9076 16.4985 11.0569C16.5078 11.2016 16.5125 11.3369 16.5125 11.4629V18.0009H14.8535V7.87891H16.2745C16.3585 7.87891 16.4308 7.88124 16.4915 7.88591C16.5522 7.89058 16.6058 7.90224 16.6525 7.92091C16.7038 7.93958 16.7482 7.96991 16.7855 8.01191C16.8275 8.05391 16.8672 8.10991 16.9045 8.17991L19.9355 13.8009Z" fill="white"/>
<path d="M36.4113 12.9386C36.4113 13.6806 36.2875 14.3689 36.0402 15.0036C35.7975 15.6336 35.4522 16.1796 35.0042 16.6416C34.5562 17.1036 34.0172 17.4653 33.3872 17.7266C32.7572 17.9833 32.0573 18.1116 31.2873 18.1116C30.5219 18.1116 29.8243 17.9833 29.1943 17.7266C28.5642 17.4653 28.0228 17.1036 27.5702 16.6416C27.1222 16.1796 26.7746 15.6336 26.5273 15.0036C26.28 14.3689 26.1562 13.6806 26.1562 12.9386C26.1562 12.1966 26.28 11.5106 26.5273 10.8806C26.7746 10.2459 27.1222 9.69762 27.5702 9.23562C28.0228 8.77362 28.5642 8.4143 29.1943 8.15763C29.8243 7.8963 30.5219 7.76562 31.2873 7.76562C31.8006 7.76562 32.2836 7.8263 32.7363 7.94763C33.189 8.0643 33.6043 8.2323 33.9823 8.45163C34.3603 8.6663 34.6985 8.92995 34.9972 9.24262C35.3005 9.55062 35.5573 9.89596 35.7673 10.2786C35.9773 10.6613 36.1359 11.0766 36.2433 11.5246C36.3553 11.9726 36.4113 12.4439 36.4113 12.9386ZM34.4863 12.9386C34.4863 12.3833 34.4115 11.8863 34.2622 11.4476C34.1129 11.0043 33.9006 10.6286 33.6253 10.3206C33.35 10.0126 33.0138 9.77696 32.6172 9.61363C32.2252 9.4503 31.7819 9.36863 31.2873 9.36863C30.7926 9.36863 30.347 9.4503 29.9503 9.61363C29.5583 9.77696 29.2222 10.0126 28.9422 10.3206C28.6669 10.6286 28.4546 11.0043 28.3053 11.4476C28.156 11.8863 28.0812 12.3833 28.0812 12.9386C28.0812 13.4939 28.156 13.9933 28.3053 14.4366C28.4546 14.8753 28.6669 15.2486 28.9422 15.5566C29.2222 15.8599 29.5583 16.0933 29.9503 16.2566C30.347 16.4199 30.7926 16.5016 31.2873 16.5016C31.7819 16.5016 32.2252 16.4199 32.6172 16.2566C33.0138 16.0933 33.35 15.8599 33.6253 15.5566C33.9006 15.2486 34.1129 14.8753 34.2622 14.4366C34.4115 13.9933 34.4863 13.4939 34.4863 12.9386Z" fill="white"/>
<path d="M35.2021 7.87891H36.7141C36.8774 7.87891 37.0104 7.91858 37.1131 7.99791C37.2158 8.07724 37.2928 8.17991 37.3441 8.30591L39.7311 14.4799C39.8104 14.6806 39.8851 14.9022 39.9551 15.1449C40.0298 15.3829 40.0998 15.6326 40.1651 15.8939C40.2164 15.6326 40.2748 15.3829 40.3401 15.1449C40.4101 14.9022 40.4848 14.6806 40.5641 14.4799L42.9371 8.30591C42.9744 8.19858 43.0468 8.10058 43.1541 8.01191C43.2661 7.92324 43.4014 7.87891 43.5601 7.87891H45.0791L40.9911 18.0009H39.2901L35.2021 7.87891Z" fill="white"/>
</svg>
