<svg width="24" height="24" viewBox="0 0 24 24" fill="none" xmlns="http://www.w3.org/2000/svg">
<path fill-rule="evenodd" clip-rule="evenodd" d="M6.86711 18.7753C6.76558 18.6983 6.62235 18.7059 6.53224 18.796L5.81851 19.5097C5.71436 19.6139 5.7222 19.7853 5.83815 19.8761C7.22093 20.9594 8.89619 21.6865 10.7258 21.9192C10.8724 21.9379 11.0002 21.8221 11.0002 21.6742V20.6639C11.0002 20.5371 10.9051 20.4307 10.7796 20.4127C9.32357 20.2033 7.98681 19.6249 6.86711 18.7753ZM3.58714 13.2203C3.56909 13.0947 3.46276 12.9997 3.33594 12.9997H2.32558C2.17774 12.9997 2.06194 13.1274 2.08059 13.274C2.30777 15.0601 3.00609 16.6991 4.04705 18.0626C4.13717 18.1806 4.31024 18.1896 4.41525 18.0846L5.1304 17.3694C5.21954 17.2803 5.22803 17.1389 5.15323 17.0374C4.34257 15.9375 3.79061 14.6352 3.58714 13.2203ZM5.22448 6.86662C5.30151 6.7651 5.29393 6.62187 5.20381 6.53175L4.49008 5.81802C4.38593 5.71387 4.21454 5.72171 4.1237 5.83766C3.04038 7.22045 2.3133 8.8957 2.08059 10.7253C2.06194 10.8719 2.17774 10.9997 2.32558 10.9997H3.33594C3.46276 10.9997 3.56909 10.9046 3.58714 10.7791C3.79652 9.32308 4.37491 7.98633 5.22448 6.86662ZM10.7796 3.58665C10.9051 3.5686 11.0002 3.46227 11.0002 3.33546V2.32509C11.0002 2.17726 10.8724 2.06145 10.7258 2.0801C8.93968 2.30728 7.30067 3.0056 5.93726 4.04656C5.81922 4.13668 5.81024 4.30975 5.91525 4.41476L6.6304 5.12991C6.71954 5.21906 6.86088 5.22755 6.96237 5.15275C8.06232 4.34208 9.36464 3.79012 10.7796 3.58665ZM13.0002 2.32509C13.0002 2.17726 13.1283 2.0615 13.275 2.08016C18.1958 2.70627 22.0002 6.90869 22.0002 11.9997C22.0002 17.0906 18.1958 21.2931 13.275 21.9192C13.1283 21.9378 13.0002 21.8221 13.0002 21.6742V20.6639C13.0002 20.5371 13.0956 20.4307 13.2211 20.4126C17.3371 19.8206 20.5002 16.2795 20.5002 11.9997C20.5002 7.71983 17.3371 4.17877 13.2211 3.5867C13.0956 3.56864 13.0002 3.46227 13.0002 3.33546V2.32509ZM9.9834 8.0891L15.669 11.4153C16.1105 11.6736 16.1105 12.3253 15.669 12.5836L9.9834 15.9098C9.54527 16.1661 9.00012 15.8422 9.00012 15.3256V8.67329C9.00012 8.15666 9.54527 7.83278 9.9834 8.0891Z" fill="#0B1F33"/>
</svg>
