<svg width="24" height="24" viewBox="0 0 24 24" fill="none" xmlns="http://www.w3.org/2000/svg">
<path fill-rule="evenodd" clip-rule="evenodd" d="M11.4998 4.50505C11.4998 5.06298 11.0492 5.5101 10.4998 5.5101C9.95032 5.5101 9.49976 5.06298 9.49976 4.50505C9.49976 3.94712 9.95032 3.5 10.4998 3.5C11.0492 3.5 11.4998 3.94712 11.4998 4.50505ZM11.5248 6.79053C12.3944 6.39835 12.9998 5.52254 12.9998 4.50505C12.9998 3.12155 11.8805 2 10.4998 2C9.11904 2 7.99976 3.12155 7.99976 4.50505C7.99976 5.72949 8.87647 6.74875 10.0352 6.96694L10.4168 10.2111C7.8713 10.9057 6 13.2343 6 16C6 19.3138 8.68629 22 12 22C13.6569 22 15.1569 21.3285 16.2426 20.2427L15.182 19.182C14.3676 19.9964 13.2426 20.5 12 20.5C9.51472 20.5 7.5 18.4853 7.5 16C7.5 14.0055 8.79766 12.314 10.5948 11.7238L10.7448 12.9995C10.7952 13.4276 11.158 13.7502 11.589 13.7502L14.7669 13.7502C14.876 13.7502 14.9724 13.8209 15.0053 13.9249L16.0641 17.277C16.294 18.005 16.9694 18.4999 17.7328 18.4999H19.5V16.9999H17.7328C17.6238 16.9999 17.5273 16.9292 17.4944 16.8252L16.4356 13.4731C16.2057 12.7451 15.5303 12.2502 14.7669 12.2502L12.167 12.2502L11.8379 9.45206C12.3359 9.55395 12.8996 9.58446 13.4837 9.51778C14.7779 9.37003 16.2096 8.7381 17.2349 7.29817L16.013 6.42813C15.2708 7.4705 14.2515 7.92038 13.3136 8.02746C12.8409 8.08142 12.3983 8.04659 12.0379 7.96016C11.8832 7.92305 11.7533 7.8789 11.6475 7.8336L11.5248 6.79053ZM5.86802 9.32507C6.71162 8.60138 7.77501 8.29124 8.91013 8.15133L9.09363 9.64006C8.09237 9.76348 7.36734 10.0152 6.84466 10.4636C6.33371 10.9019 5.9218 11.6103 5.71715 12.8461L4.2373 12.601C4.48047 11.1326 5.0127 10.0588 5.86802 9.32507Z" fill="#0B1F33"/>
</svg>
