<svg width="24" height="24" viewBox="0 0 24 24" fill="none" xmlns="http://www.w3.org/2000/svg">
<path fill-rule="evenodd" clip-rule="evenodd" d="M4 8.5H17C17.2761 8.5 17.5 8.72386 17.5 9V15C17.5 15.2761 17.2761 15.5 17 15.5H4C3.72386 15.5 3.5 15.2761 3.5 15V9C3.5 8.72386 3.72386 8.5 4 8.5ZM2 9C2 7.89543 2.89543 7 4 7H17C18.1046 7 19 7.89543 19 9V15C19 16.1046 18.1046 17 17 17H4C2.89543 17 2 16.1046 2 15V9ZM21.5 14V10H20V14H21.5Z" fill="#0B1F33"/>
<path d="M17.9688 9C17.9688 8.72386 18.1926 8.5 18.4688 8.5H18.5H4C3.44772 8.5 3 8.94772 3 9.5V14.5C3 15.0523 3.44772 15.5 4 15.5H18.5H18.4688C18.1926 15.5 17.9688 15.2761 17.9688 15V9Z" fill="#0B1F33"/>
</svg>
