<svg width="24" height="24" viewBox="0 0 24 24" fill="none" xmlns="http://www.w3.org/2000/svg">
<path fill-rule="evenodd" clip-rule="evenodd" d="M9.5 5.87084L4.14332 9.5978C3.74029 9.87822 3.5 10.3381 3.5 10.8291L3.5 12.9659C3.5 13.4475 3.73129 13.8999 4.12176 14.1819L9.5 18.0662L9.5 5.87084ZM9.42887 4.09298L3.28663 8.36651C2.48057 8.92733 2 9.84714 2 10.8291V12.9659C2 13.9292 2.46259 14.8339 3.24352 15.3979L9.4145 19.8548C10.0758 20.3324 11 19.8599 11 19.0441V15.8738C12.7252 15.4298 14 13.8637 14 11.9999C14 10.136 12.7252 8.56991 11 8.12587V4.91384C11 4.10612 10.0919 3.63167 9.42887 4.09298ZM12.5 11.9999C12.5 13.025 11.883 13.9061 11 14.2918L11 9.70787C11.883 10.0937 12.5 10.9747 12.5 11.9999ZM15.0017 13.9378L16.9361 12.0035L15.0005 10.0599L16.0633 9.00144L17.9967 10.9428L19.9392 9.00034L20.9999 10.061L19.0552 12.0056L20.9806 13.939L19.9178 14.9974L17.9945 13.0663L16.0623 14.9985L15.0017 13.9378Z" fill="#0B1F33"/>
</svg>
