<svg width="24" height="24" viewBox="0 0 24 24" fill="none" xmlns="http://www.w3.org/2000/svg">
<path fill-rule="evenodd" clip-rule="evenodd" d="M7.35296 9.02859C10.3654 7.59227 14.1013 7.65943 17.046 9.23009L18.8291 5.66406L20.1707 6.33488L18.3172 10.0418C20.2928 11.5377 21.7113 13.8555 21.9607 16.995C22.0044 17.5455 21.5522 17.9995 20.9999 17.9995H2.99988C2.44759 17.9995 1.99533 17.5455 2.03906 16.995C2.30366 13.6639 3.88439 11.258 6.05021 9.77718L4.32906 6.33488L5.6707 5.66406L7.35296 9.02859ZM20.3977 16.4995C19.7384 11.8507 15.9618 9.49947 11.9999 9.49947C8.03798 9.49947 4.26135 11.8507 3.60202 16.4995H20.3977ZM7.29277 14.7066C7.48031 14.8941 7.73466 14.9995 7.99988 14.9995C8.26509 14.9995 8.51945 14.8941 8.70698 14.7066C8.89452 14.519 8.99988 14.2647 8.99988 13.9995C8.99988 13.7343 8.89452 13.4799 8.70698 13.2924C8.51945 13.1048 8.26509 12.9995 7.99988 12.9995C7.73466 12.9995 7.48031 13.1048 7.29277 13.2924C7.10523 13.4799 6.99988 13.7343 6.99988 13.9995C6.99988 14.2647 7.10523 14.519 7.29277 14.7066ZM15.9999 14.9995C15.7347 14.9995 15.4803 14.8941 15.2928 14.7066C15.1052 14.519 14.9999 14.2647 14.9999 13.9995C14.9999 13.7343 15.1052 13.4799 15.2928 13.2924C15.4803 13.1048 15.7347 12.9995 15.9999 12.9995C16.2651 12.9995 16.5194 13.1048 16.707 13.2924C16.8945 13.4799 16.9999 13.7343 16.9999 13.9995C16.9999 14.2647 16.8945 14.519 16.707 14.7066C16.5194 14.8941 16.2651 14.9995 15.9999 14.9995Z" fill="#0B1F33"/>
</svg>
