<svg width="24" height="24" viewBox="0 0 24 24" fill="none" xmlns="http://www.w3.org/2000/svg">
<path fill-rule="evenodd" clip-rule="evenodd" d="M20.5 18.1596V4.66722L16.5708 5.81274C15.8029 6.03663 14.9891 6.05177 14.2134 5.85661L9.01144 4.54787C8.76966 4.48704 8.51653 4.48744 8.27494 4.54902L3.5 5.76623V19.3117L7.27272 18.1331C8.07938 17.8811 8.9407 17.8614 9.75805 18.0762L14.9767 19.4473C15.2302 19.5139 15.4966 19.513 15.7496 19.4446L20.5 18.1596ZM21.2611 19.5077L16.1412 20.8925C15.6353 21.0294 15.1024 21.0313 14.5956 20.8981L9.37687 19.5269C8.83196 19.3837 8.25775 19.3969 7.71998 19.5649L3.29817 20.9462C2.65426 21.1473 2 20.6663 2 19.9917V5.3777C2 4.92055 2.31 4.52161 2.75298 4.40869L7.90442 3.09551C8.3876 2.97234 8.89386 2.97154 9.37742 3.0932L14.5794 4.40194C15.0965 4.53205 15.639 4.52195 16.151 4.37269L20.7201 3.0406C21.3601 2.85402 22 3.33401 22 4.00063V18.5424C22 18.9941 21.6972 19.3897 21.2611 19.5077ZM9.23245 11.8506C10.203 10.6341 10.5 10.014 10.5 9.35728C10.5 8.59987 9.82843 7.98587 9 7.98587C8.17157 7.98587 7.5 8.59987 7.5 9.35728C7.5 10.122 7.80363 10.6424 8.76829 11.8499C8.8869 11.9984 9.11394 11.9991 9.23245 11.8506Z" fill="#0B1F33"/>
</svg>
