<svg width="24" height="24" viewBox="0 0 24 24" fill="none" xmlns="http://www.w3.org/2000/svg">
<path fill-rule="evenodd" clip-rule="evenodd" d="M12.194 2.06013L11.9993 2.00781L11.8046 2.06013L3.56119 4.27575L3.00586 4.42501V5.00004V8.0124C2.43274 8.2389 1.91165 8.50098 1.47361 8.80396C0.802362 9.26825 0.00195312 10.0643 0.00195312 11.233C0.00195312 12.4017 0.802362 13.1978 1.47361 13.6621C2.19045 14.1579 3.12972 14.5442 4.15543 14.8443C4.99799 15.0908 5.95667 15.2956 6.99951 15.4518V13.9341C6.0759 13.7874 5.23594 13.6014 4.50591 13.3837L4.50586 12.0086V5.91898L11.2495 7.7915V9.99977H12.7495V7.7915L19.4928 5.91909V12.0086V13.3838C17.5878 13.9518 14.9343 14.3041 11.9995 14.3041C11.909 14.3041 11.8189 14.3038 11.729 14.3031L13.0276 13.0045L11.9669 11.9439L9.46919 14.4416C9.17629 14.7345 9.17629 15.2094 9.46918 15.5023L11.9669 18.0001L13.0276 16.9394L11.8922 15.804L11.9995 15.8041C14.9995 15.8041 17.7723 15.4502 19.8435 14.8443C20.8692 14.5442 21.8085 14.1579 22.5253 13.6621C23.1966 13.1978 23.997 12.4017 23.997 11.233C23.997 10.0643 23.1966 9.26825 22.5253 8.80396C22.0872 8.50092 21.566 8.2388 20.9928 8.01227V5.00004V4.42501L20.4374 4.27575L12.194 2.06013ZM20.9928 12.0086V12.818C21.9476 12.3553 22.497 11.8129 22.497 11.233C22.497 10.6531 21.9476 10.1108 20.9928 9.64805V12.0086ZM3.00586 12.0086V9.64821C2.05123 10.1109 1.50195 10.6532 1.50195 11.233C1.50195 11.8129 2.05123 12.3552 3.00586 12.8179V12.0086ZM11.9995 6.44301L6.7254 4.97853L11.9993 3.56105L17.2734 4.97859L11.9995 6.44301ZM12.2382 21.9257L11.9995 22.0058L11.7609 21.9257L9.0131 21.0035L9.49034 19.5815L11.9995 20.4236L14.5087 19.5815L14.986 21.0035L12.2382 21.9257ZM17.2565 18.6593L19.493 17.9088L19.4929 16.3017L20.9929 16.3016L20.993 18.4482L20.993 18.9876L20.4816 19.1592L17.7338 20.0814L17.2565 18.6593ZM6.74253 18.6593L4.50607 17.9088L4.50601 16.3016L3.00601 16.3017L3.00609 18.4482L3.00611 18.9876L3.51747 19.1592L6.26529 20.0814L6.74253 18.6593Z" fill="#0B1F33"/>
</svg>
