<svg width="24" height="24" viewBox="0 0 24 24" fill="none" xmlns="http://www.w3.org/2000/svg">
<path fill-rule="evenodd" clip-rule="evenodd" d="M4.54497 6.73005C4 7.79961 4 9.19974 4 12C4 14.8003 4 16.2004 4.54497 17.27C5.02433 18.2108 5.78924 18.9757 6.73005 19.455C7.79961 20 9.19974 20 12 20C14.8003 20 16.2004 20 17.27 19.455C18.2108 18.9757 18.9757 18.2108 19.455 17.27C20 16.2004 20 14.8003 20 12C20 9.19974 20 7.79961 19.455 6.73005C18.9757 5.78924 18.2108 5.02433 17.27 4.54497C16.2004 4 14.8003 4 12 4C9.19974 4 7.79961 4 6.73005 4.54497C5.78924 5.02433 5.02433 5.78924 4.54497 6.73005ZM15 8C15 7.44772 15.4477 7 16 7C16.5523 7 17 7.44772 17 8C17 8.55228 16.5523 9 16 9C15.4477 9 15 8.55228 15 8ZM8.9375 12C8.9375 10.3086 10.3086 8.9375 12 8.9375C13.6914 8.9375 15.0625 10.3086 15.0625 12C15.0625 13.6914 13.6914 15.0625 12 15.0625C10.3086 15.0625 8.9375 13.6914 8.9375 12Z" fill="#0B1F33"/>
</svg>
