<svg width="24" height="24" viewBox="0 0 24 24" fill="none" xmlns="http://www.w3.org/2000/svg">
<path fill-rule="evenodd" clip-rule="evenodd" d="M17.0037 4.61298L11 8.01574V10.2754L18.0004 6.30776C18.4728 6.04005 18.6326 5.44363 18.3573 4.97563C18.0821 4.50763 17.476 4.34526 17.0037 4.61298ZM11 11.9994V18.4994V18.5151H20V20.0151H9V19.9994H5.5H4V18.4994V5.91636C4 4.81179 4.89543 3.91636 6 3.91636H9C10.1046 3.91636 11 4.81179 11 5.91636V6.29178L16.2433 3.32001C17.4363 2.64381 18.9671 3.05391 19.6623 4.236C20.3575 5.41809 19.9539 6.92453 18.7608 7.60073L11 11.9994ZM6 5.41636H9C9.27614 5.41636 9.5 5.64022 9.5 5.91636V7.24943H5.5V5.91636C5.5 5.64022 5.72386 5.41636 6 5.41636ZM5.5 8.74943H9.5V18.4994H5.5V8.74943Z" fill="#0B1F33"/>
</svg>
