<svg width="48" height="24" viewBox="0 0 48 24" fill="none" xmlns="http://www.w3.org/2000/svg">
<path d="M6.98596 24C3.89399 24 1.97114 20.6418 3.5363 17.9752L11.1813 4.9504C12.6177 2.50318 15.243 1 18.0806 1H44C46.2091 1 48 2.79086 48 5V20C48 22.2091 46.2091 24 44 24H6.98596Z" fill="#2DC36A"/>
<path d="M18.8067 16.9566V14.7606C18.8067 14.6006 18.8147 14.4446 18.8307 14.2926C18.8547 14.1406 18.8907 13.9966 18.9387 13.8606C18.8507 13.9726 18.7467 14.0726 18.6267 14.1606C18.5067 14.2486 18.3787 14.3366 18.2427 14.4246L16.3467 15.5286L15.6387 14.3286L17.5467 13.2246C17.6907 13.1366 17.8307 13.0646 17.9667 13.0086C18.1107 12.9526 18.2587 12.9126 18.4107 12.8886C18.1147 12.8566 17.8267 12.7406 17.5467 12.5406L15.6387 11.4246L16.3347 10.2246L18.2427 11.3526C18.3787 11.4406 18.5067 11.5326 18.6267 11.6286C18.7547 11.7166 18.8627 11.8166 18.9507 11.9286C18.8947 11.7926 18.8547 11.6486 18.8307 11.4966C18.8147 11.3446 18.8067 11.1886 18.8067 11.0286V8.80859H20.2227V11.0046C20.2227 11.1726 20.2107 11.3366 20.1867 11.4966C20.1707 11.6486 20.1347 11.7926 20.0787 11.9286C20.1667 11.8166 20.2707 11.7166 20.3907 11.6286C20.5107 11.5326 20.6427 11.4406 20.7867 11.3526L22.6827 10.2486L23.3907 11.4486L21.4827 12.5406C21.3387 12.6286 21.1947 12.7046 21.0507 12.7686C20.9147 12.8246 20.7707 12.8646 20.6187 12.8886C20.8907 12.9366 21.1787 13.0486 21.4827 13.2246L23.3907 14.3406L22.6947 15.5406L20.7867 14.4246C20.6427 14.3366 20.5107 14.2486 20.3907 14.1606C20.2707 14.0726 20.1627 13.9726 20.0667 13.8606C20.1707 14.1166 20.2227 14.4126 20.2227 14.7486V16.9566H18.8067Z" fill="white"/>
<path d="M29.002 16.9566V14.7606C29.002 14.6006 29.01 14.4446 29.026 14.2926C29.05 14.1406 29.086 13.9966 29.134 13.8606C29.046 13.9726 28.942 14.0726 28.822 14.1606C28.702 14.2486 28.574 14.3366 28.438 14.4246L26.542 15.5286L25.834 14.3286L27.742 13.2246C27.886 13.1366 28.026 13.0646 28.162 13.0086C28.306 12.9526 28.454 12.9126 28.606 12.8886C28.31 12.8566 28.022 12.7406 27.742 12.5406L25.834 11.4246L26.53 10.2246L28.438 11.3526C28.574 11.4406 28.702 11.5326 28.822 11.6286C28.95 11.7166 29.058 11.8166 29.146 11.9286C29.09 11.7926 29.05 11.6486 29.026 11.4966C29.01 11.3446 29.002 11.1886 29.002 11.0286V8.80859H30.418V11.0046C30.418 11.1726 30.406 11.3366 30.382 11.4966C30.366 11.6486 30.33 11.7926 30.274 11.9286C30.362 11.8166 30.466 11.7166 30.586 11.6286C30.706 11.5326 30.838 11.4406 30.982 11.3526L32.878 10.2486L33.586 11.4486L31.678 12.5406C31.534 12.6286 31.39 12.7046 31.246 12.7686C31.11 12.8246 30.966 12.8646 30.814 12.8886C31.086 12.9366 31.374 13.0486 31.678 13.2246L33.586 14.3406L32.89 15.5406L30.982 14.4246C30.838 14.3366 30.706 14.2486 30.586 14.1606C30.466 14.0726 30.358 13.9726 30.262 13.8606C30.366 14.1166 30.418 14.4126 30.418 14.7486V16.9566H29.002Z" fill="white"/>
<path d="M39.1973 16.9566V14.7606C39.1973 14.6006 39.2053 14.4446 39.2213 14.2926C39.2453 14.1406 39.2813 13.9966 39.3293 13.8606C39.2413 13.9726 39.1373 14.0726 39.0173 14.1606C38.8973 14.2486 38.7693 14.3366 38.6333 14.4246L36.7373 15.5286L36.0293 14.3286L37.9373 13.2246C38.0813 13.1366 38.2213 13.0646 38.3573 13.0086C38.5013 12.9526 38.6493 12.9126 38.8013 12.8886C38.5053 12.8566 38.2173 12.7406 37.9373 12.5406L36.0293 11.4246L36.7253 10.2246L38.6333 11.3526C38.7693 11.4406 38.8973 11.5326 39.0173 11.6286C39.1453 11.7166 39.2533 11.8166 39.3413 11.9286C39.2853 11.7926 39.2453 11.6486 39.2213 11.4966C39.2053 11.3446 39.1973 11.1886 39.1973 11.0286V8.80859H40.6133V11.0046C40.6133 11.1726 40.6013 11.3366 40.5773 11.4966C40.5613 11.6486 40.5253 11.7926 40.4693 11.9286C40.5573 11.8166 40.6613 11.7166 40.7813 11.6286C40.9013 11.5326 41.0333 11.4406 41.1773 11.3526L43.0733 10.2486L43.7813 11.4486L41.8733 12.5406C41.7293 12.6286 41.5853 12.7046 41.4413 12.7686C41.3053 12.8246 41.1613 12.8646 41.0093 12.8886C41.2813 12.9366 41.5693 13.0486 41.8733 13.2246L43.7813 14.3406L43.0853 15.5406L41.1773 14.4246C41.0333 14.3366 40.9013 14.2486 40.7813 14.1606C40.6613 14.0726 40.5533 13.9726 40.4573 13.8606C40.5613 14.1166 40.6133 14.4126 40.6133 14.7486V16.9566H39.1973Z" fill="white"/>
</svg>
