<svg width="24" height="24" viewBox="0 0 24 24" fill="none" xmlns="http://www.w3.org/2000/svg">
<path fill-rule="evenodd" clip-rule="evenodd" d="M15.1912 4L20.7752 9.49437C20.9185 9.63536 20.9992 9.82796 20.9992 10.029C20.9992 10.23 20.9185 10.4226 20.7752 10.5636L15.1912 16.058L14.1392 14.9887L18.3998 10.7966H8.352C6.22514 10.7966 4.50098 12.5207 4.50098 14.6476C4.50098 16.7751 6.22624 18.4996 8.35381 18.4986L10.988 18.4974L10.9887 19.9974L8.35452 19.9986C5.39825 20 3.00098 17.6039 3.00098 14.6476C3.00098 11.6923 5.39671 9.29656 8.352 9.29656H18.4355L14.1392 5.06921L15.1912 4Z" fill="#0B1F33"/>
</svg>
