<svg width="24" height="24" viewBox="0 0 24 24" fill="none" xmlns="http://www.w3.org/2000/svg">
<path fill-rule="evenodd" clip-rule="evenodd" d="M18.1427 11.1656L16.5052 9.53439L22.0002 4.06077L20.9416 2.99805L15.4425 8.47576L13.8905 6.92971C12.7166 5.76039 10.8135 5.76039 9.63968 6.92971L9.29502 7.27305L9.29125 7.26927C7.42433 9.06849 5.0968 10.3172 2.56531 10.8776L2.15273 10.969C2.03487 10.995 1.96891 11.121 2.01457 11.2327L2.26055 11.8347C2.31675 11.9723 2.37491 12.1086 2.43497 12.2438L2.43497 12.2438C2.46179 12.3041 2.48898 12.3642 2.51656 12.4241L2.51682 12.4247C4.91673 17.6339 10.1721 21.0009 15.9455 21.0009C15.98 21.0009 16.0126 20.9846 16.0332 20.9569L16.3981 20.4662C17.4044 19.113 17.8939 17.4448 17.7787 15.7626L17.7878 15.7535L18.1427 15.4C19.3165 14.2307 19.3165 12.3349 18.1427 11.1656ZM9.21326 9.32906L9.28487 9.4004L13.7322 13.8306L16.2933 16.3914C16.2645 17.4988 15.9058 18.5763 15.2585 19.4832C10.4364 19.2342 6.1075 16.3785 4.00046 12.0529C5.89615 11.4839 7.66525 10.5591 9.21326 9.32906ZM14.7962 12.7733L16.7251 14.6949L17.08 14.3414C17.6669 13.7568 17.6669 12.8088 17.08 12.2242L12.8278 7.98833C12.2409 7.40367 11.2893 7.40367 10.7024 7.98833L10.3558 8.33361L14.7962 12.7733Z" fill="#0B1F33"/>
</svg>
