<svg width="48" height="24" viewBox="0 0 48 24" fill="none" xmlns="http://www.w3.org/2000/svg">
<path d="M6.98555 24C3.89359 24 1.97073 20.6418 3.53589 17.9752L11.1809 4.9504C12.6173 2.50318 15.2426 1 18.0802 1H43.9996C46.2087 1 47.9996 2.79086 47.9996 5V20C47.9996 22.2091 46.2087 24 43.9996 24H6.98555Z" fill="#851F82"/>
<path d="M20.0197 14.4379V18.0009H18.1367V7.87891H21.4267C22.1034 7.87891 22.6891 7.95824 23.1837 8.11691C23.6784 8.27558 24.0867 8.49724 24.4087 8.78191C24.7307 9.06658 24.9687 9.40724 25.1227 9.80391C25.2814 10.2006 25.3607 10.6346 25.3607 11.1059C25.3607 11.5959 25.2791 12.0462 25.1157 12.4569C24.9524 12.8629 24.7074 13.2129 24.3807 13.5069C24.0541 13.8009 23.6434 14.0296 23.1487 14.1929C22.6587 14.3562 22.0847 14.4379 21.4267 14.4379H20.0197ZM20.0197 12.9679H21.4267C21.7721 12.9679 22.0731 12.9259 22.3297 12.8419C22.5864 12.7532 22.7987 12.6296 22.9667 12.4709C23.1394 12.3076 23.2677 12.1116 23.3517 11.8829C23.4357 11.6496 23.4777 11.3906 23.4777 11.1059C23.4777 10.8352 23.4357 10.5902 23.3517 10.3709C23.2677 10.1516 23.1417 9.96491 22.9737 9.81091C22.8057 9.65691 22.5934 9.54024 22.3367 9.46091C22.0801 9.37691 21.7767 9.33491 21.4267 9.33491H20.0197V12.9679Z" fill="white"/>
<path d="M29.3176 14.4379V18.0009H27.4346V7.87891H30.7246C31.4013 7.87891 31.9869 7.95824 32.4816 8.11691C32.9763 8.27558 33.3846 8.49724 33.7066 8.78191C34.0286 9.06658 34.2666 9.40724 34.4206 9.80391C34.5793 10.2006 34.6586 10.6346 34.6586 11.1059C34.6586 11.5959 34.5769 12.0462 34.4136 12.4569C34.2503 12.8629 34.0053 13.2129 33.6786 13.5069C33.3519 13.8009 32.9413 14.0296 32.4466 14.1929C31.9566 14.3562 31.3826 14.4379 30.7246 14.4379H29.3176ZM29.3176 12.9679H30.7246C31.0699 12.9679 31.3709 12.9259 31.6276 12.8419C31.8843 12.7532 32.0966 12.6296 32.2646 12.4709C32.4373 12.3076 32.5656 12.1116 32.6496 11.8829C32.7336 11.6496 32.7756 11.3906 32.7756 11.1059C32.7756 10.8352 32.7336 10.5902 32.6496 10.3709C32.5656 10.1516 32.4396 9.96491 32.2716 9.81091C32.1036 9.65691 31.8913 9.54024 31.6346 9.46091C31.3779 9.37691 31.0746 9.33491 30.7246 9.33491H29.3176V12.9679Z" fill="white"/>
<path d="M43.8024 7.87891V9.42591H40.7504V18.0009H38.8674V9.42591H35.8154V7.87891H43.8024Z" fill="white"/>
</svg>
