<svg width="16" height="16" viewBox="0 0 16 16" fill="none" xmlns="http://www.w3.org/2000/svg">
<path fill-rule="evenodd" clip-rule="evenodd" d="M5.25 2.50195C3.30152 2.50195 2.00439 4.16788 2.00439 6.02152C2.00439 7.70624 3.02175 9.17443 4.13158 10.3456C4.98575 11.2469 5.99383 12.0696 6.8202 12.7439C7.07372 12.9508 7.31014 13.1438 7.51976 13.3207C7.79917 13.5566 8.20796 13.5566 8.48737 13.3207C8.69699 13.1438 8.9334 12.9508 9.18691 12.744L9.18693 12.7439L9.18695 12.7439C10.0133 12.0696 11.0214 11.2469 11.8756 10.3456C12.9854 9.17443 14.0027 7.70624 14.0027 6.02152C14.0027 4.16489 12.6958 2.50195 10.75 2.50195C9.60028 2.50195 8.70583 3.07588 8.12181 3.85108C8.08052 3.90588 8.04069 3.96178 8.00231 4.01867C7.96347 3.96133 7.92317 3.90501 7.88139 3.84981C7.29536 3.07538 6.39923 2.50195 5.25 2.50195Z" fill="#0B1F33"/>
</svg>
