<svg width="16" height="16" viewBox="0 0 16 16" fill="none" xmlns="http://www.w3.org/2000/svg">
<path fill-rule="evenodd" clip-rule="evenodd" d="M9.2161 3.25096L6.94016 5.52698L5.86589 4.45271L8.14178 2.17673C9.71068 0.607768 12.2545 0.607755 13.8234 2.1767C15.3922 3.74555 15.3922 6.28908 13.8234 7.85793L11.5473 10.1341L10.473 9.05982L12.7491 6.78369C13.7246 5.80814 13.7246 4.22649 12.7491 3.25094C11.7735 2.27532 10.1917 2.27533 9.2161 3.25096ZM4.4517 5.86695L5.52597 6.94122L3.25088 9.2164C2.27538 10.1919 2.27539 11.7735 3.2509 12.7491C4.22648 13.7247 5.80824 13.7247 6.78382 12.7491L9.0588 10.4741L10.1331 11.5483L7.85812 13.8233C6.28923 15.3922 3.74549 15.3922 2.1766 13.8233C0.607811 12.2545 0.607798 9.71101 2.17657 8.14217L4.4517 5.86695ZM9.94396 4.99536L4.99421 9.94511L6.05487 11.0058L11.0046 6.05602L9.94396 4.99536Z" fill="#0B1F33"/>
</svg>
