<svg width="24" height="24" viewBox="0 0 24 24" fill="none" xmlns="http://www.w3.org/2000/svg">
<path fill-rule="evenodd" clip-rule="evenodd" d="M14.2807 5.14555L6.03119 4.62996C5.74334 4.61197 5.5 4.84058 5.5 5.12899V11.0001C5.5 11.7439 5.68047 12.4456 6 13.0637V11.1737C6 10.0036 7.00005 9.08343 8.16609 9.1806L14.5459 9.71225C16.3745 9.86463 17.8078 11.306 17.9822 13.0978C18.3128 12.4715 18.5 11.7576 18.5 11.0001V9.63679C18.5 7.26051 16.6524 5.29378 14.2807 5.14555ZM17.9803 15.4899C19.2192 14.3907 20 12.7866 20 11.0001V9.63679C20 6.46841 17.5365 3.84611 14.3743 3.64848L6.12476 3.13288C4.97336 3.06092 4 3.97534 4 5.12899V11.0001C4 12.7866 4.78077 14.3907 6.0197 15.4899C6.2689 18.5745 8.85118 21.0001 12 21.0001C15.1488 21.0001 17.7311 18.5745 17.9803 15.4899ZM8.04152 10.6754L14.4213 11.2071C15.5963 11.305 16.5 12.2872 16.5 13.4662V15.0001C16.5 17.4854 14.4853 19.5001 12 19.5001C9.51472 19.5001 7.5 17.4854 7.5 15.0001V11.1737C7.5 10.8812 7.75001 10.6511 8.04152 10.6754Z" fill="#0B1F33"/>
</svg>
