<svg width="48" height="24" viewBox="0 0 48 24" fill="none" xmlns="http://www.w3.org/2000/svg">
<path d="M6.98596 24C3.89399 24 1.97114 20.6418 3.5363 17.9752L11.1813 4.9504C12.6177 2.50318 15.243 1 18.0806 1H44C46.2091 1 48 2.79086 48 5V20C48 22.2091 46.2091 24 44 24H6.98596Z" fill="#1D5DEB"/>
<path d="M26.8773 14.178L25.6453 10.811C25.5847 10.6617 25.5217 10.4843 25.4563 10.279C25.391 10.0737 25.3257 9.852 25.2603 9.614C25.1997 9.852 25.1367 10.076 25.0713 10.286C25.006 10.4913 24.943 10.671 24.8823 10.825L23.6573 14.178H26.8773ZM30.2023 18H28.7463C28.583 18 28.45 17.9603 28.3473 17.881C28.2447 17.797 28.1677 17.6943 28.1163 17.573L27.3603 15.508H23.1673L22.4113 17.573C22.374 17.6803 22.3017 17.7783 22.1943 17.867C22.087 17.9557 21.954 18 21.7953 18H20.3253L24.3083 7.878H26.2263L30.2023 18ZM39.923 7.878L35.835 18H34.134L30.046 7.878H31.558C31.7214 7.878 31.8544 7.91767 31.957 7.997C32.0597 8.07633 32.1367 8.179 32.188 8.305L34.575 14.479C34.6544 14.6797 34.729 14.9013 34.799 15.144C34.8737 15.382 34.9437 15.6317 35.009 15.893C35.065 15.6317 35.1257 15.382 35.191 15.144C35.2564 14.9013 35.3287 14.6797 35.408 14.479L37.781 8.305C37.8184 8.19767 37.8907 8.09967 37.998 8.011C38.11 7.92233 38.2454 7.878 38.404 7.878H39.923ZM42.8608 18H40.9708V7.878H42.8608V18Z" fill="white"/>
</svg>
