<svg width="16" height="16" viewBox="0 0 16 16" fill="none" xmlns="http://www.w3.org/2000/svg">
<path fill-rule="evenodd" clip-rule="evenodd" d="M6.55376 9.77499L6.5487 9.76973C6.20542 10.1285 5.85956 10.4882 5.51792 10.8411L5.50179 10.8587V6.14939L5.50166 5.96104C5.50112 5.48158 5.50087 5.2516 5.5407 5.04335C5.56667 4.90754 5.60516 4.80538 5.75055 4.65426L7.46414 2.95355L10.1458 5.9665C9.2885 6.8867 7.94161 8.32448 6.55376 9.77499ZM7.59445 10.857C9.41893 8.95102 11.1776 7.06148 11.8671 6.31802C12.042 6.12945 12.0425 5.84133 11.8715 5.64922L7.88262 1.16758C7.69193 0.953335 7.36048 0.943077 7.15691 1.14512L4.68366 3.59977C3.99608 4.30509 3.99832 5.00062 4.00137 5.95223C4.00158 6.01675 4.00179 6.08244 4.00179 6.14939V12.4963L4 12.4983L4.00014 13.248C4.00014 14.2159 4.79184 15.0006 5.76845 15.0006H10.4C10.8443 15.0006 11.0723 14.4731 10.7657 14.1543L7.59445 10.857ZM5.64721 12.8776C5.47664 13.0467 5.51583 13.248 5.51583 13.248C5.51583 13.3863 5.62893 13.4984 5.76845 13.4984H8.03584L6.55179 11.951C6.55179 11.951 5.81779 12.7086 5.64721 12.8776Z" fill="#0B1F33"/>
</svg>
