<svg width="24" height="24" viewBox="0 0 24 24" fill="none" xmlns="http://www.w3.org/2000/svg">
<path fill-rule="evenodd" clip-rule="evenodd" d="M3.7942 6.1542C3.33136 6.25154 3 6.65983 3 7.1328V10.9994C3 11.1375 3.11193 11.2494 3.25 11.2494L10 11.2494C10.1381 11.2494 10.25 11.1375 10.25 10.9994V5.10457C10.25 4.9458 10.1039 4.82725 9.94855 4.85992L3.7942 6.1542ZM11.9485 4.43932C11.8328 4.46365 11.75 4.56573 11.75 4.68397V10.9994C11.75 11.1375 11.8619 11.2494 12 11.2494L20.75 11.2494C20.8881 11.2494 21 11.1375 21 10.9994V3.76795C21 3.13286 20.4157 2.65865 19.7942 2.78935L11.9485 4.43932ZM21 12.9994C21 12.8613 20.8881 12.7494 20.75 12.7494L12 12.7494C11.8619 12.7494 11.75 12.8613 11.75 12.9994V19.3148C11.75 19.4331 11.8328 19.5352 11.9486 19.5595L19.7942 21.2095C20.4157 21.3402 21 20.866 21 20.2309V12.9994ZM9.94855 19.1389C10.1039 19.1716 10.25 19.053 10.25 18.8942V12.9994C10.25 12.8613 10.1381 12.7494 10 12.7494L3.25 12.7494C3.11193 12.7494 3 12.8613 3 12.9994V16.866C3 17.339 3.33136 17.7473 3.7942 17.8446L9.94855 19.1389Z" fill="#0B1F33"/>
</svg>
