<svg width="48" height="24" viewBox="0 0 48 24" fill="none" xmlns="http://www.w3.org/2000/svg">
<g clip-path="url(#clip0_37775_17057)">
<path d="M6.98555 24C3.89359 24 1.97073 20.6418 3.53589 17.9752L11.1809 4.9504C12.6173 2.50318 15.2426 1 18.0802 1H43.9996C46.2087 1 47.9996 2.79086 47.9996 5V20C47.9996 22.2091 46.2087 24 43.9996 24H6.98555Z" fill="#86909C"/>
<path d="M25.6913 15.6126C25.794 15.6126 25.885 15.6523 25.9643 15.7316L26.7063 16.5366C26.2957 17.0453 25.7893 17.435 25.1873 17.7056C24.59 17.9763 23.8713 18.1116 23.0313 18.1116C22.28 18.1116 21.6033 17.9833 21.0013 17.7266C20.404 17.47 19.893 17.113 19.4683 16.6556C19.0437 16.1983 18.717 15.6523 18.4883 15.0176C18.2643 14.383 18.1523 13.69 18.1523 12.9386C18.1523 12.178 18.2737 11.4826 18.5163 10.8526C18.759 10.218 19.0997 9.67196 19.5383 9.21462C19.9817 8.75729 20.509 8.40262 21.1203 8.15062C21.7317 7.89396 22.4083 7.76562 23.1503 7.76562C23.8877 7.76562 24.541 7.88696 25.1103 8.12962C25.6843 8.37229 26.172 8.68963 26.5733 9.08162L25.9433 9.95662C25.906 10.0126 25.857 10.0616 25.7963 10.1036C25.7403 10.1456 25.661 10.1666 25.5583 10.1666C25.4883 10.1666 25.416 10.148 25.3413 10.1106C25.2667 10.0686 25.185 10.0196 25.0963 9.96362C25.0077 9.90296 24.905 9.83763 24.7883 9.76763C24.6717 9.69762 24.5363 9.63462 24.3823 9.57862C24.2283 9.51796 24.0487 9.46896 23.8433 9.43162C23.6427 9.38962 23.4093 9.36862 23.1433 9.36862C22.6907 9.36862 22.2753 9.45029 21.8973 9.61362C21.524 9.77229 21.202 10.0056 20.9313 10.3136C20.6607 10.617 20.4507 10.9903 20.3013 11.4336C20.152 11.8723 20.0773 12.374 20.0773 12.9386C20.0773 13.508 20.1567 14.0143 20.3153 14.4576C20.4787 14.901 20.698 15.2743 20.9733 15.5776C21.2487 15.881 21.573 16.1143 21.9463 16.2776C22.3197 16.4363 22.721 16.5156 23.1503 16.5156C23.407 16.5156 23.638 16.5016 23.8433 16.4736C24.0533 16.4456 24.2447 16.4013 24.4173 16.3406C24.5947 16.28 24.7603 16.203 24.9143 16.1096C25.073 16.0116 25.2293 15.8926 25.3833 15.7526C25.43 15.7106 25.479 15.678 25.5303 15.6546C25.5817 15.6266 25.6353 15.6126 25.6913 15.6126Z" fill="white"/>
<path d="M31.0552 12.6936C31.4099 12.6936 31.7179 12.6493 31.9792 12.5606C32.2452 12.472 32.4622 12.3506 32.6302 12.1966C32.8029 12.038 32.9312 11.8513 33.0152 11.6366C33.0992 11.422 33.1412 11.1863 33.1412 10.9296C33.1412 10.4163 32.9709 10.022 32.6302 9.74662C32.2942 9.47129 31.7785 9.33362 31.0832 9.33362H29.8792V12.6936H31.0552ZM35.8992 17.9996H34.1982C33.8762 17.9996 33.6429 17.8736 33.4982 17.6216L31.3702 14.3806C31.2909 14.2593 31.2022 14.173 31.1042 14.1216C31.0109 14.0703 30.8709 14.0446 30.6842 14.0446H29.8792V17.9996H27.9962V7.87762H31.0832C31.7692 7.87762 32.3572 7.94996 32.8472 8.09462C33.3419 8.23462 33.7455 8.43296 34.0582 8.68962C34.3755 8.94629 34.6089 9.25429 34.7582 9.61362C34.9075 9.96829 34.9822 10.3603 34.9822 10.7896C34.9822 11.1303 34.9309 11.4523 34.8282 11.7556C34.7302 12.059 34.5855 12.3343 34.3942 12.5816C34.2075 12.829 33.9742 13.046 33.6942 13.2326C33.4189 13.4193 33.1039 13.5663 32.7492 13.6736C32.8705 13.7436 32.9825 13.8276 33.0852 13.9256C33.1879 14.019 33.2812 14.131 33.3652 14.2616L35.8992 17.9996Z" fill="white"/>
<path d="M43.8025 9.42462H40.7505V17.9996H38.8675V9.42462H35.8155V7.87762H43.8025V9.42462Z" fill="white"/>
</g>
<defs>
<clipPath id="clip0_37775_17057">
<rect width="48" height="24" fill="white"/>
</clipPath>
</defs>
</svg>
