<svg width="24" height="24" viewBox="0 0 24 24" fill="none" xmlns="http://www.w3.org/2000/svg">
<path fill-rule="evenodd" clip-rule="evenodd" d="M8.5 10.138V13.8503L15.4997 17.7473L15.4989 6.24936L8.5 10.138ZM15.4987 3.38952L6.25716 8.52415C6.09844 8.61234 6 8.77964 6 8.96122V15.0259C6 15.2073 6.09827 15.3745 6.25679 15.4627L15.4999 20.6087L15.563 20.6438L16.4722 21.15L17.2567 21.5868C17.59 21.7723 18 21.5313 17.9999 21.1499L17.9999 20.2519L17.9998 19.2113L17.9998 19.1391L17.9988 4.86041L17.9988 4.78881L17.9988 3.75036L17.9987 2.8503C17.9987 2.46906 17.5891 2.2281 17.2559 2.41326L16.4691 2.8504L15.5613 3.35474L15.4987 3.38952Z" fill="#0B1F33"/>
</svg>
