<svg width="24" height="24" viewBox="0 0 24 24" fill="none" xmlns="http://www.w3.org/2000/svg">
<path fill-rule="evenodd" clip-rule="evenodd" d="M16.0003 4.49337C16.8027 4.61851 17.547 5.00115 18.1175 5.58903C19.5475 7.06245 19.53 9.41093 18.0781 10.8628L17.781 11.1599L14.344 14.5968L10.5033 18.4375C9.12548 19.8153 6.88933 19.8081 5.52044 18.4213C4.1603 17.0434 4.1718 14.8247 5.54615 13.461L11.1778 7.87286C11.7155 7.33932 12.5834 7.34099 13.1191 7.8766C13.6562 8.41371 13.6562 9.28456 13.1191 9.82169L7.21204 15.7287L8.2727 16.7894L14.1798 10.8823C15.3027 9.75942 15.3027 7.93879 14.1797 6.81591C13.0599 5.69615 11.2454 5.69266 10.1213 6.80809L4.48961 12.3962C2.52829 14.3424 2.51188 17.5087 4.45292 19.4751C6.40646 21.4541 9.59767 21.4645 11.564 19.4981L15.4047 15.6575L18.8417 12.2205L19.1387 11.9235C21.1702 9.89199 21.1948 6.60597 19.1939 4.54435C18.3411 3.66559 17.2108 3.11458 16.0003 2.98047V4.49337Z" fill="currentColor"/>
</svg>
