<svg width="24" height="24" viewBox="0 0 24 24" fill="none" xmlns="http://www.w3.org/2000/svg">
<path d="M22.823 16.9493C22.5277 16.4179 20.9224 14.7018 20.5768 14.3727C20.1064 13.9246 19.1704 13.2729 19.4879 12.5058C19.5795 12.2692 19.9236 11.7694 20.5194 11.0059C20.8328 10.6012 21.0809 10.2769 21.2642 10.0326C22.5861 8.27664 23.0349 6.94944 22.924 6.66441C22.8131 6.37938 22.4511 6.33418 21.9223 6.33418L18.5258 6.35697C18.0704 6.35697 17.9066 6.52421 17.804 6.78083C17.4447 7.70457 17.0361 8.56342 16.5776 9.35732C16.2949 9.83072 16.0352 10.241 15.7981 10.5884C15.5613 10.9356 15.3627 11.1915 15.2024 11.3555C14.6603 11.9097 14.0125 12.1061 13.8844 11.1035C13.8616 10.924 13.8481 10.7695 13.8442 10.6397C13.8406 10.51 13.8423 10.3266 13.85 10.09C13.858 9.85322 13.8616 9.69303 13.8616 9.60904C13.8616 9.3189 13.8672 9.00401 13.8786 8.66429C13.8901 8.32457 13.8995 8.0554 13.9073 7.8571C13.9151 7.65861 13.9187 7.4486 13.9187 7.2272C13.9187 7.0058 13.9052 6.83217 13.8786 6.70615C13.8522 6.58029 13.8118 6.45812 13.7586 6.33968C13.705 6.22136 13.6265 6.12983 13.5236 6.06486C13.4205 5.99996 13.2923 5.94846 13.1397 5.9102C12.7347 5.81863 12.2191 5.7691 11.5924 5.76139C10.1714 5.74615 9.25834 5.83784 8.8534 6.03634C8.69296 6.12021 8.54777 6.2348 8.41795 6.37975C8.28039 6.54776 8.26121 6.63945 8.36051 6.65453C9.10919 6.76659 9.42011 7.13402 9.56396 7.81118C9.7843 8.84996 9.72051 9.96364 9.55818 11.0059C9.46632 11.5958 9.17188 12.2138 8.50951 11.7502C8.35678 11.6433 8.19827 11.4964 8.03397 11.3093C7.86968 11.1222 7.68439 10.8607 7.47803 10.5249C6.77285 9.37626 6.15727 8.13612 5.65597 6.88327C5.53078 6.55454 5.18262 6.31076 4.87668 6.31076L1.73654 6.33354C1.41565 6.33354 1.19793 6.40618 1.08329 6.55125L1.03741 6.61988C1.01449 6.6581 1.00293 6.71915 1.00293 6.80317C1.00293 6.88716 1.02585 6.99024 1.07173 7.11229C1.53013 8.1888 2.02864 9.22701 2.56724 10.2271C3.10585 11.2271 3.57389 12.0327 3.97108 12.6431C4.36835 13.2539 4.77328 13.8304 5.18589 14.3722C5.59849 14.9143 5.87161 15.2617 6.00523 15.4143C6.13902 15.5672 6.24411 15.6815 6.3205 15.7578L6.60706 16.0326C6.79042 16.2159 7.05968 16.4353 7.41497 16.691C7.77033 16.9469 8.16374 17.1988 8.59542 17.4471C9.02717 17.695 9.52944 17.8973 10.1025 18.0538C10.6755 18.2104 11.2332 18.2732 11.7757 18.2429H13.0937C13.361 18.2199 13.5635 18.1359 13.7012 17.9909L13.7468 17.9335C13.7774 17.888 13.8061 17.8172 13.8326 17.7219C13.8594 17.6265 13.8728 17.5214 13.8728 17.407C13.8649 17.0788 13.8899 16.783 13.9471 16.5197C14.0042 16.2564 14.0693 16.0579 14.1421 15.9242C14.414 15.4253 14.8019 15.1818 15.3227 15.558C15.571 15.7374 15.804 15.9589 16.0218 16.2222C16.2396 16.4857 16.5012 16.7814 16.8068 17.1096C17.2557 17.5916 17.8911 18.2319 18.6034 18.2319C19.2799 18.2319 20.9139 18.2605 22.0097 18.2434C22.5906 18.2434 22.9109 18.0138 22.9724 17.7853C23.0446 17.5156 22.966 17.1856 22.823 16.9493Z" fill="#0B1F33"/>
</svg>
