<svg width="24" height="24" viewBox="0 0 24 24" fill="none" xmlns="http://www.w3.org/2000/svg">
<path fill-rule="evenodd" clip-rule="evenodd" d="M4.59338 16.4956C4.56192 16.4525 4.53086 16.409 4.5002 16.3653C4.34353 16.1416 4.19737 15.9101 4.06243 15.6715C3.88777 15.3626 4.14535 15 4.5002 15C4.78079 15 5.05778 14.9846 5.33037 14.9546C5.34595 14.9529 5.36153 14.9511 5.37709 14.9493C5.37715 14.9493 5.37721 14.9493 5.37728 14.9493C9.10615 14.5149 12.0002 11.3454 12.0002 7.5C12.0002 6.17374 11.656 4.92788 11.0519 3.84691C10.847 3.48008 11.0639 3 11.4841 3C16.1874 3 20.0002 6.80558 20.0002 11.5C20.0002 16.1944 16.1874 20 11.4841 20C8.65303 20 6.14461 18.6211 4.59619 16.4995C4.59525 16.4982 4.59431 16.4969 4.59338 16.4956ZM6.38023 16.3033C7.66026 17.6569 9.47371 18.5 11.4841 18.5C15.3616 18.5 18.5002 15.3633 18.5002 11.5C18.5002 8.17206 16.1713 5.38334 13.0472 4.67431C13.3412 5.56391 13.5002 6.51426 13.5002 7.5C13.5002 11.8258 10.4483 15.4388 6.38023 16.3033Z" fill="#0B1F33"/>
</svg>
