<svg width="48" height="24" viewBox="0 0 48 24" fill="none" xmlns="http://www.w3.org/2000/svg">
<path d="M6.98555 24C3.89359 24 1.97073 20.6418 3.53589 17.9752L11.1809 4.9504C12.6173 2.50318 15.2426 1 18.0802 1H43.9996C46.2087 1 47.9996 2.79086 47.9996 5V20C47.9996 22.2091 46.2087 24 43.9996 24H6.98555Z" fill="#0D4CD3"/>
<path d="M20.2697 14.0459V18.0009H18.3867V7.87891H21.4737C22.1597 7.87891 22.7477 7.95124 23.2377 8.09591C23.7324 8.23591 24.1361 8.43424 24.4487 8.69091C24.7661 8.94758 24.9994 9.25558 25.1487 9.61491C25.2981 9.96958 25.3727 10.3616 25.3727 10.7909C25.3727 11.1316 25.3214 11.4536 25.2187 11.7569C25.1207 12.0602 24.9761 12.3356 24.7847 12.5829C24.5981 12.8302 24.3647 13.0472 24.0847 13.2339C23.8094 13.4206 23.4944 13.5699 23.1397 13.6819C23.3777 13.8172 23.5831 14.0109 23.7557 14.2629L26.2897 18.0009H24.5887C24.2667 18.0009 24.0334 17.8749 23.8887 17.6229L21.7607 14.3819C21.6814 14.2606 21.5927 14.1742 21.4947 14.1229C21.4014 14.0716 21.2614 14.0459 21.0747 14.0459H20.2697ZM20.2697 12.6949H21.4457C21.8004 12.6949 22.1084 12.6506 22.3697 12.5619C22.6357 12.4732 22.8527 12.3519 23.0207 12.1979C23.1934 12.0392 23.3217 11.8526 23.4057 11.6379C23.4897 11.4232 23.5317 11.1876 23.5317 10.9309C23.5317 10.4176 23.3614 10.0232 23.0207 9.74791C22.6847 9.47258 22.1691 9.33491 21.4737 9.33491H20.2697V12.6949Z" fill="white"/>
<path d="M35.0329 7.87891V9.42591H31.9809V18.0009H30.0979V9.42591H27.0459V7.87891H35.0329Z" fill="white"/>
<path d="M43.5813 7.87891V9.37691H39.0873V12.3729H42.8813V13.8779H39.0873V18.0009H37.1973V7.87891H43.5813Z" fill="white"/>
</svg>
