<svg width="24" height="24" viewBox="0 0 24 24" fill="none" xmlns="http://www.w3.org/2000/svg">
<path d="M17.7046 13.2805C18.0985 13.6739 18.0985 14.3116 17.7046 14.705C17.3108 15.0983 16.6723 15.0983 16.2785 14.705L11.2869 9.71945C10.8931 9.3261 10.8931 8.68836 11.2869 8.29501C11.6807 7.90166 12.3193 7.90166 12.7131 8.29501L17.7046 13.2805Z" fill="#0B1F33"/>
<path d="M7.72152 14.7048C7.3277 15.0982 6.68919 15.0982 6.29537 14.7048C5.90154 14.3115 5.90154 13.6737 6.29537 13.2804L11.2869 8.29501C11.6807 7.90166 12.3193 7.90166 12.7131 8.29501C13.1069 8.68836 13.1069 9.32595 12.7131 9.7193L7.72152 14.7048Z" fill="#0B1F33"/>
</svg>
