<svg width="24" height="24" viewBox="0 0 24 24" fill="none" xmlns="http://www.w3.org/2000/svg">
<path fill-rule="evenodd" clip-rule="evenodd" d="M13.5418 5.51742L10.514 8.54513L9.4533 7.48449L12.4811 4.45678C14.4314 2.5066 17.5934 2.50659 19.5437 4.45678C21.4939 6.40696 21.4939 9.56884 19.5437 11.519L16.5158 14.5467L15.4552 13.4861L18.483 10.4584C19.8475 9.09398 19.8475 6.88183 18.483 5.51742C17.1185 4.15301 14.9063 4.15301 13.5418 5.51742ZM7.4846 9.45312L8.54528 10.5138L5.51703 13.5419C4.15257 14.9063 4.15257 17.1184 5.51703 18.4829C6.8815 19.8473 9.09374 19.8473 10.4582 18.4829L13.4865 15.4547L14.5471 16.5154L11.5189 19.5435C9.56863 21.4937 6.40662 21.4937 4.45635 19.5435C2.50609 17.5933 2.50609 14.4314 4.45635 12.4812L7.4846 9.45312ZM14.9698 7.96945L7.96976 14.9694L9.03042 16.0301L16.0304 9.03011L14.9698 7.96945Z" fill="#0B1F33"/>
</svg>
