<svg width="24" height="24" viewBox="0 0 24 24" fill="none" xmlns="http://www.w3.org/2000/svg">
<circle cx="12" cy="12" r="10" fill="#FED13E"/>
<path d="M7 13H17C17 15.7614 14.7614 18 12 18C9.23858 18 7 15.7614 7 13Z" fill="white"/>
<path fill-rule="evenodd" clip-rule="evenodd" d="M10.2446 10.4529L7.23294 11.4529L6.76025 10.0293L9.77196 9.0293L10.2446 10.4529ZM17 12.9999H7.00001C7.00001 13.5225 7.08019 14.0264 7.22891 14.4999C7.86605 16.5284 9.76119 17.9999 12 17.9999C14.2388 17.9999 16.134 16.5284 16.7711 14.4999C16.9198 14.0264 17 13.5225 17 12.9999ZM8.83683 14.4999C9.39856 15.6823 10.6038 16.4999 12 16.4999C13.3962 16.4999 14.6015 15.6823 15.1632 14.4999H8.83683ZM13.7603 10.4529L16.772 11.4529L17.2446 10.0293L14.2329 9.0293L13.7603 10.4529Z" fill="#0B1F33"/>
</svg>
