<svg width="48" height="24" viewBox="0 0 48 24" fill="none" xmlns="http://www.w3.org/2000/svg">
<path d="M6.98555 24C3.89359 24 1.97073 20.6418 3.53589 17.9752L11.1809 4.9504C12.6173 2.50318 15.2426 1 18.0802 1H43.9996C46.2087 1 47.9996 2.79086 47.9996 5V20C47.9996 22.2091 46.2087 24 43.9996 24H6.98555Z" fill="#86909C"/>
<path d="M18.4606 12.7929L15.2336 7.87891H17.1096C17.2403 7.87891 17.3336 7.89758 17.3896 7.93491C17.4503 7.96758 17.5063 8.02358 17.5576 8.10291L19.8536 11.8129C19.877 11.7569 19.9026 11.7009 19.9306 11.6449C19.9586 11.5842 19.9913 11.5236 20.0286 11.4629L22.1426 8.13791C22.194 8.04924 22.25 7.98391 22.3106 7.94191C22.3713 7.89991 22.4483 7.87891 22.5416 7.87891H24.3406L21.0856 12.7159L24.4316 18.0009H22.5556C22.425 18.0009 22.32 17.9682 22.2406 17.9029C22.166 17.8376 22.1053 17.7629 22.0586 17.6789L19.7136 13.8009C19.681 13.9036 19.6366 14.0016 19.5806 14.0949L17.3336 17.6789C17.2776 17.7582 17.2123 17.8329 17.1376 17.9029C17.0676 17.9682 16.9743 18.0009 16.8576 18.0009H15.1006L18.4606 12.7929Z" fill="white"/>
<path d="M30.1914 13.8009C30.2707 13.9502 30.3431 14.1066 30.4084 14.2699C30.4784 14.4286 30.5461 14.5896 30.6114 14.7529C30.6767 14.5802 30.7444 14.4146 30.8144 14.2559C30.8844 14.0926 30.9591 13.9362 31.0384 13.7869L34.0274 8.17991C34.0647 8.10991 34.1044 8.05391 34.1464 8.01191C34.1884 7.96991 34.2327 7.93958 34.2794 7.92091C34.3307 7.90224 34.3867 7.89058 34.4474 7.88591C34.5081 7.88124 34.5804 7.87891 34.6644 7.87891H36.0854V18.0009H34.4264V11.4629C34.4264 11.3416 34.4287 11.2086 34.4334 11.0639C34.4427 10.9192 34.4544 10.7722 34.4684 10.6229L31.4094 16.3629C31.2647 16.6382 31.0431 16.7759 30.7444 16.7759H30.4784C30.1797 16.7759 29.9581 16.6382 29.8134 16.3629L26.7194 10.6019C26.7334 10.7559 26.7451 10.9076 26.7544 11.0569C26.7637 11.2016 26.7684 11.3369 26.7684 11.4629V18.0009H25.1094V7.87891H26.5304C26.6144 7.87891 26.6867 7.88124 26.7474 7.88591C26.8081 7.89058 26.8617 7.90224 26.9084 7.92091C26.9597 7.93958 27.0041 7.96991 27.0414 8.01191C27.0834 8.05391 27.1231 8.10991 27.1604 8.17991L30.1914 13.8009Z" fill="white"/>
<path d="M39.7365 16.4469H43.7825V18.0009H37.8535V7.87891H39.7365V16.4469Z" fill="white"/>
</svg>
