<svg width="24" height="24" viewBox="0 0 24 24" fill="none" xmlns="http://www.w3.org/2000/svg">
<path fill-rule="evenodd" clip-rule="evenodd" d="M13.7948 8.20579L14.0858 8.85282C14.1219 8.93308 14.1976 8.98844 14.285 8.9986L14.9897 9.08046L18.7742 9.52006C18.9925 9.54542 19.0742 9.81978 18.9054 9.96045L16.0397 12.3485L15.4409 12.8475C15.3676 12.9086 15.3355 13.0061 15.3581 13.0988L15.5427 13.856L16.4192 17.4522C16.471 17.6646 16.2445 17.8364 16.0539 17.7294L12.7358 15.8666L12.1315 15.5273C12.0527 15.483 12.0039 15.3997 12.0039 15.3093V5.38938C12.0039 5.11998 12.3713 5.04114 12.4819 5.28683L13.7948 8.20579ZM11.33 2.25555C11.8025 1.82637 12.6202 1.93778 12.9135 2.58979L15.1046 7.46107C15.1407 7.54133 15.2163 7.59669 15.3037 7.60685L20.6842 8.23184C21.5572 8.33325 21.8842 9.43072 21.209 9.99338L17.1198 13.401C17.0465 13.4621 17.0143 13.5596 17.0369 13.6523L18.2851 18.7732C18.4921 19.6226 17.5863 20.31 16.824 19.882L12.0045 17.1762C12.0042 17.176 12.0039 17.1762 12.0039 17.1765C12.0039 17.1768 12.0035 17.177 12.0033 17.1769L12.0014 17.1758C12.0008 17.1755 12.0002 17.1755 11.9997 17.1758L7.17742 19.8833C6.41521 20.3112 5.50948 19.6241 5.71623 18.7748L6.91735 13.8408L6.99606 13.5173C6.99851 13.5072 6.99502 13.4966 6.98706 13.49L2.79254 10.0039C2.55372 9.80545 2.43991 9.54003 2.4311 9.27523C2.41015 8.78689 2.74718 8.29797 3.31602 8.23192L8.69877 7.60691C8.78619 7.59676 8.86183 7.54139 8.89793 7.46113L11.0886 2.59066C11.1492 2.45584 11.2323 2.34414 11.33 2.25555Z" fill="#0B1F33"/>
</svg>
