<svg width="24" height="24" viewBox="0 0 24 24" fill="none" xmlns="http://www.w3.org/2000/svg">
<path fill-rule="evenodd" clip-rule="evenodd" d="M12 20.0633C8.36803 20.0633 6.50112 19.4073 5.46661 18.3625C4.42803 17.3135 3.8 15.4419 3.8 11.8633C3.8 8.1725 4.42726 6.31889 5.44697 5.30173C6.46776 4.28351 8.32256 3.66328 12 3.66328C15.659 3.66328 17.5202 4.30798 18.5467 5.34221C19.5763 6.37957 20.2 8.2442 20.2 11.8633C20.2 15.4777 19.5702 17.3439 18.5365 18.3827C17.505 19.4195 15.6411 20.0633 12 20.0633ZM2 11.8633C2 4.30078 4.46875 1.86328 12 1.86328C19.5312 1.86328 22 4.42572 22 11.8633C22 19.3008 19.5 21.8633 12 21.8633C4.5 21.8633 2 19.2383 2 11.8633ZM13.5198 10.7074C13.5198 9.3257 12.9672 9.18753 11.8618 9.18753C10.6183 9.18753 10.342 9.60204 10.342 10.8456H13.5198V10.7074ZM12 16.6487C8.26941 16.6487 7.4404 15.4051 7.4404 11.9509C7.4404 8.35852 8.13125 7.11499 11.8618 7.11499C15.4542 7.11499 16.4214 8.08218 16.4214 11.9509V12.3654H10.2038C10.2038 14.0235 10.4801 14.5761 11.8618 14.5761C12.829 14.5761 13.5198 14.438 13.5198 13.4708H16.5596C16.5596 14.8525 16.1451 15.6815 15.316 16.096C14.487 16.5105 13.3817 16.6487 12 16.6487Z" fill="#0B1F33"/>
</svg>
