<svg width="24" height="24" viewBox="0 0 24 24" fill="none" xmlns="http://www.w3.org/2000/svg">
<path fill-rule="evenodd" clip-rule="evenodd" d="M4.49902 14.4406V3H2.99902V19.2512C2.99902 20.2177 3.78253 21.0012 4.74902 21.0012H21.0003V19.5012H4.74902C4.61095 19.5012 4.49902 19.3893 4.49902 19.2512V16.5619L9.50025 11.5607L11.9699 14.0303C12.2628 14.3232 12.7377 14.3232 13.0306 14.0303L19.5003 7.56072V11H21.0003V5.75001C21.0003 5.33579 20.6645 5.00001 20.2503 5.00001L15.0002 5V6.5L18.4397 6.5L12.5003 12.4393L10.0306 9.96967C9.73769 9.67678 9.26281 9.67678 8.96992 9.96967L4.49902 14.4406Z" fill="#0B1F33"/>
</svg>
