<svg width="16" height="16" viewBox="0 0 16 16" fill="none" xmlns="http://www.w3.org/2000/svg">
<path fill-rule="evenodd" clip-rule="evenodd" d="M11.3467 10.7494H4.65371L5.14075 5.75725C5.26569 4.47664 6.34225 3.5 7.62894 3.5L8.37144 3.5C9.65814 3.5 10.7347 4.47664 10.8596 5.75725L11.3467 10.7494ZM14.0001 12.2494H13.0001L13.0002 12.25H11.4931H10.9897C10.8627 13.7899 9.57266 15 8 15C6.42734 15 5.13731 13.7899 5.01027 12.25H4.50731H3.00019L3.00025 12.2494H2V10.7494H3.14659L3.64784 5.6116C3.84774 3.56262 5.57023 2 7.62894 2H8.37144C10.4301 2 12.1526 3.56262 12.3525 5.6116L12.8538 10.7494H14.0001V12.2494ZM6.52074 12.25C6.63976 12.9594 7.25675 13.5 8 13.5C8.74325 13.5 9.36024 12.9594 9.47926 12.25L6.52074 12.25Z" fill="#0B1F33"/>
</svg>
