<svg width="24" height="24" viewBox="0 0 24 24" fill="none" xmlns="http://www.w3.org/2000/svg">
<path fill-rule="evenodd" clip-rule="evenodd" d="M16.63 11.1646H15.5778H8.42308H7.3709L7.01269 10.1753L5.69846 6.54561L3.55907 12.9565C3.48926 13.1657 3.56475 13.3959 3.74487 13.5232L12.0004 19.3548L20.256 13.5232C20.4361 13.3959 20.5116 13.1657 20.4418 12.9565L18.3024 6.54561L16.9882 10.1753L16.63 11.1646ZM17.5373 4.25282L15.5778 9.66461H8.42308L6.46359 4.25282L6.42629 4.1498L6.26481 3.7038L6.13009 3.33173C5.96873 2.88609 5.3357 2.8941 5.18567 3.34368L5.06041 3.71904L4.91025 4.16898L4.87557 4.27291L2.1362 12.4817C1.85696 13.3184 2.15892 14.2394 2.87943 14.7483L11.712 20.9875C11.8849 21.1097 12.116 21.1097 12.2889 20.9875L21.1214 14.7483C21.8419 14.2394 22.1439 13.3184 21.8647 12.4817L19.1253 4.27292L19.0906 4.16898L18.9405 3.71904L18.8152 3.34368C18.6652 2.8941 18.0321 2.88609 17.8708 3.33173L17.7361 3.7038L17.5746 4.1498L17.5373 4.25282Z" fill="#0B1F33"/>
</svg>
