<svg width="24" height="24" viewBox="0 0 24 24" fill="none" xmlns="http://www.w3.org/2000/svg">
<path d="M6.29537 10.7195C5.90154 10.3261 5.90154 9.68836 6.29537 9.29501C6.68919 8.90166 7.3277 8.90166 7.72152 9.29501L12.7131 14.2805C13.1069 14.6739 13.1069 15.3116 12.7131 15.705C12.3193 16.0983 11.6807 16.0983 11.2869 15.705L6.29537 10.7195Z" fill="currentColor"/>
<path d="M16.2785 9.29516C16.6723 8.90181 17.3108 8.90181 17.7046 9.29516C18.0985 9.68851 18.0985 10.3263 17.7046 10.7196L12.7131 15.705C12.3193 16.0983 11.6807 16.0983 11.2869 15.705C10.8931 15.3116 10.8931 14.674 11.2869 14.2807L16.2785 9.29516Z" fill="currentColor"/>
</svg>
