<svg width="24" height="24" viewBox="0 0 24 24" fill="none" xmlns="http://www.w3.org/2000/svg">
<path fill-rule="evenodd" clip-rule="evenodd" d="M16.2775 17.8831L5.91126 15.0659L8.54746 7.49991C9.32077 5.28049 11.6703 4.04247 13.9396 4.65866L14.4601 4.80001C16.7295 5.41619 18.1533 7.6788 17.728 9.99269L16.2775 17.8831ZM3.96233 16.0983L3.96478 16.0912L3.00049 15.8292L3.38361 14.3789L4.45952 14.6713L7.13353 6.99683C8.16461 4.0376 11.2973 2.38692 14.323 3.2085L14.8436 3.34985C17.8693 4.17143 19.7679 7.18824 19.2007 10.2734L17.7293 18.2777L18.8044 18.5699L18.4213 20.0201L17.4571 19.7581L17.4563 19.7623L16.0045 19.3681L14.4434 18.9442C13.5698 20.5132 11.731 21.3485 9.93451 20.8607C8.13799 20.3728 6.9577 18.7178 6.97534 16.9164L5.41419 16.4925L3.96233 16.0983ZM8.49867 17.33C8.63921 18.3077 9.33741 19.1442 10.318 19.4105C11.2985 19.6767 12.3159 19.3061 12.92 18.5306L8.49867 17.33Z" fill="#0B1F33"/>
<path d="M22 12C22 14.2091 20.2091 16 18 16C15.7909 16 14 14.2091 14 12C14 9.79086 15.7909 8 18 8C20.2091 8 22 9.79086 22 12Z" fill="#EE3F58"/>
</svg>
