<svg width="24" height="24" viewBox="0 0 24 24" fill="none" xmlns="http://www.w3.org/2000/svg">
<path fill-rule="evenodd" clip-rule="evenodd" d="M11.9785 5.61279C13.147 5.70309 14.3424 5.04182 15.0685 4.19856C15.7939 3.35183 16.2871 2.17654 16.1522 1.00195C15.1019 1.0478 13.8303 1.67642 13.0788 2.51899C12.4021 3.26917 11.8167 4.46807 11.9785 5.61279ZM16.1973 11.6421L16.1973 11.6427C16.2172 13.6683 17.1657 15.0487 18.0902 15.8903C18.2711 16.055 18.4513 16.1996 18.6241 16.3258C18.4337 16.7177 18.1761 17.1794 17.8423 17.6446L17.8421 17.6448C17.3902 18.2747 17.0382 18.7452 16.6684 19.0766C16.3312 19.3787 16.0814 19.4711 15.8384 19.4756C15.4792 19.4815 15.274 19.4017 14.7895 19.2008C14.2563 18.9796 13.5214 18.68 12.4179 18.6821C11.3323 18.6824 10.5966 18.9584 10.0397 19.1845L9.99592 19.2023C9.49754 19.4048 9.28877 19.4896 8.94677 19.5013L8.94202 19.5014C8.80106 19.5067 8.56037 19.4515 8.16135 19.0939C7.75567 18.7303 7.36189 18.2132 6.91879 17.5973L6.91575 17.5931C6.14791 16.5337 5.44543 14.9884 5.14845 13.3822C4.84985 11.7671 4.9919 10.2782 5.65616 9.16669C6.31212 8.07933 7.47302 7.40629 8.71394 7.38682L8.71506 7.3868C9.08348 7.38074 9.50624 7.50073 10.0897 7.7177C10.1502 7.74021 10.2162 7.76516 10.2856 7.79141L10.2856 7.79142C10.5031 7.87372 10.7544 7.9688 10.979 8.04161C11.2743 8.13734 11.6894 8.25318 12.1359 8.25318C12.6044 8.25318 13.0391 8.11942 13.3309 8.01998C13.479 7.96955 13.7033 7.88549 13.9059 7.80955C14.0405 7.75912 14.1655 7.71227 14.2524 7.68121C14.8479 7.46815 15.4296 7.31261 16.0792 7.33794L16.0793 7.33794C16.4113 7.35087 17.0508 7.43021 17.6834 7.77019L17.6562 7.80076C16.9298 8.62302 16.1809 9.90552 16.1973 11.6421ZM19.0609 18.5192C20.0684 17.1154 20.479 15.7484 20.5 15.6769C20.4988 15.676 20.4917 15.6731 20.4794 15.6679L20.4794 15.6679C20.225 15.5614 17.7256 14.5154 17.6972 11.628C17.6815 9.96827 18.6123 8.87295 19.2846 8.29854C19.6284 8.00488 19.9045 7.84737 19.9522 7.82019L19.956 7.81803C19.6278 7.35951 19.251 7.00665 18.8621 6.73522C17.794 5.98976 16.6343 5.85842 16.1377 5.83907C14.9962 5.79457 14.0619 6.14716 13.3195 6.42732L13.3195 6.42732C12.8492 6.60478 12.456 6.75318 12.1359 6.75318C11.7809 6.75318 11.3413 6.58689 10.8472 6.4L10.8472 6.4L10.8472 6.4C10.1992 6.15491 9.45751 5.87439 8.6904 5.887C6.9198 5.91479 5.28701 6.87266 4.37016 8.39455C2.53427 11.4627 3.90447 15.9943 5.70119 18.4734C6.5738 19.6862 7.6205 21.0518 8.99796 21.0004C9.6131 20.9794 10.0498 20.8008 10.5021 20.6159L10.5021 20.6159C11.0222 20.4032 11.563 20.1821 12.4195 20.1821C13.237 20.1804 13.7526 20.3944 14.2494 20.6006C14.7231 20.7973 15.1798 20.9869 15.8649 20.9754C17.2881 20.9497 18.1883 19.7355 19.0609 18.5192Z" fill="#0B1F33"/>
</svg>
