<svg width="24" height="24" viewBox="0 0 24 24" fill="none" xmlns="http://www.w3.org/2000/svg">
<path fill-rule="evenodd" clip-rule="evenodd" d="M5.50032 5C5.50032 5.82843 4.82875 6.5 4.00032 6.5C3.17189 6.5 2.50032 5.82843 2.50032 5C2.50032 4.17157 3.17189 3.5 4.00032 3.5C4.82875 3.5 5.50032 4.17157 5.50032 5ZM7.00032 5C7.00032 6.65685 5.65717 8 4.00032 8C2.34346 8 1.00032 6.65685 1.00032 5C1.00032 3.34315 2.34346 2 4.00032 2C5.65717 2 7.00032 3.34315 7.00032 5ZM19.0003 19.4986H12.7294C14.4271 17.9653 15.7086 16.0093 16.4326 13.8132C17.0532 11.9306 17.2394 9.94627 16.9946 8.0055C17.0627 8.04608 17.1299 8.08828 17.1962 8.13207C17.8266 8.54856 18.3571 9.09927 18.7498 9.74476L20.0313 8.96517C19.5237 8.13078 18.8379 7.41892 18.023 6.88055C17.838 6.75834 17.6474 6.64575 17.452 6.54308C17.9374 6.30724 18.4602 6.1479 19.0023 6.07427C20.1333 5.92063 21.2833 6.14891 22.27 6.72293L23.0243 5.4264C21.7489 4.6844 20.2624 4.38932 18.8004 4.58792C18.3562 4.64825 17.9221 4.75309 17.5039 4.89941C17.7438 4.67756 18.0053 4.47814 18.2854 4.30446C19.1035 3.79723 20.0477 3.53002 21.0103 3.53327L21.0154 2.03328C19.7718 2.02908 18.552 2.3743 17.495 3.02959C16.7294 3.50428 16.0714 4.12785 15.5582 4.85963C15.0792 4.40544 14.5336 4.02385 13.9386 3.72895C13.0263 3.27676 12.0223 3.04049 11.004 3.03842L11.001 4.53841C11.7891 4.54002 12.5663 4.7229 13.2725 5.07291C13.659 5.2645 14.0186 5.50335 14.3434 5.78302C13.6971 5.78567 13.053 5.88287 12.4317 6.073C11.4978 6.3588 10.6386 6.84753 9.91564 7.50419L10.9242 8.61453C11.4835 8.10652 12.1481 7.72844 12.8706 7.50734C13.5931 7.28624 14.3555 7.2276 15.1033 7.3356C15.1944 7.34876 15.2851 7.36436 15.3751 7.38235C15.766 9.35704 15.6451 11.4108 15.008 13.3436C14.1835 15.8447 12.5435 17.9944 10.3538 19.4503C10.2216 18.2324 9.84162 17.0535 9.23633 15.9864C8.90789 15.4074 8.51714 14.8685 8.07223 14.3786C8.32205 14.3494 8.57468 14.3421 8.82721 14.3573C9.45651 14.3953 10.0696 14.5719 10.6227 14.8745L11.3427 13.5586C10.5957 13.1499 9.76753 12.9113 8.91753 12.8601C8.59526 12.8406 8.27288 12.8483 7.95369 12.8825C8.09255 12.7443 8.24135 12.6152 8.39931 12.4963C9.14866 11.9324 10.0626 11.6304 11.0004 11.6368L11.0106 10.1368C9.74394 10.1281 8.50949 10.5361 7.49735 11.2978C7.33878 11.4171 7.18704 11.5441 7.04257 11.6781C7.06804 11.6183 7.0949 11.5591 7.12314 11.5004C7.45888 10.8028 7.97726 10.209 8.62324 9.78223L7.79636 8.53072C6.92441 9.10682 6.22471 9.90826 5.77151 10.85C5.50599 11.4017 5.33089 11.9895 5.25027 12.5911C4.59476 12.5059 3.92757 12.5334 3.27788 12.6743C2.37737 12.8696 1.5365 13.277 0.825195 13.8628L1.7787 15.0207C2.30567 14.5868 2.92862 14.2849 3.59575 14.1403C4.06295 14.039 4.54235 14.0168 5.0142 14.0733C4.77549 14.2597 4.55115 14.4651 4.3435 14.6879C3.76291 15.3108 3.32722 16.0544 3.06761 16.8654L4.49619 17.3227C4.6884 16.7223 5.01097 16.1718 5.44081 15.7106C5.74219 15.3872 6.09109 15.1133 6.47451 14.8979C7.05162 15.4261 7.54377 16.0428 7.93162 16.7265C8.41703 17.5823 8.72848 18.5243 8.84932 19.4986H6.01649V20.9986H19.0003L19.0003 19.4986Z" fill="#0B1F33"/>
</svg>
