<svg width="24" height="24" viewBox="0 0 24 24" fill="none" xmlns="http://www.w3.org/2000/svg">
<path fill-rule="evenodd" clip-rule="evenodd" d="M6 3.49609H7.49878V5.0412C6.24351 5.25232 5.25281 6.24302 5.04168 7.49829H3.5V5.99951H2V8.23829C2 8.65802 2.34026 8.99829 2.76 8.99829H5V11.2495H2.00342L2.00342 12.7495H5V15.0007H2.76C2.34026 15.0007 2 15.341 2 15.7607V17.9995H3.5V16.5007H5.04168C5.25281 17.756 6.24351 18.7467 7.49878 18.9578L7.49878 20.4995L6 20.4995V21.9995L8.23878 21.9995C8.65851 21.9995 8.99878 21.6593 8.99878 21.2395L8.99878 18.9995H11.25V21.9961H12.75V18.9995H15.0012V21.2395C15.0012 21.6593 15.3415 21.9995 15.7612 21.9995H18V20.4995H16.5012V18.9578C17.7576 18.7465 18.749 17.7542 18.9589 16.4973H20.5V17.9961H22V15.7573C22 15.3376 21.6597 14.9973 21.24 14.9973H19V12.7461H21.9966V11.2461H19V8.99487L21.24 8.99487C21.6597 8.99487 22 8.6546 22 8.23487V5.99609L20.5 5.99609V7.49487L18.9577 7.49487C18.7454 6.24123 17.7553 5.25213 16.5012 5.0412V3.49609H18V1.99609H15.7612C15.3415 1.99609 15.0012 2.33635 15.0012 2.75609V4.99951H12.75V1.99951H11.25V4.99951H8.99878V2.75609C8.99878 2.33635 8.65851 1.99609 8.23878 1.99609H6V3.49609ZM16 6.49951H8C7.17157 6.49951 6.5 7.17108 6.5 7.99951V15.9995C6.5 16.8279 7.17157 17.4995 8 17.4995H16C16.8284 17.4995 17.5 16.8279 17.5 15.9995V7.99951C17.5 7.17108 16.8284 6.49951 16 6.49951Z" fill="#0B1F33"/>
</svg>
