<svg width="24" height="24" viewBox="0 0 24 24" fill="none" xmlns="http://www.w3.org/2000/svg">
<path fill-rule="evenodd" clip-rule="evenodd" d="M18.3172 10.0418L20.1707 6.33488L18.8291 5.66406L17.046 9.23009C14.1013 7.65943 10.3654 7.59227 7.35296 9.02859L5.6707 5.66406L4.32906 6.33488L6.05021 9.77718C3.88439 11.258 2.30366 13.6639 2.03906 16.995C1.99533 17.5455 2.44759 17.9995 2.99988 17.9995H20.9999C21.5522 17.9995 22.0044 17.5455 21.9607 16.995C21.7113 13.8555 20.2928 11.5377 18.3172 10.0418ZM7.99988 14.9995C7.73466 14.9995 7.48031 14.8941 7.29277 14.7066C7.10523 14.519 6.99988 14.2647 6.99988 13.9995C6.99988 13.7343 7.10523 13.4799 7.29277 13.2924C7.48031 13.1048 7.73466 12.9995 7.99988 12.9995C8.26509 12.9995 8.51945 13.1048 8.70698 13.2924C8.89452 13.4799 8.99988 13.7343 8.99988 13.9995C8.99988 14.2647 8.89452 14.519 8.70698 14.7066C8.51945 14.8941 8.26509 14.9995 7.99988 14.9995ZM15.9999 14.9995C15.7347 14.9995 15.4803 14.8941 15.2928 14.7066C15.1052 14.519 14.9999 14.2647 14.9999 13.9995C14.9999 13.7343 15.1052 13.4799 15.2928 13.2924C15.4803 13.1048 15.7347 12.9995 15.9999 12.9995C16.2651 12.9995 16.5194 13.1048 16.707 13.2924C16.8945 13.4799 16.9999 13.7343 16.9999 13.9995C16.9999 14.2647 16.8945 14.519 16.707 14.7066C16.5194 14.8941 16.2651 14.9995 15.9999 14.9995Z" fill="#0B1F33"/>
</svg>
