<svg width="24" height="24" viewBox="0 0 24 24" fill="none" xmlns="http://www.w3.org/2000/svg">
<path fill-rule="evenodd" clip-rule="evenodd" d="M13.5002 5C13.5002 5.82843 12.8286 6.5 12.0002 6.5C11.1717 6.5 10.5002 5.82843 10.5002 5C10.5002 4.17157 11.1717 3.5 12.0002 3.5C12.8286 3.5 13.5002 4.17157 13.5002 5ZM15.0002 5C15.0002 6.65685 13.657 8 12.0002 8C10.3433 8 9.00015 6.65685 9.00015 5C9.00015 3.34315 10.3433 2 12.0002 2C13.657 2 15.0002 3.34315 15.0002 5ZM11.7597 10.5H12.2289C12.934 10.5 13.544 10.9911 13.6944 11.68L15.488 19.8933C15.5561 20.2051 15.3186 20.5 14.9995 20.5H9.00078C8.68194 20.5 8.44454 20.2056 8.51215 19.894L10.2938 11.682C10.4435 10.9921 11.0538 10.5 11.7597 10.5ZM8.8279 11.3639C9.12722 9.98428 10.3479 9 11.7597 9H12.2289C13.6392 9 14.859 9.98221 15.1599 11.36L16.9535 19.5733C17.2258 20.8204 16.276 22 14.9995 22H9.00078C7.7254 22 6.77584 20.8223 7.04625 19.576L8.8279 11.3639Z" fill="#0B1F33"/>
</svg>
