<svg width="24" height="24" viewBox="0 0 24 24" fill="none" xmlns="http://www.w3.org/2000/svg">
<path fill-rule="evenodd" clip-rule="evenodd" d="M14.1417 8.97971L13.793 8.20475L11.999 4.21681L10.2051 8.20473L9.85646 8.97968L9.01254 9.07907L4.64637 9.59326L7.95878 12.3471L8.67903 12.9459L8.45714 13.8559L7.444 18.0109L11.2647 15.8661L11.999 15.454L12.7332 15.8661L16.5549 18.0114L15.5425 13.8556L15.3208 12.9457L16.0409 12.3471L19.3532 9.59334L14.9856 9.07907L14.1417 8.97971ZM8.8371 7.58936L3.3139 8.23982C2.44122 8.34259 2.11588 9.44017 2.79157 10.0019L6.99984 13.5005L5.71422 18.7731C5.50711 19.6224 6.41289 20.3099 7.17525 19.882L11.999 17.1741L16.8234 19.8823C17.5857 20.3102 18.4914 19.6229 18.2845 18.7736L16.9998 13.5005L21.2081 10.002C21.8838 9.44021 21.5584 8.34262 20.6857 8.23987L15.161 7.58936L12.911 2.58779C12.5572 1.80146 11.4408 1.80147 11.087 2.5878L8.8371 7.58936Z" fill="#0B1F33"/>
</svg>
