<svg width="24" height="24" viewBox="0 0 24 24" fill="none" xmlns="http://www.w3.org/2000/svg">
<path fill-rule="evenodd" clip-rule="evenodd" d="M9.31792 2.94141C8.18722 2.94141 7.23214 3.78055 7.08663 4.90185L6.8795 6.49799L4 6.49799V7.99799L20 7.99798V6.49798L17.1205 6.49798L16.9134 4.90185C16.7679 3.78055 15.8128 2.94141 14.6821 2.94141H9.31792ZM15.6079 6.49799L15.4258 5.09489C15.3773 4.72112 15.059 4.44141 14.6821 4.44141H9.31792C8.94102 4.44141 8.62266 4.72112 8.57416 5.09489L8.39208 6.49799L15.6079 6.49799ZM11.2347 12.0398L11.1466 12.2748C10.9931 12.6843 10.9164 12.889 10.8104 13.0587C10.5193 13.5252 10.0489 13.8512 9.50992 13.9601C9.31386 13.9997 9.0952 13.9997 8.65788 13.9997C8.0461 13.9997 7.74021 13.9997 7.48903 13.9333C6.79344 13.7495 6.25018 13.2063 6.06637 12.5107C6 12.2595 6 11.9516 6 11.336C6 11.024 6 10.868 6.03407 10.7409C6.12654 10.3958 6.39609 10.1262 6.74118 10.0338C6.86835 9.99969 7.02334 9.99969 7.33333 9.99969H9.8208C10.4788 9.99969 10.8078 9.99969 11.0291 10.1183C11.3121 10.27 11.5051 10.5484 11.5478 10.8667C11.5812 11.1156 11.4657 11.4236 11.2347 12.0398ZM12.765 12.0402L12.8531 12.2752L12.8531 12.2752C13.0067 12.6847 13.0835 12.8895 13.1895 13.0591C13.4807 13.5254 13.9509 13.8512 14.4897 13.9601C14.6858 13.9997 14.9045 13.9997 15.3419 13.9997C15.9539 13.9997 16.2599 13.9997 16.5112 13.9333C17.2066 13.7494 17.7497 13.2063 17.9336 12.5108C18 12.2596 18 11.9517 18 11.3359C18 11.024 18 10.868 17.9659 10.7409C17.8735 10.3958 17.6039 10.1262 17.2588 10.0338C17.1317 9.99969 16.9767 9.99969 16.6667 9.99969H14.1789C13.5206 9.99969 13.1915 9.99969 12.9701 10.1184C12.6871 10.2701 12.4942 10.5485 12.4516 10.8668C12.4182 11.1157 12.5338 11.4239 12.765 12.0402ZM9.5 18.9997C9.5 19.2758 9.72386 19.4997 10 19.4997H11.25V17.9997H12.75V19.4997H14C14.2761 19.4997 14.5 19.2758 14.5 18.9997C14.5 17.619 13.3807 16.4997 12 16.4997C10.6193 16.4997 9.5 17.619 9.5 18.9997ZM12 14.9997C9.79086 14.9997 8 16.7906 8 18.9997C8 20.1043 8.89543 20.9997 10 20.9997H14C15.1046 20.9997 16 20.1043 16 18.9997C16 16.7906 14.2091 14.9997 12 14.9997Z" fill="#0B1F33"/>
</svg>
