<svg width="24" height="24" viewBox="0 0 24 24" fill="none" xmlns="http://www.w3.org/2000/svg">
<path fill-rule="evenodd" clip-rule="evenodd" d="M12 20.5C16.6944 20.5 20.5 16.6944 20.5 12C20.5 7.55831 17.0931 3.91233 12.75 3.53263V11.5858C12.75 12.0499 12.5656 12.495 12.2374 12.8232L6.54322 18.5174C8.01967 19.7549 9.92282 20.5 12 20.5ZM6.05958 5.9204C7.42442 4.58662 9.2366 3.70865 11.25 3.53263V10.3693L6.05958 5.9204ZM5.0829 7.05886C4.08645 8.45131 3.5 10.1572 3.5 12C3.5 14.0772 4.24508 15.9803 5.48256 17.4568L10.897 12.0424L5.0829 7.05886ZM12 22C17.5228 22 22 17.5228 22 12C22 6.47715 17.5228 2 12 2C6.47715 2 2 6.47715 2 12C2 17.5228 6.47715 22 12 22Z" fill="#0B1F33"/>
</svg>
