<svg width="24" height="24" viewBox="0 0 24 24" fill="none" xmlns="http://www.w3.org/2000/svg">
<path d="M17.6972 11.6281C17.7269 14.656 20.4739 15.659 20.5 15.677C20.479 15.7486 20.0684 17.1156 19.0609 18.5194C18.1883 19.7357 17.2881 20.9498 15.8649 20.9755C14.4614 20.9992 14.0167 20.1788 12.4195 20.1823C10.8179 20.1823 10.3203 20.9554 8.99796 21.0005C7.6205 21.0519 6.5738 19.6863 5.70119 18.4735C3.90447 15.9945 2.53427 11.4628 4.37016 8.39472C5.28701 6.87282 6.9198 5.91495 8.6904 5.88716C10.0425 5.86494 11.3155 6.75335 12.1359 6.75335C12.9613 6.75335 14.5092 5.68573 16.1377 5.83924C16.8152 5.86563 18.7265 6.10041 19.956 7.81819C19.8566 7.87514 17.6733 9.0935 17.6972 11.6281ZM15.0685 4.19856C14.3424 5.04182 13.147 5.70309 11.9785 5.61279C11.8167 4.46807 12.4021 3.26917 13.0788 2.51899C13.8303 1.67642 15.1019 1.0478 16.1522 1.00195C16.2871 2.17654 15.7939 3.35183 15.0685 4.19856Z" fill="#0B1F33"/>
</svg>
