<svg width="16" height="16" viewBox="0 0 16 16" fill="none" xmlns="http://www.w3.org/2000/svg">
<path fill-rule="evenodd" clip-rule="evenodd" d="M11.3286 2.51654C11.8353 2.61679 12.3051 2.86144 12.6794 3.22436C13.7694 4.28135 13.7694 6.03041 12.6794 7.0874L6.80252 12.786C5.81946 13.7393 4.25713 13.7397 3.27349 12.7871C2.2452 11.7912 2.24471 10.142 3.2724 9.14551L7.6853 4.86643C8.03148 4.53074 8.58168 4.53066 8.92797 4.86624C9.2898 5.21689 9.2899 5.79733 8.92819 6.14812L4.33591 10.6017L5.38018 11.6785L9.97247 7.22491C10.942 6.2847 10.9417 4.72893 9.97185 3.78907C9.0437 2.88959 7.56897 2.88982 6.64109 3.78957L2.22819 8.06865C0.592521 9.65472 0.593312 12.2795 2.22994 13.8646C3.79549 15.3808 6.28209 15.3801 7.84673 13.8629L13.7236 8.16426C15.4213 6.51797 15.4213 3.79378 13.7236 2.14749C13.0696 1.51333 12.2284 1.11102 11.3286 0.998047V2.51654Z" fill="#0B1F33"/>
</svg>
