<svg width="24" height="24" viewBox="0 0 24 24" fill="none" xmlns="http://www.w3.org/2000/svg">
<path d="M17.9609 5.74932L13.5949 16.6535C13.5527 16.7612 13.4774 16.8526 13.38 16.9146C13.2825 16.9767 13.1679 17.0062 13.0526 16.9989C12.9373 16.9916 12.8273 16.9479 12.7385 16.8741C12.6496 16.8002 12.5864 16.7001 12.558 16.588L11.3355 11.6713L6.41159 10.4352C6.29963 10.4068 6.19957 10.3435 6.1258 10.2546C6.05203 10.1656 6.00837 10.0555 6.00109 9.9401C5.99381 9.82471 6.02329 9.70998 6.08529 9.61242C6.14728 9.51487 6.23861 9.43953 6.3461 9.39723L17.2514 5.03912C17.3506 4.99938 17.4593 4.98966 17.5639 5.01114C17.6686 5.03263 17.7646 5.08439 17.8402 5.16001C17.9157 5.23562 17.9674 5.33177 17.9889 5.43652C18.0103 5.54128 18.0006 5.65004 17.9609 5.74932Z" fill="#0B1F33"/>
</svg>
