<svg width="24" height="24" viewBox="0 0 24 24" fill="none" xmlns="http://www.w3.org/2000/svg">
<path fill-rule="evenodd" clip-rule="evenodd" d="M10.9939 7.0441V10.25V11H10.2439H8.50098V13.0078H10.2439H10.9939V13.7578V19.5H13.006V13.7578V13.0078H13.756H15.4934V11H13.756H13.006V10.25V8.28229C13.006 7.8083 13.1566 7.30885 13.5095 6.91878C13.8738 6.51607 14.3975 6.29288 15.0103 6.29288H15.4983V4.50072L13.6932 4.50002L13.6907 4.50002C12.2582 4.49467 10.9989 5.68895 10.9939 7.0441ZM13.695 3.00002C11.511 2.9926 9.501 4.78138 9.49393 7.04053H9.49392V7.04288V9.49995H7.75098C7.33676 9.49995 7.00098 9.83574 7.00098 10.25V13.7578C7.00098 14.172 7.33676 14.5078 7.75098 14.5078H9.49392V20.25C9.49392 20.6642 9.82971 21 10.2439 21H13.756C14.1702 21 14.506 20.6642 14.506 20.25V14.5078H16.2434C16.6576 14.5078 16.9934 14.172 16.9934 13.7578V10.25C16.9934 9.83574 16.6576 9.49995 16.2434 9.49995H14.506V8.28229C14.506 8.11456 14.5592 7.9943 14.6218 7.9251C14.673 7.86853 14.7765 7.79288 15.0103 7.79288H16.2483C16.6626 7.79288 16.9983 7.45709 16.9983 7.04288V3.75101C16.9983 3.33691 16.6627 3.00118 16.2486 3.00101L13.6963 3.00003C13.6959 3.00003 13.6954 3.00002 13.695 3.00002Z" fill="#0B1F33"/>
</svg>
