<svg width="24" height="24" viewBox="0 0 24 24" fill="none" xmlns="http://www.w3.org/2000/svg">
<path fill-rule="evenodd" clip-rule="evenodd" d="M4.49902 11.246V3H2.99902V19.2512C2.99902 20.2177 3.78253 21.0012 4.74902 21.0012H21.0003V19.5012H4.74902C4.74054 19.5012 4.73216 19.5008 4.72389 19.5H5.25018C5.25018 17.5225 5.40171 14.1465 6.02381 11.2853C6.3362 9.84856 6.75494 8.60191 7.29315 7.73228C7.83046 6.8641 8.39661 6.50195 9.00018 6.50195C9.39614 6.50195 9.68465 6.62071 9.92505 6.82146C10.1816 7.03571 10.4167 7.37266 10.6303 7.85263C11.0518 8.79965 11.2983 10.078 11.5707 11.4906L11.5997 11.6405C11.8723 13.0526 12.1788 14.5963 12.7667 15.7821C13.0661 16.3861 13.4594 16.9431 13.9998 17.35C14.5524 17.7661 15.219 17.9947 16.0002 17.9947C18.0154 17.9947 19.2559 16.3681 19.9738 14.1675C20.7037 11.9299 21.0213 8.77389 21.0213 5H19.5213C19.5213 8.72611 19.2033 11.6925 18.5477 13.7023C17.88 15.749 16.9849 16.4947 16.0002 16.4947C15.5314 16.4947 15.1843 16.3642 14.9021 16.1517C14.6078 15.9301 14.3453 15.5893 14.1106 15.1158C13.6301 14.1468 13.3545 12.8172 13.0725 11.3562L13.0277 11.124C12.7706 9.78701 12.4947 8.35269 12.0008 7.24276C11.7349 6.64528 11.3826 6.08436 10.8865 5.6701C10.3742 5.24234 9.74481 5.00195 9.00018 5.00195C7.65809 5.00195 6.68891 5.85831 6.01766 6.94289C5.34731 8.02602 4.88425 9.46638 4.55806 10.9666C4.53791 11.0593 4.51823 11.1524 4.49902 11.246Z" fill="#0B1F33"/>
</svg>
