<svg width="24" height="24" viewBox="0 0 24 24" fill="none" xmlns="http://www.w3.org/2000/svg">
<path fill-rule="evenodd" clip-rule="evenodd" d="M15.4975 6.75009C15.4974 6.94932 15.4182 7.14035 15.2772 7.28106L13.057 9.49788L11.998 8.43548L12.935 7.5H12V7.5008C9.51472 7.5008 7.5 9.51552 7.5 12.0008C7.5 14.4861 9.51472 16.5008 12 16.5008C14.4853 16.5008 16.5 14.4861 16.5 12.0008H18C18 15.3145 15.3137 18.0008 12 18.0008C8.68629 18.0008 6 15.3145 6 12.0008C6 8.68709 8.68629 6.0008 12 6.0008V6H12.9368L11.9982 5.06176L13.0578 4L15.2776 6.21898C15.4184 6.35978 15.4975 6.55085 15.4975 6.75009Z" fill="#0B1F33"/>
</svg>
