<svg width="24" height="24" viewBox="0 0 24 24" fill="none" xmlns="http://www.w3.org/2000/svg">
<path fill-rule="evenodd" clip-rule="evenodd" d="M12.0115 4.50001C10.5549 4.49775 9.12921 4.91967 7.90846 5.71426C6.68771 6.50885 5.72475 7.64171 5.13717 8.97451C4.54959 10.3073 4.36282 11.7824 4.59967 13.2196C4.81346 14.5168 5.36405 15.7326 6.19304 16.7467C6.24627 16.7306 6.29929 16.7135 6.35205 16.6955C7.55364 16.285 8.85282 16.2562 10.0714 16.613L10.3939 16.7075C11.4425 17.0146 12.5571 17.0146 13.6056 16.7075L13.9281 16.613C15.1467 16.2562 16.4459 16.285 17.6475 16.6955C17.7003 16.7136 17.7534 16.7306 17.8066 16.7467C18.6306 15.7388 19.1797 14.5315 19.3962 13.2425C19.5752 12.1768 19.5212 11.0895 19.2431 10.0542C18.3794 10.438 17.6053 11.052 17.2498 12H15.7498C14.9998 10 12.3866 9.48633 10.9998 9.48633V7.98633C13.1048 7.98633 15.0652 8.53723 16.4998 10.188C17.9344 8.53725 19.8947 7.98633 21.9998 7.98633V9.48633C21.6277 9.48633 21.1673 9.5233 20.6784 9.61604C21.0237 10.873 21.0932 12.1953 20.8755 13.491C20.6685 14.7234 20.2081 15.8936 19.5294 16.9302C19.8431 16.9047 20.155 16.8473 20.4603 16.7579L22.5994 16.1314L23.021 17.571L20.8819 18.1974C19.6633 18.5543 18.3641 18.5255 17.1625 18.115C16.2538 17.8045 15.2713 17.7827 14.3497 18.0526L14.0272 18.147C12.7034 18.5347 11.2961 18.5347 9.97231 18.147L9.64985 18.0526C8.72826 17.7827 7.74574 17.8045 6.83702 18.115C5.63543 18.5255 4.33626 18.5543 3.11764 18.1974L0.978516 17.571L1.4001 16.1314L3.53922 16.7579C3.84455 16.8473 4.15656 16.9047 4.47037 16.9302C3.78648 15.8858 3.32437 14.7058 3.11963 13.4635C2.83542 11.7388 3.05954 9.96878 3.76463 8.36942C4.46973 6.77006 5.62528 5.41062 7.09018 4.45711C8.55508 3.50361 10.2659 2.9973 12.0138 3.00001C13.7617 3.00272 15.471 3.51434 16.9329 4.47239C17.502 4.84534 18.0241 5.27966 18.4907 5.76553L17.4426 6.83989C17.0452 6.42072 16.5987 6.04678 16.1107 5.72699C14.8925 4.92862 13.4681 4.50227 12.0115 4.50001ZM13.6057 20.0315C15.0341 19.6132 16.557 19.6469 17.9655 20.1282L19.2691 20.5736L18.7841 21.993L17.4805 21.5476C16.3649 21.1664 15.1587 21.1397 14.0273 21.471C12.7034 21.8587 11.2962 21.8587 9.97234 21.471C8.84092 21.1397 7.63471 21.1664 6.5191 21.5476L5.21548 21.993L4.73051 20.5736L6.03412 20.1282C7.44261 19.6469 8.96548 19.6132 10.3939 20.0315C11.4425 20.3386 12.5571 20.3386 13.6057 20.0315ZM11.9997 14C11.2658 14 10.5861 14.3676 10.2267 15.0039H8.77281C8.41335 14.3676 7.73364 14 6.99976 14V12.5C7.94878 12.5 8.84725 12.8833 9.49974 13.5372C10.1522 12.8833 11.0507 12.5 11.9997 12.5V14Z" fill="#0B1F33"/>
</svg>
