<svg width="24" height="24" viewBox="0 0 24 24" fill="none" xmlns="http://www.w3.org/2000/svg">
<circle cx="12" cy="12" r="10" fill="#FED13E"/>
<path fill-rule="evenodd" clip-rule="evenodd" d="M10.0089 10.5031C10.0089 11.3333 9.3353 12.0063 8.50438 12.0063C7.67346 12.0063 6.99986 11.3333 6.99986 10.5031C6.99986 9.67298 7.67346 9 8.50438 9C9.3353 9 10.0089 9.67298 10.0089 10.5031ZM8.10275 14.25C8.49771 14.9341 9.06578 15.5022 9.74986 15.8971C10.4339 16.2921 11.2099 16.5 11.9999 16.5C12.7898 16.5 13.5658 16.2921 14.2499 15.8971C14.9339 15.5022 15.502 14.9341 15.897 14.25L17.196 15C16.6694 15.9121 15.912 16.6695 14.9999 17.1962C14.0877 17.7228 13.0531 18 11.9999 18C10.9466 18 9.91198 17.7228 8.99986 17.1962C8.08775 16.6695 7.33032 15.9121 6.80371 15L8.10275 14.25ZM15.5044 12.0063C16.3353 12.0063 17.0089 11.3333 17.0089 10.5031C17.0089 9.67298 16.3353 9 15.5044 9C14.6735 9 13.9999 9.67298 13.9999 10.5031C13.9999 11.3333 14.6735 12.0063 15.5044 12.0063Z" fill="#0B1F33"/>
</svg>
