<svg width="48" height="24" viewBox="0 0 48 24" fill="none" xmlns="http://www.w3.org/2000/svg">
<path d="M6.98555 24C3.89359 24 1.97073 20.6418 3.53589 17.9752L11.1809 4.9504C12.6173 2.50318 15.2426 1 18.0802 1H43.9996C46.2087 1 47.9996 2.79086 47.9996 5V20C47.9996 22.2091 46.2087 24 43.9996 24H6.98555Z" fill="#9DACCE"/>
<path d="M30.5182 7.87891V8.57191C30.5182 8.78658 30.4576 8.98258 30.3362 9.15991L25.1422 16.4959H30.3992V18.0009H22.6992V17.2589C22.6992 17.1656 22.7156 17.0769 22.7482 16.9929C22.7809 16.9042 22.8229 16.8226 22.8742 16.7479L28.0822 9.37691H23.0282V7.87891H30.5182Z" fill="white"/>
<path d="M34.0521 18.0009H32.1621V7.87891H34.0521V18.0009Z" fill="white"/>
<path d="M38.342 14.4379V18.0009H36.459V7.87891H39.749C40.4257 7.87891 41.0114 7.95824 41.506 8.11691C42.0007 8.27558 42.409 8.49724 42.731 8.78191C43.053 9.06658 43.291 9.40724 43.445 9.80391C43.6037 10.2006 43.683 10.6346 43.683 11.1059C43.683 11.5959 43.6014 12.0462 43.438 12.4569C43.2747 12.8629 43.0297 13.2129 42.703 13.5069C42.3764 13.8009 41.9657 14.0296 41.471 14.1929C40.981 14.3562 40.407 14.4379 39.749 14.4379H38.342ZM38.342 12.9679H39.749C40.0944 12.9679 40.3954 12.9259 40.652 12.8419C40.9087 12.7532 41.121 12.6296 41.289 12.4709C41.4617 12.3076 41.59 12.1116 41.674 11.8829C41.758 11.6496 41.8 11.3906 41.8 11.1059C41.8 10.8352 41.758 10.5902 41.674 10.3709C41.59 10.1516 41.464 9.96491 41.296 9.81091C41.128 9.65691 40.9157 9.54024 40.659 9.46091C40.4024 9.37691 40.099 9.33491 39.749 9.33491H38.342V12.9679Z" fill="white"/>
</svg>
