<svg width="16" height="16" viewBox="0 0 16 16" fill="none" xmlns="http://www.w3.org/2000/svg">
<path fill-rule="evenodd" clip-rule="evenodd" d="M2.79671 4.09748C2.33268 4.19383 2 4.60267 2 5.0766V7.00145C2 7.13952 2.11193 7.25145 2.25 7.25145L6.33349 7.25145C6.47156 7.25145 6.58349 7.13952 6.58349 7.00145V3.61849C6.58349 3.45998 6.43787 3.34149 6.28267 3.37371L2.79671 4.09748ZM8.28267 2.95847C8.16666 2.98255 8.08349 3.08476 8.08349 3.20325V7.00145C8.08349 7.13952 8.19542 7.25145 8.33349 7.25145L13.75 7.25145C13.8881 7.25145 14 7.13952 14 7.00145V3.00036C14 2.36633 13.4175 1.89235 12.7967 2.02124L8.28267 2.95847ZM14 9.00145C14 8.86338 13.8881 8.75145 13.75 8.75145L8.33349 8.75145C8.19542 8.75145 8.08349 8.86338 8.08349 9.00145V12.797C8.08349 12.9155 8.16666 13.0177 8.28267 13.0418L12.7967 13.979C13.4175 14.1079 14 13.6339 14 12.9999V9.00145ZM6.28267 12.6265C6.43787 12.6588 6.58349 12.5403 6.58349 12.3818V9.00145C6.58349 8.86338 6.47156 8.75145 6.33349 8.75145L2.25 8.75145C2.11193 8.75145 2 8.86338 2 9.00145V10.9237C2 11.3976 2.33268 11.8064 2.79671 11.9028L6.28267 12.6265Z" fill="#0B1F33"/>
</svg>
