<svg width="24" height="24" viewBox="0 0 24 24" fill="none" xmlns="http://www.w3.org/2000/svg">
<path fill-rule="evenodd" clip-rule="evenodd" d="M5 4.5H19C19.8284 4.5 20.5 5.17157 20.5 6V15C20.5 15.8284 19.8284 16.5 19 16.5H5C4.17157 16.5 3.5 15.8284 3.5 15V6C3.5 5.17157 4.17157 4.5 5 4.5ZM2 6C2 4.34315 3.34315 3 5 3H19C20.6569 3 22 4.34315 22 6V15C22 16.6569 20.6569 18 19 18H12.75L12.75 19.5H16V21H8V19.5H11.25L11.25 18H5C3.34315 18 2 16.6569 2 15V6ZM9.27832 8.49805H11.2734V7.60156H6.19775V8.49805H8.17529V14H9.27832V8.49805ZM16.0679 7.60156L14.4419 12.6069L12.8335 7.60156H11.6162L13.9102 14H14.9868L17.2896 7.60156H16.0679Z" fill="#0B1F33"/>
</svg>
