<svg width="24" height="24" viewBox="0 0 24 24" fill="none" xmlns="http://www.w3.org/2000/svg">
<path fill-rule="evenodd" clip-rule="evenodd" d="M4.49854 3V19.2512C4.49854 19.3893 4.61046 19.5012 4.74854 19.5012H6.99979V19.5V10C6.99979 9.44771 7.4475 9 7.99979 9H10.9998C11.5521 9 11.9998 9.44772 11.9998 10V19.5V19.5012H13.9998V19.5V6C13.9998 5.44772 14.4475 5 14.9998 5H17.9998C18.5521 5 18.9998 5.44772 18.9998 6V19.5V19.5012H20.9998V21.0012H4.74854C3.78204 21.0012 2.99854 20.2177 2.99854 19.2512V3H4.49854ZM8.49979 10.5V19.5H10.4998V10.5H8.49979ZM15.4998 19.5V6.5H17.4998V19.5H15.4998Z" fill="#0B1F33"/>
</svg>
