<svg width="24" height="24" viewBox="0 0 24 24" fill="none" xmlns="http://www.w3.org/2000/svg">
<path fill-rule="evenodd" clip-rule="evenodd" d="M17.5958 4.99951C17.8527 4.55719 17.9998 4.04317 17.9998 3.49478C17.9998 2.28602 17.2705 1.19369 16.1557 0.726412C14.4952 0.0303751 12.5919 0.93143 12.0866 2.65959L11.9999 2.95617L11.9132 2.65959C11.408 0.93143 9.50469 0.0303751 7.84417 0.726412C6.72938 1.19369 6 2.28602 6 3.49478C6 4.04317 6.14714 4.55719 6.4041 4.99951H4C3.44772 4.99951 3 5.44723 3 5.99951V8.99951C3 9.73979 3.4022 10.3861 4 10.7319V17.9998C4 19.6567 5.34315 20.9998 7 20.9998H17C18.6569 20.9998 20 19.6567 20 17.9998V10.7319C20.5978 10.3861 21 9.73979 21 8.99951V5.99951C21 5.44723 20.5523 4.99951 20 4.99951H17.5958ZM11.0331 4.99473H8.99995C8.17155 4.99473 7.5 4.32318 7.5 3.49478C7.5 2.89286 7.86439 2.34438 8.42403 2.1098C9.26355 1.7579 10.2208 2.2162 10.4735 3.08051L11.0331 4.99473ZM12.9667 4.99473H14.9999C15.8283 4.99473 16.4998 4.32318 16.4998 3.49478C16.4998 2.89286 16.1355 2.34438 15.5758 2.1098C14.7363 1.7579 13.7791 2.2162 13.5264 3.08051L12.9667 4.99473ZM4.5 8.99951V6.49951H11.25V9.49951H5C4.72386 9.49951 4.5 9.27565 4.5 8.99951ZM12.75 9.49951V6.49951H19.5V8.99951C19.5 9.27565 19.2761 9.49951 19 9.49951H12.75ZM5.5 10.9995H11.25L11.25 19.4998H7C6.17157 19.4998 5.5 18.8282 5.5 17.9998V10.9995ZM12.75 10.9995L12.75 19.4998H17C17.8284 19.4998 18.5 18.8282 18.5 17.9998V10.9995H12.75Z" fill="#0B1F33"/>
</svg>
