<svg width="48" height="24" viewBox="0 0 48 24" fill="none" xmlns="http://www.w3.org/2000/svg">
<path d="M6.98555 24C3.89359 24 1.97073 20.6418 3.53589 17.9752L11.1809 4.9504C12.6173 2.50318 15.2426 1 18.0802 1H43.9996C46.2087 1 47.9996 2.79086 47.9996 5V20C47.9996 22.2091 46.2087 24 43.9996 24H6.98555Z" fill="#12826E"/>
<path d="M21.7721 12.7929L18.5451 7.87891H20.4211C20.5518 7.87891 20.6451 7.89758 20.7011 7.93491C20.7618 7.96758 20.8178 8.02358 20.8691 8.10291L23.1651 11.8129C23.1884 11.7569 23.2141 11.7009 23.2421 11.6449C23.2701 11.5842 23.3028 11.5236 23.3401 11.4629L25.4541 8.13791C25.5054 8.04924 25.5614 7.98391 25.6221 7.94191C25.6828 7.89991 25.7598 7.87891 25.8531 7.87891H27.6521L24.3971 12.7159L27.7431 18.0009H25.8671C25.7364 18.0009 25.6314 17.9682 25.5521 17.9029C25.4774 17.8376 25.4168 17.7629 25.3701 17.6789L23.0251 13.8009C22.9924 13.9036 22.9481 14.0016 22.8921 14.0949L20.6451 17.6789C20.5891 17.7582 20.5238 17.8329 20.4491 17.9029C20.3791 17.9682 20.2858 18.0009 20.1691 18.0009H18.4121L21.7721 12.7929Z" fill="white"/>
<path d="M31.423 16.4469H35.469V18.0009H29.54V7.87891H31.423V16.4469Z" fill="white"/>
<path d="M42.8337 9.71863C42.7777 9.81663 42.717 9.88896 42.6517 9.93563C42.591 9.97763 42.514 9.99863 42.4207 9.99863C42.3227 9.99863 42.2154 9.96362 42.0987 9.89362C41.9867 9.81895 41.8514 9.73729 41.6927 9.64862C41.534 9.55995 41.3474 9.48063 41.1327 9.41062C40.9227 9.33596 40.673 9.29863 40.3837 9.29863C40.1224 9.29863 39.8937 9.3313 39.6977 9.39663C39.5017 9.4573 39.336 9.54362 39.2007 9.65562C39.07 9.76762 38.972 9.90296 38.9067 10.0616C38.8414 10.2156 38.8087 10.3859 38.8087 10.5726C38.8087 10.8106 38.874 11.0089 39.0047 11.1676C39.14 11.3263 39.3174 11.4616 39.5367 11.5736C39.756 11.6856 40.0057 11.7859 40.2857 11.8746C40.5657 11.9633 40.8527 12.0589 41.1467 12.1616C41.4407 12.2596 41.7277 12.3763 42.0077 12.5116C42.2877 12.6423 42.5374 12.8103 42.7567 13.0156C42.976 13.2163 43.151 13.4636 43.2817 13.7576C43.417 14.0516 43.4847 14.4086 43.4847 14.8286C43.4847 15.2859 43.4054 15.7153 43.2467 16.1166C43.0927 16.5133 42.864 16.8609 42.5607 17.1596C42.262 17.4536 41.8957 17.6869 41.4617 17.8596C41.0277 18.0276 40.5307 18.1116 39.9707 18.1116C39.6487 18.1116 39.3314 18.0789 39.0187 18.0136C38.706 17.9529 38.405 17.8643 38.1157 17.7476C37.831 17.6309 37.5627 17.4909 37.3107 17.3276C37.0587 17.1643 36.8347 16.9823 36.6387 16.7816L37.1917 15.8786C37.2384 15.8133 37.299 15.7596 37.3737 15.7176C37.4484 15.6709 37.5277 15.6476 37.6117 15.6476C37.7284 15.6476 37.8544 15.6966 37.9897 15.7946C38.125 15.8879 38.286 15.9929 38.4727 16.1096C38.6594 16.2263 38.8764 16.3336 39.1237 16.4316C39.3757 16.5249 39.6767 16.5716 40.0267 16.5716C40.5634 16.5716 40.9787 16.4456 41.2727 16.1936C41.5667 15.9369 41.7137 15.5706 41.7137 15.0946C41.7137 14.8286 41.646 14.6116 41.5107 14.4436C41.38 14.2756 41.205 14.1356 40.9857 14.0236C40.7664 13.9069 40.5167 13.8089 40.2367 13.7296C39.9567 13.6503 39.672 13.5639 39.3827 13.4706C39.0934 13.3773 38.8087 13.2653 38.5287 13.1346C38.2487 13.0039 37.999 12.8336 37.7797 12.6236C37.5604 12.4136 37.383 12.1523 37.2477 11.8396C37.117 11.5223 37.0517 11.1326 37.0517 10.6706C37.0517 10.3019 37.124 9.94263 37.2687 9.59263C37.418 9.24263 37.6327 8.9323 37.9127 8.66163C38.1927 8.39096 38.538 8.17396 38.9487 8.01063C39.3594 7.8473 39.8307 7.76562 40.3627 7.76562C40.96 7.76562 41.5107 7.85896 42.0147 8.04563C42.5187 8.2323 42.948 8.49363 43.3027 8.82963L42.8337 9.71863Z" fill="white"/>
</svg>
