<svg width="24" height="24" viewBox="0 0 24 24" fill="none" xmlns="http://www.w3.org/2000/svg">
<path fill-rule="evenodd" clip-rule="evenodd" d="M10.3459 14.1977C11.374 14.6039 12.5155 14.6185 13.5536 14.2386C14.5917 13.8586 15.4541 13.1107 15.9772 12.1369C16.3313 11.4775 16.5131 10.7456 16.514 10.0078L18.014 10.0096C18.0128 10.9925 17.7706 11.9679 17.2986 12.8466C16.6017 14.1443 15.4524 15.1409 14.0691 15.6472C12.6858 16.1534 11.1647 16.1341 9.79471 15.5928C8.88273 15.2325 8.15249 14.7407 7.47535 14.006L7.28837 14.193L6.59635 14.885L6.41957 15.0618C6.26208 15.2193 5.9928 15.1077 5.9928 14.885V14.635L5.9928 13.6563L5.9928 13.3672L5.9928 12.0059C5.9928 11.7297 6.21666 11.5059 6.4928 11.5059H7.85417H8.14329H9.12195H9.37194C9.59467 11.5059 9.70621 11.7752 9.54872 11.9326L9.37194 12.1094L8.67993 12.8014L8.53696 12.9444C9.09309 13.5601 9.65376 13.9243 10.3459 14.1977ZM8.63015 7.00833C7.89629 7.83503 7.49155 8.90243 7.4928 10.0079L5.9928 10.0096C5.99114 8.53651 6.53047 7.11414 7.50839 6.01252C8.4863 4.91091 9.83471 4.20676 11.2976 4.03379C12.7604 3.86081 14.2359 4.23105 15.4438 5.0742C15.9092 5.39907 16.3223 5.78542 16.674 6.21959L16.7184 6.17518L17.4104 5.48317L17.5872 5.30639C17.7447 5.1489 18.014 5.26044 18.014 5.48317V5.73317L18.014 6.71182V7.00094L18.014 8.01545C18.014 8.2916 17.7901 8.51545 17.514 8.51545H16.4995H16.2103H15.2317H14.9817C14.759 8.51545 14.6474 8.24617 14.8049 8.08868L14.9817 7.9119L15.6055 7.28804C15.3217 6.91137 14.9782 6.57855 14.5852 6.30418C13.6787 5.67144 12.5715 5.3936 11.4737 5.52341C10.3759 5.65322 9.36402 6.18164 8.63015 7.00833ZM2 18.9994V15.9994H3.5V18.9994C3.5 19.2755 3.72386 19.4994 4 19.4994H20C20.2761 19.4994 20.5 19.2755 20.5 18.9994V15.9994H22V18.9994C22 20.104 21.1046 20.9994 20 20.9994H4C2.89543 20.9994 2 20.104 2 18.9994Z" fill="#0B1F33"/>
</svg>
