<svg width="16" height="16" viewBox="0 0 16 16" fill="none" xmlns="http://www.w3.org/2000/svg">
<path fill-rule="evenodd" clip-rule="evenodd" d="M8.00004 13.3145C10.9864 13.3145 13.4073 10.8936 13.4073 7.90727C13.4073 4.92092 10.9864 2.5 8.00004 2.5C5.01369 2.5 2.59277 4.92092 2.59277 7.90727C2.59277 10.8936 5.01369 13.3145 8.00004 13.3145ZM8.00004 14.8145C11.8148 14.8145 14.9073 11.722 14.9073 7.90727C14.9073 4.09249 11.8148 1 8.00004 1C4.18526 1 1.09277 4.09249 1.09277 7.90727C1.09277 10.2312 2.24048 12.2871 4 13.5391V15.191C4 15.5627 4.39116 15.8044 4.72361 15.6382L6.63903 14.6805C7.07905 14.7684 7.53416 14.8145 8.00004 14.8145ZM5.05311 8.50867C5.00138 8.23277 5.2311 8 5.51182 8H10.4882C10.7689 8 10.9986 8.23277 10.9469 8.50867C10.6808 9.92783 9.46258 11 8 11C6.53742 11 5.31922 9.92783 5.05311 8.50867Z" fill="#0B1F33"/>
</svg>
