<svg width="48" height="24" viewBox="0 0 48 24" fill="none" xmlns="http://www.w3.org/2000/svg">
<path d="M6.98555 24C3.89359 24 1.97073 20.6418 3.53589 17.9752L11.1809 4.9504C12.6173 2.50318 15.2426 1 18.0802 1H43.9996C46.2087 1 47.9996 2.79086 47.9996 5V20C47.9996 22.2091 46.2087 24 43.9996 24H6.98555Z" fill="#86909C"/>
<path d="M26.1425 15.6126C26.2452 15.6126 26.3362 15.6523 26.4155 15.7316L27.1575 16.5366C26.7469 17.0453 26.2405 17.435 25.6385 17.7056C25.0412 17.9763 24.3225 18.1116 23.4825 18.1116C22.7312 18.1116 22.0545 17.9833 21.4525 17.7266C20.8552 17.47 20.3442 17.113 19.9195 16.6556C19.4948 16.1983 19.1682 15.6523 18.9395 15.0176C18.7155 14.383 18.6035 13.69 18.6035 12.9386C18.6035 12.178 18.7248 11.4826 18.9675 10.8526C19.2102 10.218 19.5508 9.67196 19.9895 9.21462C20.4328 8.75729 20.9602 8.40262 21.5715 8.15062C22.1828 7.89396 22.8595 7.76562 23.6015 7.76562C24.3388 7.76562 24.9922 7.88696 25.5615 8.12962C26.1355 8.37229 26.6232 8.68963 27.0245 9.08162L26.3945 9.95662C26.3572 10.0126 26.3082 10.0616 26.2475 10.1036C26.1915 10.1456 26.1122 10.1666 26.0095 10.1666C25.9395 10.1666 25.8672 10.148 25.7925 10.1106C25.7178 10.0686 25.6362 10.0196 25.5475 9.96362C25.4588 9.90296 25.3562 9.83763 25.2395 9.76763C25.1228 9.69762 24.9875 9.63462 24.8335 9.57862C24.6795 9.51796 24.4998 9.46896 24.2945 9.43162C24.0938 9.38962 23.8605 9.36862 23.5945 9.36862C23.1418 9.36862 22.7265 9.45029 22.3485 9.61362C21.9752 9.77229 21.6532 10.0056 21.3825 10.3136C21.1118 10.617 20.9018 10.9903 20.7525 11.4336C20.6032 11.8723 20.5285 12.374 20.5285 12.9386C20.5285 13.508 20.6078 14.0143 20.7665 14.4576C20.9298 14.901 21.1492 15.2743 21.4245 15.5776C21.6998 15.881 22.0242 16.1143 22.3975 16.2776C22.7708 16.4363 23.1722 16.5156 23.6015 16.5156C23.8582 16.5156 24.0892 16.5016 24.2945 16.4736C24.5045 16.4456 24.6958 16.4013 24.8685 16.3406C25.0458 16.28 25.2115 16.203 25.3655 16.1096C25.5242 16.0116 25.6805 15.8926 25.8345 15.7526C25.8812 15.7106 25.9302 15.678 25.9815 15.6546C26.0328 15.6266 26.0865 15.6126 26.1425 15.6126Z" fill="white"/>
<path d="M33.8374 9.71862C33.7814 9.81662 33.7207 9.88896 33.6554 9.93562C33.5947 9.97762 33.5177 9.99863 33.4244 9.99863C33.3264 9.99863 33.219 9.96362 33.1024 9.89362C32.9904 9.81896 32.855 9.73729 32.6964 9.64862C32.5377 9.55996 32.351 9.48063 32.1364 9.41062C31.9264 9.33596 31.6767 9.29862 31.3874 9.29862C31.126 9.29862 30.8974 9.33129 30.7014 9.39662C30.5054 9.45729 30.3397 9.54362 30.2044 9.65562C30.0737 9.76762 29.9757 9.90296 29.9104 10.0616C29.845 10.2156 29.8124 10.386 29.8124 10.5726C29.8124 10.8106 29.8777 11.009 30.0084 11.1676C30.1437 11.3263 30.321 11.4616 30.5404 11.5736C30.7597 11.6856 31.0094 11.786 31.2894 11.8746C31.5694 11.9633 31.8564 12.059 32.1504 12.1616C32.4444 12.2596 32.7314 12.3763 33.0114 12.5116C33.2914 12.6423 33.541 12.8103 33.7604 13.0156C33.9797 13.2163 34.1547 13.4636 34.2854 13.7576C34.4207 14.0516 34.4884 14.4086 34.4884 14.8286C34.4884 15.286 34.409 15.7153 34.2504 16.1166C34.0964 16.5133 33.8677 16.861 33.5644 17.1596C33.2657 17.4536 32.8994 17.687 32.4654 17.8596C32.0314 18.0276 31.5344 18.1116 30.9744 18.1116C30.6524 18.1116 30.335 18.079 30.0224 18.0136C29.7097 17.953 29.4087 17.8643 29.1194 17.7476C28.8347 17.631 28.5664 17.491 28.3144 17.3276C28.0624 17.1643 27.8384 16.9823 27.6424 16.7816L28.1954 15.8786C28.242 15.8133 28.3027 15.7596 28.3774 15.7176C28.452 15.671 28.5314 15.6476 28.6154 15.6476C28.732 15.6476 28.858 15.6966 28.9934 15.7946C29.1287 15.888 29.2897 15.993 29.4764 16.1096C29.663 16.2263 29.88 16.3336 30.1274 16.4316C30.3794 16.525 30.6804 16.5716 31.0304 16.5716C31.567 16.5716 31.9824 16.4456 32.2764 16.1936C32.5704 15.937 32.7174 15.5706 32.7174 15.0946C32.7174 14.8286 32.6497 14.6116 32.5144 14.4436C32.3837 14.2756 32.2087 14.1356 31.9894 14.0236C31.77 13.907 31.5204 13.809 31.2404 13.7296C30.9604 13.6503 30.6757 13.564 30.3864 13.4706C30.097 13.3773 29.8124 13.2653 29.5324 13.1346C29.2524 13.004 29.0027 12.8336 28.7834 12.6236C28.564 12.4136 28.3867 12.1523 28.2514 11.8396C28.1207 11.5223 28.0554 11.1326 28.0554 10.6706C28.0554 10.302 28.1277 9.94262 28.2724 9.59262C28.4217 9.24262 28.6364 8.93229 28.9164 8.66162C29.1964 8.39096 29.5417 8.17396 29.9524 8.01062C30.363 7.84729 30.8344 7.76562 31.3664 7.76562C31.9637 7.76562 32.5144 7.85896 33.0184 8.04562C33.5224 8.23229 33.9517 8.49362 34.3064 8.82962L33.8374 9.71862Z" fill="white"/>
<path d="M39.19 12.6936C39.5446 12.6936 39.8526 12.6493 40.114 12.5606C40.38 12.472 40.597 12.3506 40.765 12.1966C40.9376 12.038 41.066 11.8513 41.15 11.6366C41.234 11.422 41.276 11.1863 41.276 10.9296C41.276 10.4163 41.1056 10.022 40.765 9.74662C40.429 9.47129 39.9133 9.33362 39.218 9.33362H38.014V12.6936H39.19ZM44.034 17.9996H42.333C42.011 17.9996 41.7776 17.8736 41.633 17.6216L39.505 14.3806C39.4256 14.2593 39.337 14.173 39.239 14.1216C39.1456 14.0703 39.0056 14.0446 38.819 14.0446H38.014V17.9996H36.131V7.87762H39.218C39.904 7.87762 40.492 7.94996 40.982 8.09462C41.4766 8.23462 41.8803 8.43296 42.193 8.68962C42.5103 8.94629 42.7436 9.25429 42.893 9.61362C43.0423 9.96829 43.117 10.3603 43.117 10.7896C43.117 11.1303 43.0656 11.4523 42.963 11.7556C42.865 12.059 42.7203 12.3343 42.529 12.5816C42.3423 12.829 42.109 13.046 41.829 13.2326C41.5536 13.4193 41.2386 13.5663 40.884 13.6736C41.0053 13.7436 41.1173 13.8276 41.22 13.9256C41.3226 14.019 41.416 14.131 41.5 14.2616L44.034 17.9996Z" fill="white"/>
</svg>
