<svg width="16" height="16" viewBox="0 0 16 16" fill="none" xmlns="http://www.w3.org/2000/svg">
<path fill-rule="evenodd" clip-rule="evenodd" d="M10.3584 3.59859L7.34291 4.89614L9.8096 7.67902C10.0933 7.99913 10.25 8.41207 10.25 8.83982V12.216L13.5 10.9035V7.25761C13.5 7.13348 13.4538 7.01379 13.3705 6.92182L10.3584 3.59859ZM5.5 5.68915L2.5 6.98005V10.1093L8.75 12.2869V10.9236L6.54328 9.94951C5.90914 9.66958 5.5 9.04173 5.5 8.34856V5.68915ZM8.75 9.28399V8.83982C8.75 8.77871 8.72762 8.71972 8.68709 8.674L9.24834 8.17651L8.68709 8.67399L7 6.77065V8.34856C7 8.44758 7.05845 8.53728 7.14904 8.57727L8.75 9.28399ZM10.0937 2.07952L1.60474 5.73231C1.23777 5.89021 1 6.25138 1 6.65088V10.4646C1 10.89 1.26921 11.2689 1.67099 11.4089L8.79011 13.8893C9.24774 14.0487 9.7477 14.0366 10.197 13.8551L14.3745 12.1681C14.7525 12.0154 15 11.6486 15 11.2409V7.25761C15 6.7611 14.8153 6.28235 14.4819 5.91447L11.2299 2.32652C10.9428 2.00984 10.4863 1.91058 10.0937 2.07952Z" fill="#0B1F33"/>
</svg>
