<svg width="24" height="24" viewBox="0 0 24 24" fill="none" xmlns="http://www.w3.org/2000/svg">
<path fill-rule="evenodd" clip-rule="evenodd" d="M4 8.5H17.5C17.7761 8.5 18 8.72386 18 9V15C18 15.2761 17.7761 15.5 17.5 15.5H4C3.72386 15.5 3.5 15.2761 3.5 15V9C3.5 8.72386 3.72386 8.5 4 8.5ZM2 9C2 7.89543 2.89543 7 4 7H17.5C18.6046 7 19.5 7.89543 19.5 9V15C19.5 16.1046 18.6046 17 17.5 17H4C2.89543 17 2 16.1046 2 15V9ZM21.9807 14V10H20.4807V14H21.9807Z" fill="#0B1F33"/>
<path fill-rule="evenodd" clip-rule="evenodd" d="M9.46875 8.5C9.19261 8.5 8.96875 8.72386 8.96875 9V11.6624H8.78898H8.49995L7.79641 11.6624H7.65979C7.29866 11.6624 7.19989 12.1592 7.53356 12.2973L7.65979 12.3495L8.57688 12.7292L8.96875 12.8914V15C8.96875 15.2761 9.19261 15.5 9.46875 15.5H4C3.44772 15.5 3 15.0523 3 14.5V9.5C3 8.94772 3.44772 8.5 4 8.5H9.46875ZM8.96875 12.8914L9.62321 13.1624L10.4843 13.5189L10.5065 13.5281L11.0807 13.7658L11.6387 13.9968C11.8033 14.0649 11.9843 13.9439 11.9843 13.7658V13.1619V12.5404V12.5164V12.3702H12.0697H13.2069H13.4843H14.1998H14.3361C14.6974 12.3702 14.796 11.8731 14.462 11.7352L14.3361 11.6832L13.4183 11.3043L12.3672 10.8702L11.4999 10.5121L11.478 10.5031L10.905 10.2665L10.3454 10.0354C10.1808 9.96743 9.99995 10.0884 9.99995 10.2665V10.8719V11.4919V11.5156V11.6624H9.92143H8.96875V12.8914Z" fill="#0B1F33"/>
</svg>
