<svg width="48" height="24" viewBox="0 0 48 24" fill="none" xmlns="http://www.w3.org/2000/svg">
<path d="M6.98555 24C3.89359 24 1.97073 20.6418 3.53589 17.9752L11.1809 4.9504C12.6173 2.50318 15.2426 1 18.0802 1H43.9996C46.2087 1 47.9996 2.79086 47.9996 5V20C47.9996 22.2091 46.2087 24 43.9996 24H6.98555Z" fill="#851F82"/>
<path d="M20.0021 12.1209H20.4431C20.6204 12.1209 20.7674 12.0976 20.8841 12.0509C21.0008 11.9996 21.1011 11.9202 21.1851 11.8129L23.9781 8.27791C24.0948 8.12858 24.2161 8.02591 24.3421 7.96991C24.4728 7.90924 24.6361 7.87891 24.8321 7.87891H26.4561L23.0471 12.0859C22.8464 12.3426 22.6388 12.5246 22.4241 12.6319C22.5781 12.6879 22.7158 12.7672 22.8371 12.8699C22.9631 12.9679 23.0821 13.0986 23.1941 13.2619L26.7081 18.0009H25.0491C24.8251 18.0009 24.6571 17.9706 24.5451 17.9099C24.4378 17.8446 24.3468 17.7512 24.2721 17.6299L21.4091 13.8919C21.3204 13.7659 21.2178 13.6772 21.1011 13.6259C20.9844 13.5746 20.8164 13.5489 20.5971 13.5489H20.0021V18.0009H18.1191V7.87891H20.0021V12.1209Z" fill="white"/>
<path d="M34.2395 7.87891V9.37691H29.7455V12.1839H33.2875V13.6329H29.7455V16.4959H34.2395V18.0009H27.8555V7.87891H34.2395Z" fill="white"/>
<path d="M40.3961 14.0809V18.0009H38.5201V14.0809L34.8311 7.87891H36.4901C36.6534 7.87891 36.7817 7.91858 36.8751 7.99791C36.9731 8.07724 37.0547 8.17758 37.1201 8.29891L38.9681 11.6799C39.0754 11.8852 39.1687 12.0766 39.2481 12.2539C39.3321 12.4312 39.4067 12.6062 39.4721 12.7789C39.5327 12.6016 39.6027 12.4242 39.6821 12.2469C39.7614 12.0696 39.8524 11.8806 39.9551 11.6799L41.7961 8.29891C41.8474 8.19624 41.9244 8.10058 42.0271 8.01191C42.1297 7.92324 42.2604 7.87891 42.4191 7.87891H44.0851L40.3961 14.0809Z" fill="white"/>
</svg>
