<svg width="24" height="25" viewBox="0 0 24 25" fill="none" xmlns="http://www.w3.org/2000/svg">
<path fill-rule="evenodd" clip-rule="evenodd" d="M11.7805 2.02941L9.56067 4.24927H12.0312V4.24932C16.9874 4.26617 21 8.28913 21 13.2493C21 18.2198 16.9706 22.2493 12 22.2493C7.02944 22.2493 3 18.2198 3 13.2493C3 10.8547 3.93518 8.67851 5.46024 7.06607L6.5214 8.12723C5.26755 9.4678 4.5 11.2689 4.5 13.2493C4.5 17.3914 7.85786 20.7493 12 20.7493C16.1421 20.7493 19.5 17.3914 19.5 13.2493C19.5 9.11155 16.1493 5.75643 12.0133 5.74928V5.74927H9.5655L11.7805 7.96426L10.7198 9.02492L7.2221 5.52718C6.9292 5.23429 6.9292 4.75941 7.2221 4.46652L10.7199 0.96875L11.7805 2.02941ZM12.7855 10.8884C13.2511 10.2982 13.9243 9.9751 14.7451 9.9751C15.5658 9.9751 16.239 10.2982 16.7046 10.8884C17.168 11.4759 17.4191 12.3191 17.4191 13.3511C17.4191 14.383 17.168 15.2263 16.7046 15.8138C16.239 16.404 15.5658 16.7271 14.7451 16.7271C13.9243 16.7271 13.2511 16.404 12.7855 15.8138C12.3221 15.2263 12.0711 14.383 12.0711 13.3511C12.0711 12.3191 12.3221 11.4759 12.7855 10.8884ZM8.80651 10.1011H10.0809V15.3031H11.6739V16.6011H7.00989V15.3031H8.69289V11.8739C8.28321 12.1715 7.74851 12.2541 7.19989 12.2541H7.09989V10.9651H7.19989C7.94541 10.9651 8.48398 10.6724 8.77781 10.1519L8.80651 10.1011ZM13.8094 11.819C13.5855 12.1767 13.4591 12.7005 13.4591 13.3511C13.4591 14.0017 13.5855 14.5255 13.8094 14.8832C14.0308 15.2367 14.3471 15.4291 14.7451 15.4291C15.143 15.4291 15.4593 15.2367 15.6807 14.8832C15.9046 14.5255 16.0311 14.0017 16.0311 13.3511C16.0311 12.7005 15.9046 12.1767 15.6807 11.819C15.4593 11.4655 15.143 11.2731 14.7451 11.2731C14.3471 11.2731 14.0308 11.4655 13.8094 11.819Z" fill="#0B1F33"/>
</svg>
