<svg width="48" height="24" viewBox="0 0 48 24" fill="none" xmlns="http://www.w3.org/2000/svg">
<path d="M6.98555 24C3.89359 24 1.97073 20.6418 3.53589 17.9752L11.1809 4.9504C12.6173 2.50318 15.2426 1 18.0802 1H43.9996C46.2087 1 47.9996 2.79086 47.9996 5V20C47.9996 22.2091 46.2087 24 43.9996 24H6.98555Z" fill="#0B40B3"/>
<path d="M31.9265 17.0196C31.4131 17.3976 30.8648 17.6753 30.2815 17.8526C29.7028 18.0253 29.0821 18.1116 28.4195 18.1116C27.5935 18.1116 26.8445 17.9833 26.1725 17.7266C25.5051 17.4699 24.9335 17.1129 24.4575 16.6556C23.9861 16.1983 23.6221 15.6523 23.3655 15.0176C23.1088 14.3829 22.9805 13.6899 22.9805 12.9386C22.9805 12.1779 23.1041 11.4803 23.3515 10.8456C23.5988 10.2109 23.9488 9.66495 24.4015 9.20762C24.8588 8.75029 25.4118 8.39562 26.0605 8.14362C26.7091 7.89162 27.4371 7.76562 28.2445 7.76562C28.6551 7.76562 29.0378 7.7983 29.3925 7.86363C29.7518 7.92896 30.0831 8.01995 30.3865 8.13662C30.6945 8.24862 30.9745 8.38629 31.2265 8.54962C31.4785 8.71295 31.7095 8.89263 31.9195 9.08863L31.3805 9.94263C31.2965 10.0779 31.1868 10.1619 31.0515 10.1946C30.9161 10.2226 30.7691 10.1876 30.6105 10.0896C30.4565 10.0009 30.3025 9.9123 30.1485 9.82363C29.9945 9.73496 29.8218 9.65796 29.6305 9.59263C29.4438 9.5273 29.2315 9.47362 28.9935 9.43162C28.7601 9.38962 28.4895 9.36863 28.1815 9.36863C27.6821 9.36863 27.2295 9.45263 26.8235 9.62063C26.4221 9.78863 26.0791 10.0289 25.7945 10.3416C25.5098 10.6543 25.2905 11.0299 25.1365 11.4686C24.9825 11.9073 24.9055 12.3973 24.9055 12.9386C24.9055 13.5173 24.9871 14.0353 25.1505 14.4926C25.3185 14.9453 25.5518 15.3303 25.8505 15.6476C26.1538 15.9603 26.5178 16.2006 26.9425 16.3686C27.3671 16.5319 27.8408 16.6136 28.3635 16.6136C28.7368 16.6136 29.0705 16.5763 29.3645 16.5016C29.6585 16.4223 29.9455 16.3149 30.2255 16.1796V14.3386H28.9515C28.8301 14.3386 28.7345 14.3059 28.6645 14.2406C28.5991 14.1706 28.5665 14.0866 28.5665 13.9886V12.9246H31.9265V17.0196Z" fill="white"/>
<path d="M35.2806 18.0009H33.3906V7.87891H35.2806V18.0009Z" fill="white"/>
<path d="M43.5813 7.87891V9.37691H39.0873V12.3729H42.8813V13.8779H39.0873V18.0009H37.1973V7.87891H43.5813Z" fill="white"/>
</svg>
