<svg width="24" height="24" viewBox="0 0 24 24" fill="none" xmlns="http://www.w3.org/2000/svg">
<path fill-rule="evenodd" clip-rule="evenodd" d="M12.4736 13.5115V15.0115V16.812L15.7063 10.4905H13.0263H11.5263V8.99047V7.19001L8.29354 13.5115H10.9736H12.4736ZM6.60878 13.5115L11.5263 3.89555L11.8885 3.18731L12.3257 2.33246L12.4025 2.18221C12.5603 1.87361 13.0263 1.98585 13.0263 2.33246V2.50122V3.46137V4.25684V7.49047V8.99047H14.5263H16.4734H16.5236H17.2607H17.7496C17.9364 8.99047 18.0572 9.18794 17.9721 9.35429L17.7496 9.78954L17.4139 10.4458L17.3911 10.4905L12.4736 20.1064L12.1114 20.8147L11.6742 21.6695L11.5974 21.8198C11.4396 22.1284 10.9736 22.0161 10.9736 21.6695V21.5008V20.5406V19.7452V16.5115V15.0115H9.47357H7.52645H7.47632H6.73919H6.25033C6.06349 15.0115 5.94268 14.8141 6.02775 14.6477L6.25033 14.2125L6.58595 13.5562L6.60878 13.5115Z" fill="#0B1F33"/>
</svg>
