<svg width="48" height="24" viewBox="0 0 48 24" fill="none" xmlns="http://www.w3.org/2000/svg">
<path d="M6.98555 24C3.89359 24 1.97073 20.6418 3.53589 17.9752L11.1809 4.9504C12.6173 2.50318 15.2426 1 18.0802 1H43.9996C46.2087 1 47.9996 2.79086 47.9996 5V20C47.9996 22.2091 46.2087 24 43.9996 24H6.98555Z" fill="#0B40B3"/>
<path d="M14.9902 18.0009V7.87891H18.4762C19.1389 7.87891 19.7059 7.94191 20.1772 8.06791C20.6485 8.19391 21.0335 8.37358 21.3322 8.60691C21.6355 8.84024 21.8572 9.12258 21.9972 9.45391C22.1372 9.78524 22.2072 10.1586 22.2072 10.5739C22.2072 10.8119 22.1722 11.0406 22.1022 11.2599C22.0322 11.4746 21.9225 11.6776 21.7732 11.8689C21.6285 12.0556 21.4419 12.2259 21.2132 12.3799C20.9892 12.5339 20.7209 12.6646 20.4082 12.7719C21.7989 13.0846 22.4942 13.8359 22.4942 15.0259C22.4942 15.4552 22.4125 15.8519 22.2492 16.2159C22.0859 16.5799 21.8479 16.8949 21.5352 17.1609C21.2225 17.4222 20.8375 17.6276 20.3802 17.7769C19.9229 17.9262 19.4002 18.0009 18.8122 18.0009H14.9902ZM16.8732 13.5629V16.5309H18.7772C19.1272 16.5309 19.4212 16.4889 19.6592 16.4049C19.8972 16.3209 20.0862 16.2089 20.2262 16.0689C20.3709 15.9289 20.4735 15.7656 20.5342 15.5789C20.5995 15.3922 20.6322 15.1939 20.6322 14.9839C20.6322 14.7646 20.5972 14.5686 20.5272 14.3959C20.4572 14.2186 20.3475 14.0692 20.1982 13.9479C20.0489 13.8219 19.8552 13.7262 19.6172 13.6609C19.3839 13.5956 19.1015 13.5629 18.7702 13.5629H16.8732ZM16.8732 12.2609H18.3712C19.0152 12.2609 19.5005 12.1442 19.8272 11.9109C20.1585 11.6776 20.3242 11.3066 20.3242 10.7979C20.3242 10.2706 20.1749 9.89491 19.8762 9.67091C19.5775 9.44691 19.1109 9.33491 18.4762 9.33491H16.8732V12.2609Z" fill="white"/>
<path d="M28.7968 13.8009C28.8761 13.9502 28.9484 14.1066 29.0138 14.2699C29.0838 14.4286 29.1514 14.5896 29.2168 14.7529C29.2821 14.5802 29.3498 14.4146 29.4198 14.2559C29.4898 14.0926 29.5644 13.9362 29.6438 13.7869L32.6328 8.17991C32.6701 8.10991 32.7098 8.05391 32.7518 8.01191C32.7938 7.96991 32.8381 7.93958 32.8848 7.92091C32.9361 7.90224 32.9921 7.89058 33.0528 7.88591C33.1134 7.88124 33.1858 7.87891 33.2698 7.87891H34.6908V18.0009H33.0318V11.4629C33.0318 11.3416 33.0341 11.2086 33.0388 11.0639C33.0481 10.9192 33.0598 10.7722 33.0738 10.6229L30.0148 16.3629C29.8701 16.6382 29.6484 16.7759 29.3498 16.7759H29.0838C28.7851 16.7759 28.5634 16.6382 28.4188 16.3629L25.3248 10.6019C25.3388 10.7559 25.3504 10.9076 25.3598 11.0569C25.3691 11.2016 25.3738 11.3369 25.3738 11.4629V18.0009H23.7148V7.87891H25.1358C25.2198 7.87891 25.2921 7.88124 25.3528 7.88591C25.4134 7.89058 25.4671 7.90224 25.5138 7.92091C25.5651 7.93958 25.6094 7.96991 25.6468 8.01191C25.6888 8.05391 25.7284 8.10991 25.7658 8.17991L28.7968 13.8009Z" fill="white"/>
<path d="M38.342 14.4379V18.0009H36.459V7.87891H39.749C40.4257 7.87891 41.0114 7.95824 41.506 8.11691C42.0007 8.27558 42.409 8.49724 42.731 8.78191C43.053 9.06658 43.291 9.40724 43.445 9.80391C43.6037 10.2006 43.683 10.6346 43.683 11.1059C43.683 11.5959 43.6014 12.0462 43.438 12.4569C43.2747 12.8629 43.0297 13.2129 42.703 13.5069C42.3764 13.8009 41.9657 14.0296 41.471 14.1929C40.981 14.3562 40.407 14.4379 39.749 14.4379H38.342ZM38.342 12.9679H39.749C40.0944 12.9679 40.3954 12.9259 40.652 12.8419C40.9087 12.7532 41.121 12.6296 41.289 12.4709C41.4617 12.3076 41.59 12.1116 41.674 11.8829C41.758 11.6496 41.8 11.3906 41.8 11.1059C41.8 10.8352 41.758 10.5902 41.674 10.3709C41.59 10.1516 41.464 9.96491 41.296 9.81091C41.128 9.65691 40.9157 9.54024 40.659 9.46091C40.4024 9.37691 40.099 9.33491 39.749 9.33491H38.342V12.9679Z" fill="white"/>
</svg>
