<svg width="24" height="24" viewBox="0 0 24 24" fill="none" xmlns="http://www.w3.org/2000/svg">
<path fill-rule="evenodd" clip-rule="evenodd" d="M19.2138 7.99918L12.7579 3.80298C12.2922 3.50026 11.7061 3.50027 11.2404 3.80302L4.78556 7.99895L11.2404 12.1951C11.7061 12.4978 12.2922 12.4979 12.758 12.1952L19.2138 7.99918ZM13.5167 2.48532C12.5852 1.87987 11.413 1.8799 10.4815 2.48538L3.3511 7.12051C2.73323 7.52215 2.73323 8.47568 3.35109 8.87734L10.4816 13.5127C11.413 14.1182 12.5852 14.1183 13.5167 13.5128L20.6483 8.87765C21.2662 8.47602 21.2662 7.5224 20.6483 7.12075L13.5167 2.48532ZM12.0939 16.4502L20.2599 11.5367L20.9978 12.8586L12.8317 17.7722C12.3029 18.0904 11.651 18.0927 11.1201 17.7782L3.00653 12.9717L3.73578 11.6446L11.8494 16.4511C11.9252 16.496 12.0183 16.4957 12.0939 16.4502ZM20.2362 15.3654L12.0841 20.4262C12.0085 20.4732 11.9145 20.4744 11.8378 20.4294L3.73079 15.675L3.00754 17.0059L11.1145 21.7602C11.6514 22.0751 12.3096 22.0666 12.8388 21.7381L20.9909 16.6772L20.2362 15.3654Z" fill="#0B1F33"/>
</svg>
