<svg width="24" height="24" viewBox="0 0 24 24" fill="none" xmlns="http://www.w3.org/2000/svg">
<path fill-rule="evenodd" clip-rule="evenodd" d="M4.0308 4.5L6.47022 4.5L3.00049 7.96967L4.06114 9.03034L7.53083 5.56071L7.53083 8.00001H9.03083L9.03083 3.75C9.03083 3.33579 8.69504 3.00001 8.28083 3L4.0308 3L4.0308 4.5ZM18.002 15H16.252L9.65195 21H6.00196C3.79282 21 2.00195 19.2091 2.00195 17C2.00195 14.7909 3.79281 13 6.00195 13H7.75195L14.352 7H18.002C20.2111 7 22.002 8.79086 22.002 11C22.002 13.2091 20.2111 15 18.002 15ZM6.00196 19.5H9.07204L15.2429 13.8901L15.672 13.5H16.252H18.002C19.3827 13.5 20.502 12.3807 20.502 11C20.502 9.61929 19.3827 8.5 18.002 8.5H14.9319L8.76096 14.1099L8.33186 14.5H7.75195H6.00195C4.62124 14.5 3.50195 15.6193 3.50195 17C3.50195 18.3807 4.62124 19.5 6.00196 19.5Z" fill="#0B1F33"/>
</svg>
