<svg width="24" height="24" viewBox="0 0 24 24" fill="none" xmlns="http://www.w3.org/2000/svg">
<path d="M14.0894 16.5334C15.1415 16.2938 16.1545 15.8772 17.0867 15.2912C17.7924 14.8459 18.006 13.9137 17.5607 13.2054C17.1154 12.4971 16.1831 12.2835 15.4748 12.7288C13.3603 14.0595 10.639 14.0569 8.52453 12.7288C7.81625 12.2835 6.88396 12.4971 6.43867 13.2054C5.99337 13.9111 6.2069 14.8459 6.91261 15.2912C7.84487 15.8772 8.85785 16.2938 9.90989 16.5334L7.02719 19.4187C6.43609 20.0098 6.43609 20.9655 7.02719 21.5567C7.32405 21.8509 7.70945 21.9993 8.09486 21.9993C8.48286 21.9993 8.86827 21.8509 9.16516 21.5567L12.001 18.7208L14.8368 21.5567C15.4279 22.1478 16.3836 22.1478 16.9747 21.5567C17.5659 20.9655 17.5659 20.0072 16.9747 19.4187L14.0894 16.5334ZM12.001 5.02594C13.1806 5.02594 14.1389 5.98425 14.1389 7.16389C14.1389 8.34094 13.1806 9.29924 12.001 9.29924C10.8239 9.29924 9.86302 8.34094 9.86302 7.16389C9.86302 5.98425 10.8239 5.02594 12.001 5.02594ZM12.001 12.3226C14.8472 12.3226 17.1622 10.0076 17.1622 7.16387C17.1622 4.31503 14.8472 2 12.001 2C9.15471 2 6.83972 4.31503 6.83972 7.16129C6.83972 10.0076 9.15471 12.3226 12.001 12.3226Z" fill="#0B1F33"/>
</svg>
