<svg width="24" height="24" viewBox="0 0 24 24" fill="none" xmlns="http://www.w3.org/2000/svg">
<path fill-rule="evenodd" clip-rule="evenodd" d="M8.30822 10.6302L7.11077 9.53287L4.82551 7.43872L6.22085 14.5H17.7788L19.1959 7.37546L16.7911 9.54072L15.5698 10.6404L14.586 9.32401L12.0122 5.88049L9.30702 9.34941L8.30822 10.6302ZM21.0002 5.99372C21.0274 5.79722 20.9964 5.59675 20.9112 5.41913C20.826 5.24152 20.6908 5.09523 20.5236 4.99985C20.3564 4.90447 20.1652 4.86455 19.9757 4.88543C19.7861 4.90631 19.6072 4.987 19.4628 5.11669L16.9068 7.41812L15.7875 8.426L14.8857 7.2195L12.7605 4.37609C12.6741 4.2604 12.5637 4.1665 12.4376 4.1014C12.3115 4.03629 12.1729 4.00165 12.0322 4.00006C11.8914 3.99847 11.7522 4.02996 11.6247 4.0922C11.4973 4.15444 11.385 4.24581 11.2962 4.35953L9.04953 7.24039L8.12418 8.42697L7.01479 7.41036L4.56389 5.16444C4.41994 5.0324 4.2405 4.94963 4.04988 4.92733C3.85925 4.90503 3.66665 4.9443 3.49817 5.03979C3.32968 5.13529 3.19345 5.28242 3.10792 5.46123C3.02239 5.64005 2.9917 5.84193 3.02001 6.03952L4.98825 16H19.0098L21.0002 5.99372ZM6.50024 17.5383H5.00024V19H6.50024H17.5002H19.0002V17.5383H17.5002H6.50024Z" fill="#0B1F33"/>
</svg>
