<svg width="16" height="16" viewBox="0 0 16 16" fill="none" xmlns="http://www.w3.org/2000/svg">
<path fill-rule="evenodd" clip-rule="evenodd" d="M13 3.5H3C2.72386 3.5 2.5 3.72386 2.5 4V10C2.5 10.2761 2.72386 10.5 3 10.5H13C13.2761 10.5 13.5 10.2761 13.5 10V4C13.5 3.72386 13.2761 3.5 13 3.5ZM3 2C1.89543 2 1 2.89543 1 4V10C1 11.1046 1.89543 12 3 12H7.25014L7.25014 13.4991H5.00036V14.9991H11.0004V13.4991H8.75014L8.75014 12H13C14.1046 12 15 11.1046 15 10V4C15 2.89543 14.1046 2 13 2H3Z" fill="#0B1F33"/>
</svg>
