<svg width="16" height="16" viewBox="0 0 16 16" fill="none" xmlns="http://www.w3.org/2000/svg">
<path fill-rule="evenodd" clip-rule="evenodd" d="M10 6.00054H6V3.5C6 2.39565 6.89509 1.50031 7.99944 1.5C9.10423 1.49969 10 2.39521 10 3.5V6.00054ZM4.5 3.5V6.00054H3C2.44772 6.00054 2 6.44826 2 7.00054V12.0005C2 13.6574 3.34315 15.0005 5 15.0005H11C12.6569 15.0005 14 13.6574 14 12.0005V7.00054C14 6.44826 13.5523 6.00054 13 6.00054H11.5V3.5C11.5 1.56662 9.9324 -0.000539025 7.99902 1.39078e-07C6.06641 0.000539581 4.5 1.56739 4.5 3.5ZM3.5 7.50054V12.0005C3.5 12.829 4.17157 13.5005 5 13.5005H11C11.8284 13.5005 12.5 12.829 12.5 12.0005V7.50054H3.5ZM8 12.0005C8.82843 12.0005 9.5 11.329 9.5 10.5005C9.5 9.67212 8.82843 9.00054 8 9.00054C7.17157 9.00054 6.5 9.67212 6.5 10.5005C6.5 11.329 7.17157 12.0005 8 12.0005Z" fill="#0B1F33"/>
</svg>
