<svg width="24" height="24" viewBox="0 0 24 24" fill="none" xmlns="http://www.w3.org/2000/svg">
<path fill-rule="evenodd" clip-rule="evenodd" d="M19.2925 11.9419H17.7925V13.4419V19.0002C17.7925 19.2764 17.5687 19.5002 17.2925 19.5002H15.1204V19.5V14.0632C15.1204 12.9587 14.225 12.0632 13.1204 12.0632H10.8852C9.7806 12.0632 8.88517 12.9587 8.88517 14.0632V19.5V19.5002H6.71945C6.44331 19.5002 6.21945 19.2764 6.21945 19.0002V13.4419V11.9419H4.71945H4.26678L12.0018 4.68564L19.7338 11.9419H19.2925ZM21.6815 11.7128L12.6862 3.27082C12.3015 2.90978 11.7025 2.90972 11.3177 3.27069L2.31881 11.7126C1.65778 12.3328 2.09661 13.4419 3.00299 13.4419H3.21945H4.71945V14.9419V19.0002C4.71945 20.1048 5.61488 21.0002 6.71945 21.0002H17.2925C18.3971 21.0002 19.2925 20.1048 19.2925 19.0002V14.9419V13.4419H20.7925H20.9972C21.9035 13.4419 22.3423 12.333 21.6815 11.7128ZM10.8852 13.5632H13.1204C13.3965 13.5632 13.6204 13.7871 13.6204 14.0632V19.5H10.3852V14.0632C10.3852 13.7871 10.609 13.5632 10.8852 13.5632Z" fill="#0B1F33"/>
</svg>
