<svg width="24" height="24" viewBox="0 0 24 24" fill="none" xmlns="http://www.w3.org/2000/svg">
<path fill-rule="evenodd" clip-rule="evenodd" d="M1.65339 10.5223L6.61847 5.64148C6.81302 5.45024 7.12495 5.45023 7.3195 5.64148L8.31713 6.62219L2.68739 12.2519L1.65339 11.2355C1.45408 11.0395 1.45408 10.7183 1.65339 10.5223ZM3.75712 13.3035L9.04215 18.4989C10.2918 19.7274 12.2573 19.8423 13.6416 18.768L16.2152 16.7707C16.9326 16.2139 16.9947 15.1525 16.3471 14.516L15.2934 13.4802C15.024 13.2463 14.6439 13.17 14.2979 13.2952L10.887 14.529C10.1785 14.7853 9.38585 14.6123 8.84857 14.0841C8.06814 13.3169 8.06814 12.0589 8.84856 11.2917L10.9579 9.21818L9.38687 7.67378L3.75712 13.3035ZM12.0278 8.16648L8.37105 4.57179C7.59286 3.8068 6.34511 3.8068 5.56692 4.57179L0.60184 9.45265C-0.195405 10.2364 -0.195405 11.5214 0.60184 12.3052L7.9906 19.5686C9.77579 21.3235 12.5837 21.4878 14.5613 19.953L17.1349 17.9557C17.2947 17.8316 17.4383 17.6951 17.5654 17.5485L17.5528 17.6228L23.3519 12.3032C24.1957 11.5292 24.2186 10.2059 23.402 9.40316L18.4879 4.57246C17.7097 3.80747 16.462 3.80747 15.6838 4.57246L12.0278 8.16648ZM18.2314 14.9648L20.1473 13.2073L14.641 7.70101L9.90011 12.3614C9.71762 12.5408 9.71762 12.835 9.90011 13.0144C10.0258 13.1379 10.2111 13.1783 10.3768 13.1184L13.7876 11.8846C14.7061 11.5524 15.7208 11.788 16.3981 12.4599L16.3967 12.4613L17.3987 13.4463C17.8386 13.8787 18.1147 14.4092 18.2314 14.9648ZM21.2537 12.1924L15.7107 6.64942L16.7353 5.64215C16.9299 5.45091 17.2418 5.45091 17.4364 5.64215L22.3504 10.4729C22.5546 10.6735 22.5489 11.0044 22.3379 11.1979L21.2537 12.1924Z" fill="#0B1F33"/>
</svg>
