<svg width="24" height="24" viewBox="0 0 24 24" fill="none" xmlns="http://www.w3.org/2000/svg">
<path fill-rule="evenodd" clip-rule="evenodd" d="M8.05827 6.87472L8.05837 6.87462L11.0414 3.91184L16.0779 8.9208C14.2746 10.7025 10.5412 14.389 7.50119 17.3768V9.43053C7.50119 9.33203 7.50104 9.23898 7.50088 9.1508V9.15079C7.49976 8.49141 7.49909 8.10448 7.56899 7.75072C7.62856 7.44916 7.73975 7.19102 8.05827 6.87472ZM6.00119 9.43053V18.8752C6.00119 18.8752 6.00153 18.8755 6.0022 18.8762V19.696C6.0022 20.3105 6.18985 20.9103 6.6456 21.3563C7.10165 21.8026 7.7296 22.0005 8.42001 22.0005H15.6725C16.1162 22.0005 16.34 21.4655 16.0286 21.1495L10.9954 16.0428C13.9192 13.1627 16.8571 10.2598 17.8532 9.27534C18.0508 9.08007 18.0479 8.76447 17.851 8.56858L11.3944 2.14743C11.1994 1.95355 10.8845 1.95345 10.6895 2.1472L7.00132 5.81036C5.99282 6.81183 5.9961 7.79941 6.00058 9.15058C6.00088 9.24219 6.00119 9.33546 6.00119 9.43053ZM9.90776 17.1137C9.30591 17.7061 8.71524 18.2869 8.15341 18.8388L8.01379 18.9759L7.97173 19.0173C7.64391 19.3392 7.51905 19.6187 7.5548 19.9046C7.58508 20.0934 7.65566 20.2096 7.72857 20.281C7.82494 20.3753 8.02161 20.4852 8.42001 20.4852H13.2307L9.90776 17.1137Z" fill="#0B1F33"/>
</svg>
