<svg width="24" height="25" viewBox="0 0 24 25" fill="none" xmlns="http://www.w3.org/2000/svg">
<path fill-rule="evenodd" clip-rule="evenodd" d="M12.2195 2.02941L14.4393 4.24927H11.9688V4.24932C7.01256 4.26617 3 8.28913 3 13.2493C3 18.2198 7.02944 22.2493 12 22.2493C16.9706 22.2493 21 18.2198 21 13.2493C21 10.8547 20.0648 8.67851 18.5398 7.06607L17.4786 8.12723C18.7324 9.4678 19.5 11.2689 19.5 13.2493C19.5 17.3914 16.1421 20.7493 12 20.7493C7.85786 20.7493 4.5 17.3914 4.5 13.2493C4.5 9.11155 7.8507 5.75643 11.9867 5.74928V5.74927H14.4345L12.2195 7.96426L13.2802 9.02492L16.7779 5.52718C17.0708 5.23429 17.0708 4.75941 16.7779 4.46652L13.2801 0.96875L12.2195 2.02941ZM8.80651 10.1011H10.0809V15.3031H11.6739V16.6011H7.00989V15.3031H8.69289V11.8739C8.28321 12.1715 7.74851 12.2541 7.19989 12.2541H7.09989V10.9651H7.19989C7.94541 10.9651 8.48398 10.6724 8.77781 10.1519L8.80651 10.1011ZM12.7355 10.1011H16.8341V11.3991H13.7459L13.6354 12.4281C14.0092 12.1983 14.4986 12.0991 14.9071 12.0991C15.6469 12.0991 16.2305 12.3191 16.6292 12.7166C17.0278 13.114 17.2301 13.6773 17.2301 14.3411C17.2301 15.6858 16.2197 16.7271 14.7181 16.7271C13.9207 16.7271 13.3404 16.5009 12.9587 16.1419C12.577 15.7829 12.4041 15.3007 12.4041 14.8091C12.4041 14.7788 12.4065 14.7223 12.4099 14.6688C12.4131 14.6177 12.4179 14.5588 12.424 14.5285L12.441 14.4436L13.8271 14.5171L13.8087 14.6275C13.8004 14.6772 13.7921 14.7616 13.7921 14.8181C13.7921 15.0296 13.8808 15.2008 14.0377 15.3216C14.1969 15.4443 14.4324 15.5191 14.7271 15.5191C15.0613 15.5191 15.3377 15.4137 15.5303 15.22C15.7228 15.0266 15.8421 14.7345 15.8421 14.3411C15.8421 13.985 15.7281 13.7061 15.5374 13.5165C15.3466 13.3267 15.0699 13.2171 14.7271 13.2171C14.316 13.2171 13.883 13.4109 13.5765 13.7429L13.5358 13.787L12.4699 13.5076L12.7355 10.1011Z" fill="#0B1F33"/>
</svg>
