<svg width="24" height="24" viewBox="0 0 24 24" fill="none" xmlns="http://www.w3.org/2000/svg">
<circle cx="12" cy="12" r="10" fill="#FED13E"/>
<path fill-rule="evenodd" clip-rule="evenodd" d="M14.0855 10.0033L16.3222 9.24219C16.7356 9.51009 17.009 9.97522 17.009 10.5042C17.009 11.3343 16.3354 12.0073 15.5045 12.0073C14.6736 12.0073 14 11.3343 14 10.5042C14 10.3286 14.0301 10.16 14.0855 10.0033ZM15.4301 17.4885C13.7321 15.5038 10.2658 15.5202 8.56819 17.4905L7.43181 16.5114C9.72167 13.8537 14.2671 13.8218 16.5699 16.5134L15.4301 17.4885ZM7 10.5041C7 9.97648 7.2721 9.51235 7.68374 9.24414L9.92474 10.0068C9.97934 10.1624 10.009 10.3298 10.009 10.5041C10.009 11.3343 9.33544 12.0072 8.50452 12.0072C7.6736 12.0072 7 11.3343 7 10.5041Z" fill="#0B1F33"/>
</svg>
