<svg width="16" height="16" viewBox="0 0 16 16" fill="none" xmlns="http://www.w3.org/2000/svg">
<path fill-rule="evenodd" clip-rule="evenodd" d="M9.5 6.5C9.5 8.15685 8.15685 9.5 6.5 9.5C4.84315 9.5 3.5 8.15685 3.5 6.5C3.5 4.84315 4.84315 3.5 6.5 3.5C8.15685 3.5 9.5 4.84315 9.5 6.5ZM9.10743 10.168C8.37181 10.6919 7.47188 11 6.5 11C4.01472 11 2 8.98528 2 6.5C2 4.01472 4.01472 2 6.5 2C8.98528 2 11 4.01472 11 6.5C11 7.47186 10.6919 8.37177 10.1681 9.10738L13.0303 11.9696L11.9696 13.0303L9.10743 10.168Z" fill="#0B1F33"/>
</svg>
