<svg width="24" height="24" viewBox="0 0 24 24" fill="none" xmlns="http://www.w3.org/2000/svg">
<path d="M21.4376 6.23847C20.7359 6.54249 19.9958 6.75237 19.2372 6.86247C20.0432 6.37896 20.6445 5.62573 20.9306 4.74127C20.1723 5.18352 19.3416 5.49302 18.4756 5.65599C17.731 4.87432 16.6863 4.43646 15.597 4.4495C14.5781 4.45516 13.6034 4.85942 12.8885 5.57293C12.1568 6.2889 11.7455 7.26185 11.7455 8.27661C11.7441 8.5722 11.7868 8.86639 11.8722 9.1498C10.3018 9.05596 8.76788 8.64489 7.36633 7.94224C6.0167 7.26436 4.82705 6.3153 3.87451 5.15657C3.53773 5.73201 3.36239 6.38499 3.36639 7.04883C3.35787 7.69511 3.51828 8.33271 3.83225 8.90062C4.12488 9.43605 4.54628 9.89301 5.05975 10.2317C4.45339 10.2148 3.85958 10.058 3.3263 9.7738V9.81533C3.30629 10.7027 3.61422 11.5672 4.19303 12.2485C4.76022 12.9213 5.54419 13.3834 6.4151 13.5583C6.08385 13.644 5.74246 13.6859 5.39994 13.6829C5.15759 13.6843 4.91599 13.6564 4.68056 13.5998C4.91903 14.3545 5.39276 15.0165 6.03482 15.4921C6.6802 15.9763 7.4657 16.246 8.27747 16.262C7.62355 16.792 6.8773 17.2011 6.07491 17.4695C5.24401 17.7491 4.37135 17.8898 3.49315 17.8859C3.18257 17.8859 2.87235 17.8721 2.5625 17.8444C3.42643 18.3788 4.35872 18.7981 5.33494 19.0913C6.35633 19.3994 7.41927 19.5538 8.48765 19.5492C12.0708 19.4072 14.8007 18.2288 16.6771 16.0139C18.4754 13.9959 19.4877 11.4167 19.5341 8.7345L19.4918 8.23508C20.2509 7.6828 20.9089 7.00763 21.4376 6.23847Z" fill="#0B1F33"/>
</svg>
