<svg width="24" height="24" viewBox="0 0 24 24" fill="none" xmlns="http://www.w3.org/2000/svg">
<path fill-rule="evenodd" clip-rule="evenodd" d="M3.49902 13.7368L3.49902 10.2649L3.79498 10.1801C5.68553 9.6382 6.80682 7.69586 6.33067 5.78769L6.25338 5.47798L9.24308 3.74631L9.45679 3.95375C10.8729 5.32832 13.1251 5.32832 14.5413 3.95375L14.755 3.7463L17.7447 5.47797L17.6674 5.78769C17.1912 7.69586 18.3125 9.6382 20.2031 10.1801L20.499 10.2649L20.499 13.7368L20.2031 13.8216C18.3125 14.3635 17.1913 16.3058 17.6674 18.214L17.7447 18.5237L14.755 20.2554L14.5413 20.0479C13.1251 18.6734 10.8729 18.6734 9.45681 20.0479L9.24306 20.2554L6.25337 18.5237L6.33066 18.214C6.80681 16.3059 5.68552 14.3635 3.79497 13.8216L3.49902 13.7368ZM4.87529 6.15086C5.15577 7.27485 4.49528 8.41897 3.38167 8.73817L2.36125 9.03066C2.14681 9.09213 1.99902 9.28822 1.99902 9.51131L1.99902 14.4904C1.99902 14.7135 2.14681 14.9096 2.36125 14.9711L3.38166 15.2635C4.49527 15.5828 5.15576 16.7269 4.87528 17.8509L4.61578 18.8908C4.56183 19.107 4.65747 19.3328 4.8503 19.4445L9.14601 21.9327C9.33967 22.0448 9.58428 22.0146 9.74487 21.8588L10.5016 21.1243C11.3357 20.3146 12.6624 20.3146 13.4965 21.1243L14.2532 21.8588C14.4138 22.0146 14.6584 22.0448 14.8521 21.9326L19.1478 19.4445C19.3406 19.3328 19.4362 19.107 19.3823 18.8908L19.1228 17.8508C18.8423 16.7269 19.5028 15.5827 20.6164 15.2635L21.6368 14.9711C21.8512 14.9096 21.999 14.7135 21.999 14.4904L21.999 9.5113C21.999 9.28822 21.8512 9.09212 21.6368 9.03066L20.6164 8.73817C19.5028 8.41897 18.8423 7.27485 19.1228 6.15086L19.3823 5.11092C19.4362 4.89471 19.3406 4.66889 19.1477 4.5572L14.852 2.06906C14.6584 1.95689 14.4138 1.98707 14.2532 2.14295L13.4965 2.87742C12.6624 3.68709 11.3357 3.68709 10.5015 2.87742L9.74488 2.14296C9.58429 1.98708 9.33968 1.9569 9.14602 2.06907L4.85031 4.55721C4.65748 4.6689 4.56184 4.89472 4.61579 5.11093L4.87529 6.15086ZM9.49902 12C9.49902 10.6193 10.6183 9.5 11.999 9.5C13.3797 9.5 14.499 10.6193 14.499 12C14.499 13.3807 13.3797 14.5 11.999 14.5C10.6183 14.5 9.49902 13.3807 9.49902 12ZM7.99902 12C7.99902 9.79086 9.78988 8 11.999 8C14.2082 8 15.999 9.79086 15.999 12C15.999 14.2091 14.2082 16 11.999 16C9.78988 16 7.99902 14.2091 7.99902 12Z" fill="#0B1F33"/>
</svg>
