<svg width="24" height="24" viewBox="0 0 24 24" fill="none" xmlns="http://www.w3.org/2000/svg">
<path fill-rule="evenodd" clip-rule="evenodd" d="M10.7081 8.74012L13.9762 5.47218C15.2334 4.21496 17.2719 4.21496 18.5291 5.47218C19.7864 6.7294 19.7864 8.76775 18.5291 10.025L15.2611 13.2929L16.3217 14.3535L19.5898 11.0856C21.4329 9.24261 21.4329 6.25453 19.5898 4.41154C17.7467 2.56855 14.7585 2.56855 12.9155 4.41154L9.64741 7.67948L10.7081 8.74012ZM8.73938 10.7087L7.6787 9.64811L4.41013 12.9165C2.56706 14.7595 2.56707 17.7476 4.41013 19.5906C6.2532 21.4336 9.24141 21.4336 11.0845 19.5906L14.353 16.3222L13.2924 15.2615L10.0238 18.53C8.76652 19.7872 6.72808 19.7872 5.47081 18.53C4.21355 17.2728 4.21354 15.2344 5.47081 13.9772L8.73938 10.7087ZM7.96967 14.9705L14.9697 7.97051L16.0303 9.03117L9.03033 16.0312L7.96967 14.9705ZM19.75 21.0008L19.75 18.7507L22.0001 18.7507L22 17.2507L19.75 17.2507L19.7501 15.0009L18.2501 15.0008L18.25 17.2508L16 17.2508L16.0001 18.7508L18.25 18.7508L18.25 21.0008L19.75 21.0008Z" fill="#0B1F33"/>
</svg>
