<svg width="16" height="16" viewBox="0 0 16 16" fill="none" xmlns="http://www.w3.org/2000/svg">
<path fill-rule="evenodd" clip-rule="evenodd" d="M9.53196 9.31938C8.84102 9.57224 8.08128 9.56258 7.397 9.29222C7.08297 9.16814 6.80887 9.01695 6.54626 8.80007L6.54904 8.79728L7.23875 8.10455L7.41591 7.92661C7.57287 7.76896 7.46121 7.50022 7.23875 7.50022H6.98765H6.01011H5.72375H4.5C4.22386 7.50022 4 7.72407 4 8.00022L4 9.23153L4 9.52342L3.99999 10.5032L3.99999 10.7521C3.99999 10.9751 4.26983 11.0865 4.42716 10.9285L4.60278 10.7521L5.29405 10.0578L5.48487 9.86613C5.88634 10.2191 6.3264 10.4821 6.84581 10.6873C7.87199 11.0927 9.01132 11.1072 10.0475 10.728C11.0836 10.3488 11.9445 9.60231 12.4665 8.63026C12.7406 8.11999 12.9112 7.56621 12.9745 7H11.4604C11.4065 7.31939 11.3008 7.63051 11.145 7.92055C10.7969 8.56873 10.2229 9.06652 9.53196 9.31938ZM5.13328 3.51134C4.51334 4.20968 4.12872 5.08011 4.0259 6H5.54C5.63318 5.44852 5.87929 4.93043 6.25504 4.50715C6.74349 3.95693 7.41698 3.60522 8.14765 3.51883C8.87831 3.43243 9.61526 3.61736 10.2186 4.03849C10.295 4.09183 10.3686 4.14849 10.4392 4.20823L9.7534 4.89404L9.57662 5.07081C9.41913 5.2283 9.53067 5.49759 9.7534 5.49759L10.0034 5.49759H10.982H11.2712H12.5C12.7761 5.49759 13 5.27373 13 4.99759L13 3.76875L13 3.47963L13 2.50098V2.25098C13 2.02825 12.7307 1.91671 12.5732 2.0742L12.3964 2.25098L11.7044 2.94299L11.5023 3.14511C11.3681 3.02503 11.2262 2.91256 11.0771 2.80851C10.1724 2.17696 9.06724 1.89964 7.97151 2.02921C6.87577 2.15877 5.86577 2.6862 5.13328 3.51134ZM2.5 13.0002V11.0002H1V13.0002C1 14.1048 1.89543 15.0002 3 15.0002H13C14.1046 15.0002 15 14.1048 15 13.0002V11.0002H13.5V13.0002C13.5 13.2764 13.2761 13.5002 13 13.5002H3C2.72386 13.5002 2.5 13.2764 2.5 13.0002Z" fill="#0B1F33"/>
</svg>
