<svg width="24" height="24" viewBox="0 0 24 24" fill="none" xmlns="http://www.w3.org/2000/svg">
<path fill-rule="evenodd" clip-rule="evenodd" d="M3 4.5H21C21.8284 4.5 22.5 5.17157 22.5 6V18C22.5 18.8284 21.8284 19.5 21 19.5H3C2.17157 19.5 1.5 18.8284 1.5 18V6C1.5 5.17157 2.17157 4.5 3 4.5ZM0 6C0 4.34315 1.34315 3 3 3H21C22.6569 3 24 4.34315 24 6V18C24 19.6569 22.6569 21 21 21H3C1.34315 21 0 19.6569 0 18V6ZM6.56691 17.916C6.98224 18.0467 7.43957 18.112 7.93891 18.112C8.43824 18.112 8.89557 18.0467 9.31091 17.916C9.72624 17.7807 10.0809 17.5893 10.3749 17.342C10.6736 17.0947 10.9046 16.796 11.0679 16.446C11.2359 16.0913 11.3199 15.6947 11.3199 15.256C11.3199 14.612 11.1519 14.0823 10.8159 13.667C10.4799 13.247 9.99924 12.9483 9.37391 12.771C9.89657 12.575 10.2932 12.2833 10.5639 11.896C10.8346 11.504 10.9699 11.0373 10.9699 10.496C10.9699 10.1273 10.8976 9.782 10.7529 9.46C10.6082 9.138 10.4029 8.858 10.1369 8.62C9.87091 8.382 9.55124 8.19533 9.17791 8.06C8.80457 7.92467 8.39157 7.857 7.93891 7.857C7.48157 7.857 7.06624 7.92467 6.69291 8.06C6.32424 8.19533 6.00691 8.382 5.74091 8.62C5.47491 8.858 5.26957 9.138 5.12491 9.46C4.98024 9.782 4.90791 10.1273 4.90791 10.496C4.90791 11.0373 5.04091 11.504 5.30691 11.896C5.57757 12.2833 5.97657 12.575 6.50391 12.771C5.87857 12.9483 5.39791 13.247 5.06191 13.667C4.72591 14.0823 4.55791 14.612 4.55791 15.256C4.55791 15.6947 4.63957 16.0913 4.80291 16.446C4.96624 16.796 5.19724 17.0947 5.49591 17.342C5.79457 17.5893 6.15157 17.7807 6.56691 17.916ZM8.81391 16.985C8.55724 17.0737 8.26557 17.118 7.93891 17.118C7.61224 17.118 7.31824 17.0737 7.05691 16.985C6.80024 16.8917 6.58091 16.7633 6.39891 16.6C6.22157 16.432 6.08391 16.2337 5.98591 16.005C5.89257 15.7717 5.84591 15.515 5.84591 15.235C5.84591 14.8897 5.90191 14.5957 6.01391 14.353C6.13057 14.1057 6.28457 13.905 6.47591 13.751C6.67191 13.597 6.89591 13.485 7.14791 13.415C7.39991 13.3403 7.66357 13.303 7.93891 13.303C8.21424 13.303 8.47791 13.3403 8.72991 13.415C8.98191 13.485 9.20357 13.597 9.39491 13.751C9.59091 13.905 9.74491 14.1057 9.85691 14.353C9.97357 14.5957 10.0319 14.8897 10.0319 15.235C10.0319 15.515 9.98291 15.7717 9.88491 16.005C9.79157 16.2337 9.65391 16.432 9.47191 16.6C9.29457 16.7633 9.07524 16.8917 8.81391 16.985ZM8.77191 12.155C8.54324 12.253 8.26557 12.302 7.93891 12.302C7.61224 12.302 7.33224 12.253 7.09891 12.155C6.87024 12.0523 6.68357 11.9193 6.53891 11.756C6.39424 11.588 6.28924 11.3967 6.22391 11.182C6.15857 10.9673 6.12591 10.7457 6.12591 10.517C6.12591 10.2837 6.16324 10.0643 6.23791 9.859C6.31724 9.65367 6.43157 9.474 6.58091 9.32C6.73491 9.166 6.92391 9.04467 7.14791 8.956C7.37657 8.86733 7.64024 8.823 7.93891 8.823C8.23757 8.823 8.49891 8.86733 8.72291 8.956C8.95157 9.04467 9.14057 9.166 9.28991 9.32C9.44391 9.474 9.55824 9.65367 9.63291 9.859C9.71224 10.0643 9.75191 10.2837 9.75191 10.517C9.75191 10.7457 9.71924 10.9673 9.65391 11.182C9.58857 11.3967 9.48357 11.588 9.33891 11.756C9.19424 11.9193 9.00524 12.0523 8.77191 12.155ZM16.739 13.303L19.14 10.902L18.468 10.23L16.067 12.638L13.652 10.216L12.987 10.888L15.402 13.303L12.91 15.795L13.575 16.467L16.067 13.975L18.552 16.453L19.217 15.781L16.739 13.303Z" fill="#0B1F33"/>
</svg>
