<svg width="48" height="24" viewBox="0 0 48 24" fill="none" xmlns="http://www.w3.org/2000/svg">
<path d="M6.98596 24C3.89399 24 1.97114 20.6418 3.5363 17.9752L11.1813 4.9504C12.6177 2.50318 15.243 1 18.0806 1H44C46.2091 1 48 2.79086 48 5V20C48 22.2091 46.2091 24 44 24H6.98596Z" fill="#851F82"/>
<path d="M23.3975 12.967C23.7428 12.967 24.0438 12.925 24.3005 12.841C24.5571 12.7523 24.7695 12.6287 24.9375 12.47C25.1101 12.3067 25.2385 12.1107 25.3225 11.882C25.4065 11.6487 25.4485 11.3897 25.4485 11.105C25.4485 10.8343 25.4065 10.5893 25.3225 10.37C25.2385 10.1507 25.1125 9.964 24.9445 9.81C24.7765 9.656 24.5641 9.53933 24.3075 9.46C24.0508 9.376 23.7475 9.334 23.3975 9.334H21.9905V12.967H23.3975ZM23.3975 7.878C24.0741 7.878 24.6598 7.95733 25.1545 8.116C25.6491 8.27467 26.0575 8.49633 26.3795 8.781C26.7015 9.06567 26.9395 9.40633 27.0935 9.803C27.2521 10.1997 27.3315 10.6337 27.3315 11.105C27.3315 11.595 27.2498 12.0453 27.0865 12.456C26.9231 12.862 26.6781 13.212 26.3515 13.506C26.0248 13.8 25.6141 14.0287 25.1195 14.192C24.6295 14.3553 24.0555 14.437 23.3975 14.437H21.9905V18H20.1075V7.878H23.3975ZM32.0654 12.967C32.4108 12.967 32.7118 12.925 32.9684 12.841C33.2251 12.7523 33.4374 12.6287 33.6054 12.47C33.7781 12.3067 33.9064 12.1107 33.9904 11.882C34.0744 11.6487 34.1164 11.3897 34.1164 11.105C34.1164 10.8343 34.0744 10.5893 33.9904 10.37C33.9064 10.1507 33.7804 9.964 33.6124 9.81C33.4444 9.656 33.2321 9.53933 32.9754 9.46C32.7188 9.376 32.4154 9.334 32.0654 9.334H30.6584V12.967H32.0654ZM32.0654 7.878C32.7421 7.878 33.3278 7.95733 33.8224 8.116C34.3171 8.27467 34.7254 8.49633 35.0474 8.781C35.3694 9.06567 35.6074 9.40633 35.7614 9.803C35.9201 10.1997 35.9994 10.6337 35.9994 11.105C35.9994 11.595 35.9178 12.0453 35.7544 12.456C35.5911 12.862 35.3461 13.212 35.0194 13.506C34.6928 13.8 34.2821 14.0287 33.7874 14.192C33.2974 14.3553 32.7234 14.437 32.0654 14.437H30.6584V18H28.7754V7.878H32.0654ZM42.8334 9.719C42.7774 9.817 42.7167 9.88933 42.6514 9.936C42.5907 9.978 42.5137 9.999 42.4204 9.999C42.3224 9.999 42.2151 9.964 42.0984 9.894C41.9864 9.81933 41.8511 9.73767 41.6924 9.649C41.5337 9.56033 41.3471 9.481 41.1324 9.411C40.9224 9.33633 40.6727 9.299 40.3834 9.299C40.1221 9.299 39.8934 9.33167 39.6974 9.397C39.5014 9.45767 39.3357 9.544 39.2004 9.656C39.0697 9.768 38.9717 9.90333 38.9064 10.062C38.8411 10.216 38.8084 10.3863 38.8084 10.573C38.8084 10.811 38.8737 11.0093 39.0044 11.168C39.1397 11.3267 39.3171 11.462 39.5364 11.574C39.7557 11.686 40.0054 11.7863 40.2854 11.875C40.5654 11.9637 40.8524 12.0593 41.1464 12.162C41.4404 12.26 41.7274 12.3767 42.0074 12.512C42.2874 12.6427 42.5371 12.8107 42.7564 13.016C42.9757 13.2167 43.1507 13.464 43.2814 13.758C43.4167 14.052 43.4844 14.409 43.4844 14.829C43.4844 15.2863 43.4051 15.7157 43.2464 16.117C43.0924 16.5137 42.8637 16.8613 42.5604 17.16C42.2617 17.454 41.8954 17.6873 41.4614 17.86C41.0274 18.028 40.5304 18.112 39.9704 18.112C39.6484 18.112 39.3311 18.0793 39.0184 18.014C38.7057 17.9533 38.4047 17.8647 38.1154 17.748C37.8307 17.6313 37.5624 17.4913 37.3104 17.328C37.0584 17.1647 36.8344 16.9827 36.6384 16.782L37.1914 15.879C37.2381 15.8137 37.2987 15.76 37.3734 15.718C37.4481 15.6713 37.5274 15.648 37.6114 15.648C37.7281 15.648 37.8541 15.697 37.9894 15.795C38.1247 15.8883 38.2857 15.9933 38.4724 16.11C38.6591 16.2267 38.8761 16.334 39.1234 16.432C39.3754 16.5253 39.6764 16.572 40.0264 16.572C40.5631 16.572 40.9784 16.446 41.2724 16.194C41.5664 15.9373 41.7134 15.571 41.7134 15.095C41.7134 14.829 41.6457 14.612 41.5104 14.444C41.3797 14.276 41.2047 14.136 40.9854 14.024C40.7661 13.9073 40.5164 13.8093 40.2364 13.73C39.9564 13.6507 39.6717 13.5643 39.3824 13.471C39.0931 13.3777 38.8084 13.2657 38.5284 13.135C38.2484 13.0043 37.9987 12.834 37.7794 12.624C37.5601 12.414 37.3827 12.1527 37.2474 11.84C37.1167 11.5227 37.0514 11.133 37.0514 10.671C37.0514 10.3023 37.1237 9.943 37.2684 9.593C37.4177 9.243 37.6324 8.93267 37.9124 8.662C38.1924 8.39133 38.5377 8.17433 38.9484 8.011C39.3591 7.84767 39.8304 7.766 40.3624 7.766C40.9597 7.766 41.5104 7.85933 42.0144 8.046C42.5184 8.23267 42.9477 8.494 43.3024 8.83L42.8334 9.719Z" fill="white"/>
</svg>
