<svg width="24" height="24" viewBox="0 0 24 24" fill="none" xmlns="http://www.w3.org/2000/svg">
<path fill-rule="evenodd" clip-rule="evenodd" d="M21.4015 6.65689C21.5029 6.83688 21.5839 7.16997 21.4202 7.77785C21.2544 8.39372 20.8634 9.1714 20.2015 10.0593C19.6454 10.8052 18.9306 11.5854 18.0787 12.3633C18.0343 12.4039 17.9515 12.3322 17.9791 12.2787C18.1077 12.0285 18.1418 11.8204 18.0589 11.6734C17.6796 11.0002 15.2419 11.7148 12.6142 13.2696C9.98642 14.8244 8.16367 16.6306 8.54296 17.3039C8.6261 17.4514 8.8201 17.5253 9.09743 17.5357C9.15746 17.538 9.17999 17.6448 9.1231 17.6641C8.03702 18.0326 7.01774 18.2777 6.10737 18.3985C5.83706 18.4344 5.58104 18.4587 5.33962 18.4725C5.17058 18.4821 5.00871 18.4866 4.85411 18.4862C4.34639 18.485 3.91713 18.4319 3.57027 18.3395C2.97472 18.1808 2.73377 17.9424 2.63237 17.7624C2.58362 17.6758 2.53957 17.5539 2.52517 17.3831C2.50961 17.1986 2.52862 16.957 2.61363 16.6414C2.77949 16.0255 3.17045 15.2479 3.83236 14.36C5.15224 12.5895 7.36672 10.6255 10.1851 8.95791C13.0035 7.29031 15.7704 6.30691 17.9265 6.02071C17.988 6.01254 18.0489 6.00496 18.109 5.99798C18.7257 5.9263 19.2677 5.91626 19.7285 5.95658C19.9481 5.9758 20.1493 6.00647 20.3314 6.04738C20.365 6.05493 20.3976 6.06274 20.4293 6.07079L20.4637 6.07976C20.644 6.12778 20.7918 6.18312 20.913 6.24193C21.192 6.37759 21.3313 6.5323 21.4015 6.65689ZM18.1857 4.46952C17.8739 4.49974 17.5515 4.54354 17.2197 4.60074C16.2352 4.77045 15.1894 4.56794 14.0818 4.35344C12.2032 3.98963 10.1464 3.59132 7.90781 4.91587C5.66921 6.24042 4.97741 8.26501 4.34554 10.1142C3.97298 11.2045 3.62125 12.2339 2.98557 13.0228C1.27177 15.1498 0.580656 17.1761 1.34126 18.5262C1.94448 19.597 3.36366 20.07 5.2492 19.9916C7.79712 19.8858 11.1967 18.7731 14.5851 16.7682C20.4811 13.2797 24.1109 8.41069 22.6926 5.89304C22.1739 4.97235 21.0519 4.49362 19.5489 4.42733C19.1234 4.40855 18.6673 4.42284 18.1857 4.46952Z" fill="#0B1F33"/>
</svg>
