<svg width="24" height="24" viewBox="0 0 24 24" fill="none" xmlns="http://www.w3.org/2000/svg">
<path fill-rule="evenodd" clip-rule="evenodd" d="M16.2796 2C15.1742 2 14.2325 2.80299 14.0579 3.89452L13.721 6H8.25331C8.10573 6 7.98922 6.12534 7.99999 6.27253L8.34571 11H8.00052C5.2391 11 3.00052 13.2386 3.00052 16V17V18.5V19C3.00052 20.6569 4.34366 22 6.00052 22H12.9675H13.0005H17.0625C18.6344 22 19.9398 20.7866 20.0545 19.2188L21.0013 6.27252C21.012 6.12534 20.8955 6 20.7479 6H15.2401L15.539 4.13151C15.5972 3.76766 15.9111 3.5 16.2796 3.5H19.0005V2H16.2796ZM9.59376 7.5L9.84972 11H11.0005C13.7619 11 16.0005 13.2386 16.0005 16V17V18.5V19C16.0005 19.5464 15.8544 20.0587 15.5992 20.5H17.0625C17.8485 20.5 18.5012 19.8933 18.5585 19.1094L19.4075 7.5H9.59376ZM12.9675 20.5H13.0005C13.8289 20.5 14.5005 19.8284 14.5005 19V18.5H4.50052V19C4.50052 19.8284 5.17209 20.5 6.00052 20.5H12.9675ZM8.00052 12.5H11.0005C12.9335 12.5 14.5005 14.067 14.5005 16V17H4.50052V16C4.50052 14.067 6.06752 12.5 8.00052 12.5Z" fill="#0B1F33"/>
</svg>
