<svg width="16" height="16" viewBox="0 0 16 16" fill="none" xmlns="http://www.w3.org/2000/svg">
<path fill-rule="evenodd" clip-rule="evenodd" d="M8 13.4991C11.0376 13.4991 13.5 11.0367 13.5 7.9991C13.5 4.96154 11.0376 2.4991 8 2.4991C4.96243 2.4991 2.5 4.96154 2.5 7.9991C2.5 11.0367 4.96243 13.4991 8 13.4991ZM8 14.9991C11.866 14.9991 15 11.8651 15 7.9991C15 4.13311 11.866 0.999104 8 0.999104C4.13401 0.999104 1 4.13311 1 7.9991C1 11.8651 4.13401 14.9991 8 14.9991ZM9.06144 8.00008L11.359 10.2976L10.2996 11.3595L8.00077 9.06073L5.70116 11.3603L4.64179 10.2984L6.94009 8.00009L4.64267 5.70276L5.70203 4.6408L8.00076 6.93944L10.2987 4.64154L11.3581 5.70349L9.06144 8.00008Z" fill="#0B1F33"/>
</svg>
