<svg width="16" height="16" viewBox="0 0 16 16" fill="none" xmlns="http://www.w3.org/2000/svg">
<circle opacity="0.7" cx="8" cy="8" r="7" fill="#4D83FA"/>
<path fill-rule="evenodd" clip-rule="evenodd" d="M8.7983 9.5H7.1983V9.42969C7.1983 8.74622 7.50081 8.25585 8.24029 7.66202C8.97978 7.06819 9.29658 6.80109 9.29658 6.22967C9.29658 5.64704 8.73445 5.33203 8.13132 5.33203C7.52819 5.33203 6.896 5.67446 6.896 6.36913C6.896 6.51479 6.94929 6.74166 6.9941 6.8537L5.67484 7.14C5.574 6.92712 5.47021 6.59941 5.47021 6.26328C5.47021 5.14284 6.49549 4 8.09771 4C9.72234 4 10.7366 4.86274 10.7366 6.12883C10.7366 7.02517 10.4882 7.49291 9.36776 8.45648C8.9644 8.80382 8.7983 9.00701 8.7983 9.5ZM8.7983 11.9999H7.1983V10.4H8.7983V11.9999Z" fill="white"/>
</svg>
