<svg width="24" height="24" viewBox="0 0 24 24" fill="none" xmlns="http://www.w3.org/2000/svg">
<path fill-rule="evenodd" clip-rule="evenodd" d="M11.0001 4.7604V3.78175L11.0001 3.53175C11.0001 3.30903 11.2694 3.19748 11.4269 3.35497L11.6037 3.53175L12.2957 4.22376L12.5001 4.4282L13.2175 5.14557C13.4127 5.34084 13.4127 5.65742 13.2175 5.85268L12.5001 6.57005L12.2957 6.77448L11.6037 7.4665L11.4269 7.64327C11.2694 7.80076 11.0001 7.68922 11.0001 7.4665V7.2165V6.28752H6.19238C5.22589 6.28752 4.44238 7.07103 4.44238 8.03753V9.24907L19.5578 9.24907V8.03752C19.5578 7.07102 18.7743 6.28752 17.8078 6.28752H15.0001V4.78752H17.8078C19.6027 4.78752 21.0578 6.2426 21.0578 8.03752V15.9606C21.0578 17.7555 19.6027 19.2106 17.8078 19.2106H13.0001V19.3088L13.0001 20.2874V20.5374C13.0001 20.7602 12.7308 20.8717 12.5733 20.7142L12.3966 20.5374L11.7046 19.8454L11.5001 19.641L10.7828 18.9236C10.5875 18.7283 10.5875 18.4118 10.7828 18.2165L11.5001 17.4991L11.7046 17.2947L12.3966 16.6027L12.5733 16.4259C12.7308 16.2684 13.0001 16.38 13.0001 16.6027L13.0001 16.8527V17.7106H17.8078C18.7743 17.7106 19.5578 16.9271 19.5578 15.9606V10.7491L4.44238 10.7491V15.9606C4.44238 16.9271 5.22588 17.7106 6.19238 17.7106H9.00012V19.2106H6.19238C4.39746 19.2106 2.94238 17.7555 2.94238 15.9606V8.03753C2.94238 6.2426 4.39746 4.78752 6.19238 4.78752H11.0001V4.7604Z" fill="#0B1F33"/>
</svg>
