<svg width="16" height="16" viewBox="0 0 16 16" fill="none" xmlns="http://www.w3.org/2000/svg">
<path fill-rule="evenodd" clip-rule="evenodd" d="M13.5034 4.91064C13.469 4.88524 13.3804 4.83524 13.1868 4.79245C12.8358 4.71483 12.291 4.7023 11.5594 4.82638C11.5255 4.83214 11.4916 4.83744 11.4578 4.84232C10.2266 5.0673 8.69013 5.6348 7.10913 6.55524C5.5114 7.48541 4.24597 8.55611 3.43817 9.5269C3.4244 9.54428 3.41045 9.56158 3.39634 9.57882C2.93708 10.1397 2.67703 10.6109 2.56289 10.954C2.55252 10.9853 2.54341 11.0154 2.53551 11.0443C2.49419 11.1952 2.49334 11.279 2.49722 11.3164C2.52738 11.3385 2.59975 11.3796 2.75006 11.419C3.04442 11.4961 3.51253 11.5273 4.15956 11.4428C4.77973 11.3618 5.49466 11.1837 6.2648 10.9069C6.00861 10.9292 5.82928 10.8905 5.76429 10.777C5.53958 10.3846 6.61947 9.33166 8.17628 8.4253C9.7331 7.51895 11.1773 7.10235 11.402 7.49482C11.4674 7.60897 11.4099 7.78625 11.2608 8.00048C11.8871 7.46409 12.4003 6.92641 12.7815 6.42322C13.1365 5.95463 13.3399 5.5651 13.4365 5.27648C13.4474 5.24385 13.4569 5.21252 13.4651 5.18252C13.5063 5.03186 13.5073 4.94813 13.5034 4.91064ZM3.15278 6.75848C2.90397 7.43875 2.66773 8.08467 2.28003 8.57915C1.73281 9.23957 1.34434 9.88548 1.1477 10.4732C0.941775 11.0875 0.945204 11.6382 1.19572 12.0758C2.09972 13.6547 5.87893 13.1611 9.63681 10.9733C12.3549 9.39086 14.3173 7.35552 14.8532 5.75286C15.0588 5.13892 15.0553 4.58839 14.8049 4.15102C14.3116 3.28942 12.9621 3.04498 11.227 3.35623C10.6173 3.43901 9.95545 3.32426 9.25901 3.20352C8.04067 2.99229 6.71657 2.76274 5.38101 3.54028C4.04544 4.31783 3.58054 5.58892 3.15278 6.75848Z" fill="#0B1F33"/>
</svg>
