<svg width="24" height="24" viewBox="0 0 24 24" fill="none" xmlns="http://www.w3.org/2000/svg">
<path fill-rule="evenodd" clip-rule="evenodd" d="M17.5 12C17.5 15.0376 15.0376 17.5 12 17.5C8.96243 17.5 6.5 15.0376 6.5 12C6.5 8.96243 8.96243 6.5 12 6.5C15.0376 6.5 17.5 8.96243 17.5 12ZM19 12C19 15.866 15.866 19 12 19C8.13401 19 5 15.866 5 12C5 8.13401 8.13401 5 12 5C15.866 5 19 8.13401 19 12ZM11.25 7.99999V11.8787C11.25 12.4754 11.4871 13.0477 11.909 13.4697L13.4697 15.0303L14.5303 13.9697L12.9697 12.409C12.829 12.2683 12.75 12.0776 12.75 11.8787V7.99999H11.25Z" fill="#0B1F33"/>
</svg>
