<svg width="24" height="24" viewBox="0 0 24 24" fill="none" xmlns="http://www.w3.org/2000/svg">
<path fill-rule="evenodd" clip-rule="evenodd" d="M7.00047 6.5C7.8289 6.5 8.50047 5.82843 8.50047 5C8.50047 4.17157 7.8289 3.5 7.00047 3.5C6.17204 3.5 5.50047 4.17157 5.50047 5C5.50047 5.82843 6.17204 6.5 7.00047 6.5ZM7.00047 8C8.65733 8 10.0005 6.65685 10.0005 5C10.0005 3.34315 8.65733 2 7.00047 2C5.34362 2 4.00047 3.34315 4.00047 5C4.00047 6.65685 5.34362 8 7.00047 8ZM18.5005 5C18.5005 5.82843 17.8289 6.5 17.0005 6.5C16.172 6.5 15.5005 5.82843 15.5005 5C15.5005 4.17157 16.172 3.5 17.0005 3.5C17.8289 3.5 18.5005 4.17157 18.5005 5ZM20.0005 5C20.0005 6.65685 18.6573 8 17.0005 8C15.3436 8 14.0005 6.65685 14.0005 5C14.0005 3.34315 15.3436 2 17.0005 2C18.6573 2 20.0005 3.34315 20.0005 5ZM16.7598 10.5H17.2291C17.9342 10.5 18.5441 10.9911 18.6946 11.68L20.4882 19.8933C20.5562 20.2051 20.3188 20.5 19.9997 20.5H14.0009C13.6821 20.5 13.4447 20.2056 13.5123 19.894L15.2939 11.682C15.4436 10.9921 16.054 10.5 16.7598 10.5ZM13.828 11.3639C14.1274 9.98428 15.3481 9 16.7598 9H17.2291C18.6393 9 19.8591 9.98221 20.16 11.36L21.9536 19.5733C22.226 20.8204 21.2762 22 19.9997 22H14.0009C12.7255 22 11.776 20.8223 12.0464 19.576L13.828 11.3639ZM7.24061 20.5L6.77136 20.5C6.06625 20.5 5.45633 20.0089 5.3059 19.32L3.5123 11.1067C3.44422 10.7949 3.68167 10.5 4.00079 10.5L9.99953 10.5C10.3184 10.5 10.5558 10.7944 10.4882 11.106L8.70651 19.318C8.55685 20.0079 7.94649 20.5 7.24061 20.5ZM10.1724 19.6361C9.87309 21.0157 8.65236 22 7.24061 22L6.77136 22C5.36114 22 4.1413 21.0178 3.84043 19.64L2.04684 11.4267C1.7745 10.1796 2.7243 9 4.00079 9L9.99953 9C11.2749 9 12.2245 10.1777 11.9541 11.424L10.1724 19.6361Z" fill="#0B1F33"/>
</svg>
