<svg width="48" height="24" viewBox="0 0 48 24" fill="none" xmlns="http://www.w3.org/2000/svg">
<path d="M6.98555 24C3.89359 24 1.97073 20.6418 3.53589 17.9752L11.1809 4.9504C12.6173 2.50318 15.2426 1 18.0802 1H43.9996C46.2087 1 47.9996 2.79086 47.9996 5V20C47.9996 22.2091 46.2087 24 43.9996 24H6.98555Z" fill="#9DACCE"/>
<path d="M19.8576 14.046V18.001H17.9746V7.87891H21.0616C21.7476 7.87891 22.3356 7.95125 22.8256 8.09591C23.3203 8.23591 23.7239 8.43425 24.0366 8.69091C24.3539 8.94758 24.5873 9.25558 24.7366 9.61491C24.8859 9.96958 24.9606 10.3616 24.9606 10.791C24.9606 11.1316 24.9093 11.4536 24.8066 11.757C24.7086 12.0603 24.5639 12.3356 24.3726 12.583C24.1859 12.8303 23.9526 13.0473 23.6726 13.234C23.3973 13.4206 23.0823 13.57 22.7276 13.682C22.9656 13.8173 23.1709 14.011 23.3436 14.263L25.8776 18.001H24.1766C23.8546 18.001 23.6213 17.875 23.4766 17.623L21.3486 14.382C21.2693 14.2606 21.1806 14.1743 21.0826 14.123C20.9893 14.0716 20.8493 14.046 20.6626 14.046H19.8576ZM19.8576 12.695H21.0336C21.3883 12.695 21.6963 12.6506 21.9576 12.562C22.2236 12.4733 22.4406 12.352 22.6086 12.198C22.7813 12.0393 22.9096 11.8526 22.9936 11.638C23.0776 11.4233 23.1196 11.1876 23.1196 10.931C23.1196 10.4176 22.9493 10.0233 22.6086 9.74791C22.2726 9.47258 21.7569 9.33491 21.0616 9.33491H19.8576V12.695Z" fill="white"/>
<path d="M35.3633 18.001H33.9073C33.744 18.001 33.611 17.9613 33.5083 17.882C33.4056 17.798 33.3286 17.6953 33.2773 17.574L32.5213 15.509H28.3283L27.5723 17.574C27.535 17.6813 27.4626 17.7793 27.3553 17.868C27.248 17.9566 27.115 18.001 26.9563 18.001H25.4863L29.4693 7.87891H31.3873L35.3633 18.001ZM28.8113 14.179H32.0383L30.8063 10.812C30.7456 10.6626 30.6826 10.4876 30.6173 10.287C30.552 10.0816 30.4866 9.85991 30.4213 9.62191C30.356 9.85991 30.2906 10.0816 30.2253 10.287C30.1646 10.4923 30.104 10.672 30.0433 10.826L28.8113 14.179Z" fill="white"/>
<path d="M38.0139 14.046V18.001H36.1309V7.87891H39.2179C39.9039 7.87891 40.4919 7.95125 40.9819 8.09591C41.4766 8.23591 41.8802 8.43425 42.1929 8.69091C42.5102 8.94758 42.7436 9.25558 42.8929 9.61491C43.0422 9.96958 43.1169 10.3616 43.1169 10.791C43.1169 11.1316 43.0656 11.4536 42.9629 11.757C42.8649 12.0603 42.7202 12.3356 42.5289 12.583C42.3422 12.8303 42.1089 13.0473 41.8289 13.234C41.5536 13.4206 41.2386 13.57 40.8839 13.682C41.1219 13.8173 41.3272 14.011 41.4999 14.263L44.0339 18.001H42.3329C42.0109 18.001 41.7776 17.875 41.6329 17.623L39.5049 14.382C39.4256 14.2606 39.3369 14.1743 39.2389 14.123C39.1456 14.0716 39.0056 14.046 38.8189 14.046H38.0139ZM38.0139 12.695H39.1899C39.5446 12.695 39.8526 12.6506 40.1139 12.562C40.3799 12.4733 40.5969 12.352 40.7649 12.198C40.9376 12.0393 41.0659 11.8526 41.1499 11.638C41.2339 11.4233 41.2759 11.1876 41.2759 10.931C41.2759 10.4176 41.1056 10.0233 40.7649 9.74791C40.4289 9.47258 39.9132 9.33491 39.2179 9.33491H38.0139V12.695Z" fill="white"/>
</svg>
