<svg width="24" height="24" viewBox="0 0 24 24" fill="none" xmlns="http://www.w3.org/2000/svg">
<path fill-rule="evenodd" clip-rule="evenodd" d="M12.0004 3.5C9.79123 3.5 8.00037 5.29086 8.00037 7.5C8.00037 9.70914 9.79123 11.5 12.0004 11.5C14.2095 11.5 16.0004 9.70914 16.0004 7.5C16.0004 5.29086 14.2095 3.5 12.0004 3.5ZM12.0004 2C8.9628 2 6.50037 4.46243 6.50037 7.5C6.50037 8.60862 6.82837 9.64064 7.39263 10.5043C7.24407 10.541 7.09751 10.5902 6.96347 10.6507C6.45124 10.8817 6.00932 11.2533 5.69797 11.7454C4.8543 13.0812 5.25605 14.8589 6.6019 15.7026C6.86303 15.8633 7.12417 16.014 7.3853 16.1546L6.4412 17.0987C5.32635 18.2135 5.32635 20.0415 6.4412 21.1664C6.98356 21.6987 7.7067 22 8.47002 22C9.23334 22 9.95648 21.6987 10.4988 21.1664L12.0054 19.6598L13.5019 21.1563C14.0442 21.6987 14.7674 22 15.5307 22C16.294 22 17.0172 21.6987 17.5595 21.1563C18.1019 20.614 18.4032 19.8908 18.4032 19.1175C18.4032 18.3541 18.1019 17.631 17.5595 17.0886L16.6154 16.1445C16.8866 16.0039 17.1377 15.8633 17.3988 15.7026C18.7447 14.8589 19.1464 13.0812 18.3028 11.7354C17.9914 11.2432 17.5495 10.8616 17.0373 10.6406C16.8882 10.5763 16.7552 10.5231 16.6253 10.4777C17.179 9.61952 17.5004 8.59729 17.5004 7.5C17.5004 4.46243 15.0379 2 12.0004 2ZM10.5004 7.5C10.5004 6.67157 11.1719 6 12.0004 6C12.8288 6 13.5004 6.67157 13.5004 7.5C13.5004 8.32843 12.8288 9 12.0004 9C11.1719 9 10.5004 8.32843 10.5004 7.5ZM17.0172 12.5489C16.756 12.1371 16.3141 11.9061 15.8622 11.9061C15.6211 11.9061 15.37 11.9664 15.129 12.107C14.1748 12.7096 13.0801 13.0109 11.9853 13.0109C10.8905 13.0109 9.79578 12.7096 8.84163 12.107C8.62067 11.9664 8.36958 11.8961 8.11849 11.8961C7.66652 11.8961 7.2246 12.1271 6.96347 12.5389C6.56172 13.1817 6.75255 14.0253 7.39535 14.4271C8.23901 14.9594 9.15299 15.331 10.1071 15.552L7.50583 18.1633C6.97351 18.6956 6.97351 19.5594 7.50583 20.0917C7.777 20.3629 8.11849 20.4934 8.47002 20.4934C8.82155 20.4934 9.16303 20.3528 9.43421 20.0917L11.9953 17.5406L14.5565 20.1017C14.8176 20.3729 15.1691 20.5035 15.5207 20.5035C15.8722 20.5035 16.2137 20.3729 16.4849 20.1017C17.0172 19.5694 17.0172 18.7057 16.4849 18.1734L13.8735 15.562C14.8277 15.341 15.7416 14.9694 16.5853 14.4371C17.2281 14.0354 17.4189 13.1917 17.0172 12.5489Z" fill="#0B1F33"/>
</svg>
