<svg width="24" height="24" viewBox="0 0 24 24" fill="none" xmlns="http://www.w3.org/2000/svg">
<path fill-rule="evenodd" clip-rule="evenodd" d="M11.2554 5.53666C7.46281 5.91046 4.5 9.10931 4.5 13.0002C4.5 17.1423 7.85786 20.5002 12 20.5002C16.1421 20.5002 19.5 17.1423 19.5 13.0002C19.5 9.13538 16.5768 5.95336 12.8208 5.54455C12.9394 6.01881 13 6.50758 13 7.00016H11.5C11.5 6.50048 11.4168 6.00603 11.2554 5.53666ZM12.1974 4.00228C17.0768 4.10727 21 8.09556 21 13.0002C21 17.9707 16.9706 22.0002 12 22.0002C7.02944 22.0002 3 17.9707 3 13.0002C3 8.55249 6.22625 4.85836 10.4661 4.13034C10.1864 3.79242 9.85763 3.49599 9.4895 3.2515L10.3193 2.00195C11.0921 2.51518 11.7347 3.20013 12.1974 4.00228ZM8.10289 15.2502C8.49784 15.9342 9.06591 16.5023 9.75 16.8973C10.4341 17.2922 11.2101 17.5002 12 17.5002C12.7899 17.5002 13.5659 17.2922 14.25 16.8973C14.9341 16.5023 15.5022 15.9342 15.8971 15.2502L17.1962 16.0002C16.6695 16.9123 15.9121 17.6697 15 18.1963C14.0879 18.7229 13.0532 19.0002 12 19.0002C10.9468 19.0002 9.91212 18.7229 9 18.1963C8.08788 17.6697 7.33046 16.9123 6.80385 16.0002L8.10289 15.2502ZM10.009 12.5033C10.009 13.3334 9.33544 14.0064 8.50452 14.0064C7.6736 14.0064 7 13.3334 7 12.5033C7 11.6731 7.6736 11.0001 8.50452 11.0001C9.33544 11.0001 10.009 11.6731 10.009 12.5033ZM15.5045 14.0064C16.3354 14.0064 17.009 13.3334 17.009 12.5033C17.009 11.6731 16.3354 11.0001 15.5045 11.0001C14.6736 11.0001 14 11.6731 14 12.5033C14 13.3334 14.6736 14.0064 15.5045 14.0064Z" fill="#0B1F33"/>
</svg>
