<svg width="24" height="24" viewBox="0 0 24 24" fill="none" xmlns="http://www.w3.org/2000/svg">
<path fill-rule="evenodd" clip-rule="evenodd" d="M12.4846 6.5101C13.034 6.5101 13.4846 6.06298 13.4846 5.50505C13.4846 4.94712 13.034 4.5 12.4846 4.5C11.9351 4.5 11.4846 4.94712 11.4846 5.50505C11.4846 6.06298 11.9351 6.5101 12.4846 6.5101ZM12.4846 8.0101C13.8653 8.0101 14.9846 6.88855 14.9846 5.50505C14.9846 4.12155 13.8653 3 12.4846 3C11.1038 3 9.98455 4.12155 9.98455 5.50505C9.98455 6.2879 10.3429 6.98687 10.9043 7.44624L10.3292 9.28117L9.03814 13.111C8.88552 13.5638 9.13604 14.0245 9.54572 14.1791C11.294 14.839 12.0764 15.7307 12.341 16.7944C12.6241 17.933 12.366 19.4513 11.582 21.4515L12.9785 21.999C13.7895 19.9301 14.1969 18.0418 13.7966 16.4324C13.4186 14.9125 12.3639 13.7889 10.6535 13.0148L11.3162 11.0489C11.7058 11.3435 12.1844 11.5888 12.7208 11.7591C13.7314 12.0802 14.9796 12.1458 16.2963 11.7439L16.8402 13.5112C16.8808 13.6431 17.0207 13.7172 17.1526 13.6766L21.7868 12.2504C21.9187 12.2097 21.9928 12.0698 21.9522 11.9379L20.1773 6.17071C20.1366 6.03875 19.9967 5.9647 19.8648 6.00531L15.2306 7.43153C15.0987 7.47214 15.0246 7.61204 15.0652 7.74401L15.855 10.3102C14.838 10.6198 13.9029 10.5608 13.1749 10.3295C12.7435 10.1925 12.3957 9.99843 12.1499 9.79647C12.0006 9.6738 11.9032 9.5606 11.8425 9.46812L12.3015 8.00349C12.362 8.00787 12.423 8.0101 12.4846 8.0101ZM6.74291 17.3716C7.38596 17.0445 7.88107 16.3411 8.25418 15.3222L9.66272 15.8379C9.23895 16.9952 8.56536 18.1276 7.42289 18.7086C6.24855 19.3058 4.78883 19.219 3.03783 18.3959L3.67594 17.0384C5.1891 17.7497 6.13172 17.6824 6.74291 17.3716ZM9.21057 8.42777C8.11174 8.07491 6.97879 7.90596 5.89404 8.13392C4.78544 8.3669 3.80194 8.99899 3 10.1066L4.21499 10.9863C4.81856 10.1526 5.49107 9.75138 6.20254 9.60186C6.93785 9.44733 7.78902 9.54672 8.75195 9.85594L9.21057 8.42777ZM17.9061 11.8753L16.8666 8.49748L19.1113 7.80664L20.1509 11.1844L17.9061 11.8753Z" fill="#0B1F33"/>
</svg>
