<svg width="24" height="24" viewBox="0 0 24 24" fill="none" xmlns="http://www.w3.org/2000/svg">
<path fill-rule="evenodd" clip-rule="evenodd" d="M9.64993 13.0606L9.11961 12.5303L6.16955 9.58033C5.85123 9.26202 5.62725 8.88508 5.49763 8.48427L2.86613 11.1157C2.37796 11.6038 2.37796 12.3953 2.86613 12.8835L6.75203 16.7692C7.24018 17.2574 8.03161 17.2574 8.51977 16.7692L10.9396 14.3495L9.65024 13.0603L9.64993 13.0606ZM10.7109 11.9996L12.0003 13.289L13.2897 11.9997L12.0003 10.7103L10.7109 11.9996ZM5.09848 17.237L5.09821 17.2373L5.69118 17.8303L5.69487 17.8339L10.0555 22.1945C11.1295 23.2684 12.8706 23.2684 13.9445 22.1945L17.8304 18.3087L17.8472 18.2918L22.195 13.9441C23.269 12.8702 23.269 11.1289 22.195 10.055L18.3091 6.16924C18.2968 6.15691 18.2843 6.14472 18.2718 6.13268L13.9445 1.80543C12.8705 0.731526 11.1294 0.731523 10.0554 1.80542L6.76275 5.098L6.7627 5.09794L6.7627 5.09795L6.1698 5.69083L1.80548 10.055C0.731503 11.129 0.731505 12.8702 1.80549 13.9442L5.09848 17.237ZM9.65024 10.939L7.23046 8.51929C6.78906 8.0779 6.74677 7.38854 7.10358 6.89964C7.14132 6.84796 7.18353 6.79852 7.23019 6.75186L11.1161 2.8661C11.6042 2.37796 12.3957 2.37797 12.8838 2.8661L15.5154 5.4976C15.1149 5.62725 14.7382 5.85113 14.4201 6.16924L11.4699 9.11928L10.9396 9.64962L10.9396 9.64967L9.65024 10.939ZM15.4804 7.2303L13.061 9.64967L17.8307 14.4192C18.149 14.7375 18.3729 15.1144 18.5026 15.5152L21.1343 12.8835C21.6225 12.3953 21.6225 11.6038 21.1343 11.1157L17.8415 7.82292L17.8411 7.82327L17.2482 7.23031L17.2456 7.22781C16.7573 6.74217 15.9677 6.743 15.4804 7.2303ZM16.9551 17.0122C16.9042 17.0961 16.8425 17.1752 16.77 17.2477L16.1771 17.8405L16.1772 17.8406L12.8839 21.1338C12.3958 21.6219 11.6043 21.6219 11.1162 21.1338L8.48438 18.5021C8.8851 18.3725 9.26196 18.1485 9.58021 17.8303L14.3501 13.0606L16.7698 15.4802C17.1854 15.8958 17.2472 16.5313 16.9551 17.0122Z" fill="#0B1F33"/>
</svg>
