<svg width="16" height="16" viewBox="0 0 16 16" fill="none" xmlns="http://www.w3.org/2000/svg">
<path fill-rule="evenodd" clip-rule="evenodd" d="M1.5 6.44531V3.5C1.5 2.39543 2.39543 1.5 3.5 1.5C4.60457 1.5 5.5 2.39543 5.5 3.5V6.00051H4C3.44772 6.00051 3 6.44823 3 7.00051V12.0005C3 13.6574 4.34315 15.0005 6 15.0005H12C13.6569 15.0005 15 13.6574 15 12.0005V7.00051C15 6.44823 14.5523 6.00051 14 6.00051H7V3.5C7 1.567 5.433 0 3.5 0C1.567 0 0 1.567 0 3.5V6.50005V8.00005H1.5V6.50005V6.44531ZM4.5 12.0005V7.50051H13.5V12.0005C13.5 12.8289 12.8284 13.5005 12 13.5005H6C5.17157 13.5005 4.5 12.8289 4.5 12.0005ZM9 12.0005C9.82843 12.0005 10.5 11.3289 10.5 10.5005C10.5 9.67206 9.82843 9.00049 9 9.00049C8.17157 9.00049 7.5 9.67206 7.5 10.5005C7.5 11.3289 8.17157 12.0005 9 12.0005Z" fill="#0B1F33"/>
</svg>
