<svg width="16" height="16" viewBox="0 0 16 16" fill="none" xmlns="http://www.w3.org/2000/svg">
<path fill-rule="evenodd" clip-rule="evenodd" d="M5.5 6.5276V9.47115L10.5 12.3878V3.61093L5.5 6.5276ZM10.5 1.87438L4.49613 5.37663C4.18891 5.55584 4 5.88474 4 6.24041V9.75834C4 10.114 4.18891 10.4429 4.49613 10.6221L10.5 14.1244L10.5 14.1244L10.5077 14.1289L11.2481 14.5607C11.5814 14.7552 12 14.5148 12 14.1289V13.2717V13.2628V13.2628V2.73593V2.73592V2.72704V1.86989C12 1.484 11.5814 1.24356 11.2481 1.438L10.5077 1.86989L10.5 1.87437L10.5 1.87438Z" fill="#0B1F33"/>
</svg>
