<svg width="48" height="24" viewBox="0 0 48 24" fill="none" xmlns="http://www.w3.org/2000/svg">
<path d="M6.98555 24C3.89359 24 1.97073 20.6418 3.53589 17.9752L11.1809 4.9504C12.6173 2.50318 15.2426 1 18.0802 1H43.9996C46.2087 1 47.9996 2.79086 47.9996 5V20C47.9996 22.2091 46.2087 24 43.9996 24H6.98555Z" fill="#EE3F58"/>
<path d="M21.3349 12.2974L18.9759 8.81836H20.6419C20.7679 8.81836 20.8613 8.83703 20.9219 8.87436C20.9826 8.90703 21.0363 8.96303 21.0829 9.04236L22.5879 11.4434C22.6113 11.3641 22.6393 11.2847 22.6719 11.2054C22.7093 11.1261 22.7536 11.0467 22.8049 10.9674L24.0159 9.07736C24.1186 8.9047 24.2516 8.81836 24.4149 8.81836H26.0039L23.6379 12.2204L26.1019 16.0004H24.4359C24.3099 16.0004 24.2073 15.9677 24.1279 15.9024C24.0533 15.8371 23.9903 15.7624 23.9389 15.6784L22.4129 13.1794C22.3709 13.3474 22.3126 13.4874 22.2379 13.5994L20.8939 15.6784C20.8426 15.7577 20.7796 15.8324 20.7049 15.9024C20.6303 15.9677 20.5369 16.0004 20.4249 16.0004H18.8779L21.3349 12.2974Z" fill="white"/>
<path d="M32.1703 16.9375V18.0575H26.6543V16.9375H32.1703Z" fill="white"/>
<path d="M35.1845 12.2974L32.8255 8.81836H34.4915C34.6175 8.81836 34.7109 8.83703 34.7715 8.87436C34.8322 8.90703 34.8859 8.96303 34.9325 9.04236L36.4375 11.4434C36.4609 11.3641 36.4889 11.2847 36.5215 11.2054C36.5589 11.1261 36.6032 11.0467 36.6545 10.9674L37.8655 9.07736C37.9682 8.9047 38.1012 8.81836 38.2645 8.81836H39.8535L37.4875 12.2204L39.9515 16.0004H38.2855C38.1595 16.0004 38.0569 15.9677 37.9775 15.9024C37.9029 15.8371 37.8399 15.7624 37.7885 15.6784L36.2625 13.1794C36.2205 13.3474 36.1622 13.4874 36.0875 13.5994L34.7435 15.6784C34.6922 15.7577 34.6292 15.8324 34.5545 15.9024C34.4799 15.9677 34.3865 16.0004 34.2745 16.0004H32.7275L35.1845 12.2974Z" fill="white"/>
</svg>
