<svg width="24" height="25" viewBox="0 0 24 25" fill="none" xmlns="http://www.w3.org/2000/svg">
<path fill-rule="evenodd" clip-rule="evenodd" d="M12.2195 2.02941L14.4393 4.24927H11.9688V4.24932C7.01256 4.26617 3 8.28913 3 13.2493C3 18.2198 7.02944 22.2493 12 22.2493C16.9706 22.2493 21 18.2198 21 13.2493C21 10.8547 20.0648 8.67851 18.5398 7.06607L17.4786 8.12723C18.7324 9.4678 19.5 11.2689 19.5 13.2493C19.5 17.3914 16.1421 20.7493 12 20.7493C7.85786 20.7493 4.5 17.3914 4.5 13.2493C4.5 9.11155 7.8507 5.75643 11.9867 5.74928V5.74927H14.4345L12.2195 7.96426L13.2802 9.02492L16.7779 5.52718C17.0708 5.23429 17.0708 4.75941 16.7779 4.46652L13.2801 0.96875L12.2195 2.02941ZM7.02778 11.7491C7.02778 10.7626 7.86983 9.96606 9.17978 9.96606C9.88499 9.96606 10.4239 10.1505 10.788 10.4689C11.1533 10.7884 11.3318 11.2336 11.3318 11.7311C11.3318 12.3142 10.9735 12.7658 10.5216 13.0176C11.1107 13.2806 11.5928 13.8002 11.5928 14.6111C11.5928 15.2535 11.3574 15.7837 10.9365 16.1522C10.5171 16.5194 9.92243 16.7181 9.21578 16.7181C8.44981 16.7181 7.8572 16.4986 7.45478 16.1379C7.05186 15.7767 6.84778 15.2809 6.84778 14.7461C6.84778 14.5923 6.86722 14.4764 6.89534 14.3546L6.9153 14.2681L8.2674 14.4148L8.25277 14.5172C8.24402 14.5785 8.23578 14.6541 8.23578 14.7191C8.23578 14.9581 8.33624 15.1525 8.50571 15.2892C8.6769 15.4274 8.92334 15.5101 9.21578 15.5101C9.52321 15.5101 9.7694 15.429 9.93737 15.2817C10.1034 15.1362 10.2048 14.9158 10.2048 14.6111C10.2048 14.2627 10.0579 14.0331 9.83175 13.886C9.59987 13.7352 9.27735 13.6671 8.92778 13.6671H8.82778V12.5851H8.92778C9.23709 12.5851 9.50226 12.5097 9.68734 12.3729C9.86912 12.2385 9.97978 12.041 9.97978 11.7761C9.97978 11.586 9.90133 11.4299 9.76484 11.3194C9.62664 11.2075 9.4232 11.1381 9.17078 11.1381C8.93553 11.1381 8.72939 11.2012 8.58492 11.3032C8.44166 11.4042 8.36178 11.5403 8.36178 11.6951C8.36178 11.7845 8.37839 11.8727 8.39265 11.9154L8.43176 12.0328L7.0837 12.1826L7.06572 12.0927C7.04711 11.9996 7.02778 11.8754 7.02778 11.7491ZM12.7854 10.8884C13.251 10.2982 13.9242 9.97506 14.7449 9.97506C15.5657 9.97506 16.2389 10.2982 16.7045 10.8884C17.1679 11.4759 17.4189 12.3191 17.4189 13.3511C17.4189 14.383 17.1679 15.2262 16.7045 15.8137C16.2389 16.404 15.5657 16.7271 14.7449 16.7271C13.9242 16.7271 13.251 16.404 12.7854 15.8137C12.322 15.2262 12.0709 14.383 12.0709 13.3511C12.0709 12.3191 12.322 11.4759 12.7854 10.8884ZM13.8093 11.819C13.5854 12.1767 13.4589 12.7005 13.4589 13.3511C13.4589 14.0016 13.5854 14.5254 13.8093 14.8831C14.0307 15.2367 14.347 15.4291 14.7449 15.4291C15.1429 15.4291 15.4592 15.2367 15.6806 14.8831C15.9045 14.5254 16.0309 14.0016 16.0309 13.3511C16.0309 12.7005 15.9045 12.1767 15.6806 11.819C15.4592 11.4655 15.1429 11.2731 14.7449 11.2731C14.347 11.2731 14.0307 11.4655 13.8093 11.819Z" fill="#0B1F33"/>
</svg>
