<svg width="48" height="24" viewBox="0 0 48 24" fill="none" xmlns="http://www.w3.org/2000/svg">
<path d="M6.98555 24C3.89359 24 1.97073 20.6418 3.53589 17.9752L11.1809 4.9504C12.6173 2.50318 15.2426 1 18.0802 1H43.9996C46.2087 1 47.9996 2.79086 47.9996 5V20C47.9996 22.2091 46.2087 24 43.9996 24H6.98555Z" fill="#16A086"/>
<path d="M22.8827 14.4029C22.8827 14.9722 22.8127 15.4856 22.6727 15.9429C22.5327 16.4002 22.3227 16.7899 22.0427 17.1119C21.7674 17.4339 21.422 17.6812 21.0067 17.8539C20.5914 18.0266 20.1084 18.1129 19.5577 18.1129C19.3057 18.1129 19.0584 18.0966 18.8157 18.0639C18.573 18.0359 18.3187 17.9892 18.0527 17.9239C18.0667 17.7372 18.083 17.5506 18.1017 17.3639C18.1204 17.1772 18.1367 16.9906 18.1507 16.8039C18.1647 16.7012 18.2044 16.6196 18.2697 16.5589C18.3397 16.4936 18.4377 16.4609 18.5637 16.4609C18.643 16.4609 18.7457 16.4772 18.8717 16.5099C19.0024 16.5426 19.1657 16.5589 19.3617 16.5589C19.6277 16.5589 19.8634 16.5216 20.0687 16.4469C20.274 16.3676 20.4444 16.2439 20.5797 16.0759C20.7197 15.9079 20.8247 15.6909 20.8947 15.4249C20.9647 15.1542 20.9997 14.8276 20.9997 14.4449V7.87891H22.8827V14.4029Z" fill="white"/>
<path d="M27.5539 14.4379V18.0009H25.6709V7.87891H28.9609C29.6376 7.87891 30.2233 7.95824 30.7179 8.11691C31.2126 8.27558 31.6209 8.49724 31.9429 8.78191C32.2649 9.06658 32.5029 9.40724 32.6569 9.80391C32.8156 10.2006 32.8949 10.6346 32.8949 11.1059C32.8949 11.5959 32.8133 12.0462 32.6499 12.4569C32.4866 12.8629 32.2416 13.2129 31.9149 13.5069C31.5883 13.8009 31.1776 14.0296 30.6829 14.1929C30.1929 14.3562 29.6189 14.4379 28.9609 14.4379H27.5539ZM27.5539 12.9679H28.9609C29.3063 12.9679 29.6073 12.9259 29.8639 12.8419C30.1206 12.7532 30.3329 12.6296 30.5009 12.4709C30.6736 12.3076 30.8019 12.1116 30.8859 11.8829C30.9699 11.6496 31.0119 11.3906 31.0119 11.1059C31.0119 10.8352 30.9699 10.5902 30.8859 10.3709C30.8019 10.1516 30.6759 9.96491 30.5079 9.81091C30.3399 9.65691 30.1276 9.54024 29.8709 9.46091C29.6143 9.37691 29.3109 9.33491 28.9609 9.33491H27.5539V12.9679Z" fill="white"/>
<path d="M43.3132 17.0196C42.7999 17.3976 42.2515 17.6753 41.6682 17.8526C41.0895 18.0253 40.4689 18.1116 39.8062 18.1116C38.9802 18.1116 38.2312 17.9833 37.5592 17.7266C36.8919 17.4699 36.3202 17.1129 35.8442 16.6556C35.3729 16.1983 35.0089 15.6523 34.7522 15.0176C34.4955 14.3829 34.3672 13.6899 34.3672 12.9386C34.3672 12.1779 34.4909 11.4803 34.7382 10.8456C34.9855 10.2109 35.3355 9.66495 35.7882 9.20762C36.2455 8.75029 36.7985 8.39562 37.4472 8.14362C38.0959 7.89162 38.8239 7.76562 39.6312 7.76562C40.0419 7.76562 40.4245 7.7983 40.7792 7.86363C41.1385 7.92896 41.4699 8.01995 41.7732 8.13662C42.0812 8.24862 42.3612 8.38629 42.6132 8.54962C42.8652 8.71295 43.0962 8.89263 43.3062 9.08863L42.7672 9.94263C42.6832 10.0779 42.5735 10.1619 42.4382 10.1946C42.3029 10.2226 42.1559 10.1876 41.9972 10.0896C41.8432 10.0009 41.6892 9.9123 41.5352 9.82363C41.3812 9.73496 41.2085 9.65796 41.0172 9.59263C40.8305 9.5273 40.6182 9.47362 40.3802 9.43162C40.1469 9.38962 39.8762 9.36863 39.5682 9.36863C39.0689 9.36863 38.6162 9.45263 38.2102 9.62063C37.8089 9.78863 37.4659 10.0289 37.1812 10.3416C36.8965 10.6543 36.6772 11.0299 36.5232 11.4686C36.3692 11.9073 36.2922 12.3973 36.2922 12.9386C36.2922 13.5173 36.3739 14.0353 36.5372 14.4926C36.7052 14.9453 36.9385 15.3303 37.2372 15.6476C37.5405 15.9603 37.9045 16.2006 38.3292 16.3686C38.7539 16.5319 39.2275 16.6136 39.7502 16.6136C40.1235 16.6136 40.4572 16.5763 40.7512 16.5016C41.0452 16.4223 41.3322 16.3149 41.6122 16.1796V14.3386H40.3382C40.2169 14.3386 40.1212 14.3059 40.0512 14.2406C39.9859 14.1706 39.9532 14.0866 39.9532 13.9886V12.9246H43.3132V17.0196Z" fill="white"/>
</svg>
