<svg width="24" height="24" viewBox="0 0 24 24" fill="none" xmlns="http://www.w3.org/2000/svg">
<path d="M11.4535 7.16406C11.5235 7.16406 11.6035 7.16406 11.6835 7.16406C12.1635 7.17406 12.5635 7.20406 12.8835 7.28406C13.0035 7.31406 13.1035 7.35406 13.1835 7.40406C13.2635 7.45406 13.3235 7.52406 13.3635 7.61406C13.4035 7.70406 13.4335 7.80406 13.4535 7.89406C13.4735 7.99406 13.4835 8.12406 13.4835 8.29406C13.4835 8.46406 13.4835 8.62406 13.4735 8.78406C13.4635 8.93406 13.4635 9.14406 13.4535 9.40406C13.4435 9.66406 13.4435 9.91406 13.4435 10.1341C13.4435 10.2041 13.4435 10.3241 13.4335 10.5041C13.4235 10.6841 13.4235 10.8341 13.4335 10.9341C13.4335 11.0341 13.4435 11.1541 13.4635 11.2941C13.5135 11.6841 13.6735 11.8441 13.8635 11.8441C14.0535 11.8441 14.2735 11.7041 14.4835 11.4941C14.6035 11.3641 14.7635 11.1741 14.9435 10.9041C15.1235 10.6341 15.3235 10.3141 15.5435 9.95406C15.8935 9.34406 16.2135 8.60406 16.4935 7.88406C16.5735 7.68406 16.7635 7.52406 17.1135 7.52406H19.7535C20.1635 7.52406 20.3735 7.57406 20.4635 7.79406C20.5535 8.01406 20.2035 9.11406 19.1835 10.4741C19.0235 10.6641 18.8335 10.9141 18.5935 11.2241C18.1335 11.8141 17.8635 12.2041 17.7935 12.3841C17.5435 12.9741 18.2735 13.4841 18.6335 13.8241C18.9035 14.0741 20.1435 15.4041 20.3735 15.8141C20.4835 15.9941 20.5435 16.2541 20.4935 16.4641C20.4435 16.6441 20.1935 16.8141 19.7535 16.8141C19.5535 16.8141 19.3435 16.8141 19.1135 16.8141C18.3635 16.8141 17.5135 16.8041 17.1135 16.8041C16.5635 16.8041 16.0735 16.3041 15.7235 15.9341C15.4835 15.6841 15.2835 15.4541 15.1135 15.2441C14.9435 15.0441 14.7635 14.8641 14.5735 14.7341C14.4335 14.6341 14.3135 14.5941 14.2035 14.5941C13.9835 14.5941 13.8035 14.7641 13.6635 15.0241C13.6035 15.1241 13.5535 15.2841 13.5135 15.4841C13.4735 15.6841 13.4535 15.9141 13.4535 16.1741C13.4535 16.2641 13.4435 16.3441 13.4235 16.4141C13.3535 16.6741 13.1135 16.7941 12.8535 16.8141H11.7335C10.8835 16.8141 10.1135 16.6241 9.36347 16.1941C9.03347 16.0041 8.72347 15.8041 8.45347 15.6041C8.18347 15.4041 7.97347 15.2341 7.82347 15.0941C7.66347 14.9641 7.51347 14.8041 7.36347 14.6341C7.26347 14.5141 7.05347 14.2441 6.73347 13.8241C6.40347 13.4141 6.09347 12.9641 5.78347 12.4941C5.48347 12.0141 5.11347 11.3941 4.70347 10.6241C4.28347 9.85406 3.90347 8.97406 3.54347 8.14406C3.40347 7.75406 3.66347 7.51406 4.06347 7.51406H6.49347C6.73347 7.51406 7.00347 7.70406 7.09347 7.95406C7.48347 8.92406 7.95347 9.95406 8.50347 10.8441C8.66347 11.1041 8.80347 11.3041 8.93347 11.4541C9.05347 11.6041 9.18347 11.7141 9.30347 11.8041C9.43347 11.8941 9.53347 11.9341 9.63347 11.9341C9.92347 11.9341 10.0635 11.5741 10.1135 11.2341C10.2435 10.4241 10.2835 9.56406 10.1135 8.76406C10.0035 8.22406 9.76347 7.94406 9.18347 7.85406C9.10347 7.84406 9.12347 7.77406 9.22347 7.64406C9.32347 7.53406 9.43347 7.44406 9.56347 7.37406C9.85347 7.23406 10.4835 7.16406 11.4535 7.16406ZM11.4535 5.66406C10.1935 5.66406 9.43347 5.77406 8.90347 6.03406C8.58347 6.19406 8.33347 6.39406 8.11347 6.64406L8.09347 6.66406L8.06347 6.69406C8.06347 6.70406 8.05347 6.70406 8.05347 6.71406C7.65347 6.28406 7.08347 6.01406 6.49347 6.01406H4.06347C3.34347 6.01406 2.71347 6.32406 2.33347 6.86406C1.97347 7.38406 1.90347 8.04406 2.14347 8.66406L2.15347 8.69406L2.16347 8.72406C2.53347 9.58406 2.93347 10.4941 3.38347 11.3341C3.82347 12.1541 4.20347 12.8041 4.53347 13.3141C4.86347 13.8141 5.19347 14.2941 5.53347 14.7441C5.98347 15.3341 6.14347 15.5341 6.23347 15.6341C6.42347 15.8541 6.62347 16.0441 6.79347 16.2041C6.97347 16.3841 7.23347 16.6041 7.58347 16.8441C7.89347 17.0741 8.24347 17.2941 8.62347 17.5141C9.58347 18.0641 10.5935 18.3341 11.7335 18.3341H12.8435H12.9035L12.9635 18.3241C13.7835 18.2541 14.4435 17.8041 14.7435 17.1241C15.1935 17.5941 15.9835 18.3241 17.0935 18.3241C17.2635 18.3241 17.5035 18.3241 17.7835 18.3241C18.1835 18.3241 18.6535 18.3341 19.0935 18.3341C19.3235 18.3341 19.5535 18.3341 19.7535 18.3341C20.8235 18.3341 21.6835 17.7541 21.9235 16.8641C22.0835 16.2841 21.9735 15.6141 21.6535 15.0741C21.2235 14.3241 19.6735 12.7641 19.6535 12.7541C19.5935 12.6941 19.5235 12.6341 19.4435 12.5641C19.5235 12.4541 19.6235 12.3241 19.7535 12.1541C20.0035 11.8241 20.2035 11.5741 20.3435 11.3741C20.9535 10.5641 22.3235 8.53406 21.8235 7.25406C21.5035 6.43406 20.7935 6.02406 19.7135 6.02406H17.0735C16.1535 6.02406 15.3835 6.52406 15.0635 7.33406C15.0135 7.47406 14.9635 7.59406 14.9135 7.72406C14.9035 7.68406 14.9035 7.63406 14.8935 7.59406C14.8535 7.39406 14.7835 7.19406 14.7035 7.00406C14.5435 6.64406 14.2835 6.34406 13.9535 6.13406C13.7435 5.99406 13.4935 5.89406 13.2235 5.82406C12.7935 5.72406 12.3035 5.67406 11.7035 5.66406H11.4535Z" fill="#0B1F33"/>
</svg>
