<svg width="24" height="24" viewBox="0 0 24 24" fill="none" xmlns="http://www.w3.org/2000/svg">
<path fill-rule="evenodd" clip-rule="evenodd" d="M4.14332 9.5978L9.5 5.87084L9.5 18.0662L4.12176 14.1819C3.73129 13.8999 3.5 13.4475 3.5 12.9659L3.5 10.8291C3.5 10.3381 3.74029 9.87822 4.14332 9.5978ZM3.28663 8.36651L9.42887 4.09298C10.0919 3.63167 11 4.10612 11 4.91384V8.12587C12.7252 8.56991 14 10.136 14 11.9999C14 13.8637 12.7252 15.4298 11 15.8738V19.0441C11 19.8599 10.0758 20.3324 9.4145 19.8548L3.24352 15.3979C2.46259 14.8339 2 13.9292 2 12.9659V10.8291C2 9.84714 2.48057 8.92733 3.28663 8.36651ZM11 14.2918C11.883 13.9061 12.5 13.025 12.5 11.9999C12.5 10.9747 11.883 10.0937 11 9.70787L11 14.2918ZM19.7044 8.19415C19.1801 6.99502 18.4137 5.91715 17.4533 5.02814L18.4722 3.92734C19.5843 4.95673 20.4717 6.20479 21.0788 7.59326C21.6858 8.98172 21.9995 10.4806 22 11.996C22.0005 13.5114 21.6879 15.0105 21.0819 16.3994C20.4758 17.7883 19.5892 19.037 18.4779 20.0672L17.4582 18.9671C18.418 18.0774 19.1836 16.999 19.7071 15.7995C20.2305 14.6 20.5005 13.3053 20.5 11.9965C20.4995 10.6878 20.2287 9.39329 19.7044 8.19415ZM16.0264 14.2327C15.7213 14.9195 15.2786 15.5366 14.7257 16.0457L15.7418 17.1491C16.4455 16.5011 17.0089 15.7158 17.3972 14.8416C17.7856 13.9674 17.9906 13.0229 17.9997 12.0664C18.0088 11.1098 17.8217 10.1616 17.4501 9.28017C17.0784 8.39875 16.53 7.60285 15.8388 6.94161L14.8019 8.02552C15.345 8.54506 15.7759 9.17041 16.0679 9.86296C16.3599 10.5555 16.5069 11.3006 16.4998 12.0521C16.4926 12.8037 16.3315 13.5458 16.0264 14.2327Z" fill="#0B1F33"/>
</svg>
