<svg width="16" height="16" viewBox="0 0 16 16" fill="none" xmlns="http://www.w3.org/2000/svg">
<path fill-rule="evenodd" clip-rule="evenodd" d="M3.64278 12.097L3.75114 11.501L3.41523 10.9969C2.83455 10.1254 2.49609 9.08003 2.49609 7.95102C2.49609 4.91246 4.95933 2.44922 7.9979 2.44922C11.0365 2.44922 13.4997 4.91246 13.4997 7.95102C13.4997 10.9896 11.0365 13.4528 7.9979 13.4528C7.26527 13.4528 6.56962 13.3104 5.93437 13.0532L5.46512 12.8632L4.97669 12.9964L3.40112 13.4261L3.64278 12.097ZM0.996094 7.95102C0.996094 9.38511 1.42723 10.7185 2.16697 11.8287L1.64147 14.7189C1.57567 15.0808 1.91006 15.3875 2.26497 15.2907L5.37137 14.4435C6.18244 14.772 7.06904 14.9528 7.9979 14.9528C11.8649 14.9528 14.9997 11.818 14.9997 7.95102C14.9997 4.08403 11.8649 0.949219 7.9979 0.949219C4.13091 0.949219 0.996094 4.08403 0.996094 7.95102ZM6.87252 6.1744C6.75489 5.47776 6.26084 4.47559 6.13145 4.45115C5.03363 4.24377 4.26159 5.3606 4.49637 6.44085C4.74339 7.57746 5.32037 8.66518 6.43787 9.72847C7.55537 10.7917 8.79156 11.4279 9.73261 11.4279C10.6737 11.4279 11.6755 10.8218 11.4137 9.6608C11.2372 9.51415 10.3315 8.90962 9.99034 8.84851C9.69292 8.79523 9.5028 9.05782 9.34202 9.27989C9.31839 9.31252 9.2954 9.34429 9.27279 9.37404C9.09634 9.60625 8.95518 9.72847 8.80226 9.72847C8.64934 9.72847 8.03766 9.48403 7.32011 8.77518C6.60255 8.06632 6.21622 7.53088 6.35553 7.2597C6.3848 7.20271 6.4407 7.13094 6.50547 7.04777C6.6834 6.8193 6.92832 6.50482 6.87252 6.1744Z" fill="#0B1F33"/>
</svg>
