<svg width="24" height="24" viewBox="0 0 24 24" fill="none" xmlns="http://www.w3.org/2000/svg">
<path fill-rule="evenodd" clip-rule="evenodd" d="M9.5 5.87084L4.14332 9.5978C3.74029 9.87822 3.5 10.3381 3.5 10.8291L3.5 12.9659C3.5 13.4475 3.73129 13.8999 4.12176 14.1819L9.5 18.0662L9.5 5.87084ZM9.42887 4.09298L3.28663 8.36651C2.48057 8.92733 2 9.84714 2 10.8291V12.9659C2 13.9292 2.46259 14.8339 3.24352 15.3979L9.4145 19.8548C10.0758 20.3324 11 19.8599 11 19.0441V15.8738C12.7252 15.4298 14 13.8637 14 11.9999C14 10.136 12.7252 8.56991 11 8.12587V4.91384C11 4.10612 10.0919 3.63167 9.42887 4.09298ZM12.5 11.9999C12.5 13.025 11.883 13.9061 11 14.2918L11 9.70787C11.883 10.0937 12.5 10.9747 12.5 11.9999ZM16.0264 14.2327C15.7213 14.9195 15.2786 15.5366 14.7257 16.0457L15.7418 17.1491C16.4455 16.5011 17.0089 15.7158 17.3972 14.8416C17.7856 13.9674 17.9906 13.0229 17.9997 12.0664C18.0088 11.1098 17.8217 10.1616 17.4501 9.28017C17.0784 8.39875 16.53 7.60285 15.8388 6.94161L14.8019 8.02552C15.345 8.54506 15.7759 9.17041 16.0679 9.86296C16.3599 10.5555 16.5069 11.3006 16.4998 12.0521C16.4926 12.8037 16.3315 13.5458 16.0264 14.2327Z" fill="#0B1F33"/>
</svg>
