<svg width="48" height="24" viewBox="0 0 48 24" fill="none" xmlns="http://www.w3.org/2000/svg">
<path d="M6.98555 24C3.89359 24 1.97073 20.6418 3.53589 17.9752L11.1809 4.9504C12.6173 2.50318 15.2426 1 18.0802 1H43.9996C46.2087 1 47.9996 2.79086 47.9996 5V20C47.9996 22.2091 46.2087 24 43.9996 24H6.98555Z" fill="#0B40B3"/>
<path d="M31.1569 7.87891V9.42591H28.1049V18.0009H26.2219V9.42591H23.1699V7.87891H31.1569Z" fill="white"/>
<path d="M34.6517 18.0009H32.7617V7.87891H34.6517V18.0009Z" fill="white"/>
<path d="M43.5813 7.87891V9.37691H39.0873V12.3729H42.8813V13.8779H39.0873V18.0009H37.1973V7.87891H43.5813Z" fill="white"/>
</svg>
