<svg width="24" height="24" viewBox="0 0 24 24" fill="none" xmlns="http://www.w3.org/2000/svg">
<path fill-rule="evenodd" clip-rule="evenodd" d="M11.6598 2.33177C11.911 2.20372 12.2129 2.22745 12.4411 2.39319L18.8046 7.01551C19.0026 7.15932 19.1179 7.39066 19.1137 7.63532C19.1095 7.87997 18.9861 8.10718 18.7833 8.24404L13.2048 12.0079L18.7833 15.7718C18.9863 15.9088 19.1097 16.1363 19.1137 16.3812C19.1178 16.6261 19.002 16.8575 18.8036 17.0011L12.4401 21.6075C12.2118 21.7728 11.9102 21.7961 11.6592 21.668C11.4083 21.5398 11.2503 21.2818 11.2503 21V13.3266L5.7833 17.0153L4.94434 15.7718L10.5229 12.0079L4.94434 8.24404L5.7833 7.0006L11.2503 10.6892V3C11.2503 2.71799 11.4085 2.45981 11.6598 2.33177ZM12.7503 13.5108L17.0549 16.4152L12.7503 19.5312V13.5108ZM12.7503 10.5051V4.47176L17.0565 7.59966L12.7503 10.5051Z" fill="#0B1F33"/>
</svg>
