<svg width="24" height="25" viewBox="0 0 24 25" fill="none" xmlns="http://www.w3.org/2000/svg">
<path fill-rule="evenodd" clip-rule="evenodd" d="M12.2195 2.02941L14.4393 4.24927H11.992H11.9688V4.24932C7.01256 4.26616 3 8.28912 3 13.2493C3 18.2198 7.02944 22.2493 12 22.2493C16.9706 22.2493 21 18.2198 21 13.2493C21 10.8547 20.0648 8.67851 18.5398 7.06607L17.4786 8.12722C18.7324 9.46779 19.5 11.2689 19.5 13.2493C19.5 17.3914 16.1421 20.7493 12 20.7493C7.85786 20.7493 4.5 17.3914 4.5 13.2493C4.5 9.11155 7.8507 5.75643 11.9867 5.74928V5.74927H14.4345L12.2195 7.96426L13.2802 9.02492L16.7779 5.52718C17.0708 5.23429 17.0708 4.75941 16.7779 4.46652L13.2801 0.96875L12.2195 2.02941ZM9.98897 10.1011H14.0875V11.3991H10.9993L10.8888 12.4281C11.2627 12.1983 11.752 12.0991 12.1605 12.0991C12.9004 12.0991 13.4839 12.3191 13.8826 12.7166C14.2812 13.114 14.4835 13.6773 14.4835 14.3411C14.4835 15.6858 13.4731 16.7271 11.9715 16.7271C11.1741 16.7271 10.5938 16.5009 10.2121 16.1419C9.83037 15.7829 9.65747 15.3007 9.65747 14.8091C9.65747 14.7788 9.65989 14.7223 9.6633 14.6688C9.66656 14.6177 9.67134 14.5588 9.67741 14.5285L9.69438 14.4436L11.0805 14.5171L11.0621 14.6275C11.0538 14.6772 11.0455 14.7616 11.0455 14.8181C11.0455 15.0296 11.1342 15.2008 11.2911 15.3216C11.4504 15.4443 11.6858 15.5191 11.9805 15.5191C12.3147 15.5191 12.5911 15.4137 12.7837 15.22C12.9762 15.0266 13.0955 14.7345 13.0955 14.3411C13.0955 13.985 12.9815 13.7061 12.7908 13.5165C12.6 13.3267 12.3233 13.2171 11.9805 13.2171C11.5694 13.2171 11.1364 13.4109 10.83 13.7429L10.7892 13.787L9.72328 13.5076L9.98897 10.1011Z" fill="#0B1F33"/>
</svg>
