<svg width="48" height="24" viewBox="0 0 48 24" fill="none" xmlns="http://www.w3.org/2000/svg">
<path d="M6.98555 24C3.89358 24 1.97073 20.6418 3.53589 17.9752L11.1809 4.9504C12.6173 2.50318 15.2426 1 18.0802 1H43.9996C46.2087 1 47.9996 2.79086 47.9996 5V20C47.9996 22.2091 46.2087 24 43.9996 24H6.98555Z" fill="#12826E"/>
<path d="M25.1688 12.9175C25.1688 13.6595 25.0428 14.3478 24.7908 14.9825C24.5434 15.6171 24.1911 16.1655 23.7338 16.6275C23.2811 17.0895 22.7351 17.4535 22.0958 17.7195C21.4564 17.9808 20.7471 18.1115 19.9678 18.1115C19.1884 18.1115 18.4791 17.9808 17.8398 17.7195C17.2004 17.4535 16.6521 17.0895 16.1948 16.6275C15.7374 16.1655 15.3828 15.6171 15.1308 14.9825C14.8834 14.3478 14.7598 13.6595 14.7598 12.9175C14.7598 12.1755 14.8834 11.4895 15.1308 10.8595C15.3828 10.2248 15.7374 9.67647 16.1948 9.21447C16.6521 8.75247 17.2004 8.3908 17.8398 8.12947C18.4791 7.86347 19.1884 7.73047 19.9678 7.73047C20.7471 7.73047 21.4564 7.86347 22.0958 8.12947C22.7351 8.3908 23.2811 8.7548 23.7338 9.22147C24.1911 9.68347 24.5434 10.2318 24.7908 10.8665C25.0428 11.4965 25.1688 12.1801 25.1688 12.9175ZM23.0198 12.9175C23.0198 12.3855 22.9498 11.9095 22.8098 11.4895C22.6698 11.0648 22.4668 10.7055 22.2008 10.4115C21.9394 10.1128 21.6198 9.88647 21.2418 9.73247C20.8684 9.5738 20.4438 9.49447 19.9678 9.49447C19.4918 9.49447 19.0648 9.5738 18.6868 9.73247C18.3088 9.88647 17.9868 10.1128 17.7208 10.4115C17.4594 10.7055 17.2588 11.0648 17.1188 11.4895C16.9788 11.9095 16.9088 12.3855 16.9088 12.9175C16.9088 13.4541 16.9788 13.9348 17.1188 14.3595C17.2588 14.7795 17.4594 15.1365 17.7208 15.4305C17.9868 15.7245 18.3088 15.9508 18.6868 16.1095C19.0648 16.2635 19.4918 16.3405 19.9678 16.3405C20.4438 16.3405 20.8684 16.2635 21.2418 16.1095C21.6198 15.9508 21.9394 15.7245 22.2008 15.4305C22.4668 15.1365 22.6698 14.7795 22.8098 14.3595C22.9498 13.9348 23.0198 13.4541 23.0198 12.9175Z" fill="white"/>
<path d="M35.8094 12.9175C35.8094 13.6595 35.6834 14.3431 35.4314 14.9685C35.1841 15.5891 34.8318 16.1235 34.3744 16.5715C33.9218 17.0195 33.3758 17.3695 32.7364 17.6215C32.0971 17.8735 31.3878 17.9995 30.6084 17.9995H26.7024V7.84247H30.6084C31.3878 7.84247 32.0971 7.96847 32.7364 8.22047C33.3758 8.47247 33.9218 8.8248 34.3744 9.27747C34.8318 9.72547 35.1841 10.2598 35.4314 10.8805C35.6834 11.5011 35.8094 12.1801 35.8094 12.9175ZM33.6534 12.9175C33.6534 12.3855 33.5834 11.9071 33.4434 11.4825C33.3034 11.0578 33.1028 10.6985 32.8414 10.4045C32.5801 10.1105 32.2604 9.88414 31.8824 9.72547C31.5091 9.5668 31.0844 9.48747 30.6084 9.48747H28.8164V16.3545H30.6084C31.0844 16.3545 31.5091 16.2775 31.8824 16.1235C32.2604 15.9648 32.5801 15.7385 32.8414 15.4445C33.1028 15.1458 33.3034 14.7841 33.4434 14.3595C33.5834 13.9348 33.6534 13.4541 33.6534 12.9175Z" fill="white"/>
<path d="M42.8548 9.78847C42.7895 9.8958 42.7218 9.97514 42.6518 10.0265C42.5865 10.0731 42.5001 10.0965 42.3928 10.0965C42.2901 10.0965 42.1781 10.0615 42.0568 9.99147C41.9401 9.9168 41.8025 9.83747 41.6438 9.75347C41.4851 9.66947 41.3031 9.59247 41.0978 9.52247C40.8925 9.4478 40.6521 9.41047 40.3768 9.41047C39.8915 9.41047 39.5275 9.52014 39.2848 9.73947C39.0421 9.95414 38.9208 10.2365 38.9208 10.5865C38.9208 10.8105 38.9861 10.9971 39.1168 11.1465C39.2521 11.2911 39.4271 11.4171 39.6418 11.5245C39.8611 11.6318 40.1085 11.7275 40.3838 11.8115C40.6591 11.8955 40.9415 11.9888 41.2308 12.0915C41.5201 12.1895 41.8025 12.3061 42.0778 12.4415C42.3531 12.5768 42.5981 12.7471 42.8128 12.9525C43.0321 13.1578 43.2071 13.4098 43.3378 13.7085C43.4731 14.0025 43.5408 14.3618 43.5408 14.7865C43.5408 15.2485 43.4591 15.6825 43.2958 16.0885C43.1371 16.4898 42.9061 16.8421 42.6028 17.1455C42.2995 17.4441 41.9238 17.6798 41.4758 17.8525C41.0325 18.0251 40.5285 18.1115 39.9638 18.1115C39.6418 18.1115 39.3198 18.0788 38.9978 18.0135C38.6805 17.9481 38.3725 17.8571 38.0738 17.7405C37.7798 17.6238 37.5021 17.4838 37.2408 17.3205C36.9795 17.1571 36.7508 16.9751 36.5548 16.7745L37.1708 15.7805C37.2221 15.7058 37.2898 15.6451 37.3738 15.5985C37.4578 15.5471 37.5465 15.5215 37.6398 15.5215C37.7658 15.5215 37.8988 15.5681 38.0388 15.6615C38.1788 15.7548 38.3398 15.8575 38.5218 15.9695C38.7038 16.0815 38.9138 16.1841 39.1518 16.2775C39.3945 16.3708 39.6838 16.4175 40.0198 16.4175C40.5098 16.4175 40.8878 16.3055 41.1538 16.0815C41.4245 15.8575 41.5598 15.5238 41.5598 15.0805C41.5598 14.8238 41.4921 14.6161 41.3568 14.4575C41.2261 14.2988 41.0535 14.1658 40.8388 14.0585C40.6241 13.9511 40.3791 13.8601 40.1038 13.7855C39.8285 13.7061 39.5461 13.6198 39.2568 13.5265C38.9675 13.4331 38.6851 13.3211 38.4098 13.1905C38.1345 13.0598 37.8895 12.8871 37.6748 12.6725C37.4601 12.4578 37.2851 12.1918 37.1498 11.8745C37.0191 11.5571 36.9538 11.1628 36.9538 10.6915C36.9538 10.3135 37.0285 9.94714 37.1778 9.59247C37.3271 9.2378 37.5465 8.9228 37.8358 8.64747C38.1251 8.37214 38.4798 8.15047 38.8998 7.98247C39.3245 7.81447 39.8098 7.73047 40.3558 7.73047C40.9671 7.73047 41.5318 7.82614 42.0498 8.01747C42.5725 8.20414 43.0135 8.46547 43.3728 8.80147L42.8548 9.78847Z" fill="white"/>
</svg>
