<svg width="48" height="24" viewBox="0 0 48 24" fill="none" xmlns="http://www.w3.org/2000/svg">
<path d="M6.98555 24C3.89359 24 1.97073 20.6418 3.53589 17.9752L11.1809 4.9504C12.6173 2.50318 15.2426 1 18.0802 1H43.9996C46.2087 1 47.9996 2.79086 47.9996 5V20C47.9996 22.2091 46.2087 24 43.9996 24H6.98555Z" fill="#0D4CD3"/>
<path d="M26.0153 7.87891V9.42591H22.9633V18.0009H21.0803V9.42591H18.0283V7.87891H26.0153Z" fill="white"/>
<path d="M29.5944 12.7929L26.3674 7.87891H28.2434C28.374 7.87891 28.4674 7.89758 28.5234 7.93491C28.584 7.96758 28.64 8.02358 28.6914 8.10291L30.9874 11.8129C31.0107 11.7569 31.0364 11.7009 31.0644 11.6449C31.0924 11.5842 31.125 11.5236 31.1624 11.4629L33.2764 8.13791C33.3277 8.04924 33.3837 7.98391 33.4444 7.94191C33.505 7.89991 33.582 7.87891 33.6754 7.87891H35.4744L32.2194 12.7159L35.5654 18.0009H33.6894C33.5587 18.0009 33.4537 17.9682 33.3744 17.9029C33.2997 17.8376 33.239 17.7629 33.1924 17.6789L30.8474 13.8009C30.8147 13.9036 30.7704 14.0016 30.7144 14.0949L28.4674 17.6789C28.4114 17.7582 28.346 17.8329 28.2714 17.9029C28.2014 17.9682 28.108 18.0009 27.9914 18.0009H26.2344L29.5944 12.7929Z" fill="white"/>
<path d="M43.8024 7.87891V9.42591H40.7504V18.0009H38.8674V9.42591H35.8154V7.87891H43.8024Z" fill="white"/>
</svg>
