<svg width="16" height="16" viewBox="0 0 16 16" fill="none" xmlns="http://www.w3.org/2000/svg">
<path fill-rule="evenodd" clip-rule="evenodd" d="M9.09979 4.75C9.09979 5.35739 8.6074 5.84979 8 5.84979C7.39261 5.84979 6.90022 5.35739 6.90022 4.75C6.90022 4.14261 7.39261 3.65021 8 3.65021C8.6074 3.65021 9.09979 4.14261 9.09979 4.75ZM10.75 4.75C10.75 6.26878 9.51879 7.5 8 7.5C6.48122 7.5 5.25 6.26878 5.25 4.75C5.25 3.23122 6.48122 2 8 2C9.51879 2 10.75 3.23122 10.75 4.75ZM3.87501 14C3.87501 11.7219 5.72198 9.875 8.00047 9.875C10.279 9.875 12.1259 11.7219 12.1259 14H13.5009C13.5009 10.9624 11.0382 8.5 8.00047 8.5C4.9627 8.5 2.5 10.9624 2.5 14H3.87501Z" fill="#0B1F33"/>
</svg>
