<svg width="16" height="16" viewBox="0 0 16 16" fill="none" xmlns="http://www.w3.org/2000/svg">
<path fill-rule="evenodd" clip-rule="evenodd" d="M10.4975 2.75009C10.4974 2.94932 10.4182 3.14035 10.2772 3.28106L8.05697 5.49788L6.99805 4.43548L7.93371 3.50128C5.47899 3.53673 3.5 5.53766 3.5 8.0008C3.5 9.17312 3.94829 10.2407 4.68279 11.0416L3.57705 12.0552C2.59771 10.9874 2 9.56389 2 8.0008C2 4.70782 4.6528 2.03442 7.93791 2.00112L6.99821 1.06176L8.05777 0L10.2776 2.21898C10.4184 2.35978 10.4975 2.55085 10.4975 2.75009ZM11.3172 4.96002L12.423 3.94643C13.4023 5.01422 14 6.43771 14 8.0008C14 11.2939 11.347 13.9674 8.06175 14.0005L8.99984 14.9382L7.94028 16L5.72048 13.781C5.57964 13.6402 5.50052 13.4491 5.50058 13.2499C5.50064 13.0507 5.57987 12.8596 5.7208 12.7189L7.94108 10.5021L9 11.5645L8.06268 12.5004C10.5191 12.4668 12.5 10.4652 12.5 8.0008C12.5 6.82848 12.0517 5.76087 11.3172 4.96002Z" fill="#0B1F33"/>
</svg>
