<svg width="48" height="24" viewBox="0 0 48 24" fill="none" xmlns="http://www.w3.org/2000/svg">
<path d="M6.98555 24C3.89358 24 1.97073 20.6418 3.53589 17.9752L11.1809 4.9504C12.6173 2.50318 15.2426 1 18.0802 1H43.9996C46.2087 1 47.9996 2.79086 47.9996 5V20C47.9996 22.2091 46.2087 24 43.9996 24H6.98555Z" fill="#86909C"/>
<path d="M23.0838 7.87891V18.0009H21.1938V13.5769H16.4408V18.0009H14.5508V7.87891H16.4408V12.2329H21.1938V7.87891H23.0838Z" fill="white"/>
<path d="M31.9879 9.42591H28.9359V18.0009H27.0529V9.42591H24.0009V7.87891H31.9879V9.42591Z" fill="white"/>
<path d="M43.8684 7.87891V18.0009H42.2094V11.4629C42.2094 11.2016 42.2234 10.9192 42.2514 10.6159L39.1924 16.3629C39.0478 16.6382 38.8261 16.7759 38.5274 16.7759H38.2614C37.9628 16.7759 37.7411 16.6382 37.5964 16.3629L34.5024 10.5949C34.5164 10.7489 34.5281 10.9006 34.5374 11.0499C34.5468 11.1992 34.5514 11.3369 34.5514 11.4629V18.0009H32.8924V7.87891H34.3134C34.3974 7.87891 34.4698 7.88124 34.5304 7.88591C34.5911 7.89057 34.6448 7.90224 34.6914 7.92091C34.7428 7.93957 34.7871 7.96991 34.8244 8.01191C34.8664 8.05391 34.9061 8.10991 34.9434 8.17991L37.9744 13.8009C38.0538 13.9502 38.1261 14.1042 38.1914 14.2629C38.2614 14.4216 38.3291 14.5849 38.3944 14.7529C38.4598 14.5802 38.5274 14.4146 38.5974 14.2559C38.6674 14.0926 38.7421 13.9362 38.8214 13.7869L41.8104 8.17991C41.8478 8.10991 41.8874 8.05391 41.9294 8.01191C41.9714 7.96991 42.0158 7.93957 42.0624 7.92091C42.1138 7.90224 42.1698 7.89057 42.2304 7.88591C42.2911 7.88124 42.3634 7.87891 42.4474 7.87891H43.8684Z" fill="white"/>
</svg>
