<svg width="16" height="16" viewBox="0 0 16 16" fill="none" xmlns="http://www.w3.org/2000/svg">
<path fill-rule="evenodd" clip-rule="evenodd" d="M8.00059 3.4415L12.2767 7.45451H11.6046V8.95451V12.2458C11.6046 12.5219 11.3808 12.7458 11.1046 12.7458H10.1835V12.7453V8.98903C10.1835 8.43674 9.73574 7.98903 9.18346 7.98903H6.81842C6.26613 7.98903 5.81842 8.43674 5.81842 8.98903V12.7453V12.7458H4.90256C4.62641 12.7458 4.40256 12.5219 4.40256 12.2458V8.95451V7.45451H3.72283L8.00059 3.4415ZM14.2244 7.22533C14.8853 7.84552 14.4464 8.95451 13.5401 8.95451H13.1046V10.4545V12.2458C13.1046 13.3504 12.2092 14.2458 11.1046 14.2458H4.90256C3.79799 14.2458 2.90256 13.3504 2.90256 12.2458V10.4545V8.95451H2.45904C1.55267 8.95451 1.11383 7.84532 1.77487 7.2252L7.31648 2.02654C7.70126 1.66558 8.30028 1.66564 8.68498 2.02668L14.2244 7.22533ZM7.31842 12.7453V9.48903H8.68346V12.7453H7.31842Z" fill="#0B1F33"/>
</svg>
