<svg width="48" height="24" viewBox="0 0 48 24" fill="none" xmlns="http://www.w3.org/2000/svg">
<path d="M6.98596 24C3.89399 24 1.97114 20.6418 3.5363 17.9752L11.1813 4.9504C12.6177 2.50318 15.243 1 18.0806 1H44C46.2091 1 48 2.79086 48 5V20C48 22.2091 46.2091 24 44 24H6.98596Z" fill="#16A086"/>
<path d="M21.1006 12.967C21.4459 12.967 21.7469 12.925 22.0036 12.841C22.2603 12.7523 22.4726 12.6287 22.6406 12.47C22.8133 12.3067 22.9416 12.1107 23.0256 11.882C23.1096 11.6487 23.1516 11.3897 23.1516 11.105C23.1516 10.8343 23.1096 10.5893 23.0256 10.37C22.9416 10.1507 22.8156 9.964 22.6476 9.81C22.4796 9.656 22.2673 9.53933 22.0106 9.46C21.7539 9.376 21.4506 9.334 21.1006 9.334H19.6936V12.967H21.1006ZM21.1006 7.878C21.7773 7.878 22.3629 7.95733 22.8576 8.116C23.3523 8.27467 23.7606 8.49633 24.0826 8.781C24.4046 9.06567 24.6426 9.40633 24.7966 9.803C24.9553 10.1997 25.0346 10.6337 25.0346 11.105C25.0346 11.595 24.9529 12.0453 24.7896 12.456C24.6263 12.862 24.3813 13.212 24.0546 13.506C23.7279 13.8 23.3173 14.0287 22.8226 14.192C22.3326 14.3553 21.7586 14.437 21.1006 14.437H19.6936V18H17.8106V7.878H21.1006ZM33.4296 15.613C33.5322 15.613 33.6232 15.6527 33.7026 15.732L34.4446 16.537C34.0339 17.0457 33.5276 17.4353 32.9256 17.706C32.3282 17.9767 31.6096 18.112 30.7696 18.112C30.0182 18.112 29.3416 17.9837 28.7396 17.727C28.1422 17.4703 27.6312 17.1133 27.2066 16.656C26.7819 16.1987 26.4552 15.6527 26.2266 15.018C26.0026 14.3833 25.8906 13.6903 25.8906 12.939C25.8906 12.1783 26.0119 11.483 26.2546 10.853C26.4972 10.2183 26.8379 9.67233 27.2766 9.215C27.7199 8.75767 28.2472 8.403 28.8586 8.151C29.4699 7.89433 30.1466 7.766 30.8886 7.766C31.6259 7.766 32.2792 7.88733 32.8486 8.13C33.4226 8.37267 33.9102 8.69 34.3116 9.082L33.6816 9.957C33.6442 10.013 33.5952 10.062 33.5346 10.104C33.4786 10.146 33.3992 10.167 33.2966 10.167C33.2266 10.167 33.1542 10.1483 33.0796 10.111C33.0049 10.069 32.9232 10.02 32.8346 9.964C32.7459 9.90333 32.6432 9.838 32.5266 9.768C32.4099 9.698 32.2746 9.635 32.1206 9.579C31.9666 9.51833 31.7869 9.46933 31.5816 9.432C31.3809 9.39 31.1476 9.369 30.8816 9.369C30.4289 9.369 30.0136 9.45067 29.6356 9.614C29.2622 9.77267 28.9402 10.006 28.6696 10.314C28.3989 10.6173 28.1889 10.9907 28.0396 11.434C27.8902 11.8727 27.8156 12.3743 27.8156 12.939C27.8156 13.5083 27.8949 14.0147 28.0536 14.458C28.2169 14.9013 28.4362 15.2747 28.7116 15.578C28.9869 15.8813 29.3112 16.1147 29.6846 16.278C30.0579 16.4367 30.4592 16.516 30.8886 16.516C31.1452 16.516 31.3762 16.502 31.5816 16.474C31.7916 16.446 31.9829 16.4017 32.1556 16.341C32.3329 16.2803 32.4986 16.2033 32.6526 16.11C32.8112 16.012 32.9676 15.893 33.1216 15.753C33.1682 15.711 33.2172 15.6783 33.2686 15.655C33.3199 15.627 33.3736 15.613 33.4296 15.613ZM43.9594 18H42.0834C41.9528 18 41.8478 17.9673 41.7684 17.902C41.6938 17.8367 41.6331 17.762 41.5864 17.678L39.2414 13.793C39.2041 13.9097 39.1598 14.01 39.1084 14.094L36.8614 17.678C36.8054 17.7573 36.7401 17.832 36.6654 17.902C36.5954 17.9673 36.5021 18 36.3854 18H34.6284L37.9884 12.792L34.7614 7.878H36.6374C36.7681 7.878 36.8614 7.89667 36.9174 7.934C36.9781 7.96667 37.0341 8.02267 37.0854 8.102L39.3884 11.812C39.4351 11.6953 39.4911 11.5787 39.5564 11.462L41.6704 8.137C41.7218 8.04833 41.7778 7.983 41.8384 7.941C41.8991 7.899 41.9761 7.878 42.0694 7.878H43.8684L40.6134 12.715L43.9594 18Z" fill="white"/>
</svg>
