<svg width="16" height="16" viewBox="0 0 16 16" fill="none" xmlns="http://www.w3.org/2000/svg">
<path fill-rule="evenodd" clip-rule="evenodd" d="M8.14129 7.99989L7.11157 9.04992L4.8995 11.3056L6.62978 13.0707L11.6007 7.99967L6.62959 2.9284L4.89946 4.69276L7.11178 6.94964L8.14129 7.99989ZM6.0406 7.99967L3.14205 10.9554C2.95139 11.1498 2.95136 11.461 3.14197 11.6555L6.27272 14.8493C6.46875 15.0493 6.7908 15.0493 6.98684 14.8493L13.3581 8.34968C13.5487 8.15526 13.5487 7.84408 13.3581 7.64966L6.98677 1.14999C6.79076 0.950028 6.46876 0.95 6.27271 1.14993L3.14202 4.34256C2.95138 4.53698 2.95135 4.8482 3.14196 5.04265L6.0406 7.99967Z" fill="#0B1F33"/>
</svg>
