<svg width="16" height="16" viewBox="0 0 16 16" fill="none" xmlns="http://www.w3.org/2000/svg">
<path fill-rule="evenodd" clip-rule="evenodd" d="M7.59445 10.857L10.7657 14.1543C11.0723 14.4731 10.8443 15.0006 10.4 15.0006H5.76845C4.79184 15.0006 4.00014 14.2159 4.00014 13.248L4 12.4983L4.00179 12.4963V6.14939C4.00179 6.08244 4.00158 6.01675 4.00137 5.95223C3.99832 5.00062 3.99608 4.30509 4.68366 3.59977L7.15691 1.14512C7.36048 0.943077 7.69193 0.953335 7.88262 1.16758L11.8715 5.64922C12.0425 5.84133 12.042 6.12945 11.8671 6.31802C11.1776 7.06148 9.41893 8.95102 7.59445 10.857ZM5.64721 12.8776C5.47664 13.0467 5.51583 13.248 5.51583 13.248C5.51583 13.3863 5.62893 13.4984 5.76845 13.4984H8.03584L6.55179 11.951C6.55179 11.951 5.81779 12.7086 5.64721 12.8776Z" fill="#0B1F33"/>
</svg>
