<svg width="16" height="16" viewBox="0 0 16 16" fill="none" xmlns="http://www.w3.org/2000/svg">
<path fill-rule="evenodd" clip-rule="evenodd" d="M13.5 8C13.5 11.0376 11.0376 13.5 8 13.5C4.96243 13.5 2.5 11.0376 2.5 8C2.5 4.96243 4.96243 2.5 8 2.5C11.0376 2.5 13.5 4.96243 13.5 8ZM15 8C15 11.866 11.866 15 8 15C4.13401 15 1 11.866 1 8C1 4.13401 4.13401 1 8 1C11.866 1 15 4.13401 15 8ZM7.53039 10.5294L12.0304 6.02941L10.9697 4.96875L7.00006 8.93842L5.03039 6.96875L3.96973 8.02941L6.46973 10.5294C6.76262 10.8223 7.23749 10.8223 7.53039 10.5294Z" fill="#0B1F33"/>
</svg>
