<svg width="24" height="24" viewBox="0 0 24 24" fill="none" xmlns="http://www.w3.org/2000/svg">
<path d="M12.4598 19.4038C15.3198 19.4038 17.1398 17.8038 17.9598 15.1838L16.5398 14.6638C15.8598 16.7038 14.6398 17.9038 12.4798 17.9038C10.2598 17.9038 8.7198 16.4238 8.1198 14.2438H13.3998L13.9598 13.0038H7.8798C7.8598 12.7238 7.8598 12.4238 7.8598 12.1238C7.8598 11.8238 7.8598 11.5438 7.8998 11.2438H13.3998L13.9598 10.0038H8.1198C8.7598 7.82375 10.3398 6.34375 12.5198 6.34375C14.5198 6.34375 15.9198 7.28375 16.5398 9.28375L17.9998 8.66375C17.2998 6.38375 15.4998 4.84375 12.5598 4.84375C9.55981 4.84375 7.1998 6.94375 6.4398 10.0038H5.3598L4.7998 11.2438H6.2398C6.1998 11.5438 6.1798 11.8238 6.1798 12.1238C6.1798 12.4238 6.1998 12.7238 6.2198 13.0038H5.3598L4.7998 14.2438H6.4398C7.1198 17.3238 9.35981 19.4038 12.4598 19.4038Z" fill="#0B1F33"/>
</svg>
