<svg width="16" height="16" viewBox="0 0 16 16" fill="none" xmlns="http://www.w3.org/2000/svg">
<path fill-rule="evenodd" clip-rule="evenodd" d="M12.5484 3.10581L11.9731 2.49507C11.7894 2.30006 11.4847 2.28448 11.282 2.45975L10.2975 3.31137L11.555 4.66206L12.5133 3.82526C12.7269 3.63877 12.7428 3.31219 12.5484 3.10581ZM3.5 9.19112L9.16225 4.29334L10.4246 5.64918L4.87022 10.4994H3.5V9.19112ZM13.6403 2.0773L13.065 1.46656C12.3302 0.686531 11.1112 0.624225 10.3007 1.32527L2.34579 8.2062C2.1262 8.39615 2 8.67217 2 8.96252V10.9994C2 11.5517 2.44772 11.9994 3 11.9994H5.0578C5.29967 11.9994 5.53335 11.9117 5.71554 11.7526L13.4999 4.95512C14.3542 4.20915 14.4179 2.90284 13.6403 2.0773ZM14 13.4987H2V14.9987H14V13.4987Z" fill="#0B1F33"/>
</svg>
