<svg width="24" height="24" viewBox="0 0 24 24" fill="none" xmlns="http://www.w3.org/2000/svg">
<path fill-rule="evenodd" clip-rule="evenodd" d="M16.6406 2.28961C17.0508 1.76614 18.0034 1.98424 18.0034 2.76198V21.1513C18.0034 21.6208 17.6228 22.0013 17.1534 22.0013H7.87584C5.76479 22.0013 4 20.3517 4 18.2521C4 17.3478 4.32737 16.5269 4.86877 15.8854C10.5234 9.36005 12.5391 7.02417 16.6406 2.28961ZM16.5034 5.53045L10.168 16.8811C10.0829 17.0335 9.87178 17.0539 9.75059 16.9283C9.20395 16.3618 8.59768 16.0028 7.87584 16.0028C6.53419 16.0028 5.5 17.0387 5.5 18.2521C5.5 19.4654 6.53418 20.5013 7.87584 20.5013H16.5034V5.53045Z" fill="#0B1F33"/>
</svg>
