<svg width="24" height="24" viewBox="0 0 24 24" fill="none" xmlns="http://www.w3.org/2000/svg">
<path fill-rule="evenodd" clip-rule="evenodd" d="M7.87061 16.5H8.85971H15.1454H16.1345L16.5241 17.4091L16.9917 18.5H19.0026C19.2787 18.5 19.5026 18.2761 19.5026 18V17.5V10.9643C19.481 10.9677 19.4594 10.9711 19.4376 10.9745C17.7638 11.236 15.279 11.4947 12.0002 11.4947C8.72133 11.4947 6.23806 11.236 4.56583 10.9745C4.54461 10.9712 4.52352 10.9679 4.50256 10.9646V17.5V18C4.50256 18.2761 4.72642 18.5 5.00256 18.5H7.01347L7.48099 17.4091L7.87061 16.5ZM3.38494 9.23524C3.24395 9.20534 3.11872 9.17728 3.00931 9.15174C2.81289 9.10589 2.66741 9.06816 2.57311 9.04254C2.52596 9.02973 2.4916 9.01994 2.47007 9.01368L2.44739 9.00699L2.44362 9.00586C2.44379 9.00591 2.44397 9.00597 2.22202 9.72237C2.00006 10.4388 2.00077 10.439 2.00099 10.4391L2.00222 10.4394L2.00559 10.4405L2.01597 10.4436L2.05124 10.454C2.08121 10.4627 2.12407 10.4749 2.1798 10.4901C2.29126 10.5203 2.45419 10.5625 2.66833 10.6125C2.76854 10.6359 2.87996 10.661 3.00256 10.6874V17.5V18C3.00256 19.1046 3.89799 20 5.00256 20H7.34317C7.7432 20 8.10473 19.7616 8.26231 19.3939L8.85971 18H15.1454L15.7428 19.3939C15.9004 19.7616 16.2619 20 16.662 20H19.0026C20.1071 20 21.0026 19.1046 21.0026 18V17.5V10.6874C21.1253 10.661 21.2368 10.6359 21.3371 10.6125C21.5515 10.5625 21.7147 10.5204 21.8263 10.4901C21.8821 10.475 21.925 10.4628 21.955 10.4541L21.9903 10.4437L22.0007 10.4406L22.0041 10.4396L22.0058 10.439C22.006 10.439 22.0062 10.4389 21.7847 9.72237C21.5631 9.00585 21.5633 9.00579 21.5635 9.00574L21.5597 9.00688L21.5369 9.01358C21.5153 9.01985 21.4809 9.02964 21.4336 9.04246C21.3391 9.06809 21.1934 9.10583 20.9966 9.15169C20.887 9.17724 20.7615 9.20533 20.6202 9.23524L18.8317 5.65836C18.3236 4.64201 17.2848 4 16.1485 4H7.85667C6.72035 4 5.68156 4.64201 5.17338 5.65836L3.38494 9.23524ZM4.92362 9.51198L6.51503 6.32918C6.76911 5.821 7.28851 5.5 7.85667 5.5H16.1485C16.7166 5.5 17.236 5.821 17.4901 6.32918L19.0814 9.51174C17.4831 9.75503 15.1176 9.99467 12.0002 9.99467C8.88367 9.99467 6.52027 9.75518 4.92362 9.51198ZM17.9404 13.0026L14.9383 13.2526L15.0628 14.7474L18.0649 14.4974L17.9404 13.0026ZM9.06282 13.2526L6.06489 13.0026L5.94024 14.4974L8.93816 14.7474L9.06282 13.2526Z" fill="#0B1F33"/>
</svg>
