<svg width="16" height="16" viewBox="0 0 16 16" fill="none" xmlns="http://www.w3.org/2000/svg">
<path fill-rule="evenodd" clip-rule="evenodd" d="M11.4975 3.75009C11.4974 3.94932 11.4182 4.14035 11.2772 4.28106L9.05697 6.49788L7.99805 5.43548L8.9355 4.49949H8V2.99949H8.93629L7.99821 2.06176L9.05777 1L11.2776 3.21898C11.4184 3.35978 11.4975 3.55085 11.4975 3.75009ZM7.99975 2.99949C5.23844 2.99963 3 5.23815 3 7.99949C3 10.7609 5.23858 12.9995 8 12.9995C10.7614 12.9995 13 10.7609 13 7.99949V7.99905H11.5V7.99949C11.5 9.93249 9.933 11.4995 8 11.4995C6.067 11.4995 4.5 9.93249 4.5 7.99949C4.5 6.06658 6.06687 4.49963 7.99975 4.49949V2.99949Z" fill="#0B1F33"/>
</svg>
