<svg width="16" height="16" viewBox="0 0 16 16" fill="none" xmlns="http://www.w3.org/2000/svg">
<path fill-rule="evenodd" clip-rule="evenodd" d="M6.02978 5.9688L8.0001 7.93909L13.9704 1.96875L15.0298 3.03075L8.52977 9.53075C8.23714 9.82338 7.76309 9.82338 7.47045 9.53075L4.97047 7.03081L6.02978 5.9688ZM5 1.99956H10V3.49956H5C4.17157 3.49956 3.5 4.17113 3.5 4.99956V10.9996C3.5 11.828 4.17157 12.4996 5 12.4996H11C11.8284 12.4996 12.5 11.828 12.5 10.9996V7.99956H14V10.9996C14 12.6564 12.6569 13.9996 11 13.9996H5C3.34315 13.9996 2 12.6564 2 10.9996V4.99956C2 3.34271 3.34315 1.99956 5 1.99956Z" fill="#0B1F33"/>
</svg>
