<svg width="24" height="24" viewBox="0 0 24 24" fill="none" xmlns="http://www.w3.org/2000/svg">
<path fill-rule="evenodd" clip-rule="evenodd" d="M13.499 5C13.499 5.82843 12.8274 6.5 11.999 6.5C11.1706 6.5 10.499 5.82843 10.499 5C10.499 4.17157 11.1706 3.5 11.999 3.5C12.8274 3.5 13.499 4.17157 13.499 5ZM14.999 5C14.999 6.65685 13.6559 8 11.999 8C10.3422 8 8.99901 6.65685 8.99901 5C8.99901 3.34315 10.3422 2 11.999 2C13.6559 2 14.999 3.34315 14.999 5ZM12.2406 20.5L11.7714 20.5C11.0663 20.5 10.4563 20.0089 10.3059 19.32L8.5123 11.1067C8.44422 10.7949 8.68167 10.5 9.00079 10.5L14.9995 10.5C15.3184 10.5 15.5558 10.7944 15.4882 11.106L13.7065 19.318C13.5568 20.0079 12.9465 20.5 12.2406 20.5ZM15.1724 19.6361C14.8731 21.0157 13.6524 22 12.2406 22L11.7714 22C10.3611 22 9.1413 21.0178 8.84043 19.64L7.04684 11.4267C6.7745 10.1796 7.7243 9 9.00079 9L14.9995 9C16.2749 9 17.2245 10.1777 16.9541 11.424L15.1724 19.6361Z" fill="#0B1F33"/>
</svg>
