<svg width="24" height="24" viewBox="0 0 24 24" fill="none" xmlns="http://www.w3.org/2000/svg">
<path fill-rule="evenodd" clip-rule="evenodd" d="M15.4846 5.00505C15.4846 5.56298 15.034 6.0101 14.4846 6.0101C13.9351 6.0101 13.4846 5.56298 13.4846 5.00505C13.4846 4.44712 13.9351 4 14.4846 4C15.034 4 15.4846 4.44712 15.4846 5.00505ZM16.9846 5.00505C16.9846 6.38855 15.8653 7.5101 14.4846 7.5101C14.423 7.5101 14.362 7.50787 14.3015 7.50349L13.8425 8.96812C13.9032 9.0606 14.0006 9.1738 14.1499 9.29647C14.3957 9.49843 14.7435 9.69249 15.1749 9.82954C16.033 10.1021 17.1789 10.1354 18.4074 9.60783L18.9993 10.9861C17.4278 11.661 15.9099 11.6369 14.7208 11.2591C14.1844 11.0888 13.7058 10.8435 13.3162 10.5489L12.6535 12.5148C14.3639 13.2889 15.4186 14.4125 15.7966 15.9324C16.1969 17.5418 15.7895 19.4301 14.9785 21.499L13.582 20.9515C14.366 18.9513 14.6241 17.433 14.341 16.2944C14.0764 15.2307 13.294 14.339 11.5457 13.6791C11.136 13.5245 10.8855 13.0638 11.0381 12.611L12.3292 8.78117L12.9043 6.94624C12.3429 6.48687 11.9846 5.7879 11.9846 5.00505C11.9846 3.62155 13.1038 2.5 14.4846 2.5C15.8653 2.5 16.9846 3.62155 16.9846 5.00505ZM10.2542 14.8222C9.88107 15.8411 9.38596 16.5445 8.74291 16.8716C8.13172 17.1824 7.1891 17.2497 5.67594 16.5384L5.03783 17.8959C6.78883 18.719 8.24855 18.8058 9.42289 18.2086C10.5654 17.6276 11.239 16.4952 11.6627 15.3379L10.2542 14.8222ZM7.89404 7.63392C8.97879 7.40596 10.1117 7.57491 11.2106 7.92777L10.7519 9.35594C9.78902 9.04672 8.93785 8.94733 8.20254 9.10186C7.49107 9.25138 6.81856 9.65264 6.21499 10.4863L5 9.60664C5.80194 8.49899 6.78544 7.8669 7.89404 7.63392Z" fill="#0B1F33"/>
</svg>
