<svg width="16" height="16" viewBox="0 0 16 16" fill="none" xmlns="http://www.w3.org/2000/svg">
<path fill-rule="evenodd" clip-rule="evenodd" d="M6.5 7.10197V8.89678L9.5 10.6468V5.35197L6.5 7.10197ZM9.5 2.45771L4.49613 5.37663C4.18891 5.55584 4 5.88474 4 6.24041V9.75834C4 10.114 4.18891 10.4429 4.49613 10.6221L9.5 13.541L9.57336 13.5838L10.5077 14.1289L11.2481 14.5607C11.5814 14.7552 12 14.5148 12 14.1289V13.2717V12.19V12.1051V3.89363V3.80871V2.72704V1.86989C12 1.484 11.5814 1.24356 11.2481 1.438L10.5077 1.86989L9.57336 2.41492L9.5 2.45771Z" fill="#0B1F33"/>
</svg>
