<svg width="16" height="16" viewBox="0 0 16 16" fill="none" xmlns="http://www.w3.org/2000/svg">
<path fill-rule="evenodd" clip-rule="evenodd" d="M2.5 4.5C3.32843 4.5 4 3.82843 4 3C4 2.17157 3.32843 1.5 2.5 1.5C1.67157 1.5 1 2.17157 1 3C1 3.82843 1.67157 4.5 2.5 4.5ZM6 2.25H15V3.75H6V2.25ZM15 7.25H6V8.75H15V7.25ZM15 12.25H6V13.75H15V12.25ZM4 8C4 8.82843 3.32843 9.5 2.5 9.5C1.67157 9.5 1 8.82843 1 8C1 7.17157 1.67157 6.5 2.5 6.5C3.32843 6.5 4 7.17157 4 8ZM2.5 14.5C3.32843 14.5 4 13.8284 4 13C4 12.1716 3.32843 11.5 2.5 11.5C1.67157 11.5 1 12.1716 1 13C1 13.8284 1.67157 14.5 2.5 14.5Z" fill="#0B1F33"/>
</svg>
