<svg width="24" height="24" viewBox="0 0 24 24" fill="none" xmlns="http://www.w3.org/2000/svg">
<path fill-rule="evenodd" clip-rule="evenodd" d="M21.4202 7.77819C21.5839 7.1703 21.5029 6.83721 21.4015 6.65722C21.329 6.52864 21.183 6.36799 20.8858 6.2293C20.77 6.17536 20.631 6.12464 20.4642 6.08019C20.4218 6.06892 20.3775 6.05807 20.3314 6.04771C19.6375 5.89179 18.665 5.8845 17.4525 6.0935L17.4366 6.09622C15.3595 6.4569 12.7943 7.41433 10.1851 8.95819C7.36669 10.6258 5.15221 12.5898 3.83233 14.3603C3.17042 15.2481 2.77945 16.0258 2.61359 16.6417C2.53521 16.9327 2.51294 17.1608 2.52214 17.3392C2.53215 17.5334 2.57948 17.6688 2.63233 17.7627C2.73373 17.9426 2.97469 18.1811 3.57023 18.3398C4.17359 18.5005 5.02625 18.5423 6.1075 18.3988C6.92156 18.2908 7.8227 18.0833 8.78082 17.7772C8.66004 17.6649 8.54654 17.5272 8.45148 17.3584C7.96399 16.4931 8.36153 15.6467 8.52752 15.345C8.74752 14.9451 9.06807 14.5737 9.39103 14.2537C10.0538 13.5969 10.9937 12.8961 12.0511 12.2705C13.1085 11.6448 14.1706 11.161 15.057 10.9012C15.4889 10.7746 15.963 10.6758 16.411 10.6805C16.7489 10.684 17.6629 10.7544 18.1504 11.6197C18.2455 11.7884 18.3052 11.958 18.3396 12.1213C19.0773 11.4241 19.7032 10.728 20.2015 10.0596C20.8634 9.17173 21.2544 8.39405 21.4202 7.77819ZM9.44882 7.65131C10.7165 6.90123 11.9858 6.27604 13.2114 5.78173C13.0066 5.74703 12.8049 5.7145 12.6027 5.68549C11.1421 5.4759 9.8852 5.48872 8.64405 6.22308C7.40291 6.95745 6.76364 8.06655 6.21044 9.4677C6.13386 9.66165 6.06047 9.85699 5.98739 10.0561C7.01798 9.21543 8.18101 8.40146 9.44882 7.65131ZM13.9922 4.37921C15.1331 4.58023 16.2149 4.77083 17.2061 4.60339C19.867 4.14209 21.9306 4.5409 22.6926 5.89333C24.1109 8.41097 20.4811 13.28 14.5851 16.7685C13.8481 17.2046 13.1105 17.5985 12.3813 17.949C11.5454 18.3507 10.7205 18.6955 9.91995 18.9814C5.83207 20.4416 2.37907 20.3687 1.34126 18.5265C0.580657 17.1764 1.27177 15.1502 2.98557 13.0232C3.62795 12.2259 4.00941 11.166 4.41181 10.0478C5.08295 8.18287 5.81236 6.15605 7.90781 4.9162C10.0033 3.67636 12.0807 4.0424 13.9922 4.37921ZM16.0329 13.7609C16.0696 13.7261 16.1054 13.6915 16.1402 13.6573C16.6957 13.1095 16.9989 12.6309 16.8595 12.3835C16.7155 12.1279 16.1749 12.1398 15.4204 12.3655C15.3712 12.3802 15.321 12.3959 15.27 12.4124C14.5627 12.6417 13.69 13.0432 12.7873 13.5773C11.8846 14.1114 11.109 14.6852 10.5616 15.1983C10.5221 15.2353 10.4838 15.272 10.4468 15.3083C9.87877 15.8651 9.59845 16.339 9.74243 16.5946C9.88182 16.842 10.4378 16.8122 11.1785 16.593C11.2248 16.5793 11.2719 16.5648 11.3196 16.5497C12.0615 16.3137 12.9643 15.9039 13.8146 15.4008C14.6649 14.8977 15.4626 14.3014 16.0329 13.7609ZM15.4883 12.1385C15.4884 12.1385 15.4874 12.1405 15.4851 12.1445C15.4871 12.1405 15.4883 12.1385 15.4883 12.1385ZM10.2276 15.2552C10.2233 15.255 10.221 15.2551 10.221 15.2552C10.2209 15.2552 10.2214 15.2552 10.2224 15.2552C10.2235 15.2553 10.2252 15.2553 10.2276 15.2552ZM11.1168 16.8035L11.1197 16.7983C11.1057 16.8302 11.1 16.8341 11.1168 16.8035ZM16.3488 13.7078C16.3831 13.7081 16.377 13.7113 16.343 13.7078L16.3488 13.7078Z" fill="#0B1F33"/>
</svg>
