<svg width="24" height="24" viewBox="0 0 24 24" fill="none" xmlns="http://www.w3.org/2000/svg">
<path fill-rule="evenodd" clip-rule="evenodd" d="M7.5 9.54935V14.4378L16.4998 19.4483L16.4988 4.54959L7.5 9.54935ZM16.4987 2.83369L6.23145 8.53818C6.0886 8.61755 6 8.76813 6 8.93155V15.055C6 15.2183 6.08845 15.3688 6.23111 15.4482L16.4999 21.1652L16.5021 21.1664L16.625 21.2348L17.3311 21.6279C17.631 21.7949 18 21.578 17.9999 21.2347L17.9999 20.4265L17.9999 20.2859V20.2835L17.9988 3.71622V3.71388L17.9988 3.57513L17.9987 2.76507C17.9987 2.42196 17.6301 2.2051 17.3302 2.37174L16.622 2.76516L16.5008 2.83255L16.4987 2.83369Z" fill="#0B1F33"/>
</svg>
