<svg width="24" height="24" viewBox="0 0 24 24" fill="none" xmlns="http://www.w3.org/2000/svg">
<path fill-rule="evenodd" clip-rule="evenodd" d="M12.2699 1.01172C11.2696 1.01172 10.5928 1.29266 10.0118 1.53386L9.9398 1.5637C9.36988 1.79956 8.85097 2.00167 8.00001 2.00167V3.50167C9.14906 3.50167 9.88729 3.20881 10.5134 2.9497L10.551 2.93413C10.8954 2.79151 11.1906 2.6693 11.5199 2.59356V4.322C11.0276 4.17829 10.52 4.07031 10 4.00098L5.75002 12.501L5.72916 12.5427L5.40452 13.192L5.18092 13.6392C5.0978 13.8054 5.21868 14.001 5.40452 14.001H5.90452H6.63044H6.67707H11.5012V16.001H3.58115H3.5719H3.09687H2.34687C2.17623 16.001 2.05574 16.1682 2.1097 16.33L2.34687 17.0415L2.49709 17.4922L2.50001 17.501L3.54417 20.6334C3.81639 21.4501 4.58067 22.001 5.44153 22.001H15.3241C16.9959 22.001 18.557 21.1655 19.4843 19.7745L21 17.501L21.0603 17.4105L21.5329 16.7017L21.7409 16.3897C21.8517 16.2235 21.7326 16.001 21.5329 16.001H21.1579H20.3059H20.1972H13.0012V14.001H17.4793H19L18.75 12.501L18.7439 12.4644C18.1817 9.0912 15.9954 6.29744 13.0199 4.89132V1.76172V1.01172H12.2699ZM4.96719 20.1591L4.08115 17.501H19.1972L18.2363 18.9424C17.5871 19.9161 16.4943 20.501 15.3241 20.501H5.44153C5.22632 20.501 5.03525 20.3633 4.96719 20.1591ZM10.8332 5.68875L7.42707 12.501H17.2267C16.587 9.16361 14.0762 6.52535 10.8332 5.68875Z" fill="#0B1F33"/>
</svg>
