<svg width="16" height="16" viewBox="0 0 16 16" fill="none" xmlns="http://www.w3.org/2000/svg">
<path fill-rule="evenodd" clip-rule="evenodd" d="M15.001 8.00323C15.001 7.57398 14.9575 7.14473 14.8705 6.75841L13.4944 7.72884C13.4988 7.81868 13.501 7.90908 13.501 8C13.501 11.0376 11.0385 13.5 8.00098 13.5C4.96341 13.5 2.50098 11.0376 2.50098 8C2.50098 4.96243 4.96341 2.5 8.00098 2.5C9.15379 2.5 10.2238 2.85467 11.1077 3.46085L12.3488 2.55178C11.1749 1.60743 9.78358 1.09233 8.30532 1.00648H7.95749C7.04445 0.963557 6.13141 1.13526 5.30532 1.47866C4.56619 1.82205 3.87054 2.2513 3.26184 2.7664L3.00098 3.02395C2.39228 3.6249 1.91402 4.35462 1.56619 5.12727C1.21837 5.89991 1.04445 6.75841 1.00098 7.61691V7.96031C1.00098 8.86173 1.17489 9.80607 1.52272 10.6646C1.82706 11.3943 2.26185 12.0811 2.82706 12.682L3.08793 12.9396C3.69663 13.5405 4.39228 14.0556 5.17489 14.399C5.9575 14.7424 6.82706 14.9571 7.65315 15H8.00097C8.91402 15 9.82706 14.8283 10.6966 14.4849C11.4358 14.1844 12.1314 13.7552 12.6966 13.1971L12.8271 13.0684C12.8437 13.052 12.8603 13.0418 12.8745 13.0332C12.8974 13.0192 12.914 13.009 12.914 12.9825C13.5227 12.3816 14.0444 11.6518 14.3923 10.8792C14.7836 9.93485 15.001 8.94758 15.001 8.00323ZM14.348 5.12614C14.1306 4.61104 13.8697 4.13887 13.5219 3.70962L7.95666 7.78748L5.30449 6.11341V8.13088L7.95666 9.84787L14.348 5.12614Z" fill="#0B1F33"/>
</svg>
