<svg width="24" height="24" viewBox="0 0 24 24" fill="none" xmlns="http://www.w3.org/2000/svg">
<path fill-rule="evenodd" clip-rule="evenodd" d="M18.2508 7.01198H19C20.1046 7.01198 21 7.90741 21 9.01198V11.0244V12.5244V15.543V17.043V18.0554C21 19.7122 19.6569 21.0554 18 21.0554H6C4.34315 21.0554 3 19.7122 3 18.0554V9.01198C3 7.90741 3.89543 7.01198 5 7.01198H7.8743L14.3586 3.25664C15.0755 2.84146 15.9917 3.08694 16.4049 3.80494L18.2508 7.01198ZM16.5201 7.01198L15.1069 4.55668L10.8673 7.01198H16.5201ZM19 8.51198H5C4.72386 8.51198 4.5 8.73584 4.5 9.01198V18.0554C4.5 18.8838 5.17157 19.5554 6 19.5554H18C18.8284 19.5554 19.5 18.8838 19.5 18.0554V17.043H14C12.8954 17.043 12 16.1475 12 15.043V13.0244C12 11.9198 12.8954 11.0244 14 11.0244H19.5V9.01198C19.5 8.73583 19.2761 8.51198 19 8.51198ZM19.5 12.5244V15.543H14C13.7239 15.543 13.5 15.3191 13.5 15.043V13.0244C13.5 12.7482 13.7239 12.5244 14 12.5244H19.5Z" fill="#0B1F33"/>
</svg>
