<svg width="24" height="24" viewBox="0 0 24 24" fill="none" xmlns="http://www.w3.org/2000/svg">
<path fill-rule="evenodd" clip-rule="evenodd" d="M16.1583 12.3296L16.1585 12.3293L16.16 12.3264L16.1695 12.3069C16.1785 12.2885 16.1925 12.2597 16.2109 12.2212C16.2476 12.1443 16.3014 12.0296 16.3666 11.8846C16.4975 11.5936 16.6719 11.1865 16.8455 10.7234C16.8744 10.6462 16.9029 10.5687 16.9307 10.491H7.06652C7.09451 10.5695 7.12311 10.6479 7.15221 10.7259C7.3249 11.1891 7.4984 11.5963 7.62863 11.8874C7.6935 12.0323 7.74704 12.1471 7.78354 12.2241C7.80178 12.2625 7.81573 12.2914 7.82466 12.3098L7.8342 12.3293L7.83565 12.3322L7.83581 12.3325L7.83593 12.3328L7.83597 12.3329L7.83607 12.3331L7.84958 12.3602L7.86233 12.3888L9.47356 16H14.5255L16.1295 12.3908L16.1433 12.3597L16.1581 12.3302L16.1582 12.33L16.1582 12.3299L16.1583 12.3296ZM6.62628 8.99097H17.3736C17.4532 8.62479 17.4998 8.28627 17.4998 8C17.4998 6.62566 17.0185 5.55134 16.1844 4.80597C15.335 4.04698 13.9723 3.5 11.9961 3.5C10.0199 3.5 8.65995 4.04692 7.81311 4.80507C6.98131 5.54976 6.50098 6.62405 6.50098 8C6.50098 8.28648 6.54724 8.62498 6.62628 8.99097ZM10.0599 17.9535C10.043 17.8013 10.0197 17.65 9.99026 17.5H14.0101C13.9809 17.649 13.9578 17.7993 13.941 17.9506L13.7566 19.6104C13.7003 20.1169 13.2722 20.5 12.7627 20.5H11.2379C10.7283 20.5 10.3003 20.1169 10.244 19.6104L10.0599 17.9535ZM17.5002 13L15.7521 16.9334C15.5852 17.3089 15.4772 17.7078 15.4318 18.1162L15.2474 19.7761C15.1067 21.0422 14.0366 22 12.7627 22H11.2379C9.96402 22 8.89386 21.0422 8.75318 19.7761L8.56909 18.1192C8.52349 17.7089 8.41466 17.3081 8.24644 16.9311L6.49249 13C6.49249 13 5.00098 10 5.00098 8C5.00098 4.5 7.50024 2 11.9961 2C16.4919 2 18.9998 4.5 18.9998 8C18.9998 10 17.5002 13 17.5002 13Z" fill="#0B1F33"/>
</svg>
