<svg width="48" height="24" viewBox="0 0 48 24" fill="none" xmlns="http://www.w3.org/2000/svg">
<path d="M6.98555 24C3.89359 24 1.97073 20.6418 3.53589 17.9752L11.1809 4.9504C12.6173 2.50318 15.2426 1 18.0802 1H43.9996C46.2087 1 47.9996 2.79086 47.9996 5V20C47.9996 22.2091 46.2087 24 43.9996 24H6.98555Z" fill="#16A086"/>
<path d="M16.9767 14.4379V18.0009H15.0938V7.87891H18.3837C19.0604 7.87891 19.6461 7.95824 20.1407 8.11691C20.6354 8.27558 21.0437 8.49724 21.3657 8.78191C21.6877 9.06658 21.9258 9.40724 22.0798 9.80391C22.2385 10.2006 22.3177 10.6346 22.3177 11.1059C22.3177 11.5959 22.2362 12.0462 22.0728 12.4569C21.9095 12.8629 21.6644 13.2129 21.3377 13.5069C21.0111 13.8009 20.6004 14.0296 20.1057 14.1929C19.6157 14.3562 19.0417 14.4379 18.3837 14.4379H16.9767ZM16.9767 12.9679H18.3837C18.7291 12.9679 19.0301 12.9259 19.2867 12.8419C19.5434 12.7532 19.7557 12.6296 19.9237 12.4709C20.0964 12.3076 20.2248 12.1116 20.3088 11.8829C20.3928 11.6496 20.4347 11.3906 20.4347 11.1059C20.4347 10.8352 20.3928 10.5902 20.3088 10.3709C20.2248 10.1516 20.0988 9.96491 19.9307 9.81091C19.7627 9.65691 19.5504 9.54024 19.2937 9.46091C19.0371 9.37691 18.7337 9.33491 18.3837 9.33491H16.9767V12.9679Z" fill="white"/>
<path d="M24.9587 7.87891C25.038 7.87891 25.1057 7.88358 25.1617 7.89291C25.2224 7.89758 25.2737 7.91158 25.3157 7.93491C25.3624 7.95358 25.4067 7.98391 25.4487 8.02591C25.4907 8.06324 25.5374 8.11458 25.5887 8.17991L30.8947 14.9559C30.8807 14.7926 30.869 14.6316 30.8597 14.4729C30.8504 14.3142 30.8457 14.1672 30.8457 14.0319V7.87891H32.5047V18.0009H31.5387C31.3894 18.0009 31.2634 17.9776 31.1607 17.9309C31.0627 17.8796 30.967 17.7956 30.8737 17.6789L25.5887 10.9379C25.6027 11.0872 25.612 11.2366 25.6167 11.3859C25.626 11.5306 25.6307 11.6636 25.6307 11.7849V18.0009H23.9717V7.87891H24.9587Z" fill="white"/>
<path d="M43.3132 17.0196C42.7999 17.3976 42.2515 17.6753 41.6682 17.8526C41.0895 18.0253 40.4689 18.1116 39.8062 18.1116C38.9802 18.1116 38.2312 17.9833 37.5592 17.7266C36.8919 17.4699 36.3202 17.1129 35.8442 16.6556C35.3729 16.1983 35.0089 15.6523 34.7522 15.0176C34.4955 14.3829 34.3672 13.6899 34.3672 12.9386C34.3672 12.1779 34.4909 11.4803 34.7382 10.8456C34.9855 10.2109 35.3355 9.66495 35.7882 9.20762C36.2455 8.75029 36.7985 8.39562 37.4472 8.14362C38.0959 7.89162 38.8239 7.76562 39.6312 7.76562C40.0419 7.76562 40.4245 7.7983 40.7792 7.86363C41.1385 7.92896 41.4699 8.01995 41.7732 8.13662C42.0812 8.24862 42.3612 8.38629 42.6132 8.54962C42.8652 8.71295 43.0962 8.89263 43.3062 9.08863L42.7672 9.94263C42.6832 10.0779 42.5735 10.1619 42.4382 10.1946C42.3029 10.2226 42.1559 10.1876 41.9972 10.0896C41.8432 10.0009 41.6892 9.9123 41.5352 9.82363C41.3812 9.73496 41.2085 9.65796 41.0172 9.59263C40.8305 9.5273 40.6182 9.47362 40.3802 9.43162C40.1469 9.38962 39.8762 9.36863 39.5682 9.36863C39.0689 9.36863 38.6162 9.45263 38.2102 9.62063C37.8089 9.78863 37.4659 10.0289 37.1812 10.3416C36.8965 10.6543 36.6772 11.0299 36.5232 11.4686C36.3692 11.9073 36.2922 12.3973 36.2922 12.9386C36.2922 13.5173 36.3739 14.0353 36.5372 14.4926C36.7052 14.9453 36.9385 15.3303 37.2372 15.6476C37.5405 15.9603 37.9045 16.2006 38.3292 16.3686C38.7539 16.5319 39.2275 16.6136 39.7502 16.6136C40.1235 16.6136 40.4572 16.5763 40.7512 16.5016C41.0452 16.4223 41.3322 16.3149 41.6122 16.1796V14.3386H40.3382C40.2169 14.3386 40.1212 14.3059 40.0512 14.2406C39.9859 14.1706 39.9532 14.0866 39.9532 13.9886V12.9246H43.3132V17.0196Z" fill="white"/>
</svg>
