<svg width="24" height="24" viewBox="0 0 24 24" fill="none" xmlns="http://www.w3.org/2000/svg">
<path fill-rule="evenodd" clip-rule="evenodd" d="M4 8.5H17.5C17.7761 8.5 18 8.72386 18 9V15C18 15.2761 17.7761 15.5 17.5 15.5H4C3.72386 15.5 3.5 15.2761 3.5 15V9C3.5 8.72386 3.72386 8.5 4 8.5ZM2 9C2 7.89543 2.89543 7 4 7H17.5C18.6046 7 19.5 7.89543 19.5 9V15C19.5 16.1046 18.6046 17 17.5 17H4C2.89543 17 2 16.1046 2 15V9ZM21.9807 14V10H20.4807V14H21.9807Z" fill="#0B1F33"/>
<path fill-rule="evenodd" clip-rule="evenodd" d="M9.62272 13.1618L8.57639 12.7286L7.6593 12.349L7.53307 12.2967C7.1994 12.1586 7.29817 11.6618 7.6593 11.6618L7.79592 11.6618L8.49946 11.6618L8.78849 11.6618L9.92094 11.6618L9.99946 11.6618L9.99946 11.515L9.99946 11.4913L9.99946 10.8713L9.99946 10.2659C9.99946 10.0878 10.1803 9.96685 10.3449 10.0348L10.9045 10.2659L11.4775 10.5025L11.4995 10.5115L12.3667 10.8697L13.4178 11.3037L14.3356 11.6826L14.4616 11.7346C14.7955 11.8725 14.6969 12.3697 14.3356 12.3697L14.1993 12.3697L13.4838 12.3697L13.2064 12.3697L12.0692 12.3697L11.9838 12.3697L11.9838 12.5158L11.9838 12.5398L11.9838 13.1613L11.9838 13.7652C11.9838 13.9434 11.8028 14.0643 11.6382 13.9962L11.0803 13.7652L10.506 13.5275L10.4838 13.5183L9.62272 13.1618Z" fill="#0B1F33"/>
</svg>
