<svg width="24" height="24" viewBox="0 0 24 24" fill="none" xmlns="http://www.w3.org/2000/svg">
<path fill-rule="evenodd" clip-rule="evenodd" d="M2.58753 9.75607L12.0002 5.5477L21.413 9.75607L12.0002 13.9644L2.58753 9.75607ZM12.4084 4.08709L23.5566 9.07138C24.1484 9.33599 24.1484 10.1761 23.5566 10.4407L18.9957 12.4799V15.8727C18.9957 16.6187 18.6635 17.3259 18.0893 17.8022C14.5593 20.7303 9.44477 20.7303 5.91475 17.8022C5.34056 17.3259 5.00832 16.6187 5.00832 15.8727V12.4815L3.23239 11.6875V15.4913H1.73239V11.0168L0.443883 10.4407C-0.14796 10.1761 -0.147961 9.33599 0.443881 9.07138L11.5921 4.08709C11.8518 3.97097 12.1487 3.97097 12.4084 4.08709ZM6.50832 13.1521V15.8727C6.50832 16.1723 6.64177 16.4564 6.8724 16.6477C9.84708 19.1151 14.157 19.1151 17.1317 16.6477C17.3623 16.4564 17.4957 16.1723 17.4957 15.8727V13.1505L12.4084 15.425C12.1487 15.5412 11.8518 15.5412 11.5921 15.425L6.50832 13.1521Z" fill="#0B1F33"/>
</svg>
