<svg width="24" height="24" viewBox="0 0 24 24" fill="none" xmlns="http://www.w3.org/2000/svg">
<path fill-rule="evenodd" clip-rule="evenodd" d="M17.9943 17.9344C21.3048 14.6573 21.3048 9.3441 17.9943 6.067L19.0603 5.01172C22.9595 8.87163 22.9595 15.1298 19.0603 18.9897L17.9943 17.9344ZM15.0933 15.063C16.8016 13.3719 16.8016 10.6301 15.0933 8.93902L16.1593 7.88374C18.4564 10.1577 18.4564 13.8444 16.1593 16.1183L15.0933 15.063ZM8.90703 15.0628C7.19873 13.3717 7.19873 10.6299 8.90703 8.9388L7.84101 7.88352C5.54397 10.1574 5.54397 13.8442 7.84102 16.1181L8.90703 15.0628ZM6.00603 6.06739C2.69559 9.34449 2.69559 14.6577 6.00603 17.9348L4.94002 18.9901C1.04083 15.1302 1.04083 8.87203 4.94002 5.01211L6.00603 6.06739ZM12.0002 14.0008C13.1048 14.0008 14.0002 13.1053 14.0002 12.0008C14.0002 10.8962 13.1048 10.0008 12.0002 10.0008C10.8956 10.0008 10.0002 10.8962 10.0002 12.0008C10.0002 13.1053 10.8956 14.0008 12.0002 14.0008Z" fill="#0B1F33"/>
</svg>
