<svg width="24" height="24" viewBox="0 0 24 24" fill="none" xmlns="http://www.w3.org/2000/svg">
<path fill-rule="evenodd" clip-rule="evenodd" d="M10.4817 11.5042C10.4817 7.04371 14.043 3.48242 18.5035 3.48242L18.5213 1.98242C13.2255 1.98242 8.98164 6.22613 8.98169 11.522L10.4817 11.5042ZM13.8706 11.5014C13.8706 10.113 14.3634 8.96413 15.1634 8.16403C15.9635 7.36393 17.1124 6.87114 18.5008 6.87115L18.5186 5.37115C16.7633 5.37114 15.2176 6.0011 14.1091 7.10967C13.0005 8.21824 12.3706 9.76393 12.3706 11.5192L13.8706 11.5014ZM18.25 11.8169C18.6999 11.562 19.0056 11.0798 19.0088 10.5286C19.0136 9.71559 18.3584 9.06038 17.5454 9.06519C16.7323 9.07 16.0693 9.73301 16.0645 10.5461C16.0614 11.0729 16.3354 11.5335 16.75 11.7912V14.0007H4C2.89543 14.0007 2 14.8962 2 16.0007V20.0007C2 21.1053 2.89543 22.0007 4 22.0007H20C21.1046 22.0007 22 21.1053 22 20.0007V16.0007C22 14.8962 21.1046 14.0007 20 14.0007H18.25V11.8169ZM20 15.5007H4C3.72386 15.5007 3.5 15.7246 3.5 16.0007V20.0007C3.5 20.2769 3.72386 20.5007 4 20.5007H20C20.2761 20.5007 20.5 20.2769 20.5 20.0007V16.0007C20.5 15.7246 20.2761 15.5007 20 15.5007ZM11 17.2507L18 17.2507V18.7507H11V17.2507ZM7.5 19.5007C8.32843 19.5007 9 18.8292 9 18.0007C9 17.1723 8.32843 16.5007 7.5 16.5007C6.67157 16.5007 6 17.1723 6 18.0007C6 18.8292 6.67157 19.5007 7.5 19.5007Z" fill="#0B1F33"/>
</svg>
