<svg width="24" height="24" viewBox="0 0 24 24" fill="none" xmlns="http://www.w3.org/2000/svg">
<path d="M13.7893 19.6062C14.295 20.1313 15.115 20.1313 15.6207 19.6062C16.1264 19.0811 16.1264 18.2297 15.6207 17.7046L9.21072 11.0492C8.70499 10.5241 7.88503 10.5241 7.3793 11.0492C6.87357 11.5743 6.87357 12.4257 7.3793 12.9508L13.7893 19.6062Z" fill="currentcolor"/>
<path d="M15.6205 6.29537C16.1262 5.77027 16.1262 4.91892 15.6205 4.39382C15.1148 3.86873 14.2948 3.86873 13.7891 4.39382L7.3793 11.0492C6.87357 11.5743 6.87357 12.4257 7.3793 12.9508C7.88503 13.4759 8.70479 13.4759 9.21053 12.9508L15.6205 6.29537Z" fill="currentcolor"/>
</svg>
